<?xml version="1.0" encoding="utf-8"?>
<!-- Generator: Adobe Illustrator 15.1.0, SVG Export Plug-In . SVG Version: 6.00 Build 0)  -->
<!DOCTYPE svg PUBLIC "-//W3C//DTD SVG 1.1//EN" "http://www.w3.org/Graphics/SVG/1.1/DTD/svg11.dtd">
<svg version="1.1" id="Layer_1" xmlns="http://www.w3.org/2000/svg" xmlns:xlink="http://www.w3.org/1999/xlink" x="0px" y="0px"
	 width="38.203px" height="32.697px" viewBox="0 0 38.203 32.697" enable-background="new 0 0 38.203 32.697" xml:space="preserve">
<g enable-background="new    ">
	<path fill="#326F90" d="M13.045,21.694c0.56,0.294,1.457,0.588,2.367,0.588c0.98,0,1.499-0.406,1.499-1.022
		c0-0.588-0.448-0.924-1.583-1.316c-1.569-0.561-2.605-1.429-2.605-2.802c0-1.61,1.359-2.829,3.572-2.829
		c1.079,0,1.849,0.21,2.41,0.477l-0.477,1.708c-0.364-0.182-1.05-0.447-1.961-0.447c-0.924,0-1.373,0.434-1.373,0.91
		c0,0.603,0.518,0.868,1.751,1.33c1.667,0.617,2.437,1.485,2.437,2.816c0,1.582-1.205,2.927-3.796,2.927
		c-1.079,0-2.143-0.294-2.675-0.588L13.045,21.694z"/>
	<path fill="#326F90" d="M23.672,14.452v9.441h-2.129v-9.441H23.672z"/>
</g>
<g opacity="0.4">
	<path fill="#326F90" d="M20.711,0.059c4.514,0.346,8.447,2.17,11.797,5.458c3.592,3.524,5.674,7.758,5.693,12.688
		c0.015,3.721-0.537,5.83-1.529,8.157c-0.994,2.326-2.343,4.373-4.044,6.142l-5.427-5.356c2.238-2.287,3.347-4.992,3.326-8.11
		c-0.021-3.165-1.162-5.854-3.426-8.068c-1.998-1.949-4.336-3.046-7.015-3.264"/>
	<path fill="#326F90" d="M20.088,7.705c-0.357-0.028-0.725-0.042-1.097-0.039c-3.166,0.021-5.855,1.164-8.069,3.405
		C8.708,13.309,7.6,16.012,7.62,19.178c0.02,3.167,1.163,5.855,3.426,8.091l-5.359,5.428c-1.745-1.749-3.118-3.778-4.14-6.094
		C0.525,24.289,0.017,21.831,0,19.204c-0.032-5.252,1.815-9.767,5.52-13.517C9.225,1.936,13.715,0.036,18.969,0
		c0.59-0.004,1.17,0.018,1.743,0.06"/>
</g>
</svg>
