<?xml version="1.0" encoding="utf-8"?>
<!-- Generator: Adobe Illustrator 15.1.0, SVG Export Plug-In . SVG Version: 6.00 Build 0)  -->
<!DOCTYPE svg PUBLIC "-//W3C//DTD SVG 1.1//EN" "http://www.w3.org/Graphics/SVG/1.1/DTD/svg11.dtd">
<svg version="1.1" id="Layer_1" xmlns="http://www.w3.org/2000/svg" xmlns:xlink="http://www.w3.org/1999/xlink" x="0px" y="0px"
	 width="38.203px" height="32.697px" viewBox="0 0 38.203 32.697" enable-background="new 0 0 38.203 32.697" xml:space="preserve">
<g enable-background="new    ">
	<path fill="#326F90" d="M18.437,19.664h-3.474v2.241h3.88v1.751h-6.009v-9.441h5.813v1.751h-3.684v1.961h3.474V19.664z"/>
	<path fill="#326F90" d="M20.31,14.215h5.758v1.751h-3.629v2.157h3.391v1.737h-3.391v3.796H20.31V14.215z"/>
</g>
<g>
	<path fill="#326F90" d="M20.712,0.059c4.514,0.346,8.447,2.17,11.797,5.458c3.591,3.524,5.674,7.758,5.693,12.688
		c0.014,3.721-0.537,5.83-1.529,8.157c-0.994,2.326-2.344,4.373-4.045,6.142l-5.426-5.356c2.237-2.287,3.346-4.992,3.325-8.11
		c-0.021-3.165-1.161-5.854-3.426-8.068c-1.997-1.949-4.335-3.046-7.015-3.264"/>
	<path fill="#326F90" d="M20.089,7.705c-0.358-0.028-0.727-0.042-1.097-0.039c-3.166,0.021-5.855,1.164-8.069,3.405
		c-2.214,2.238-3.322,4.941-3.302,8.107c0.02,3.167,1.163,5.855,3.426,8.091l-5.359,5.428c-1.745-1.749-3.118-3.778-4.14-6.094
		C0.525,24.289,0.017,21.831,0,19.204c-0.032-5.252,1.815-9.767,5.52-13.517C9.225,1.936,13.715,0.036,18.969,0
		c0.59-0.004,1.171,0.018,1.744,0.06"/>
</g>
</svg>
