<?xml version="1.0" encoding="utf-8"?>
<!-- Generator: Adobe Illustrator 15.1.0, SVG Export Plug-In . SVG Version: 6.00 Build 0)  -->
<!DOCTYPE svg PUBLIC "-//W3C//DTD SVG 1.1//EN" "http://www.w3.org/Graphics/SVG/1.1/DTD/svg11.dtd">
<svg version="1.1" id="Layer_1" xmlns="http://www.w3.org/2000/svg" xmlns:xlink="http://www.w3.org/1999/xlink" x="0px" y="0px"
	 width="38.203px" height="32.697px" viewBox="0 0 38.203 32.697" enable-background="new 0 0 38.203 32.697" xml:space="preserve">
<g enable-background="new    ">
	<path fill="#326F90" d="M11.633,14.341c0.561-0.098,1.681-0.195,2.76-0.195c1.303,0,2.101,0.126,2.801,0.532
		c0.659,0.35,1.121,0.994,1.121,1.862c0,0.827-0.49,1.598-1.555,2.004v0.027c1.079,0.28,1.877,1.106,1.877,2.312
		c0,0.868-0.392,1.541-0.98,2.017c-0.687,0.547-1.835,0.854-3.712,0.854c-1.051,0-1.835-0.069-2.312-0.14V14.341z M13.749,17.955
		h0.701c1.134,0,1.723-0.462,1.723-1.162c0-0.715-0.546-1.093-1.513-1.093c-0.477,0-0.743,0.027-0.911,0.056V17.955z M13.749,22.143
		c0.21,0.028,0.462,0.028,0.827,0.028c0.966,0,1.821-0.379,1.821-1.373c0-0.938-0.854-1.316-1.919-1.316h-0.729V22.143z"/>
	<path fill="#326F90" d="M27.009,23.404c-0.379,0.182-1.275,0.406-2.409,0.406c-3.264,0-4.944-2.045-4.944-4.734
		c0-3.222,2.297-5.001,5.154-5.001c1.106,0,1.947,0.21,2.325,0.42l-0.448,1.681c-0.42-0.182-1.022-0.35-1.793-0.35
		c-1.681,0-2.998,1.022-2.998,3.123c0,1.892,1.121,3.082,3.012,3.082c0.658,0,1.359-0.126,1.793-0.308L27.009,23.404z"/>
</g>
<g>
	<path fill="#326F90" d="M20.712,0.059c4.514,0.346,8.447,2.17,11.797,5.458c3.591,3.524,5.674,7.758,5.693,12.688
		c0.014,3.721-0.537,5.83-1.529,8.157c-0.994,2.326-2.344,4.373-4.045,6.142l-5.426-5.356c2.237-2.287,3.346-4.992,3.325-8.11
		c-0.021-3.165-1.161-5.854-3.426-8.068c-1.997-1.949-4.335-3.046-7.015-3.264"/>
	<path fill="#326F90" d="M20.089,7.705c-0.358-0.028-0.727-0.042-1.097-0.039c-3.166,0.021-5.855,1.164-8.069,3.405
		c-2.214,2.238-3.322,4.941-3.302,8.107c0.02,3.167,1.163,5.855,3.426,8.091l-5.359,5.428c-1.745-1.749-3.118-3.778-4.14-6.094
		C0.525,24.289,0.017,21.831,0,19.204c-0.032-5.252,1.815-9.767,5.52-13.517C9.225,1.936,13.715,0.036,18.969,0
		c0.59-0.004,1.171,0.018,1.744,0.06"/>
</g>
</svg>
