<?xml version="1.0" encoding="utf-8"?>
<!-- Generator: Adobe Illustrator 15.1.0, SVG Export Plug-In . SVG Version: 6.00 Build 0)  -->
<!DOCTYPE svg PUBLIC "-//W3C//DTD SVG 1.1//EN" "http://www.w3.org/Graphics/SVG/1.1/DTD/svg11.dtd">
<svg version="1.1" id="Layer_1" xmlns="http://www.w3.org/2000/svg" xmlns:xlink="http://www.w3.org/1999/xlink" x="0px" y="0px"
	 width="38.203px" height="32.697px" viewBox="0 0 38.203 32.697" enable-background="new 0 0 38.203 32.697" xml:space="preserve">
<g enable-background="new    ">
	<path fill="#326F90" d="M16.157,23.404c-0.295,0.183-0.994,0.406-1.879,0.406c-2.545,0-3.856-2.046-3.856-4.735
		c0-3.221,1.792-5,4.021-5c0.863,0,1.519,0.21,1.813,0.42l-0.35,1.681c-0.328-0.182-0.797-0.35-1.398-0.35
		c-1.311,0-2.338,1.022-2.338,3.124c0,1.891,0.874,3.081,2.349,3.081c0.513,0,1.06-0.126,1.398-0.308L16.157,23.404z"/>
	<path fill="#326F90" d="M17.312,21.457c0.437,0.294,1.136,0.589,1.846,0.589c0.765,0,1.169-0.406,1.169-1.023
		c0-0.588-0.35-0.924-1.234-1.316c-1.224-0.561-2.032-1.429-2.032-2.801c0-1.611,1.06-2.83,2.786-2.83
		c0.841,0,1.442,0.21,1.879,0.476l-0.372,1.709c-0.283-0.182-0.818-0.448-1.529-0.448c-0.721,0-1.07,0.434-1.07,0.911
		c0,0.603,0.404,0.868,1.365,1.331c1.301,0.615,1.901,1.484,1.901,2.814c0,1.584-0.939,2.928-2.96,2.928
		c-0.841,0-1.672-0.294-2.087-0.588L17.312,21.457z"/>
	<path fill="#326F90" d="M24.585,16.008h-1.988v-1.793h5.658v1.793h-2.01v7.648h-1.66V16.008z"/>
</g>
<g opacity="0.4">
	<path fill="#326F90" d="M20.712,0.059c4.514,0.346,8.447,2.17,11.797,5.458c3.591,3.524,5.674,7.758,5.693,12.688
		c0.014,3.721-0.537,5.83-1.529,8.157c-0.994,2.326-2.344,4.373-4.045,6.142l-5.426-5.356c2.237-2.287,3.346-4.992,3.325-8.11
		c-0.021-3.165-1.161-5.854-3.426-8.068c-1.997-1.949-4.335-3.046-7.015-3.264"/>
	<path fill="#326F90" d="M20.089,7.705c-0.358-0.028-0.727-0.042-1.097-0.039c-3.166,0.021-5.855,1.164-8.069,3.405
		c-2.214,2.238-3.322,4.941-3.302,8.107c0.02,3.167,1.163,5.855,3.426,8.091l-5.359,5.428c-1.745-1.749-3.118-3.778-4.14-6.094
		C0.525,24.289,0.017,21.831,0,19.204c-0.032-5.252,1.815-9.767,5.52-13.517C9.225,1.936,13.715,0.036,18.969,0
		c0.59-0.004,1.171,0.018,1.744,0.06"/>
</g>
</svg>
