<?xml version="1.0" encoding="utf-8"?>
<!-- Generator: Adobe Illustrator 15.1.0, SVG Export Plug-In . SVG Version: 6.00 Build 0)  -->
<!DOCTYPE svg PUBLIC "-//W3C//DTD SVG 1.1//EN" "http://www.w3.org/Graphics/SVG/1.1/DTD/svg11.dtd">
<svg version="1.1" id="Layer_1" xmlns="http://www.w3.org/2000/svg" xmlns:xlink="http://www.w3.org/1999/xlink" x="0px" y="0px"
	 width="128.758px" height="79.087px" viewBox="0 0 128.758 79.087" enable-background="new 0 0 128.758 79.087"
	 xml:space="preserve">
<polyline fill="#FFFFFF" points="74.339,0.001 0,0.001 0,73.938 98.119,73.938 98.119,0.001 74.339,0.001 "/>
<path fill="#FFFFFF" d="M113.082,0c5.96,2.751,10.837,7.644,13.52,13.944c5.83,13.696-0.568,29.583-14.264,35.413
	c-3.371,1.436-6.926,2.164-10.564,2.164h-0.001c-10.847,0-20.601-6.447-24.849-16.428c-2.826-6.632-2.897-13.97-0.202-20.659
	c2.694-6.688,7.112-11.607,13.747-14.432 M101.751,7.928c-2.229,0-4.41,0.448-6.484,1.332c-4.076,1.734-7.233,4.953-8.89,9.063
	c-1.655,4.108-1.611,8.616,0.124,12.689c2.611,6.134,8.605,10.095,15.271,10.095l0,0c2.229,0,4.411-0.447,6.486-1.329
	c8.413-3.583,12.344-13.344,8.762-21.758C114.412,11.891,108.417,7.928,101.751,7.928z"/>
<path fill="#FFFFFF" d="M107.833,79.087c-7.388,0-9.312-0.422-9.942-0.561l-0.589-0.129c-4.177-0.902-8.907-2.059-12.202-4.344
	c-1.485-1.029-2.389-2.67-2.477-4.498c-0.115-2.34-0.307-6.256,23.459-26.439l5.73-4.867l2.539,7.076
	c0.029,0.08,0.714,1.994,1.244,3.869c0.594,2.1,1.617,7.213,1.234,11.537c-0.321,3.639-1.84,13.512-1.904,13.932l-0.67,4.346
	l-4.398,0.066C109.857,79.075,109.04,79.087,107.833,79.087z"/>
<g>
	<path fill="#4490BA" d="M105.476,70.87c1.77,0.945,2.457,2.299,2.857,3.004c-0.823,0.076-1.489,0.096-2.204,0.078
		C105.858,72.88,105.607,71.753,105.476,70.87"/>
	<g>
		<path fill="#B6D5E3" d="M83.662,65.315c1.58,1.049,0.98,0.818,2.202,0.676c0.742-0.088,0.997-1.301,1.501-2.01
			c0.793-1.123,2.43-1.121,2.432-1.117c-0.012,0.016,0.659,1.205,1.385,2.451c0.738,1.271,1.962,2.744,2.647,3.912
			c-1.269,0.574-2.293,1.02-3.542,1.686C86.697,69.235,83.644,65.372,83.662,65.315"/>
		<path fill="#B6D5E3" d="M105.189,66.96c1.814,2.1,3.379,4.004,4.67,6.803c-0.539,0.027-1.003,0.1-1.525,0.111
			c-0.903-1.209-1.903-2.232-2.857-3.004C105.103,68.382,105.148,67.396,105.189,66.96"/>
		<g>
			<path fill="#4490BA" d="M93.829,69.228c0.72,0.852,4.354,4.215,4.354,4.215c-2.088-0.27-6.544-1.959-7.897-2.529
				C90.952,70.538,93.091,69.542,93.829,69.228"/>
			<path fill="#4490BA" d="M98.913,68.386c1.134,1.672,2.724,5.5,5.274,5.564c-3.001-0.076-3.615-0.076-6.154-0.529
				c-0.541-0.121-2.264-2.018-4.204-4.193C94.651,68.845,97.175,68.126,98.913,68.386"/>
			<path fill="#4490BA" d="M104.187,73.95c-0.49-0.033-0.82,0.004-1.297-0.043c-1.836-1.771-3.573-3.891-4.707-5.561
				c1.188-0.037,2.4,0.109,3.606,0.496c0.554,1.486,1.517,2.883,2.497,4.625"/>
			<path fill="#B6D5E3" d="M105.476,70.87c0.131,0.883,0.382,2.01,0.653,3.082c-0.685-0.018-1.286,0.043-1.942-0.002
				c-0.98-1.742-1.844-3.623-2.396-5.105C103.031,69.241,104.27,69.896,105.476,70.87"/>
			<path fill="#B6D5E3" d="M91.181,65.315c0.738,1.271,1.962,2.744,2.647,3.912c-1.269,0.574-2.293,1.02-3.542,1.686
				c-3.59-1.678-6.643-5.541-6.625-5.598"/>
			<path fill="#B6D5E3" d="M94.985,62.278c-0.02,0.02,0.475,2.051,3.198,6.068c-1.851,0.055-3.011,0.383-4.354,0.881
				c-1.956-2.404-4.056-6.334-4.032-6.363"/>
			<path fill="#B6D5E3" d="M100.33,63.552c0.02,0.408,0.117,1.695,1.46,5.291c-1.207-0.387-2.417-0.533-3.606-0.496
				c-2.724-4.018-3.611-7.242-3.592-7.26"/>
			<path fill="#B6D5E3" d="M100.33,63.552c1.896,0.918,3.372,1.686,4.859,3.408"/>
			<path fill="#B6D5E3" d="M105.189,66.96c-0.041,0.436-0.086,1.422,0.287,3.91c-1.206-0.975-2.445-1.629-3.688-2.025
				c-1.344-3.598-1.439-4.885-1.459-5.293"/>
			<path fill="#B6D5E3" d="M105.189,66.96c1.814,2.1,3.379,4.004,4.67,6.803"/>
		</g>
		<path fill="#4490BA" d="M105.476,70.87c0.131,0.883,0.382,2.01,0.653,3.082c-0.685-0.018-1.286,0.043-1.942-0.002
			c-0.98-1.742-1.844-3.623-2.396-5.105C103.031,69.241,104.27,69.896,105.476,70.87"/>
	</g>
	<g>
		<g>
			<path fill="#FAA61A" d="M90.562,18.407c1.605-2.65,2.74-4,5.557-5.515l-3.512-7.416c-2.562,1.265-4.766,2.986-6.553,5.024
				c-0.27,1.184,0.135,2.351-0.671,4.055L90.562,18.407z"/>
			<path fill="#F8BE15" d="M97.352,12.329c-0.071,0.024-0.087,0.029-0.003-0.002C97.43,12.293,97.417,12.301,97.352,12.329
				c0.208-0.072,0.884-0.315,0.884-0.315l-2.154-7.89c-0.799,0.234-1.594,0.513-2.377,0.846c-0.25,0.106-0.492,0.22-0.736,0.335
				l3.499,7.38C96.467,12.684,97.153,12.411,97.352,12.329z"/>
			<path fill="#F8BE15" d="M97.349,12.327c-0.084,0.031-0.068,0.026,0.003,0.002C97.417,12.301,97.43,12.293,97.349,12.327z"/>
			<path fill="#F8BE15" d="M99.544,11.67c-0.072,0.012-0.087,0.014,0-0.005C99.632,11.649,99.617,11.655,99.544,11.67
				c0.211-0.034,0.929-0.159,0.929-0.159l-0.741-8.117c-1.09,0.118-2.182,0.325-3.264,0.62l2.146,7.853
				C98.615,11.867,99.328,11.718,99.544,11.67z"/>
			<path fill="#F8BE15" d="M99.544,11.666c-0.087,0.019-0.072,0.017,0,0.005C99.617,11.655,99.632,11.649,99.544,11.666z"/>
			<path fill="#F8BE15" d="M101.814,11.401c-0.065-0.002-0.078-0.003,0.008-0.004C101.914,11.395,101.893,11.397,101.814,11.401
				c0.205,0.002,0.947,0.005,0.947,0.005l0.686-8.085c-1.098-0.074-2.203-0.065-3.314,0.034l0.74,8.079
				C100.873,11.434,101.586,11.411,101.814,11.401z"/>
			<path fill="#F8BE15" d="M101.822,11.397c-0.086,0.001-0.073,0.002-0.008,0.004C101.893,11.397,101.914,11.395,101.822,11.397z"/>
			<path fill="#F8BE15" d="M104.111,11.529c-0.074-0.015-0.091-0.02-0.002-0.006C104.197,11.538,104.181,11.537,104.111,11.529
				c0.216,0.04,0.922,0.165,0.922,0.165l2.074-7.806c-1.067-0.265-2.156-0.443-3.26-0.539l-0.68,8.047
				C103.167,11.396,103.896,11.5,104.111,11.529z"/>
			<path fill="#F8BE15" d="M104.109,11.523c-0.089-0.014-0.072-0.009,0.002,0.006C104.181,11.537,104.197,11.538,104.109,11.523z"/>
			<path fill="#F8BE15" d="M106.336,12.045c-0.084-0.03-0.069-0.022,0.002,0.005C106.406,12.07,106.419,12.075,106.336,12.045z"/>
			<path fill="#F8BE15" d="M106.338,12.05c-0.071-0.027-0.086-0.035-0.002-0.005C106.419,12.075,106.406,12.07,106.338,12.05
				c0.206,0.077,0.877,0.322,0.877,0.322l3.384-7.289c-1.006-0.443-2.044-0.809-3.106-1.092l-2.061,7.766
				C105.432,11.757,106.133,11.985,106.338,12.05z"/>
			<path fill="#FCD350" d="M108.439,12.945c-0.077-0.043-0.064-0.035-0.003,0.002C108.502,12.981,108.519,12.988,108.439,12.945z"/>
			<path fill="#FCD350" d="M108.436,12.947c-0.062-0.037-0.074-0.045,0.003-0.002C108.519,12.988,108.502,12.981,108.436,12.947
				c0.185,0.108,0.812,0.472,0.812,0.472l4.578-6.567c-0.914-0.608-1.869-1.147-2.861-1.606l-3.364,7.259
				C107.6,12.503,108.24,12.845,108.436,12.947z"/>
			<path fill="#FCD350" d="M110.351,14.193c-0.067-0.057-0.058-0.047-0.005,0C110.406,14.238,110.421,14.248,110.351,14.193z"/>
			<path fill="#FCD350" d="M110.346,14.193c-0.053-0.047-0.062-0.057,0.005,0C110.421,14.248,110.406,14.238,110.346,14.193
				c0.159,0.137,0.718,0.606,0.718,0.606l5.629-5.658c-0.795-0.758-1.645-1.444-2.537-2.063l-4.554,6.536
				C109.602,13.614,110.17,14.058,110.346,14.193z"/>
			<path fill="#FCD350" d="M112.015,15.752c-0.059-0.066-0.049-0.055-0.004,0.002C112.061,15.81,112.074,15.82,112.015,15.752z"/>
			<path fill="#FCD350" d="M112.011,15.754c-0.045-0.057-0.055-0.068,0.004-0.002C112.074,15.82,112.061,15.81,112.011,15.754
				c0.137,0.167,0.6,0.72,0.6,0.72l6.5-4.586c-0.652-0.884-1.365-1.708-2.133-2.468l-5.6,5.633
				C111.378,15.053,111.865,15.594,112.011,15.754z"/>
			<path fill="#FCD350" d="M113.375,17.583c-0.036-0.064-0.043-0.08,0.003-0.003C113.422,17.654,113.414,17.642,113.375,17.583
				c0.106,0.189,0.462,0.81,0.462,0.81l7.184-3.389c-0.492-0.985-1.055-1.919-1.676-2.793l-6.471,4.567
				C112.875,16.778,113.26,17.401,113.375,17.583z"/>
			<path fill="#FCD350" d="M113.378,17.58c-0.046-0.077-0.039-0.062-0.003,0.003C113.414,17.642,113.422,17.654,113.378,17.58z"/>
			<path fill="#FCD350" d="M114.396,19.606c-0.02-0.061-0.022-0.071,0.008,0.008C114.436,19.7,114.427,19.68,114.396,19.606
				c0.065,0.189,0.318,0.889,0.318,0.889l7.656-2.1c-0.223-0.738-0.484-1.473-0.793-2.199c-0.121-0.282-0.25-0.559-0.382-0.836
				l-7.148,3.378C114.047,18.738,114.31,19.395,114.396,19.606z"/>
			<path fill="#FCD350" d="M114.404,19.614c-0.03-0.079-0.027-0.068-0.008-0.008C114.427,19.68,114.436,19.7,114.404,19.614z"/>
			<path fill="#FFE57B" d="M115.055,21.796c-0.016-0.086-0.015-0.073-0.003-0.002C115.068,21.867,115.072,21.883,115.055,21.796z"/>
			<path fill="#FFE57B" d="M115.052,21.794c-0.012-0.071-0.013-0.084,0.003,0.002C115.072,21.883,115.068,21.867,115.052,21.794
				c0.033,0.209,0.154,0.925,0.154,0.925l7.914-0.747c-0.129-1.066-0.342-2.135-0.641-3.191l-7.621,2.091
				C114.859,20.872,115.005,21.579,115.052,21.794z"/>
			<path fill="#FFE57B" d="M115.317,24.06c-0.001-0.09-0.002-0.072-0.004,0.003C115.316,24.132,115.318,24.147,115.317,24.06z"/>
			<path fill="#FFE57B" d="M115.313,24.063c0.002-0.075,0.003-0.093,0.004-0.003C115.318,24.147,115.316,24.132,115.313,24.063
				c-0.003,0.22-0.007,0.934-0.007,0.934l7.941,0.633c0.059-1.081,0.035-2.17-0.076-3.262l-7.887,0.748
				C115.285,23.116,115.306,23.851,115.313,24.063z"/>
			<path fill="#FFE57B" d="M115.176,26.329c0.013-0.066,0.017-0.079,0.001,0.006C115.164,26.423,115.166,26.405,115.176,26.329
				c-0.04,0.205-0.173,0.927-0.173,0.927l7.732,2.003c0.242-1.06,0.405-2.14,0.483-3.232l-7.907-0.628
				C115.312,25.398,115.207,26.108,115.176,26.329z"/>
			<path fill="#FFE57B" d="M115.177,26.334c0.016-0.085,0.012-0.072-0.001-0.006C115.166,26.405,115.164,26.423,115.177,26.334z"/>
			<path fill="#FFE57B" d="M114.646,28.544c0.022-0.059,0.027-0.067,0,0.013C114.616,28.644,114.622,28.623,114.646,28.544
				c-0.072,0.186-0.332,0.887-0.332,0.887l7.293,3.326c0.424-1.009,0.773-2.047,1.039-3.11l-7.707-1.993
				C114.939,27.654,114.716,28.327,114.646,28.544z"/>
			<path fill="#FFE57B" d="M114.646,28.557c0.027-0.08,0.022-0.071,0-0.013C114.622,28.623,114.616,28.644,114.646,28.557z"/>
			<path fill="#FFE57B" d="M113.734,30.651c0.043-0.076,0.035-0.066-0.002-0.006C113.698,30.712,113.689,30.729,113.734,30.651z"/>
			<path fill="#FFE57B" d="M113.732,30.645c0.037-0.061,0.045-0.07,0.002,0.006C113.689,30.729,113.698,30.712,113.732,30.645
				c-0.109,0.184-0.479,0.811-0.479,0.811l6.64,4.566c0.595-0.926,1.112-1.896,1.556-2.897l-7.269-3.311
				C114.18,29.814,113.835,30.451,113.732,30.645z"/>
			<path fill="#FFE57B" d="M112.47,32.557c0.057-0.067,0.045-0.058-0.003,0C112.423,32.614,112.414,32.627,112.47,32.557z"/>
			<path fill="#FFE57B" d="M112.467,32.557c0.048-0.058,0.06-0.067,0.003,0C112.414,32.627,112.423,32.614,112.467,32.557
				c-0.142,0.162-0.608,0.714-0.608,0.714l5.766,5.675c0.752-0.813,1.434-1.68,2.045-2.591l-6.612-4.544
				C113.057,31.811,112.602,32.384,112.467,32.557z"/>
			<path fill="#FFE57B" d="M110.894,34.218c0.064-0.055,0.054-0.047,0.002-0.006C110.839,34.263,110.826,34.277,110.894,34.218z"/>
			<path fill="#FFE57B" d="M110.896,34.212c0.052-0.041,0.062-0.049-0.002,0.006C110.826,34.277,110.839,34.263,110.896,34.212
				c-0.16,0.13-0.729,0.601-0.729,0.601l4.711,6.629c0.89-0.672,1.716-1.409,2.476-2.201l-5.752-5.66
				C111.601,33.582,111.062,34.062,110.896,34.212z"/>
			<path fill="#FFE57B" d="M109.048,35.583c0.066-0.037,0.083-0.046,0.004,0.001C108.978,35.629,108.99,35.622,109.048,35.583
				c-0.192,0.106-0.814,0.463-0.814,0.463l3.49,7.373c1.001-0.512,1.944-1.096,2.83-1.74l-4.694-6.598
				C109.86,35.081,109.228,35.468,109.048,35.583z"/>
			<path fill="#FFE57B" d="M109.052,35.584c0.079-0.047,0.062-0.038-0.004-0.001C108.99,35.622,108.978,35.629,109.052,35.584z"/>
			<path fill="#FFF3AE" d="M107.003,36.612c0.082-0.031,0.068-0.026,0.004-0.005C106.936,36.636,106.918,36.644,107.003,36.612z"/>
			<path fill="#FFE57B" d="M107.007,36.607c0.064-0.021,0.078-0.026-0.004,0.005C106.918,36.644,106.936,36.636,107.007,36.607
				c-0.197,0.068-0.891,0.317-0.891,0.317l2.158,7.905c0.696-0.217,1.389-0.469,2.076-0.762c0.345-0.146,0.684-0.301,1.017-0.465
				l-3.482-7.349C107.885,36.253,107.214,36.522,107.007,36.607z"/>
			<path fill="#FFE57B" d="M104.798,37.268c0.079-0.012,0.101-0.016,0.01,0.001C104.724,37.287,104.736,37.283,104.798,37.268
				c-0.224,0.039-0.918,0.159-0.918,0.159l0.745,8.179c1.091-0.135,2.181-0.355,3.263-0.668l-2.152-7.868
				C105.736,37.071,104.998,37.226,104.798,37.268z"/>
			<path fill="#F9EF65" d="M104.808,37.269c0.091-0.017,0.069-0.013-0.01-0.001C104.736,37.283,104.724,37.287,104.808,37.269z"/>
			<path fill="#F9EF65" d="M102.532,37.539c0.087-0.001,0.073-0.002,0.005-0.004C102.46,37.539,102.441,37.541,102.532,37.539z"/>
			<path fill="#F9EF65" d="M102.537,37.535c0.068,0.002,0.082,0.003-0.005,0.004C102.441,37.541,102.46,37.539,102.537,37.535
				c-0.209-0.002-0.944-0.003-0.944-0.003l-0.696,8.208c1.104,0.059,2.217,0.035,3.33-0.082l-0.744-8.155
				C103.482,37.502,102.76,37.526,102.537,37.535z"/>
			<path fill="#FFEF94" d="M115.223,18.901c-3.103-7.288-11.526-10.68-18.813-7.578c-7.289,3.104-10.684,11.528-7.58,18.814
				c3.104,7.288,11.527,10.682,18.815,7.578C114.932,34.613,118.326,26.188,115.223,18.901"/>
		</g>
		<path fill="#07456B" d="M95.322,21.233c0.34-0.582,0.828-1.071,1.412-1.452c0.582-0.38,1.281-0.63,1.999-0.675
			c0.72-0.047,1.433,0.119,2.075,0.376c0.324,0.131,0.625,0.303,0.901,0.509c0.28,0.203,0.526,0.424,0.778,0.671l-0.352,0.154
			c0.121-0.652,0.289-1.238,0.465-1.86c0.175-0.612,0.398-1.265,0.835-1.788c0.438-0.522,1.034-0.9,1.658-1.13
			c0.632-0.218,1.296-0.297,1.938-0.188c0.03,0.006,0.05,0.033,0.044,0.064c-0.002,0.018-0.016,0.032-0.031,0.039
			c-0.584,0.263-1.125,0.503-1.615,0.801c-0.242,0.153-0.479,0.305-0.693,0.482c-0.218,0.174-0.42,0.363-0.623,0.555
			c-0.396,0.386-0.834,0.797-1.131,1.323c-0.293,0.521-0.439,1.142-0.418,1.721c0.005,0.111-0.082,0.205-0.193,0.211
			c-0.042,0-0.081-0.01-0.113-0.03l-0.045-0.027c-0.249-0.149-0.549-0.271-0.836-0.365c-0.291-0.094-0.578-0.178-0.865-0.25
			c-0.572-0.15-1.15-0.173-1.711-0.143c-0.562,0.029-1.123,0.133-1.689,0.32c-0.564,0.188-1.123,0.461-1.718,0.758
			c-0.026,0.014-0.059,0.003-0.073-0.023C95.311,21.267,95.313,21.248,95.322,21.233"/>
		<path fill="#07456B" d="M103.349,22.221c0.35-0.22,0.74-0.357,1.148-0.43c0.408-0.064,0.848-0.075,1.252,0.084
			c0.201,0.071,0.389,0.183,0.562,0.299c0.174,0.122,0.334,0.249,0.488,0.387c0.152,0.138,0.291,0.29,0.422,0.454
			c0.062,0.082,0.128,0.169,0.182,0.262c0.057,0.093,0.105,0.18,0.15,0.301l-0.291-0.135c0.105-0.068,0.195-0.11,0.296-0.156
			c0.1-0.045,0.203-0.077,0.306-0.111c0.206-0.06,0.42-0.101,0.635-0.124c0.432-0.043,0.877-0.003,1.288,0.134
			c0.413,0.138,0.79,0.356,1.114,0.624c0.324,0.271,0.604,0.584,0.813,0.938c0.007,0.015,0.003,0.03-0.011,0.04
			c-0.01,0.006-0.021,0.006-0.031,0c-0.34-0.229-0.668-0.445-1.01-0.619c-0.34-0.181-0.691-0.314-1.047-0.408
			c-0.354-0.089-0.716-0.146-1.084-0.144c-0.184,0.001-0.368,0.02-0.549,0.05c-0.094,0.016-0.184,0.037-0.273,0.06
			c-0.088,0.018-0.184,0.049-0.258,0.07l-0.068,0.021c-0.091,0.028-0.188-0.022-0.216-0.113c-0.003-0.013-0.007-0.028-0.007-0.041
			c-0.003-0.071-0.023-0.171-0.048-0.257c-0.026-0.089-0.056-0.178-0.098-0.264c-0.078-0.171-0.191-0.325-0.333-0.453
			c-0.139-0.131-0.307-0.227-0.486-0.286c-0.178-0.062-0.365-0.088-0.549-0.103c-0.367-0.026-0.729-0.059-1.107-0.053
			c-0.379,0.002-0.766,0.03-1.177,0.027c-0.015,0-0.028-0.014-0.028-0.029C103.335,22.235,103.339,22.225,103.349,22.221"/>
	</g>
	<g>
		<polygon fill="#235449" points="84.056,10.098 84.056,7.874 84.901,7.874 84.901,6.378 85.136,6.378 85.136,5.324 86.854,5.324 
			86.854,6.378 87.088,6.378 87.088,7.874 87.934,7.874 87.934,10.098 88.584,10.098 88.584,33.94 82.239,33.94 82.239,10.098 		"/>
		<polygon fill="#3B7E6A" points="78.187,6.472 78.296,5.911 82.219,5.911 82.328,6.472 82.897,6.472 82.897,34.083 79.042,34.083 
			79.042,10.472 78.41,10.472 78.41,9.623 77.617,9.623 77.617,6.472 		"/>
		<path fill="#70BA8F" d="M87.593,35.019h6.59V10.421c0,0-3.213,1.398-4.854,3.688c-2.029,2.83-1.736,6.679-1.736,6.679V35.019z"/>
		<polygon fill="#3B7E6A" points="96.697,24.453 96.697,26.25 100.806,24.453 100.806,26.25 104.916,24.453 104.916,39.72 
			91.794,39.72 91.794,26.596 		"/>
	</g>
	<g>
		<polygon fill="#82CAA0" points="81.195,33.033 81.195,27.406 80.169,27.406 83.369,24.249 84.443,31.244 		"/>
		<polygon fill="#82CAA0" points="85.556,33.033 85.556,27.406 86.581,27.406 83.381,24.249 81.195,33.033 		"/>
	</g>
	<path fill="#ADD9AE" d="M88.066,32.134c0.533-3.659,0.361-6.705,0.361-6.705h1.101c0,0-0.418,3.352,0.282,6.705H88.066z"/>
	<path fill="#ADD9AE" d="M88.939,20.29c-1.209,0-1.49,1.083-1.49,1.083s-0.855-0.201-1.225,0.464
		c-0.433,0.777-0.027,1.448-0.027,1.448s-0.932,0.06-0.932,1.432c2.074,0,3.162-0.21,3.162,0.713h0.414h0.272h0.414
		c0-0.923,1.088-0.713,3.163-0.713c0-1.287-0.881-1.38-0.881-1.38s0.375-0.876-0.142-1.587c-0.555-0.765-1.327-0.48-1.327-0.48
		s-0.258-0.979-1.324-0.979"/>
	<path fill="#D2E6BE" d="M110.998,69.776c-0.014,0.082-0.027,0.16-0.039,0.24"/>
	<g>
		<path fill="#2FB585" d="M80.742,36.594c-0.049,0.031,1.391,6.204,6.35,13.762c-5.015,0.174-8.049,1.17-8.049,1.17V36.628
			c0.902-0.117,0.953-0.106,1.805-0.17C80.774,36.54,80.739,36.587,80.742,36.594"/>
		<path fill="#70BA8F" d="M80.742,36.594c-0.003-0.007,0.032-0.055,0.105-0.136c4.359-0.328,8.086,0.029,11.273,0.911
			c-0.053,0.021-0.078,0.035-0.078,0.037c-0.037,0.015-1.172,5.92,0.441,13.227c-1.861-0.275-3.693-0.338-5.393-0.277
			C82.132,42.798,80.693,36.625,80.742,36.594"/>
		<path fill="#2FB585" d="M95.753,33.038c0.293,0.126,0.585,0.253,0.869,0.386c0.147,0.071,0.29,0.143,0.436,0.213
			c0.257,0.125,0.51,0.253,0.758,0.383c0.148,0.079,0.293,0.157,0.439,0.237c0.236,0.132,0.471,0.263,0.7,0.397
			c0.142,0.084,0.28,0.168,0.419,0.254c0.226,0.138,0.445,0.28,0.665,0.425c0.13,0.083,0.261,0.171,0.389,0.258
			c0.22,0.15,0.435,0.305,0.646,0.46c0.116,0.084,0.234,0.169,0.347,0.255c0.225,0.17,0.442,0.343,0.656,0.52
			c0.094,0.074,0.188,0.147,0.279,0.225c0.248,0.209,0.488,0.42,0.724,0.636c-6.278-1.771-10.357-0.555-10.96-0.315
			c-3.187-0.882-6.914-1.239-11.273-0.912c0.629-0.684,4.209-3.752,13.395-4.024c0.381,0.141,0.759,0.284,1.125,0.436
			C95.498,32.925,95.624,32.983,95.753,33.038"/>
		<path fill="#82CAA0" d="M99.686,41.229c-0.032,0-2.106,4.617-1.825,10.863c-1.755-0.734-3.578-1.197-5.377-1.461
			c-1.613-7.305-0.479-13.21-0.441-13.225c0-0.002,0.025-0.017,0.079-0.037c3.054,0.844,5.61,2.172,7.746,3.846
			C99.753,41.22,99.687,41.226,99.686,41.229"/>
		<path fill="#70BA8F" d="M103.081,37.685c0.009,0.008,0.017,0.015,0.024,0.022c0.044,0.038,0.088,0.076,0.132,0.116
			c0.577,0.536,1.119,1.091,1.626,1.663c0.061,0.068,0.117,0.136,0.176,0.205c0.188,0.216,0.372,0.434,0.55,0.655
			c0.073,0.09,0.14,0.18,0.21,0.271c0.16,0.203,0.318,0.408,0.469,0.617c0.072,0.096,0.143,0.195,0.211,0.293
			c0.145,0.205,0.287,0.41,0.424,0.617c0.068,0.1,0.134,0.203,0.198,0.305c0.136,0.211,0.267,0.422,0.394,0.635
			c0.061,0.1,0.121,0.199,0.178,0.299c0.067,0.113,0.129,0.229,0.193,0.344c-3.594-2.414-7.172-2.539-7.997-2.512
			c-2.136-1.673-4.692-3.002-7.746-3.846C92.724,37.13,96.802,35.914,103.081,37.685"/>
		<path fill="#82CAA0" d="M108.197,44.331c0.133,0.25,0.258,0.502,0.381,0.756c0.033,0.066,0.068,0.135,0.1,0.203
			c0.469,0.984,0.873,1.988,1.221,3.006c0.021,0.061,0.038,0.121,0.06,0.182c0.091,0.273,0.179,0.549,0.263,0.824
			c0.026,0.088,0.052,0.176,0.078,0.262c0.074,0.25,0.145,0.502,0.211,0.754c0.026,0.098,0.052,0.195,0.077,0.293
			c0.039,0.15,0.074,0.301,0.11,0.451c-2.712-2.762-5.471-3.93-5.629-3.975c-1.37-2.207-3.078-4.209-5.201-5.871
			c0.826-0.027,4.405,0.098,7.998,2.512c0.062,0.111,0.125,0.219,0.185,0.33C108.099,44.149,108.148,44.239,108.197,44.331"/>
		<path fill="#C1E3CD" d="M108.06,53.669c-0.014-0.008-1.031,2.172-1.937,5.529c-0.913-1.498-1.958-2.764-3.102-3.818
			c0.542-4.947,2.007-8.303,2.03-8.297c0.002,0,0.011,0.002,0.016,0.004c1.273,2.057,2.255,4.285,3.004,6.586
			c-0.002-0.002-0.012-0.006-0.012-0.006"/>
		<path fill="#ACD9BB" d="M110.765,51.339c0.023,0.104,0.048,0.203,0.07,0.303c0.055,0.246,0.106,0.49,0.155,0.736
			c0.02,0.096,0.04,0.191,0.058,0.289c0.051,0.256,0.098,0.512,0.142,0.77c0.014,0.082,0.028,0.168,0.042,0.248
			c0.047,0.285,0.09,0.572,0.131,0.857c0.007,0.053,0.016,0.105,0.022,0.158c0.114,0.834,0.198,1.664,0.26,2.484
			c-1.683-2.346-3.462-3.457-3.573-3.51c-0.748-2.303-1.73-4.533-3.004-6.588c0.156,0.045,2.917,1.213,5.629,3.975
			C110.718,51.155,110.744,51.247,110.765,51.339"/>
		<path fill="#D8ECD4" d="M109.781,73.87c0-7.129-1.406-10.973-3.657-14.672c0.905-3.357,1.924-5.537,1.938-5.529
			c0,0,0.007,0.002,0.011,0.004C110.402,60.839,110.103,68.677,109.781,73.87"/>
		<path fill="#C1E3CD" d="M111.646,57.188c0,2.984-0.307,5.426-0.647,8.65c-0.47,4.451-1.104,7.574-1.218,8.031
			c0.322-5.193,0.621-13.029-1.709-20.197C108.183,53.728,109.962,54.839,111.646,57.188"/>
		<path fill="#269973" d="M79.042,29.934c0.674,0,0.516,0.006,1.164,0.024c0.215,0.007,0.424,0.019,0.637,0.028
			c0.429,0.019,0.855,0.034,1.272,0.061c0.245,0.017,0.483,0.036,0.726,0.056c0.374,0.027,0.747,0.057,1.112,0.092
			c0.247,0.022,0.491,0.05,0.734,0.076c0.349,0.039,0.692,0.082,1.03,0.124c0.242,0.032,0.48,0.065,0.719,0.102
			c0.331,0.049,0.66,0.1,0.982,0.155c0.229,0.038,0.458,0.078,0.684,0.119c0.322,0.062,0.641,0.125,0.955,0.189
			c0.213,0.045,0.427,0.09,0.635,0.137c0.326,0.073,0.642,0.15,0.956,0.231c0.188,0.047,0.378,0.092,0.562,0.143
			c0.353,0.094,0.697,0.195,1.038,0.298c0.135,0.042,0.275,0.08,0.408,0.121c0.475,0.149,0.939,0.305,1.394,0.468
			c0.021,0.009,0.042,0.018,0.062,0.025c0.044,0.015,0.084,0.033,0.128,0.05c-9.186,0.272-12.765,3.339-13.396,4.025
			c-0.851,0.064-0.903,0.054-1.804,0.17V29.934C79.044,29.934,79.413,29.935,79.042,29.934"/>
		<path fill="#ACD9BB" d="M99.686,41.229c0.001-0.004,0.067-0.01,0.182-0.014c2.122,1.662,3.831,3.662,5.2,5.871
			c-0.004,0-0.016-0.004-0.016-0.004c-0.023-0.006-1.488,3.35-2.031,8.297c-1.575-1.455-3.33-2.52-5.16-3.287
			C97.58,45.847,99.654,41.229,99.686,41.229"/>
	</g>
	<path fill="#235449" d="M94.636,35.91c0.389-2.674,0.264-4.9,0.264-4.9h0.805c0,0-0.305,2.45,0.206,4.9H94.636z"/>
	<path fill="#235449" d="M95.274,27.253c-0.884,0-1.088,0.791-1.088,0.791s-0.627-0.146-0.896,0.34
		c-0.316,0.567-0.021,1.059-0.021,1.059s-0.68,0.044-0.68,1.046c1.516,0,2.311-0.152,2.311,0.521h0.303h0.199h0.303
		c0-0.673,0.795-0.521,2.312-0.521c0-0.94-0.643-1.009-0.643-1.009s0.274-0.641-0.104-1.159c-0.405-0.559-0.969-0.352-0.969-0.352
		s-0.19-0.716-0.969-0.716"/>
	<path fill="#4490BA" d="M11.456,55.007c0.987-0.006,1.915,0.174,2.79,0.547c0.875,0.373,1.645,0.879,2.311,1.52l-2.015,2.041
		c-0.861-0.842-1.877-1.26-3.05-1.25C10.301,57.87,9.29,58.3,8.458,59.151c-0.833,0.852-1.249,1.867-1.243,3.049
		c0.007,1.191,0.437,2.201,1.281,3.033c0.843,0.834,1.859,1.25,3.049,1.244c1.19-0.01,2.2-0.438,3.042-1.291l2.041,2.018
		c-0.657,0.656-1.421,1.17-2.292,1.557c-0.869,0.385-1.794,0.576-2.782,0.582c-1.974,0.01-3.671-0.686-5.083-2.076
		c-1.41-1.393-2.126-3.082-2.139-5.057c-0.012-1.975,0.682-3.674,2.076-5.092c1.393-1.422,3.082-2.135,5.057-2.146L11.456,55.007z"
		/>
	<path fill="#4490BA" d="M29.524,56.974c1.419,1.402,2.135,3.092,2.148,5.066s-0.683,3.672-2.084,5.082
		c-1.401,1.41-3.09,2.127-5.065,2.139c-1.975,0.014-3.673-0.682-5.083-2.074c-1.41-1.395-2.125-3.084-2.138-5.059
		c-0.014-1.975,0.683-3.672,2.076-5.092c1.393-1.418,3.082-2.135,5.056-2.146C26.407,54.878,28.104,55.571,29.524,56.974
		 M21.417,59.044c-0.832,0.852-1.25,1.869-1.242,3.049c0.007,1.191,0.437,2.203,1.28,3.035c0.843,0.83,1.859,1.248,3.05,1.242
		c1.182-0.008,2.192-0.439,3.034-1.281s1.258-1.857,1.25-3.049c-0.007-1.182-0.437-2.191-1.289-3.035
		c-0.852-0.838-1.868-1.258-3.05-1.248C23.261,57.763,22.25,58.192,21.417,59.044"/>
	<path fill="#4490BA" d="M35.087,66.911c-0.313,0.727-0.635,1.441-0.955,2.166l-3.062,0.02l6.356-14.48l6.552,14.4l-3.069,0.018
		c-0.321-0.711-0.644-1.432-0.965-2.145l-4.841,0.031L35.087,66.911z M38.766,64.384l-1.271-2.947l-1.242,2.963L38.766,64.384z"/>
	<polygon fill="#4490BA" points="47.831,54.817 47.901,66.179 53.58,66.144 53.598,68.993 45.071,69.044 44.984,54.833 	"/>
	
		<rect x="54.617" y="54.765" transform="matrix(-1 0.0062 -0.0062 -1 112.4619 123.3951)" fill="#4490BA" width="2.848" height="14.211"/>
	<polygon fill="#4490BA" points="65.059,54.708 68.611,54.687 68.628,57.524 65.075,57.548 65.146,68.921 62.298,68.937 
		62.228,57.563 58.674,57.587 58.657,54.749 62.21,54.726 	"/>
	
		<rect x="69.895" y="54.67" transform="matrix(-1 0.0062 -0.0062 -1 143.0186 123.1094)" fill="#4490BA" width="2.848" height="14.211"/>
	<path fill="#07456B" d="M4.236,29.549c0.372-4.854,2.335-9.084,5.872-12.688c3.79-3.862,8.342-6.104,13.645-6.125
		c4.002-0.016,6.27,0.58,8.772,1.648c2.503,1.068,4.705,2.517,6.609,4.347l-5.764,5.836c-2.46-2.405-5.369-3.598-8.723-3.577
		c-3.405,0.022-6.297,1.251-8.679,3.686c-2.099,2.148-3.274,4.663-3.508,7.543"/>
	<path fill="#07456B" d="M12.459,30.218c-0.03,0.388-0.045,0.779-0.043,1.18c0.021,3.406,1.25,6.3,3.662,8.679
		c2.41,2.381,5.318,3.572,8.722,3.551c3.405-0.021,6.297-1.25,8.703-3.685l5.837,5.763c-1.881,1.877-4.063,3.355-6.555,4.453
		c-2.49,1.102-5.134,1.648-7.958,1.666c-5.649,0.035-10.504-1.953-14.539-5.938c-4.033-3.984-6.08-8.815-6.116-14.463
		c-0.003-0.635,0.018-1.26,0.064-1.875"/>
	<path fill="#4490BA" d="M83.267,65.63c-2.363,1.141-4.67,0.143-5.832-1.678c-1.229-1.924-0.848-5.066,2.189-6.262l-0.613-2.816
		c-2.985,0.863-5.006,3.58-5.006,6.857c0,3.975,3.221,7.195,7.193,7.195c1.338,0,2.814-0.523,3.932-1.188
		C84.156,66.638,83.267,65.63,83.267,65.63"/>
	<polygon fill="#07456B" points="77.759,11.24 77.759,10.39 76.841,10.39 76.841,8.935 75.646,8.935 75.646,7.827 72.597,7.827 
		72.597,8.935 71.4,8.935 71.4,10.39 70.482,10.39 70.482,11.24 69.851,11.24 69.851,51.825 78.391,51.825 78.391,11.24 	"/>
	<path fill="#07456B" d="M50.431,11.312c5.447-0.035,10.04,4.451,10.174,9.848c0.006,1.084-0.365,2.348-0.684,3.358
		c4.651,1.989,8.84,6.554,8.88,12.984c0.024,3.883-1.342,7.217-4.097,10.012c-2.758,2.789-6.078,4.197-9.96,4.223l-14.401,0.088
		V11.375l10.112-0.062H50.431z M50.512,24.25c1.36-0.008,2.438-1.049,2.431-2.387c-0.009-1.362-1.101-2.488-2.461-2.481
		l-2.017,0.014l0.03,4.867L50.512,24.25z M60.708,37.578c-0.012-1.69-0.625-3.126-1.817-4.301c-1.192-1.18-2.63-1.244-4.295-1.235
		l-6.052,0.037l0.072,11.6l6.053-0.037C57.996,43.622,60.727,40.88,60.708,37.578"/>
	<path fill="#07456B" d="M97.753,62.358v-7.82h2.773V68.94c-3.547,0-7.002-8.055-8.459-8.055l0.014,8.035l-2.793,0.006V54.538
		C92.927,54.538,96.839,62.358,97.753,62.358"/>
	<path fill="#07456B" d="M81.2,54.538c-0.562,0-1.292,0.115-1.815,0.238c0.275,1.402,0.596,2.746,0.596,2.746
		c2.139-0.562,4.121,0.508,5.006,2.07c1.043,1.84,0.777,4.461-1.402,5.82c0.605,0.881,1.215,1.494,1.883,2.115
		c1.789-1.309,2.928-3.297,2.928-5.797C88.394,57.759,85.173,54.538,81.2,54.538"/>
	<polygon fill="#FFFFFF" points="26.558,51.552 25.764,43.759 26.333,43.71 27.126,51.505 	"/>
	
		<rect x="23.187" y="48.991" transform="matrix(0.9966 0.0822 -0.0822 0.9966 4.2149 -1.7513)" fill="#FFFFFF" width="0.38" height="2.653"/>
	
		<rect x="19.833" y="48.444" transform="matrix(0.9666 0.2564 -0.2564 0.9666 13.43 -3.4702)" fill="#FFFFFF" width="0.381" height="2.654"/>
	
		<rect x="16.662" y="47.357" transform="matrix(0.9076 0.4199 -0.4199 0.9076 21.9982 -2.5766)" fill="#FFFFFF" width="0.381" height="2.653"/>
	
		<rect x="13.739" y="45.7" transform="matrix(0.8229 0.5682 -0.5682 0.8229 29.1881 0.414)" fill="#FFFFFF" width="0.382" height="2.653"/>
	
		<rect x="11.187" y="43.555" transform="matrix(0.7122 0.702 -0.702 0.7122 34.7797 4.9301)" fill="#FFFFFF" width="0.381" height="2.654"/>
	
		<rect x="9.051" y="41.02" transform="matrix(0.576 0.8174 -0.8174 0.576 38.5339 10.3987)" fill="#FFFFFF" width="0.382" height="2.653"/>
	
		<rect x="7.306" y="38.175" transform="matrix(0.4291 0.9032 -0.9032 0.4291 39.9585 15.7789)" fill="#FFFFFF" width="0.38" height="2.653"/>
	
		<rect x="6.098" y="34.982" transform="matrix(0.2642 0.9645 -0.9645 0.2642 39.6457 20.6515)" fill="#FFFFFF" width="0.381" height="2.653"/>
	
		<rect x="5.556" y="31.729" transform="matrix(0.0949 0.9955 -0.9955 0.0949 38.1065 24.1971)" fill="#FFFFFF" width="0.381" height="2.653"/>
	<polygon fill="#FFFFFF" points="12.28,30.503 4.354,29.828 4.398,29.258 12.324,29.935 	"/>
	
		<rect x="4.92" y="26.169" transform="matrix(0.9676 0.2525 -0.2525 0.9676 6.859 -0.723)" fill="#FFFFFF" width="2.653" height="0.381"/>
	
		<rect x="6.1" y="22.968" transform="matrix(0.9088 0.4172 -0.4172 0.9088 10.3382 -0.9872)" fill="#FFFFFF" width="2.655" height="0.38"/>
	
		<rect x="7.759" y="20.076" transform="matrix(0.8226 0.5686 -0.5686 0.8226 13.1366 -1.5705)" fill="#FFFFFF" width="2.652" height="0.381"/>
	
		<rect x="9.238" y="19.31" transform="matrix(0.7113 0.7029 -0.7029 0.7113 17.5776 -3.634)" fill="#FFFFFF" width="7.948" height="0.539"/>
	
		<rect x="12.534" y="15.389" transform="matrix(0.5786 0.8156 -0.8156 0.5786 18.5467 -4.7399)" fill="#FFFFFF" width="2.652" height="0.38"/>
	
		<rect x="15.442" y="13.739" transform="matrix(0.4283 0.9036 -0.9036 0.4283 22.1747 -7.1892)" fill="#FFFFFF" width="2.654" height="0.381"/>
	
		<rect x="18.604" y="12.562" transform="matrix(0.2646 0.9643 -0.9643 0.2646 26.9536 -9.842)" fill="#FFFFFF" width="2.653" height="0.381"/>
	<line fill="#BE1E2D" x1="23.091" y1="10.954" x2="23.339" y2="13.595"/>
	
		<rect x="21.889" y="12.084" transform="matrix(0.0935 0.9956 -0.9956 0.0935 33.2658 -11.987)" fill="#FFFFFF" width="2.653" height="0.381"/>
	<line fill="#BE1E2D" x1="26.568" y1="11.097" x2="26.354" y2="13.742"/>
	
		<rect x="26.27" y="11.092" transform="matrix(0.9968 0.0796 -0.0796 0.9968 1.0731 -2.0679)" fill="#FFFFFF" width="0.38" height="2.653"/>
	
		<rect x="29.529" y="11.7" transform="matrix(0.9672 0.254 -0.254 0.9672 4.2835 -7.1211)" fill="#FFFFFF" width="0.381" height="2.656"/>
	
		<rect x="32.604" y="12.82" transform="matrix(0.9093 0.4161 -0.4161 0.9093 8.8609 -12.3636)" fill="#FFFFFF" width="0.38" height="2.652"/>
	
		<rect x="35.495" y="14.446" transform="matrix(0.8213 0.5705 -0.5705 0.8213 15.3772 -17.5411)" fill="#FFFFFF" width="0.382" height="2.653"/>
</g>
</svg>
