<?xml version="1.0" encoding="utf-8"?>
<!-- Generator: Adobe Illustrator 15.1.0, SVG Export Plug-In . SVG Version: 6.00 Build 0)  -->
<!DOCTYPE svg PUBLIC "-//W3C//DTD SVG 1.1//EN" "http://www.w3.org/Graphics/SVG/1.1/DTD/svg11.dtd">
<svg version="1.1" id="Layer_1" xmlns="http://www.w3.org/2000/svg" xmlns:xlink="http://www.w3.org/1999/xlink" x="0px" y="0px"
	 width="53.966px" height="45.472px" viewBox="0 0 53.966 45.472" enable-background="new 0 0 53.966 45.472" xml:space="preserve">
<path fill="#A7A9AC" d="M10.904,29.148c0.577,3.901,1.674,5.785,4.088,8.762l-7.666,7.562c-2.462-2.467-3.697-4.458-5.14-7.727
	c-1.101-2.491-1.729-4.845-2.001-7.586"/>
<path fill="#ACD9BB" d="M0.042,25.458l10.73,0.865c0,0-0.003,1.598-0.01,1.16s0.045,1.173,0.045,1.173L0.123,29.668
	c0,0-0.11-1.617-0.122-2.305S0.042,25.458,0.042,25.458z"/>
<path fill="#ACD9BB" d="M0.716,20.802l10.417,2.715c0,0-0.28,1.573-0.211,1.141c0.069-0.432-0.159,1.164-0.159,1.164L0.065,24.963
	c0,0,0.172-1.612,0.28-2.291C0.454,21.994,0.716,20.802,0.716,20.802z"/>
<path fill="#ACD9BB" d="M2.188,16.334l9.788,4.483c0,0-0.55,1.5-0.407,1.086c0.143-0.413-0.358,1.118-0.358,1.118L0.825,20.319
	c0,0,0.449-1.558,0.674-2.207S2.188,16.334,2.188,16.334z"/>
<path fill="#ACD9BB" d="M4.414,12.19l8.86,6.114c0,0-0.801,1.383-0.588,1c0.213-0.383-0.547,1.039-0.547,1.039l-9.759-4.466
	c0,0,0.713-1.456,1.047-2.057C3.76,13.22,4.414,12.19,4.414,12.19z"/>
<path fill="#ACD9BB" d="M7.326,8.498l7.664,7.561c0,0-1.029,1.221-0.753,0.882s-0.719,0.928-0.719,0.928l-8.835-6.093
	c0,0,0.955-1.309,1.388-1.844C6.503,9.398,7.326,8.498,7.326,8.498z"/>
<path fill="#ACD9BB" d="M10.834,5.365l6.235,8.775c0,0-1.226,1.025-0.895,0.738c0.33-0.286-0.87,0.789-0.87,0.789L7.662,8.134
	c0,0,1.167-1.125,1.687-1.576C9.868,6.109,10.834,5.365,10.834,5.365z"/>
<path fill="#ACD9BB" d="M14.834,2.888l4.616,9.727c0,0-1.386,0.795-1.01,0.57s-0.993,0.626-0.993,0.626l-6.219-8.747
	c0,0,1.345-0.904,1.935-1.258C13.753,3.454,14.834,2.888,14.834,2.888z"/>
<path fill="#ACD9BB" d="M19.204,1.144l2.857,10.379c0,0-1.503,0.545-1.094,0.389s-1.087,0.443-1.087,0.443l-4.605-9.693
	c0,0,1.482-0.658,2.124-0.903C18.04,1.513,19.204,1.144,19.204,1.144z"/>
<path fill="#ACD9BB" d="M23.808,0.188l1.011,10.718c0,0-1.573,0.273-1.144,0.191c0.429-0.082-1.147,0.248-1.147,0.248L19.675,0.998
	c0,0,1.573-0.388,2.248-0.52C22.598,0.348,23.808,0.188,23.808,0.188z"/>
<path fill="#ACD9BB" d="M28.509,0.042l-0.865,10.73c0,0-1.598-0.002-1.16-0.01c0.437-0.007-1.174,0.045-1.174,0.045L24.298,0.125
	c0,0,1.617-0.111,2.305-0.123C27.29-0.008,28.509,0.042,28.509,0.042z"/>
<path fill="#93C2D9" d="M33.165,0.716l-2.716,10.419c0,0-1.572-0.282-1.141-0.212c0.432,0.068-1.163-0.159-1.163-0.159l0.858-10.698
	c0,0,1.611,0.172,2.291,0.28C31.973,0.455,33.165,0.716,33.165,0.716z"/>
<path fill="#93C2D9" d="M37.633,2.189l-4.482,9.787c0,0-1.502-0.549-1.088-0.404c0.414,0.143-1.117-0.359-1.117-0.359l2.702-10.387
	c0,0,1.559,0.449,2.208,0.674C36.504,1.724,37.633,2.189,37.633,2.189z"/>
<path fill="#93C2D9" d="M41.775,4.416l-6.115,8.861c0,0-1.381-0.802-1-0.589c0.381,0.212-1.038-0.548-1.038-0.548l4.467-9.76
	c0,0,1.454,0.714,2.056,1.047C40.745,3.761,41.775,4.416,41.775,4.416z"/>
<path fill="#93C2D9" d="M45.47,7.328l-7.56,7.663c0,0-1.223-1.028-0.883-0.753S36.1,13.519,36.1,13.519l6.092-8.836
	c0,0,1.311,0.954,1.845,1.388C44.568,6.504,45.47,7.328,45.47,7.328z"/>
<path fill="#FFE57B" d="M48.604,10.835l-8.778,6.236c0,0-1.022-1.228-0.737-0.896c0.287,0.331-0.788-0.868-0.788-0.868l7.534-7.644
	c0,0,1.124,1.167,1.574,1.688C47.858,9.869,48.604,10.835,48.604,10.835z"/>
<path fill="#FFE57B" d="M51.079,14.835l-9.726,4.616c0,0-0.797-1.386-0.572-1.009c0.225,0.375-0.625-0.994-0.625-0.994l8.746-6.219
	c0,0,0.905,1.346,1.258,1.936C50.514,13.754,51.079,14.835,51.079,14.835z"/>
<path fill="#FFE57B" d="M52.82,19.205l-10.38,2.857c0,0-0.543-1.502-0.388-1.094c0.156,0.406-0.443-1.088-0.443-1.088l9.695-4.604
	c0,0,0.655,1.481,0.902,2.123C52.453,18.041,52.82,19.205,52.82,19.205z"/>
<path fill="#FFE57B" d="M53.779,23.81l-10.717,1.011c0,0-0.275-1.574-0.191-1.144c0.082,0.428-0.25-1.147-0.25-1.147l10.346-2.854
	c0,0,0.392,1.573,0.521,2.249C53.617,22.599,53.779,23.81,53.779,23.81z"/>
<path fill="#FFE57B" d="M53.925,28.511l-10.733-0.865c0,0,0.006-1.598,0.012-1.16c0.008,0.438-0.045-1.172-0.045-1.172l10.684-1.013
	c0,0,0.111,1.616,0.122,2.306C53.977,27.292,53.925,28.511,53.925,28.511z"/>
<path fill="#FFE57B" d="M53.25,33.167l-10.417-2.715c0,0,0.28-1.574,0.21-1.142c-0.068,0.433,0.16-1.162,0.16-1.162L53.9,29.005
	c0,0-0.172,1.613-0.28,2.291S53.25,33.167,53.25,33.167z"/>
<path fill="#FFE57B" d="M51.776,37.633l-9.788-4.483c0,0,0.549-1.5,0.406-1.087c-0.143,0.411,0.359-1.118,0.359-1.118l10.387,2.705
	c0,0-0.451,1.555-0.674,2.205C52.242,36.504,51.776,37.633,51.776,37.633z"/>
<path fill="#FFE57B" d="M49.551,41.777l-8.859-6.113c0,0,0.801-1.383,0.588-1c-0.212,0.381,0.547-1.039,0.547-1.039l9.76,4.465
	c0,0-0.712,1.456-1.047,2.057C50.205,40.746,49.551,41.777,49.551,41.777z"/>
<path fill="#FFE57B" d="M46.64,45.472l-7.665-7.562c0,0,1.03-1.221,0.754-0.881c-0.275,0.34,0.719-0.928,0.719-0.928l8.836,6.094
	c0,0-0.954,1.309-1.39,1.844C47.463,44.572,46.64,45.472,46.64,45.472z"/>
</svg>
