<?xml version="1.0" encoding="utf-8"?>
<!-- Generator: Adobe Illustrator 15.1.0, SVG Export Plug-In . SVG Version: 6.00 Build 0)  -->
<!DOCTYPE svg PUBLIC "-//W3C//DTD SVG 1.1//EN" "http://www.w3.org/Graphics/SVG/1.1/DTD/svg11.dtd">
<svg version="1.1" xmlns="http://www.w3.org/2000/svg" xmlns:xlink="http://www.w3.org/1999/xlink" x="0px" y="0px"
	 width="395.54px" height="1253.98px" viewBox="0 0 395.54 1253.98" enable-background="new 0 0 395.54 1253.98"
	 xml:space="preserve">
<g id="Layer_3">
	<path fill="#9A6C4C" d="M163.378,0c0,0-14.927,108.278-5.595,117.61c9.333,9.333,35.332,40.665,25.332,50.664
		c-9.999,10-29.998,33.332-19.999,50.664c10,17.332-8.402,139.112-8.402,176.728c0,37.614-5.265,315.169,0,340.623
		c5.039,24.359,0.704,226.591,0.704,264.206c0,37.614-0.74,253.486-0.74,253.486H0V0H163.378z"/>
	<path fill="#845E43" d="M0,176.48c31.633,47.403,73.381,132.016,68.734,150.008S8.717,420.375,0,449.48"/>
	<path fill="#845E43" d="M0,930.943c31.633,47.403,35.133,87.161,54.184,193.581c3.274,18.292-45.467,50.313-54.184,79.419"/>
	<path fill="#845E43" d="M107.984,0c0,28.743,31.403,127.74,31.403,178.236c0,50.495-28.965-33.083-48.125-21.167
		s-41.333-6.166-41.333,11.916s27.563,84.57,38.78,116.322s19.274,161.648,19.274,206.133c0,44.482,33.662-41.653,33.662-41.653
		s13.081-184.904,24.011-202.388c10.928-17.484-24.309-32.461,17.459-79.125c28.895-32.28-32.437-29.477-29.95-76.537
		C156.835,22.245,163.378,0,163.378,0H107.984z"/>
	<path fill="#845E43" d="M131.692,491.438c-26.85,9.089-58.892,196.011-55.744,217.573c3.146,21.562-66.285,33.51-52.012,61.229
		c14.273,27.721,15.893,77.469,27.45,65.91c11.559-11.559,74.353-88.844,74.353-67.538s11.936,231.946,20.808,231.914l8.872-0.033
		l-9.437-202.479"/>
</g>
<g id="orange">
	<g>
		<defs>
			<polyline id="SVGID_1_" points="2.37,0.527 2.37,1000.527 395.54,1000.264 395.54,0.264 			"/>
		</defs>
		<clipPath id="SVGID_2_">
			<use xlink:href="#SVGID_1_"  overflow="visible"/>
		</clipPath>
		<g clip-path="url(#SVGID_2_)">
			<defs>
				<polygon id="SVGID_3_" points="2.371,0.527 2.371,1000.527 395.54,1000.264 395.54,0.264 				"/>
			</defs>
			<clipPath id="SVGID_4_">
				<use xlink:href="#SVGID_3_"  overflow="visible"/>
			</clipPath>
		</g>
		<g clip-path="url(#SVGID_2_)">
			<defs>
				<polyline id="SVGID_5_" points="395.54,0.264 395.54,1000.264 2.37,1000.527 2.37,0.527 				"/>
			</defs>
			<clipPath id="SVGID_6_">
				<use xlink:href="#SVGID_5_"  overflow="visible"/>
			</clipPath>
			<path clip-path="url(#SVGID_6_)" fill="#555251" d="M107.984,26.54c0,0-0.022,1.936-0.063,5.565
				c-0.074,3.629-0.287,8.951-0.723,15.714c-0.478,6.76-1.18,14.96-2.153,24.349c-0.98,9.388-2.214,19.965-3.658,31.491
				c-2.843,23.056-6.447,49.922-9.251,78.817c-1.384,14.447-2.563,29.403-3.153,44.625c-0.53,15.217-0.56,30.721,0.786,46.123
				c0.649,7.7,1.737,15.357,3.245,22.897c0.438,1.871,0.875,3.741,1.312,5.608c0.196,0.939,0.48,1.854,0.754,2.771l0.814,2.751
				c0.555,1.837,1.107,3.672,1.66,5.503c0.488,1.865,0.983,3.731,1.342,5.611c1.548,7.511,1.979,15.144,1.777,22.632
				c-0.238,7.494-1.118,14.859-2.411,22.018c-2.587,14.325-6.666,27.82-11.048,40.391c-4.417,12.568-9.176,24.23-13.722,34.921
				c-4.537,10.696-8.898,20.411-12.643,29.071c-3.74,8.66-6.87,16.273-9.036,22.69c-2.174,6.404-3.346,11.66-3.276,15.299
				c0.037,1.809,0.313,3.2,0.723,4.047c0.141,0.45,0.386,0.726,0.487,0.94c0.12,0.205,0.182,0.31,0.182,0.31
				s-0.062-0.104-0.185-0.309c-0.104-0.214-0.351-0.487-0.494-0.937c-0.417-0.846-0.706-2.238-0.757-4.051
				c-0.098-3.646,1.035-8.924,3.161-15.353c4.237-12.896,12.283-30.541,21.342-51.919c4.515-10.697,9.237-22.362,13.613-34.922
				c4.341-12.562,8.373-26.038,10.909-40.312c1.27-7.132,2.124-14.463,2.341-21.908c0.181-7.438-0.271-15.006-1.822-22.433
				c-0.361-1.864-0.853-3.69-1.336-5.524c-0.558-1.83-1.115-3.662-1.674-5.498l-0.829-2.77c-0.277-0.924-0.567-1.846-0.769-2.791
				c-0.443-1.879-0.89-3.76-1.336-5.643c-1.536-7.582-2.655-15.274-3.319-23.006c-1.311-15.468-1.237-31.002-0.665-46.244
				c0.632-15.243,1.854-30.21,3.277-44.664c2.884-28.906,6.562-55.765,9.467-78.811c1.452-11.523,2.775-22.087,3.835-31.463
				c1.047-9.378,1.812-17.568,2.342-24.322c0.488-6.757,0.743-12.074,0.847-15.702C107.947,28.476,107.984,26.54,107.984,26.54"/>
			<path clip-path="url(#SVGID_6_)" fill="#555251" d="M48.499,0c0,0,0.083,0.359,0.239,1.032c0.077,0.337,0.175,0.752,0.288,1.24
				c0.107,0.489,0.17,1.064,0.269,1.704c0.105,0.64,0.196,1.351,0.238,2.13c0.054,0.777,0.147,1.618,0.141,2.52
				c0.051,1.802,0.019,3.842-0.19,6.051c-0.163,2.216-0.512,4.596-0.921,7.105c-0.434,2.504-0.954,5.134-1.618,7.824
				c-1.292,5.388-2.934,11.062-4.609,16.715c-1.717,5.641-3.452,11.27-4.889,16.596c-0.695,2.668-1.382,5.244-1.912,7.712
				c-0.565,2.463-0.959,4.817-1.285,6.995c-0.264,2.184-0.469,4.194-0.507,5.982c-0.06,1.788,0.025,3.349,0.154,4.627
				c0.081,0.638,0.153,1.207,0.216,1.703c0.088,0.492,0.189,0.905,0.258,1.243c0.145,0.676,0.223,1.036,0.223,1.036
				s-0.096-0.356-0.275-1.023c-0.086-0.335-0.209-0.745-0.322-1.234c-0.085-0.495-0.183-1.064-0.291-1.701
				c-0.179-1.28-0.325-2.85-0.334-4.654c-0.035-1.805,0.093-3.84,0.319-6.049c0.277-2.201,0.62-4.584,1.131-7.073
				c0.476-2.498,1.093-5.105,1.786-7.786c1.403-5.357,3.096-11.012,4.771-16.661c1.719-5.637,3.398-11.282,4.725-16.634
				c0.664-2.675,1.26-5.271,1.745-7.749c0.465-2.48,0.865-4.836,1.077-7.027c0.143-1.093,0.199-2.146,0.27-3.147
				c0.095-1.001,0.085-1.953,0.109-2.848c0.041-0.895-0.021-1.731-0.045-2.505c-0.013-0.777-0.076-1.484-0.156-2.122
				C49.027,3.365,48.99,2.79,48.91,2.296c-0.089-0.493-0.164-0.913-0.225-1.253C48.563,0.363,48.499,0,48.499,0"/>
			<path clip-path="url(#SVGID_6_)" fill="#555251" d="M142.542,26.54c0,0-0.244,0.393-0.703,1.129
				c-0.431,0.75-1.199,1.78-1.896,3.238c-0.365,0.72-0.795,1.503-1.216,2.378c-0.377,0.896-0.785,1.866-1.22,2.902
				c-0.42,1.041-0.756,2.191-1.17,3.379c-0.404,1.192-0.689,2.489-1.064,3.817c-0.335,1.339-0.573,2.76-0.882,4.215
				c-0.204,1.475-0.463,2.994-0.625,4.567c-0.131,1.578-0.332,3.192-0.372,4.855c-0.039,0.83-0.079,1.669-0.118,2.516
				c-0.009,0.848-0.018,1.704-0.026,2.568c-0.049,1.726,0.055,3.483,0.084,5.26c0.099,1.776,0.175,3.575,0.332,5.383
				c0.28,3.62,0.719,7.286,1.22,10.943c0.987,7.317,2.323,14.589,3.626,21.399c1.306,6.81,2.501,13.18,3.33,18.676
				c0.427,2.745,0.723,5.279,0.909,7.53c0.195,2.252,0.253,4.223,0.242,5.845c-0.047,1.621-0.116,2.895-0.266,3.752
				c-0.121,0.859-0.185,1.317-0.185,1.317s0.045-0.46,0.131-1.323c0.118-0.859,0.12-2.133,0.124-3.746
				c-0.038-1.615-0.155-3.573-0.417-5.808c-0.258-2.235-0.63-4.747-1.095-7.478c-0.907-5.467-2.286-11.792-3.625-18.599
				c-1.346-6.806-2.732-14.086-3.766-21.43c-0.479-3.676-0.898-7.363-1.157-11.007c-0.147-1.82-0.214-3.633-0.303-5.421
				c-0.018-1.791-0.111-3.559-0.052-5.301c0.014-0.87,0.029-1.733,0.043-2.588c0.051-0.854,0.102-1.7,0.153-2.537
				c0.071-1.675,0.304-3.303,0.466-4.891c0.192-1.584,0.481-3.113,0.716-4.596c0.338-1.465,0.605-2.893,0.969-4.239
				c0.406-1.333,0.707-2.637,1.152-3.828c0.454-1.187,0.828-2.333,1.282-3.369c0.469-1.029,0.909-1.992,1.315-2.882
				c0.451-0.869,0.907-1.646,1.296-2.358c0.197-0.354,0.385-0.689,0.561-1.004c0.183-0.311,0.387-0.581,0.56-0.844
				c0.354-0.52,0.654-0.962,0.898-1.321C142.283,26.922,142.542,26.54,142.542,26.54"/>
			<path clip-path="url(#SVGID_6_)" fill="#555251" d="M22,285.307c0,0,1.335,2.994,3.671,8.233
				c1.165,2.622,2.579,5.806,4.202,9.456c0.802,1.83,1.656,3.777,2.557,5.83c0.868,2.066,1.781,4.24,2.734,6.508
				c0.913,2.285,1.864,4.665,2.849,7.129c0.949,2.477,1.871,5.063,2.844,7.711c1.76,5.359,3.641,11.028,4.833,17.09
				c0.164,0.754,0.328,1.51,0.493,2.27s0.247,1.539,0.375,2.312c0.229,1.551,0.484,3.109,0.695,4.684
				c0.231,3.171,0.592,6.376,0.471,9.627l-0.01,2.439c0.012,0.816-0.123,1.627-0.178,2.441c-0.167,1.626-0.253,3.268-0.488,4.895
				c-0.295,1.617-0.592,3.236-0.888,4.857c-0.08,0.405-0.136,0.814-0.236,1.214l-0.332,1.192l-0.664,2.384l-0.673,2.381
				c-0.229,0.792-0.568,1.548-0.848,2.321c-0.586,1.539-1.172,3.074-1.757,4.609c-1.284,3-2.479,6.008-3.586,9.035
				c-2.223,6.043-4.131,12.094-5.809,17.998c-3.33,11.812-5.798,23.023-7.353,32.721c-1.55,9.693-2.311,17.884-1.976,23.607
				c0.165,2.848,0.605,5.113,1.423,6.424c0.396,0.658,0.902,1.016,1.278,1.131c0.375,0.127,0.593,0.09,0.588,0.108
				c0.005-0.019-0.212,0.022-0.592-0.099c-0.38-0.107-0.899-0.461-1.312-1.116c-0.851-1.31-1.334-3.58-1.554-6.437
				c-0.422-5.738,0.118-13.974,1.588-23.705c1.478-9.732,3.765-21.01,7.073-32.871c1.662-5.926,3.557-12.004,5.767-18.084
				c1.1-3.037,2.297-6.082,3.571-9.09c0.573-1.519,1.147-3.041,1.723-4.564c0.272-0.766,0.605-1.512,0.83-2.294l0.656-2.353
				l0.664-2.35l0.332-1.175c0.101-0.394,0.156-0.798,0.236-1.196c0.298-1.6,0.596-3.195,0.893-4.789
				c0.237-1.604,0.327-3.223,0.497-4.826c0.058-0.805,0.194-1.604,0.186-2.41l0.016-2.408c0.134-3.211-0.214-6.381-0.431-9.52
				c-0.203-1.56-0.452-3.105-0.673-4.642c-0.125-0.767-0.203-1.538-0.364-2.293s-0.322-1.507-0.482-2.255
				c-1.177-6.01-2.973-11.674-4.673-17.03c-0.94-2.649-1.833-5.237-2.754-7.72c-0.957-2.469-1.882-4.854-2.769-7.146
				c-0.925-2.276-1.812-4.458-2.655-6.532c-0.862-2.068-1.679-4.029-2.447-5.873c-1.554-3.681-2.909-6.89-4.024-9.531
				C23.279,288.325,22,285.307,22,285.307"/>
			<path clip-path="url(#SVGID_6_)" fill="#555251" d="M34.965,591.428c0,0,0.472,1.139,1.358,3.274
				c0.885,2.135,2.205,5.257,3.753,9.286c0.389,1.007,0.82,2.059,1.231,3.179c0.399,1.123,0.816,2.3,1.251,3.526
				c0.442,1.224,0.897,2.5,1.279,3.853c0.396,1.349,0.854,2.734,1.236,4.188c0.345,1.467,0.701,2.979,1.066,4.537
				c0.262,1.58,0.529,3.205,0.805,4.873c0.189,1.679,0.336,3.406,0.508,5.174c0.083,1.771,0.168,3.582,0.255,5.433
				c0.188,7.404,0.106,15.416,0.157,23.889c0.055,8.474,0.161,17.407,0.452,26.646c0.239,9.238,0.676,18.781,1.14,28.474
				c0.537,9.692,1.083,19.538,1.63,29.384l0.377,7.385c0.093,2.463,0.187,4.924,0.279,7.379c0.19,4.91,0.386,9.803,0.454,14.658
				c0.05,2.429,0.1,4.847,0.148,7.254c0.031,2.405,0.007,4.802,0.013,7.182c0.049,4.762-0.118,9.465-0.236,14.091
				c-0.355,9.251-1.188,18.174-2.305,26.579c-1.111,8.405-2.151,16.342-2.816,23.704c-0.281,3.685-0.551,7.216-0.807,10.575
				c-0.188,3.363-0.366,6.555-0.534,9.554c-0.212,6.003-0.423,11.238-0.499,15.551c-0.126,8.628-0.197,13.559-0.197,13.559
				s0.01-4.932,0.028-13.562c0.023-4.313,0.169-9.553,0.307-15.562c0.13-3.003,0.27-6.199,0.415-9.568
				c0.198-3.367,0.468-6.904,0.751-10.593c0.634-7.376,1.644-15.335,2.717-23.738c1.08-8.402,1.871-17.295,2.187-26.525
				c0.097-4.616,0.245-9.309,0.176-14.063c-0.016-2.377-0.002-4.769-0.043-7.171c-0.06-2.403-0.12-4.818-0.181-7.243
				c-0.087-4.85-0.305-9.735-0.516-14.639c-0.103-2.452-0.207-4.909-0.31-7.368l-0.405-7.383
				c-0.504-9.851-1.009-19.699-1.505-29.396c-0.423-9.701-0.819-19.25-1.019-28.496c-0.254-9.245-0.321-18.186-0.341-26.663
				c-0.014-8.476,0.102-16.491-0.055-23.876c-0.146-7.383-0.91-14.135-2.445-19.941c-0.362-1.453-0.803-2.84-1.18-4.189
				c-0.364-1.354-0.802-2.633-1.229-3.859c-0.42-1.23-0.821-2.409-1.206-3.537c-0.396-1.123-0.815-2.18-1.191-3.19
				c-1.497-4.045-2.779-7.184-3.638-9.33C35.423,592.572,34.965,591.428,34.965,591.428"/>
		</g>
		<g clip-path="url(#SVGID_2_)">
			<defs>
				<polyline id="SVGID_7_" points="395.54,0.264 395.54,1000.264 2.37,1000.527 2.37,0.527 				"/>
			</defs>
			<clipPath id="SVGID_8_">
				<use xlink:href="#SVGID_7_"  overflow="visible"/>
			</clipPath>
			<path clip-path="url(#SVGID_8_)" fill="#FBC57D" d="M320.27,258.141c0.041,0.878-33.65-0.237-62.647,18.041
				c-15.268,9.625-23.646,27.345-36.818,59.81c7.518-18.528,14.181-23.116,16.313-22.932c4.407,0.381,10.973,12.298,14.188,12.317
				c0,0-2.778-8.824-0.965-12.348c3.312-6.436,14.245,5.141,14.774,4.932c1.008-0.396-15.729-37.83,17.778-10.818
				c9.064,7.306,5.838,2.783,5.878,2.738c0.545-0.617-10.938-12.879-8.875-15.17c2.439-2.709,20.899,8.912,22.144,7.01
				c0,0-16.017-12.782-14.177-17.26c1.338-3.261,12.374-2.129,26.688,0.846c-14.661-6.826-18.508-9.981-18.061-11.418
				c0.731-2.344,14.79-1.629,16.521-1.629c0,0-14.403-4.123-14.26-5.764c0.135-1.535,2.183-3.092,9.378-4.867
				C312.878,260.693,320.252,257.758,320.27,258.141"/>
			<path clip-path="url(#SVGID_8_)" fill="#FAB279" d="M373.466,212.503c5.447-4.739-2.496-13.979-9.715-14.144
				c-56.237-1.275-95.637-8.108-187.166,31.555c-91.459,39.632-32.448,659.535-22.802,754.922c0.125,1.239,1.943,1.189,2.014-0.055
				c0.203-3.666,0.366-6.908,0.498-9.657c2.247-46.988,0.709-69.614,1.975-131.006c0.144-6.981,0.242-4.709,0.514-21.089
				c1.931-116.156,0.947-142.842,6.051-194.374c2.629-26.545,6.988-44.567,12.272-80.166c2.181-14.69,3.155-17.248,4.313-25.049
				c0.959-6.459,19.289-110.399,19.595-112.134c0.003-0.019,0.004-0.026,0.006-0.045c0.14-1.16,5.813-47.867,25.451-87.891
				c13.946-28.42,21.981-43.321,38.194-49.975c8.853-3.633,18.636-11.143,40.037-13.658c18.484-2.174,46.394-10.975,50.816-14.309
				C363.297,239.562,354.39,229.098,373.466,212.503"/>
			<path clip-path="url(#SVGID_8_)" fill="#FFE18C" d="M373.167,212.503c7.655-6.657-2.496-13.979-9.715-14.144
				c-56.237-1.275-95.636-8.108-187.166,31.555c-91.459,39.632-32.448,659.535-22.801,754.922c0.125,1.239,1.943,1.189,2.012-0.055
				c0.204-3.666,0.368-6.908,0.499-9.657c2.247-46.988,0.709-69.614,1.976-131.006c0.144-6.981,0.241-4.709,0.514-21.089
				c1.93-116.156,0.947-142.842,6.05-194.374c2.629-26.545,6.989-44.567,12.273-80.166c2.181-14.69,3.154-17.248,4.312-25.049
				c0.959-6.459,19.289-110.399,19.596-112.134c0.003-0.019,0.004-0.026,0.006-0.045c0.14-1.16,5.812-47.867,25.45-87.891
				c13.946-28.42,21.982-43.321,38.194-49.975c8.854-3.633,23.323-11.752,44.726-14.268c18.483-2.173,23.912-0.484,29.306-1.751
				C350.679,254.496,346.977,235.282,373.167,212.503"/>
			<path clip-path="url(#SVGID_8_)" fill="#FAB279" d="M368.734,199.92c-12.692-4.618-22.292-5.212-24.429-5.257
				c-56.993-1.189-75.427-4.742-167.72,35.251c-99.103,42.944-22.801,754.922-22.801,754.922s-5.65-58.851-4.661-140.718
				c0.085-7.037-2.384-16.053-2.301-21.089c1.93-116.156-5.602-124.332-0.498-175.865c2.629-26.545-2.87-40.426,2.414-76.023
				c2.2-14.83,6.853-24.229,9.328-37.267c8.565-45.09,14.963-47.894,10.427-69.995c-2.334-11.373-19.011-18.309-19.99-36.615
				c0-0.002-0.001-0.008-0.001-0.008c0.001,0-2.548-81.539,17.339-122.068c18.58-37.867,53.624-55.262,70.397-64.168
				c18.76-9.959,15.285-10.506,59.021-27.299C310.9,207.717,342.929,201.594,368.734,199.92"/>
			<path clip-path="url(#SVGID_8_)" fill="#FFE18C" d="M190.6,227.401c0,0-58.444,41.339-65.571,34.212
				c-7.128-7.128-44.19-24.234-44.19-34.212s19.995-6.758,19.995-6.758s16.051-10.547,0-6.42
				c-16.05,4.128-21.094,11.006-0.458-25.221c20.636-36.228-14.904,11.693-16.968,13.757c-2.063,2.063,10.089-22.012,7.338-29.349
				c-2.752-7.337-11.465,34.851-15.133,31.183c-3.669-3.668,1.834-35.311-3.669-35.311s2.751,49.985-5.503,49.985
				c-8.255,0-24.305-15.593-27.516-12.382c-3.21,3.21,29.809,16.509,29.809,25.68c0,9.172,56.407,52.741,56.407,52.741
				s62.768-24.378,71.547-29.353C205.583,250.914,238.825,216.18,190.6,227.401"/>
			<g opacity="0.51" clip-path="url(#SVGID_8_)">
				<g>
					<defs>
						<rect id="SVGID_9_" x="38.86" y="168.985" width="36.752" height="63.283"/>
					</defs>
					<clipPath id="SVGID_10_">
						<use xlink:href="#SVGID_9_"  overflow="visible"/>
					</clipPath>
					<path clip-path="url(#SVGID_10_)" fill="#FBC57D" d="M75.612,204.594c-3.669-3.669,1.994-35.608-3.509-35.608
						s2.751,49.984-5.503,49.984c-8.255,0-24.305-15.591-27.515-12.381s28.966,16.587,29.808,25.68
						c-0.178-1.856-0.249-3.866-0.15-6.004C69.179,216.77,72.73,209.297,75.612,204.594"/>
				</g>
			</g>
			<g opacity="0.51" clip-path="url(#SVGID_8_)">
				<g>
					<path fill="#FBC57D" d="M84.314,221.332c2.141-0.491,4.652-0.918,7.478-1.12c3.45-0.247,6.51,0.146,9.042,0.432
						c5.169-3.625,7.375-5.672,7.132-6.618c-0.198-0.771-1.34-1.281-6.141-0.048c-2.615,1.05-5.78,1.745-7.273,2.185
						c-3.155,0.929-4.915,1.195-7.13,2.578C85.966,219.648,84.942,220.646,84.314,221.332"/>
				</g>
			</g>
			<g opacity="0.51" clip-path="url(#SVGID_8_)">
				<g>
					<defs>
						<rect id="SVGID_11_" x="80.788" y="225.232" width="123.51" height="42.961"/>
					</defs>
					<clipPath id="SVGID_12_">
						<use xlink:href="#SVGID_11_"  overflow="visible"/>
					</clipPath>
					<path clip-path="url(#SVGID_12_)" fill="#FBC57D" d="M190.6,227.401c0,0-57.857,40.699-65.571,34.212
						c-6.123-5.148-23.106-13.959-33.854-22.148c-7.239-5.518-10.337-10.182-10.337-10.182s-0.842,3.277,4.343,9.445
						c5.185,6.169,16.395,13.348,21.434,17.389c14.668,8.987,22.736,9.682,21.918,12.076c0.856-3.736,7.652-3.242,11.443-6.145
						c4.322-3.31,12.791-6.076,25.681-14.65c9.938-6.611,17.237-10.727,23.188-13.802c6.131-3.169,10.51-6.814,15.453-8.364
						C204.297,225.232,197.069,225.651,190.6,227.401"/>
				</g>
			</g>
			<g opacity="0.51" clip-path="url(#SVGID_8_)">
				<g>
					<defs>
						<rect id="SVGID_13_" x="68.734" y="232.566" width="141.308" height="52.74"/>
					</defs>
					<clipPath id="SVGID_14_">
						<use xlink:href="#SVGID_13_"  overflow="visible"/>
					</clipPath>
					<path clip-path="url(#SVGID_14_)" fill="#FBC57D" d="M118.07,271.464c-12.262-3.687-21.569-14.101-41.509-31.267
						c-6.72-5.785-7.827-7.631-7.827-7.631c0,9.172,56.407,52.74,56.407,52.74s12.759-5.143,28.334-11.154
						c13.354-5.155,33.007-10.59,43.212-18.197c12.463-9.29,13.354-12.463,13.354-12.463
						c-20.507,12.425-49.924,24.867-62.505,28.521C128.045,277.675,128.638,274.641,118.07,271.464"/>
				</g>
			</g>
			<path clip-path="url(#SVGID_8_)" fill="#FFE18C" d="M160.311,500.527c0,0-46.511,214.913-55.444,238.389
				c-6.127,16.101-8.771,56.03-8.771,56.03c-8.282-3.897-3.409-40.926-3.409-40.926s-38.565,67.638-52.908,73.29
				c-3.271,1.289,35.385-50.479,35.385-65.572c0-8.08-41.717,47.865-36.954,36.223c3.705-9.054,40.142-46.957,40.142-54.504
				s-58.669,43.684-40.142,25.156c19.702-19.702,41.822-35.045,49.365-49.473c11.652-22.288,39.573-194.502,38.595-238.049
				C125.162,436.217,171.421,436.354,160.311,500.527"/>
			<g opacity="0.51" clip-path="url(#SVGID_8_)">
				<g>
					<path fill="#FBC57D" d="M81.007,747.179c-3.195,2.301-42.798,50.783-42.798,50.783c3.705-9.055,40.142-46.957,40.142-54.505
						C78.351,743.457,84.441,739.721,81.007,747.179"/>
				</g>
			</g>
			<g opacity="0.51" clip-path="url(#SVGID_8_)">
				<g>
					<defs>
						<rect id="SVGID_15_" x="39.671" y="750.697" width="45.915" height="77.018"/>
					</defs>
					<clipPath id="SVGID_16_">
						<use xlink:href="#SVGID_15_"  overflow="visible"/>
					</clipPath>
					<path clip-path="url(#SVGID_16_)" fill="#FBC57D" d="M85.586,750.734c0,0-13.627,41.599-45.808,76.888
						c-2.369,2.6,35.385-50.791,35.385-65.884C83.994,749.467,85.586,750.734,85.586,750.734"/>
				</g>
			</g>
			<g opacity="0.51" clip-path="url(#SVGID_8_)">
				<g>
					<defs>
						<rect id="SVGID_17_" x="91.262" y="731.34" width="15.809" height="63.606"/>
					</defs>
					<clipPath id="SVGID_18_">
						<use xlink:href="#SVGID_17_"  overflow="visible"/>
					</clipPath>
					<path clip-path="url(#SVGID_18_)" fill="#FBC57D" d="M104.867,738.917c-6.127,16.099-8.771,56.029-8.771,56.029
						c-8.281-3.897-3.409-40.926-3.409-40.926S113.8,715.439,104.867,738.917"/>
				</g>
			</g>
			<g clip-path="url(#SVGID_8_)">
				<g>
					<path fill="#FBC57D" d="M90.054,725.823l-51.845,42.79c22.779-23.699,33.795-28.362,40.885-38.04
						c2.493-3.403,6.61-6.216,8.48-11.434c8.661-24.156,20.052-77.439,26.087-128.821c4.749-40.442,11.787-87.574,11.787-89.791
						c0-5.73,0.721-19.436,2.071-33.02c0.649-6.525,6.12-16.326,14.125-17.722c3.227-0.562,7.051,0.315,11.521,3.592
						c-12.955,3.126-20.339,20.849-21.474,38.062C125.886,579.504,106.093,663.868,90.054,725.823"/>
				</g>
			</g>
			<path clip-path="url(#SVGID_8_)" fill="#FBFAF9" d="M335.587,250.04c-4.815,0-8.72-3.903-8.72-8.719s3.904-8.718,8.72-8.718
				c4.814,0,8.719,3.902,8.719,8.718S340.402,250.04,335.587,250.04"/>
			<g opacity="0.08" clip-path="url(#SVGID_8_)">
				<g>
					<defs>
						<rect id="SVGID_19_" x="326.869" y="232.604" width="15.842" height="13.746"/>
					</defs>
					<clipPath id="SVGID_20_">
						<use xlink:href="#SVGID_19_"  overflow="visible"/>
					</clipPath>
					<path clip-path="url(#SVGID_20_)" fill="#454342" d="M328.464,246.35c-2.775-3.934-1.838-9.374,2.097-12.15
						c3.934-2.776,9.374-1.838,12.149,2.096c-3.904-1.592-8.292-0.854-11.173,1.873C328.195,241.332,328.421,245.717,328.464,246.35
						"/>
				</g>
			</g>
			<path clip-path="url(#SVGID_8_)" fill="#464443" d="M336.758,245.429c-3.286,0-5.951-2.665-5.951-5.952
				c0-3.288,2.665-5.952,5.951-5.952c3.287,0,5.952,2.664,5.952,5.952C342.71,242.764,340.045,245.429,336.758,245.429"/>
			<path clip-path="url(#SVGID_8_)" fill="#FBFAF9" d="M340.582,241.322c0.735-1.471,0.405-4.688,0.405-4.688
				c1.245,1.246,1.376,3.542,0.642,5.012c-0.736,1.47-2.427,1.896-3.896,2.272C337.732,243.918,339.845,242.791,340.582,241.322"/>
			<path clip-path="url(#SVGID_8_)" fill="#F69056" d="M307.353,284.087c-34.768-7.923-40.158-14.451-24.486,1.22
				c10.523,10.524,19.172,16.415,19.172,16.415s-19.518-17.874-11.967-18.798C297.622,281.999,307.353,284.087,307.353,284.087"/>
			<path clip-path="url(#SVGID_8_)" fill="#F69056" d="M292.227,298.332c-22.266-15.059-33.696-27.26-20.231-6.977
				c4.839,7.291,13.53,13.886,13.53,13.886s-5.655-8.204-5.81-9.208C278.994,291.35,292.227,298.332,292.227,298.332"/>
			<path clip-path="url(#SVGID_8_)" fill="#F69056" d="M275.591,301.722c-13.127-9.525-23.217-16.05-19.989-7.568
				c3.111,8.179,7.299,15.543,7.299,15.543s-1.789-5.095-1.052-8.784C263.538,292.468,275.591,301.722,275.591,301.722"/>
			<path clip-path="url(#SVGID_8_)" fill="#F69056" d="M264.048,317.205c-8.812-9.525-17.849-15.484-16.812-7.697
				c1.154,8.674,2.5,9.48,2.5,9.48s-0.399-1.831,0.12-4.385C251.762,305.24,264.048,317.205,264.048,317.205"/>
			<path clip-path="url(#SVGID_8_)" fill="#F69056" d="M308.481,272.006c-28.653-3.734-23.479-0.548-23.479-0.548
				c10.768,5.813,19.705,8.973,19.705,8.973s-13.563-6.772-6.013-7.696C306.246,271.81,308.481,272.006,308.481,272.006"/>
			<path clip-path="url(#SVGID_8_)" fill="#F69056" d="M311.049,260.936c-14.49,0.09-14.905,5.994-14.905,5.994
				c3.913,2.727,9.097,2.858,9.097,2.858s-10.846-3.274-3.956-5.847C306.057,262.158,311.049,260.936,311.049,260.936"/>
			<path clip-path="url(#SVGID_8_)" fill="#F69056" d="M248.91,324.09c0,0-4.613-13.594-6.342-15.323
				c-3.305-3.304-10.371-0.206-17.168,17.722c3.531-8.226,8.35-13.81,12.196-13.201c0.826,0.131,1.624,0.639,1.624,0.639
				c0.896,0.686,1.423,1.111,1.85,1.521c1.428,1.369,0.276,0.179,2.843,3.041C246.041,320.863,247.896,322.828,248.91,324.09"/>
			<g opacity="0.51" clip-path="url(#SVGID_8_)">
				<g>
					<defs>
						<rect id="SVGID_21_" x="177.02" y="299.204" width="60.135" height="249.285"/>
					</defs>
					<clipPath id="SVGID_22_">
						<use xlink:href="#SVGID_21_"  overflow="visible"/>
					</clipPath>
					<path clip-path="url(#SVGID_22_)" fill="#FBC57D" d="M237.155,302.475c-3.857-2.248-8.613-4.004-13.506-2.963
						c-16.945,3.606-23.086,38.118-36.359,151.926c-1.349,11.564-11.303,96.918-10.183,97.052
						c0.486,0.059,2.601-15.955,7.946-48.687c2.234-13.687,5.104-30.23,8.815-49.601c6.409-33.446,12.843-70.228,19.058-93.253
						C220.066,336.051,228.98,315.255,237.155,302.475"/>
				</g>
			</g>
			<path clip-path="url(#SVGID_8_)" fill="#555251" d="M374.878,203.975c0,0-0.85,0-2.338-0.002
				c-0.372-0.003-0.782-0.005-1.23-0.008c-0.448-0.011-0.934-0.029-1.446,0.021c-1.028,0.061-2.183,0.152-3.44,0.211
				c-1.258,0.092-2.618,0.3-4.057,0.459c-1.438,0.166-2.94,0.473-4.503,0.717c-1.564,0.236-3.154,0.631-4.789,0.936
				c-1.623,0.361-3.261,0.785-4.903,1.194c-1.619,0.485-3.258,0.916-4.841,1.438s-3.148,1.013-4.637,1.57
				c-1.5,0.524-2.932,1.075-4.289,1.607c-1.365,0.51-2.627,1.062-3.806,1.539c-4.688,1.979-7.701,3.548-7.701,3.548l-0.048-0.088
				c0,0,2.97-1.658,7.607-3.78c1.167-0.514,2.416-1.104,3.771-1.654c1.343-0.578,2.771-1.154,4.265-1.715
				c1.481-0.593,3.043-1.121,4.623-1.68c1.579-0.561,3.217-1.031,4.837-1.557c1.642-0.457,3.279-0.931,4.907-1.342
				c1.639-0.361,3.242-0.777,4.821-1.043c0.791-0.123,1.568-0.244,2.331-0.363c0.761-0.121,1.505-0.244,2.239-0.28
				c1.468-0.104,2.846-0.259,4.129-0.3c1.288-0.016,2.467,0.008,3.507,0.01c1.042-0.01,1.932,0.148,2.674,0.207
				c1.479,0.162,2.324,0.254,2.324,0.254L374.878,203.975z"/>
		</g>
	</g>
	<path fill="none" stroke="#555251" stroke-miterlimit="10" d="M21.186,913.033c0,0,15,76.496,31.499,100.495s-15,95.995-15,95.995"
		/>
	<path fill="none" stroke="#555251" stroke-miterlimit="10" d="M103.681,892.035c0,0,16.499,127.493,3,167.991
		c-9.209,27.629-1.5,149.992-1.5,149.992"/>
</g>
<g id="green">
	<g>
		<defs>
			<polyline id="SVGID_23_" points="2.37,0.527 2.37,1000.527 395.54,1000.264 395.54,0.264 			"/>
		</defs>
		<clipPath id="SVGID_24_">
			<use xlink:href="#SVGID_23_"  overflow="visible"/>
		</clipPath>
		<g clip-path="url(#SVGID_24_)">
			<defs>
				<polygon id="SVGID_25_" points="2.371,0.527 2.371,1000.527 395.54,1000.264 395.54,0.264 				"/>
			</defs>
			<clipPath id="SVGID_26_">
				<use xlink:href="#SVGID_25_"  overflow="visible"/>
			</clipPath>
		</g>
		<g clip-path="url(#SVGID_24_)">
			<defs>
				<polyline id="SVGID_27_" points="395.54,0.264 395.54,1000.264 2.37,1000.527 2.37,0.527 				"/>
			</defs>
			<clipPath id="SVGID_28_">
				<use xlink:href="#SVGID_27_"  overflow="visible"/>
			</clipPath>
			<path clip-path="url(#SVGID_28_)" fill="#555251" d="M107.984,26.54c0,0-0.022,1.936-0.063,5.565
				c-0.074,3.629-0.287,8.951-0.723,15.714c-0.478,6.76-1.18,14.96-2.153,24.349c-0.98,9.388-2.214,19.965-3.658,31.491
				c-2.843,23.056-6.447,49.922-9.251,78.817c-1.384,14.447-2.563,29.403-3.153,44.625c-0.53,15.217-0.56,30.721,0.786,46.123
				c0.649,7.7,1.737,15.357,3.245,22.897c0.438,1.871,0.875,3.741,1.312,5.608c0.196,0.939,0.48,1.854,0.754,2.771l0.814,2.751
				c0.555,1.837,1.107,3.672,1.66,5.503c0.488,1.865,0.983,3.731,1.342,5.611c1.548,7.511,1.979,15.144,1.777,22.632
				c-0.238,7.494-1.118,14.859-2.411,22.018c-2.587,14.325-6.666,27.82-11.048,40.391c-4.417,12.568-9.176,24.23-13.722,34.921
				c-4.537,10.696-8.898,20.411-12.643,29.071c-3.74,8.66-6.87,16.273-9.036,22.69c-2.174,6.404-3.346,11.66-3.276,15.299
				c0.037,1.809,0.313,3.2,0.723,4.047c0.141,0.45,0.386,0.726,0.487,0.94c0.12,0.205,0.182,0.31,0.182,0.31
				s-0.062-0.104-0.185-0.309c-0.104-0.214-0.351-0.487-0.494-0.937c-0.417-0.846-0.706-2.238-0.757-4.051
				c-0.098-3.646,1.035-8.924,3.161-15.353c4.237-12.896,12.283-30.541,21.342-51.919c4.515-10.697,9.237-22.362,13.613-34.922
				c4.341-12.562,8.373-26.038,10.909-40.312c1.27-7.132,2.124-14.463,2.341-21.908c0.181-7.438-0.271-15.006-1.822-22.433
				c-0.361-1.864-0.853-3.69-1.336-5.524c-0.558-1.83-1.115-3.662-1.674-5.498l-0.829-2.77c-0.277-0.924-0.567-1.846-0.769-2.791
				c-0.443-1.879-0.89-3.76-1.336-5.643c-1.536-7.582-2.655-15.274-3.319-23.006c-1.311-15.468-1.237-31.002-0.665-46.244
				c0.632-15.243,1.854-30.21,3.277-44.664c2.884-28.906,6.562-55.765,9.467-78.811c1.452-11.523,2.775-22.087,3.835-31.463
				c1.047-9.378,1.812-17.568,2.342-24.322c0.488-6.757,0.743-12.074,0.847-15.702C107.947,28.476,107.984,26.54,107.984,26.54"/>
			<path clip-path="url(#SVGID_28_)" fill="#555251" d="M48.499,0c0,0,0.083,0.359,0.239,1.032c0.077,0.337,0.175,0.752,0.288,1.24
				c0.107,0.489,0.17,1.064,0.269,1.704c0.105,0.64,0.196,1.351,0.238,2.13c0.054,0.777,0.147,1.618,0.141,2.52
				c0.051,1.802,0.019,3.842-0.19,6.051c-0.163,2.216-0.512,4.596-0.921,7.105c-0.434,2.504-0.954,5.134-1.618,7.824
				c-1.292,5.388-2.934,11.062-4.609,16.715c-1.717,5.641-3.452,11.27-4.889,16.596c-0.695,2.668-1.382,5.244-1.912,7.712
				c-0.565,2.463-0.959,4.817-1.285,6.995c-0.264,2.184-0.469,4.194-0.507,5.982c-0.06,1.788,0.025,3.349,0.154,4.627
				c0.081,0.638,0.153,1.207,0.216,1.703c0.088,0.492,0.189,0.905,0.258,1.243c0.145,0.676,0.223,1.036,0.223,1.036
				s-0.096-0.356-0.275-1.023c-0.086-0.335-0.209-0.745-0.322-1.234c-0.085-0.495-0.183-1.064-0.291-1.701
				c-0.179-1.28-0.325-2.85-0.334-4.654c-0.035-1.805,0.093-3.84,0.319-6.049c0.277-2.201,0.62-4.584,1.131-7.073
				c0.476-2.498,1.093-5.105,1.786-7.786c1.403-5.357,3.096-11.012,4.771-16.661c1.719-5.637,3.398-11.282,4.725-16.634
				c0.664-2.675,1.26-5.271,1.745-7.749c0.465-2.48,0.865-4.836,1.077-7.027c0.143-1.093,0.199-2.146,0.27-3.147
				c0.095-1.001,0.085-1.953,0.109-2.848c0.041-0.895-0.021-1.731-0.045-2.505c-0.013-0.777-0.076-1.484-0.156-2.122
				C49.027,3.365,48.99,2.79,48.91,2.296c-0.089-0.493-0.164-0.913-0.225-1.253C48.563,0.363,48.499,0,48.499,0"/>
			<path clip-path="url(#SVGID_28_)" fill="#555251" d="M142.542,26.54c0,0-0.244,0.393-0.703,1.129
				c-0.431,0.75-1.199,1.78-1.896,3.238c-0.365,0.72-0.795,1.503-1.216,2.378c-0.377,0.896-0.785,1.866-1.22,2.902
				c-0.42,1.041-0.756,2.191-1.17,3.379c-0.404,1.192-0.689,2.489-1.064,3.817c-0.335,1.339-0.573,2.76-0.882,4.215
				c-0.204,1.475-0.463,2.994-0.625,4.567c-0.131,1.578-0.332,3.192-0.372,4.855c-0.039,0.83-0.079,1.669-0.118,2.516
				c-0.009,0.848-0.018,1.704-0.026,2.568c-0.049,1.726,0.055,3.483,0.084,5.26c0.099,1.776,0.175,3.575,0.332,5.383
				c0.28,3.62,0.719,7.286,1.22,10.943c0.987,7.317,2.323,14.589,3.626,21.399c1.306,6.81,2.501,13.18,3.33,18.676
				c0.427,2.745,0.723,5.279,0.909,7.53c0.195,2.252,0.253,4.223,0.242,5.845c-0.047,1.621-0.116,2.895-0.266,3.752
				c-0.121,0.859-0.185,1.317-0.185,1.317s0.045-0.46,0.131-1.323c0.118-0.859,0.12-2.133,0.124-3.746
				c-0.038-1.615-0.155-3.573-0.417-5.808c-0.258-2.235-0.63-4.747-1.095-7.478c-0.907-5.467-2.286-11.792-3.625-18.599
				c-1.346-6.806-2.732-14.086-3.766-21.43c-0.479-3.676-0.898-7.363-1.157-11.007c-0.147-1.82-0.214-3.633-0.303-5.421
				c-0.018-1.791-0.111-3.559-0.052-5.301c0.014-0.87,0.029-1.733,0.043-2.588c0.051-0.854,0.102-1.7,0.153-2.537
				c0.071-1.675,0.304-3.303,0.466-4.891c0.192-1.584,0.481-3.113,0.716-4.596c0.338-1.465,0.605-2.893,0.969-4.239
				c0.406-1.333,0.707-2.637,1.152-3.828c0.454-1.187,0.828-2.333,1.282-3.369c0.469-1.029,0.909-1.992,1.315-2.882
				c0.451-0.869,0.907-1.646,1.296-2.358c0.197-0.354,0.385-0.689,0.561-1.004c0.183-0.311,0.387-0.581,0.56-0.844
				c0.354-0.52,0.654-0.962,0.898-1.321C142.283,26.922,142.542,26.54,142.542,26.54"/>
			<path clip-path="url(#SVGID_28_)" fill="#555251" d="M22,285.307c0,0,1.335,2.994,3.671,8.233
				c1.165,2.622,2.579,5.806,4.202,9.456c0.802,1.83,1.656,3.777,2.557,5.83c0.868,2.066,1.781,4.24,2.734,6.508
				c0.913,2.285,1.864,4.665,2.849,7.129c0.949,2.477,1.871,5.063,2.844,7.711c1.76,5.359,3.641,11.028,4.833,17.09
				c0.164,0.754,0.328,1.51,0.493,2.27s0.247,1.539,0.375,2.312c0.229,1.551,0.484,3.109,0.695,4.684
				c0.231,3.171,0.592,6.376,0.471,9.627l-0.01,2.439c0.012,0.816-0.123,1.627-0.178,2.441c-0.167,1.626-0.253,3.268-0.488,4.895
				c-0.295,1.617-0.592,3.236-0.888,4.857c-0.08,0.405-0.136,0.814-0.236,1.214l-0.332,1.192l-0.664,2.384l-0.673,2.381
				c-0.229,0.792-0.568,1.548-0.848,2.321c-0.586,1.539-1.172,3.074-1.757,4.609c-1.284,3-2.479,6.008-3.586,9.035
				c-2.223,6.043-4.131,12.094-5.809,17.998c-3.33,11.812-5.798,23.023-7.353,32.721c-1.55,9.693-2.311,17.884-1.976,23.607
				c0.165,2.848,0.605,5.113,1.423,6.424c0.396,0.658,0.902,1.016,1.278,1.131c0.375,0.127,0.593,0.09,0.588,0.108
				c0.005-0.019-0.212,0.022-0.592-0.099c-0.38-0.107-0.899-0.461-1.312-1.116c-0.851-1.31-1.334-3.58-1.554-6.437
				c-0.422-5.738,0.118-13.974,1.588-23.705c1.478-9.732,3.765-21.01,7.073-32.871c1.662-5.926,3.557-12.004,5.767-18.084
				c1.1-3.037,2.297-6.082,3.571-9.09c0.573-1.519,1.147-3.041,1.723-4.564c0.272-0.766,0.605-1.512,0.83-2.294l0.656-2.353
				l0.664-2.35l0.332-1.175c0.101-0.394,0.156-0.798,0.236-1.196c0.298-1.6,0.596-3.195,0.893-4.789
				c0.237-1.604,0.327-3.223,0.497-4.826c0.058-0.805,0.194-1.604,0.186-2.41l0.016-2.408c0.134-3.211-0.214-6.381-0.431-9.52
				c-0.203-1.56-0.452-3.105-0.673-4.642c-0.125-0.767-0.203-1.538-0.364-2.293s-0.322-1.507-0.482-2.255
				c-1.177-6.01-2.973-11.674-4.673-17.03c-0.94-2.649-1.833-5.237-2.754-7.72c-0.957-2.469-1.882-4.854-2.769-7.146
				c-0.925-2.276-1.812-4.458-2.655-6.532c-0.862-2.068-1.679-4.029-2.447-5.873c-1.554-3.681-2.909-6.89-4.024-9.531
				C23.279,288.325,22,285.307,22,285.307"/>
			<path clip-path="url(#SVGID_28_)" fill="#555251" d="M34.965,591.428c0,0,0.472,1.139,1.358,3.274
				c0.885,2.135,2.205,5.257,3.753,9.286c0.389,1.007,0.82,2.059,1.231,3.179c0.399,1.123,0.816,2.3,1.251,3.526
				c0.442,1.224,0.897,2.5,1.279,3.853c0.396,1.349,0.854,2.734,1.236,4.188c0.345,1.467,0.701,2.979,1.066,4.537
				c0.262,1.58,0.529,3.205,0.805,4.873c0.189,1.679,0.336,3.406,0.508,5.174c0.083,1.771,0.168,3.582,0.255,5.433
				c0.188,7.404,0.106,15.416,0.157,23.889c0.055,8.474,0.161,17.407,0.452,26.646c0.239,9.238,0.676,18.781,1.14,28.474
				c0.537,9.692,1.083,19.538,1.63,29.384l0.377,7.385c0.093,2.463,0.187,4.924,0.279,7.379c0.19,4.91,0.386,9.803,0.454,14.658
				c0.05,2.429,0.1,4.847,0.148,7.254c0.031,2.405,0.007,4.802,0.013,7.182c0.049,4.762-0.118,9.465-0.236,14.091
				c-0.355,9.251-1.188,18.174-2.305,26.579c-1.111,8.405-2.151,16.342-2.816,23.704c-0.281,3.685-0.551,7.216-0.807,10.575
				c-0.188,3.363-0.366,6.555-0.534,9.554c-0.212,6.003-0.423,11.238-0.499,15.551c-0.126,8.628-0.197,13.559-0.197,13.559
				s0.01-4.932,0.028-13.562c0.023-4.313,0.169-9.553,0.307-15.562c0.13-3.003,0.27-6.199,0.415-9.568
				c0.198-3.367,0.468-6.904,0.751-10.593c0.634-7.376,1.644-15.335,2.717-23.738c1.08-8.402,1.871-17.295,2.187-26.525
				c0.097-4.616,0.245-9.309,0.176-14.063c-0.016-2.377-0.002-4.769-0.043-7.171c-0.06-2.403-0.12-4.818-0.181-7.243
				c-0.087-4.85-0.305-9.735-0.516-14.639c-0.103-2.452-0.207-4.909-0.31-7.368l-0.405-7.383
				c-0.504-9.851-1.009-19.699-1.505-29.396c-0.423-9.701-0.819-19.25-1.019-28.496c-0.254-9.245-0.321-18.186-0.341-26.663
				c-0.014-8.476,0.102-16.491-0.055-23.876c-0.146-7.383-0.91-14.135-2.445-19.941c-0.362-1.453-0.803-2.84-1.18-4.189
				c-0.364-1.354-0.802-2.633-1.229-3.859c-0.42-1.23-0.821-2.409-1.206-3.537c-0.396-1.123-0.815-2.18-1.191-3.19
				c-1.497-4.045-2.779-7.184-3.638-9.33C35.423,592.572,34.965,591.428,34.965,591.428"/>
		</g>
		<g clip-path="url(#SVGID_24_)">
			<defs>
				<polyline id="SVGID_29_" points="395.54,0.264 395.54,1000.264 2.37,1000.527 2.37,0.527 				"/>
			</defs>
			<clipPath id="SVGID_30_">
				<use xlink:href="#SVGID_29_"  overflow="visible"/>
			</clipPath>
			<path clip-path="url(#SVGID_30_)" fill="#9BD2B2" d="M320.27,258.141c0.041,0.878-33.65-0.237-62.647,18.041
				c-15.268,9.625-23.646,27.345-36.818,59.81c7.518-18.528,14.181-23.116,16.313-22.932c4.407,0.381,10.973,12.298,14.188,12.317
				c0,0-2.778-8.824-0.965-12.348c3.312-6.436,14.245,5.141,14.774,4.932c1.008-0.396-15.729-37.83,17.778-10.818
				c9.064,7.306,5.838,2.783,5.878,2.738c0.545-0.617-10.938-12.879-8.875-15.17c2.439-2.709,20.899,8.912,22.144,7.01
				c0,0-16.017-12.782-14.177-17.26c1.338-3.261,12.374-2.129,26.688,0.846c-14.661-6.826-18.508-9.981-18.061-11.418
				c0.731-2.344,14.79-1.629,16.521-1.629c0,0-14.403-4.123-14.26-5.764c0.135-1.535,2.183-3.092,9.378-4.867
				C312.878,260.693,320.252,257.758,320.27,258.141"/>
			<path clip-path="url(#SVGID_30_)" fill="#7EC7A2" d="M373.466,212.503c5.447-4.739-2.496-13.979-9.715-14.144
				c-56.237-1.275-95.637-8.108-187.166,31.555c-91.459,39.632-32.448,659.535-22.802,754.922c0.125,1.239,1.943,1.189,2.014-0.055
				c0.203-3.666,0.366-6.908,0.498-9.657c2.247-46.988,0.709-69.614,1.975-131.006c0.144-6.981,0.242-4.709,0.514-21.089
				c1.931-116.156,0.947-142.842,6.051-194.374c2.629-26.545,6.988-44.567,12.272-80.166c2.181-14.69,3.155-17.248,4.313-25.049
				c0.959-6.459,19.289-110.399,19.595-112.134c0.003-0.019,0.004-0.026,0.006-0.045c0.14-1.16,5.813-47.867,25.451-87.891
				c13.946-28.42,21.981-43.321,38.194-49.975c8.853-3.633,18.636-11.143,40.037-13.658c18.484-2.174,46.394-10.975,50.816-14.309
				C363.297,239.562,354.39,229.098,373.466,212.503"/>
			<path clip-path="url(#SVGID_30_)" fill="#B8DDC3" d="M373.167,212.503c7.655-6.657-2.496-13.979-9.715-14.144
				c-56.237-1.275-95.636-8.108-187.166,31.555c-91.459,39.632-32.448,659.535-22.801,754.922c0.125,1.239,1.943,1.189,2.012-0.055
				c0.204-3.666,0.368-6.908,0.499-9.657c2.247-46.988,0.709-69.614,1.976-131.006c0.144-6.981,0.241-4.709,0.514-21.089
				c1.93-116.156,0.947-142.842,6.05-194.374c2.629-26.545,6.989-44.567,12.273-80.166c2.181-14.69,3.154-17.248,4.312-25.049
				c0.959-6.459,19.289-110.399,19.596-112.134c0.003-0.019,0.004-0.026,0.006-0.045c0.14-1.16,5.812-47.867,25.45-87.891
				c13.946-28.42,21.982-43.321,38.194-49.975c8.854-3.633,23.323-11.752,44.726-14.268c18.483-2.173,23.912-0.484,29.306-1.751
				C350.679,254.496,346.977,235.282,373.167,212.503"/>
			<path clip-path="url(#SVGID_30_)" fill="#7EC7A2" d="M368.734,199.92c-12.692-4.618-22.292-5.212-24.429-5.257
				c-56.993-1.189-75.427-4.742-167.72,35.251c-99.103,42.944-22.801,754.922-22.801,754.922s-5.65-58.851-4.661-140.718
				c0.085-7.037-2.384-16.053-2.301-21.089c1.93-116.156-5.602-124.332-0.498-175.865c2.629-26.545-2.87-40.426,2.414-76.023
				c2.2-14.83,6.853-24.229,9.328-37.267c8.565-45.09,14.963-47.894,10.427-69.995c-2.334-11.373-19.011-18.309-19.99-36.615
				c0-0.002-0.001-0.008-0.001-0.008c0.001,0-2.548-81.539,17.339-122.068c18.58-37.867,53.624-55.262,70.397-64.168
				c18.76-9.959,15.285-10.506,59.021-27.299C310.9,207.717,342.929,201.594,368.734,199.92"/>
			<path clip-path="url(#SVGID_30_)" fill="#B8DDC3" d="M190.6,227.401c0,0-58.444,41.339-65.571,34.212
				c-7.128-7.128-44.19-24.234-44.19-34.212s19.995-6.758,19.995-6.758s16.051-10.547,0-6.42
				c-16.05,4.128-21.094,11.006-0.458-25.221c20.636-36.228-14.904,11.693-16.968,13.757c-2.063,2.063,10.089-22.012,7.338-29.349
				c-2.752-7.337-11.465,34.851-15.133,31.183c-3.669-3.668,1.834-35.311-3.669-35.311s2.751,49.985-5.503,49.985
				c-8.255,0-24.305-15.593-27.516-12.382c-3.21,3.21,29.809,16.509,29.809,25.68c0,9.172,56.407,52.741,56.407,52.741
				s62.768-24.378,71.547-29.353C205.583,250.914,238.825,216.18,190.6,227.401"/>
			<g opacity="0.51" clip-path="url(#SVGID_30_)">
				<g>
					<defs>
						<rect id="SVGID_31_" x="38.86" y="168.985" width="36.752" height="63.283"/>
					</defs>
					<clipPath id="SVGID_32_">
						<use xlink:href="#SVGID_31_"  overflow="visible"/>
					</clipPath>
					<path clip-path="url(#SVGID_32_)" fill="#9BD2B2" d="M75.612,204.594c-3.669-3.669,1.994-35.608-3.509-35.608
						s2.751,49.984-5.503,49.984c-8.255,0-24.305-15.591-27.515-12.381s28.966,16.587,29.808,25.68
						c-0.178-1.856-0.249-3.866-0.15-6.004C69.179,216.77,72.73,209.297,75.612,204.594"/>
				</g>
			</g>
			<g opacity="0.51" clip-path="url(#SVGID_30_)">
				<g>
					<path fill="#9BD2B2" d="M84.314,221.332c2.141-0.491,4.652-0.918,7.478-1.12c3.45-0.247,6.51,0.146,9.042,0.432
						c5.169-3.625,7.375-5.672,7.132-6.618c-0.198-0.771-1.34-1.281-6.141-0.048c-2.615,1.05-5.78,1.745-7.273,2.185
						c-3.155,0.929-4.915,1.195-7.13,2.578C85.966,219.648,84.942,220.646,84.314,221.332"/>
				</g>
			</g>
			<g opacity="0.51" clip-path="url(#SVGID_30_)">
				<g>
					<defs>
						<rect id="SVGID_33_" x="80.788" y="225.232" width="123.51" height="42.961"/>
					</defs>
					<clipPath id="SVGID_34_">
						<use xlink:href="#SVGID_33_"  overflow="visible"/>
					</clipPath>
					<path clip-path="url(#SVGID_34_)" fill="#9BD2B2" d="M190.6,227.401c0,0-57.857,40.699-65.571,34.212
						c-6.123-5.148-23.106-13.959-33.854-22.148c-7.239-5.518-10.337-10.182-10.337-10.182s-0.842,3.277,4.343,9.445
						c5.185,6.169,16.395,13.348,21.434,17.389c14.668,8.987,22.736,9.682,21.918,12.076c0.856-3.736,7.652-3.242,11.443-6.145
						c4.322-3.31,12.791-6.076,25.681-14.65c9.938-6.611,17.237-10.727,23.188-13.802c6.131-3.169,10.51-6.814,15.453-8.364
						C204.297,225.232,197.069,225.651,190.6,227.401"/>
				</g>
			</g>
			<g opacity="0.51" clip-path="url(#SVGID_30_)">
				<g>
					<defs>
						<rect id="SVGID_35_" x="68.734" y="232.566" width="141.308" height="52.74"/>
					</defs>
					<clipPath id="SVGID_36_">
						<use xlink:href="#SVGID_35_"  overflow="visible"/>
					</clipPath>
					<path clip-path="url(#SVGID_36_)" fill="#9BD2B2" d="M118.07,271.464c-12.262-3.687-21.569-14.101-41.509-31.267
						c-6.72-5.785-7.827-7.631-7.827-7.631c0,9.172,56.407,52.74,56.407,52.74s12.759-5.143,28.334-11.154
						c13.354-5.155,33.007-10.59,43.212-18.197c12.463-9.29,13.354-12.463,13.354-12.463
						c-20.507,12.425-49.924,24.867-62.505,28.521C128.045,277.675,128.638,274.641,118.07,271.464"/>
				</g>
			</g>
			<path clip-path="url(#SVGID_30_)" fill="#B8DDC3" d="M160.311,500.527c0,0-46.511,214.913-55.444,238.389
				c-6.127,16.101-8.771,56.03-8.771,56.03c-8.282-3.897-3.409-40.926-3.409-40.926s-38.565,67.638-52.908,73.29
				c-3.271,1.289,35.385-50.479,35.385-65.572c0-8.08-41.717,47.865-36.954,36.223c3.705-9.054,40.142-46.957,40.142-54.504
				s-58.669,43.684-40.142,25.156c19.702-19.702,41.822-35.045,49.365-49.473c11.652-22.288,39.573-194.502,38.595-238.049
				C125.162,436.217,171.421,436.354,160.311,500.527"/>
			<g opacity="0.51" clip-path="url(#SVGID_30_)">
				<g>
					<path fill="#9BD2B2" d="M81.007,747.179c-3.195,2.301-42.798,50.783-42.798,50.783c3.705-9.055,40.142-46.957,40.142-54.505
						C78.351,743.457,84.441,739.721,81.007,747.179"/>
				</g>
			</g>
			<g opacity="0.51" clip-path="url(#SVGID_30_)">
				<g>
					<defs>
						<rect id="SVGID_37_" x="39.671" y="750.697" width="45.915" height="77.018"/>
					</defs>
					<clipPath id="SVGID_38_">
						<use xlink:href="#SVGID_37_"  overflow="visible"/>
					</clipPath>
					<path clip-path="url(#SVGID_38_)" fill="#9BD2B2" d="M85.586,750.734c0,0-13.627,41.599-45.808,76.888
						c-2.369,2.6,35.385-50.791,35.385-65.884C83.994,749.467,85.586,750.734,85.586,750.734"/>
				</g>
			</g>
			<g opacity="0.51" clip-path="url(#SVGID_30_)">
				<g>
					<defs>
						<rect id="SVGID_39_" x="91.262" y="731.34" width="15.809" height="63.606"/>
					</defs>
					<clipPath id="SVGID_40_">
						<use xlink:href="#SVGID_39_"  overflow="visible"/>
					</clipPath>
					<path clip-path="url(#SVGID_40_)" fill="#9BD2B2" d="M104.867,738.917c-6.127,16.099-8.771,56.029-8.771,56.029
						c-8.281-3.897-3.409-40.926-3.409-40.926S113.8,715.439,104.867,738.917"/>
				</g>
			</g>
			<g clip-path="url(#SVGID_30_)">
				<g>
					<path fill="#9BD2B2" d="M90.054,725.823l-51.845,42.79c22.779-23.699,33.795-28.362,40.885-38.04
						c2.493-3.403,6.61-6.216,8.48-11.434c8.661-24.156,20.052-77.439,26.087-128.821c4.749-40.442,11.787-87.574,11.787-89.791
						c0-5.73,0.721-19.436,2.071-33.02c0.649-6.525,6.12-16.326,14.125-17.722c3.227-0.562,7.051,0.315,11.521,3.592
						c-12.955,3.126-20.339,20.849-21.474,38.062C125.886,579.504,106.093,663.868,90.054,725.823"/>
				</g>
			</g>
			<path clip-path="url(#SVGID_30_)" fill="#FBFAF9" d="M335.587,250.04c-4.815,0-8.72-3.903-8.72-8.719s3.904-8.718,8.72-8.718
				c4.814,0,8.719,3.902,8.719,8.718S340.402,250.04,335.587,250.04"/>
			<g opacity="0.08" clip-path="url(#SVGID_30_)">
				<g>
					<defs>
						<rect id="SVGID_41_" x="326.869" y="232.604" width="15.842" height="13.746"/>
					</defs>
					<clipPath id="SVGID_42_">
						<use xlink:href="#SVGID_41_"  overflow="visible"/>
					</clipPath>
					<path clip-path="url(#SVGID_42_)" fill="#454342" d="M328.464,246.35c-2.775-3.934-1.838-9.374,2.097-12.15
						c3.934-2.776,9.374-1.838,12.149,2.096c-3.904-1.592-8.292-0.854-11.173,1.873C328.195,241.332,328.421,245.717,328.464,246.35
						"/>
				</g>
			</g>
			<path clip-path="url(#SVGID_30_)" fill="#464443" d="M336.758,245.429c-3.286,0-5.951-2.665-5.951-5.952
				c0-3.288,2.665-5.952,5.951-5.952c3.287,0,5.952,2.664,5.952,5.952C342.71,242.764,340.045,245.429,336.758,245.429"/>
			<path clip-path="url(#SVGID_30_)" fill="#FBFAF9" d="M340.582,241.322c0.735-1.471,0.405-4.688,0.405-4.688
				c1.245,1.246,1.376,3.542,0.642,5.012c-0.736,1.47-2.427,1.896-3.896,2.272C337.732,243.918,339.845,242.791,340.582,241.322"/>
			<path clip-path="url(#SVGID_30_)" fill="#7EC7A2" d="M307.353,284.087c-34.768-7.923-40.158-14.451-24.486,1.22
				c10.523,10.524,19.172,16.415,19.172,16.415s-19.518-17.874-11.967-18.798C297.622,281.999,307.353,284.087,307.353,284.087"/>
			<path clip-path="url(#SVGID_30_)" fill="#7EC7A2" d="M292.227,298.332c-22.266-15.059-33.696-27.26-20.231-6.977
				c4.839,7.291,13.53,13.886,13.53,13.886s-5.655-8.204-5.81-9.208C278.994,291.35,292.227,298.332,292.227,298.332"/>
			<path clip-path="url(#SVGID_30_)" fill="#7EC7A2" d="M275.591,301.722c-13.127-9.525-23.217-16.05-19.989-7.568
				c3.111,8.179,7.299,15.543,7.299,15.543s-1.789-5.095-1.052-8.784C263.538,292.468,275.591,301.722,275.591,301.722"/>
			<path clip-path="url(#SVGID_30_)" fill="#7EC7A2" d="M264.048,317.205c-8.812-9.525-17.849-15.484-16.812-7.697
				c1.154,8.674,2.5,9.48,2.5,9.48s-0.399-1.831,0.12-4.385C251.762,305.24,264.048,317.205,264.048,317.205"/>
			<path clip-path="url(#SVGID_30_)" fill="#7EC7A2" d="M308.481,272.006c-28.653-3.734-23.479-0.548-23.479-0.548
				c10.768,5.813,19.705,8.973,19.705,8.973s-13.563-6.772-6.013-7.696C306.246,271.81,308.481,272.006,308.481,272.006"/>
			<path clip-path="url(#SVGID_30_)" fill="#7EC7A2" d="M311.049,260.936c-14.49,0.09-14.905,5.994-14.905,5.994
				c3.913,2.727,9.097,2.858,9.097,2.858s-10.846-3.274-3.956-5.847C306.057,262.158,311.049,260.936,311.049,260.936"/>
			<path clip-path="url(#SVGID_30_)" fill="#7EC7A2" d="M248.91,324.09c0,0-4.613-13.594-6.342-15.323
				c-3.305-3.304-10.371-0.206-17.168,17.722c3.531-8.226,8.35-13.81,12.196-13.201c0.826,0.131,1.624,0.639,1.624,0.639
				c0.896,0.686,1.423,1.111,1.85,1.521c1.428,1.369,0.276,0.179,2.843,3.041C246.041,320.863,247.896,322.828,248.91,324.09"/>
			<g opacity="0.51" clip-path="url(#SVGID_30_)">
				<g>
					<defs>
						<rect id="SVGID_43_" x="177.02" y="299.204" width="60.135" height="249.285"/>
					</defs>
					<clipPath id="SVGID_44_">
						<use xlink:href="#SVGID_43_"  overflow="visible"/>
					</clipPath>
					<path clip-path="url(#SVGID_44_)" fill="#9BD2B2" d="M237.155,302.475c-3.857-2.248-8.613-4.004-13.506-2.963
						c-16.945,3.606-23.086,38.118-36.359,151.926c-1.349,11.564-11.303,96.918-10.183,97.052
						c0.486,0.059,2.601-15.955,7.946-48.687c2.234-13.687,5.104-30.23,8.815-49.601c6.409-33.446,12.843-70.228,19.058-93.253
						C220.066,336.051,228.98,315.255,237.155,302.475"/>
				</g>
			</g>
			<path clip-path="url(#SVGID_30_)" fill="#555251" d="M374.878,203.975c0,0-0.85,0-2.338-0.002
				c-0.372-0.003-0.782-0.005-1.23-0.008c-0.448-0.011-0.934-0.029-1.446,0.021c-1.028,0.061-2.183,0.152-3.44,0.211
				c-1.258,0.092-2.618,0.3-4.057,0.459c-1.438,0.166-2.94,0.473-4.503,0.717c-1.564,0.236-3.154,0.631-4.789,0.936
				c-1.623,0.361-3.261,0.785-4.903,1.194c-1.619,0.485-3.258,0.916-4.841,1.438s-3.148,1.013-4.637,1.57
				c-1.5,0.524-2.932,1.075-4.289,1.607c-1.365,0.51-2.627,1.062-3.806,1.539c-4.688,1.979-7.701,3.548-7.701,3.548l-0.048-0.088
				c0,0,2.97-1.658,7.607-3.78c1.167-0.514,2.416-1.104,3.771-1.654c1.343-0.578,2.771-1.154,4.265-1.715
				c1.481-0.593,3.043-1.121,4.623-1.68c1.579-0.561,3.217-1.031,4.837-1.557c1.642-0.457,3.279-0.931,4.907-1.342
				c1.639-0.361,3.242-0.777,4.821-1.043c0.791-0.123,1.568-0.244,2.331-0.363c0.761-0.121,1.505-0.244,2.239-0.28
				c1.468-0.104,2.846-0.259,4.129-0.3c1.288-0.016,2.467,0.008,3.507,0.01c1.042-0.01,1.932,0.148,2.674,0.207
				c1.479,0.162,2.324,0.254,2.324,0.254L374.878,203.975z"/>
		</g>
	</g>
</g>
<g id="green_with_orange" display="none">
	<g display="inline">
		<defs>
			<polyline id="SVGID_45_" points="2.37,0.527 2.37,1000.527 395.54,1000.264 395.54,0.264 			"/>
		</defs>
		<clipPath id="SVGID_46_">
			<use xlink:href="#SVGID_45_"  overflow="visible"/>
		</clipPath>
		<g clip-path="url(#SVGID_46_)">
			<defs>
				<polygon id="SVGID_47_" points="2.371,0.527 2.371,1000.527 395.54,1000.264 395.54,0.264 				"/>
			</defs>
			<clipPath id="SVGID_48_">
				<use xlink:href="#SVGID_47_"  overflow="visible"/>
			</clipPath>
		</g>
		<g clip-path="url(#SVGID_46_)">
			<defs>
				<polyline id="SVGID_49_" points="395.54,0.264 395.54,1000.264 2.37,1000.527 2.37,0.527 				"/>
			</defs>
			<clipPath id="SVGID_50_">
				<use xlink:href="#SVGID_49_"  overflow="visible"/>
			</clipPath>
			<path clip-path="url(#SVGID_50_)" fill="#555251" d="M107.984,26.54c0,0-0.022,1.936-0.063,5.565
				c-0.074,3.629-0.287,8.951-0.723,15.714c-0.478,6.76-1.18,14.96-2.153,24.349c-0.98,9.388-2.214,19.965-3.658,31.491
				c-2.843,23.056-6.447,49.922-9.251,78.817c-1.384,14.447-2.563,29.403-3.153,44.625c-0.53,15.217-0.56,30.721,0.786,46.123
				c0.649,7.7,1.737,15.357,3.245,22.897c0.438,1.871,0.875,3.741,1.312,5.608c0.196,0.939,0.48,1.854,0.754,2.771l0.814,2.751
				c0.555,1.837,1.107,3.672,1.66,5.503c0.488,1.865,0.983,3.731,1.342,5.611c1.548,7.511,1.979,15.144,1.777,22.632
				c-0.238,7.494-1.118,14.859-2.411,22.018c-2.587,14.325-6.666,27.82-11.048,40.391c-4.417,12.568-9.176,24.23-13.722,34.921
				c-4.537,10.696-8.898,20.411-12.643,29.071c-3.74,8.66-6.87,16.273-9.036,22.69c-2.174,6.404-3.346,11.66-3.276,15.299
				c0.037,1.809,0.313,3.2,0.723,4.047c0.141,0.45,0.386,0.726,0.487,0.94c0.12,0.205,0.182,0.31,0.182,0.31
				s-0.062-0.104-0.185-0.309c-0.104-0.214-0.351-0.487-0.494-0.937c-0.417-0.846-0.706-2.238-0.757-4.051
				c-0.098-3.646,1.035-8.924,3.161-15.353c4.237-12.896,12.283-30.541,21.342-51.919c4.515-10.697,9.237-22.362,13.613-34.922
				c4.341-12.562,8.373-26.038,10.909-40.312c1.27-7.132,2.124-14.463,2.341-21.908c0.181-7.438-0.271-15.006-1.822-22.433
				c-0.361-1.864-0.853-3.69-1.336-5.524c-0.558-1.83-1.115-3.662-1.674-5.498l-0.829-2.77c-0.277-0.924-0.567-1.846-0.769-2.791
				c-0.443-1.879-0.89-3.76-1.336-5.643c-1.536-7.582-2.655-15.274-3.319-23.006c-1.311-15.468-1.237-31.002-0.665-46.244
				c0.632-15.243,1.854-30.21,3.277-44.664c2.884-28.906,6.562-55.765,9.467-78.811c1.452-11.523,2.775-22.087,3.835-31.463
				c1.047-9.378,1.812-17.568,2.342-24.322c0.488-6.757,0.743-12.074,0.847-15.702C107.947,28.476,107.984,26.54,107.984,26.54"/>
			<path clip-path="url(#SVGID_50_)" fill="#555251" d="M48.499,0c0,0,0.083,0.359,0.239,1.032c0.077,0.337,0.175,0.752,0.288,1.24
				c0.107,0.489,0.17,1.064,0.269,1.704c0.105,0.64,0.196,1.351,0.238,2.13c0.054,0.777,0.147,1.618,0.141,2.52
				c0.051,1.802,0.019,3.842-0.19,6.051c-0.163,2.216-0.512,4.596-0.921,7.105c-0.434,2.504-0.954,5.134-1.618,7.824
				c-1.292,5.388-2.934,11.062-4.609,16.715c-1.717,5.641-3.452,11.27-4.889,16.596c-0.695,2.668-1.382,5.244-1.912,7.712
				c-0.565,2.463-0.959,4.817-1.285,6.995c-0.264,2.184-0.469,4.194-0.507,5.982c-0.06,1.788,0.025,3.349,0.154,4.627
				c0.081,0.638,0.153,1.207,0.216,1.703c0.088,0.492,0.189,0.905,0.258,1.243c0.145,0.676,0.223,1.036,0.223,1.036
				s-0.096-0.356-0.275-1.023c-0.086-0.335-0.209-0.745-0.322-1.234c-0.085-0.495-0.183-1.064-0.291-1.701
				c-0.179-1.28-0.325-2.85-0.334-4.654c-0.035-1.805,0.093-3.84,0.319-6.049c0.277-2.201,0.62-4.584,1.131-7.073
				c0.476-2.498,1.093-5.105,1.786-7.786c1.403-5.357,3.096-11.012,4.771-16.661c1.719-5.637,3.398-11.282,4.725-16.634
				c0.664-2.675,1.26-5.271,1.745-7.749c0.465-2.48,0.865-4.836,1.077-7.027c0.143-1.093,0.199-2.146,0.27-3.147
				c0.095-1.001,0.085-1.953,0.109-2.848c0.041-0.895-0.021-1.731-0.045-2.505c-0.013-0.777-0.076-1.484-0.156-2.122
				C49.027,3.365,48.99,2.79,48.91,2.296c-0.089-0.493-0.164-0.913-0.225-1.253C48.563,0.363,48.499,0,48.499,0"/>
			<path clip-path="url(#SVGID_50_)" fill="#555251" d="M142.542,26.54c0,0-0.244,0.393-0.703,1.129
				c-0.431,0.75-1.199,1.78-1.896,3.238c-0.365,0.72-0.795,1.503-1.216,2.378c-0.377,0.896-0.785,1.866-1.22,2.902
				c-0.42,1.041-0.756,2.191-1.17,3.379c-0.404,1.192-0.689,2.489-1.064,3.817c-0.335,1.339-0.573,2.76-0.882,4.215
				c-0.204,1.475-0.463,2.994-0.625,4.567c-0.131,1.578-0.332,3.192-0.372,4.855c-0.039,0.83-0.079,1.669-0.118,2.516
				c-0.009,0.848-0.018,1.704-0.026,2.568c-0.049,1.726,0.055,3.483,0.084,5.26c0.099,1.776,0.175,3.575,0.332,5.383
				c0.28,3.62,0.719,7.286,1.22,10.943c0.987,7.317,2.323,14.589,3.626,21.399c1.306,6.81,2.501,13.18,3.33,18.676
				c0.427,2.745,0.723,5.279,0.909,7.53c0.195,2.252,0.253,4.223,0.242,5.845c-0.047,1.621-0.116,2.895-0.266,3.752
				c-0.121,0.859-0.185,1.317-0.185,1.317s0.045-0.46,0.131-1.323c0.118-0.859,0.12-2.133,0.124-3.746
				c-0.038-1.615-0.155-3.573-0.417-5.808c-0.258-2.235-0.63-4.747-1.095-7.478c-0.907-5.467-2.286-11.792-3.625-18.599
				c-1.346-6.806-2.732-14.086-3.766-21.43c-0.479-3.676-0.898-7.363-1.157-11.007c-0.147-1.82-0.214-3.633-0.303-5.421
				c-0.018-1.791-0.111-3.559-0.052-5.301c0.014-0.87,0.029-1.733,0.043-2.588c0.051-0.854,0.102-1.7,0.153-2.537
				c0.071-1.675,0.304-3.303,0.466-4.891c0.192-1.584,0.481-3.113,0.716-4.596c0.338-1.465,0.605-2.893,0.969-4.239
				c0.406-1.333,0.707-2.637,1.152-3.828c0.454-1.187,0.828-2.333,1.282-3.369c0.469-1.029,0.909-1.992,1.315-2.882
				c0.451-0.869,0.907-1.646,1.296-2.358c0.197-0.354,0.385-0.689,0.561-1.004c0.183-0.311,0.387-0.581,0.56-0.844
				c0.354-0.52,0.654-0.962,0.898-1.321C142.283,26.922,142.542,26.54,142.542,26.54"/>
			<path clip-path="url(#SVGID_50_)" fill="#555251" d="M22,285.307c0,0,1.335,2.994,3.671,8.233
				c1.165,2.622,2.579,5.806,4.202,9.456c0.802,1.83,1.656,3.777,2.557,5.83c0.868,2.066,1.781,4.24,2.734,6.508
				c0.913,2.285,1.864,4.665,2.849,7.129c0.949,2.477,1.871,5.063,2.844,7.711c1.76,5.359,3.641,11.028,4.833,17.09
				c0.164,0.754,0.328,1.51,0.493,2.27s0.247,1.539,0.375,2.312c0.229,1.551,0.484,3.109,0.695,4.684
				c0.231,3.171,0.592,6.376,0.471,9.627l-0.01,2.439c0.012,0.816-0.123,1.627-0.178,2.441c-0.167,1.626-0.253,3.268-0.488,4.895
				c-0.295,1.617-0.592,3.236-0.888,4.857c-0.08,0.405-0.136,0.814-0.236,1.214l-0.332,1.192l-0.664,2.384l-0.673,2.381
				c-0.229,0.792-0.568,1.548-0.848,2.321c-0.586,1.539-1.172,3.074-1.757,4.609c-1.284,3-2.479,6.008-3.586,9.035
				c-2.223,6.043-4.131,12.094-5.809,17.998c-3.33,11.812-5.798,23.023-7.353,32.721c-1.55,9.693-2.311,17.884-1.976,23.607
				c0.165,2.848,0.605,5.113,1.423,6.424c0.396,0.658,0.902,1.016,1.278,1.131c0.375,0.127,0.593,0.09,0.588,0.108
				c0.005-0.019-0.212,0.022-0.592-0.099c-0.38-0.107-0.899-0.461-1.312-1.116c-0.851-1.31-1.334-3.58-1.554-6.437
				c-0.422-5.738,0.118-13.974,1.588-23.705c1.478-9.732,3.765-21.01,7.073-32.871c1.662-5.926,3.557-12.004,5.767-18.084
				c1.1-3.037,2.297-6.082,3.571-9.09c0.573-1.519,1.147-3.041,1.723-4.564c0.272-0.766,0.605-1.512,0.83-2.294l0.656-2.353
				l0.664-2.35l0.332-1.175c0.101-0.394,0.156-0.798,0.236-1.196c0.298-1.6,0.596-3.195,0.893-4.789
				c0.237-1.604,0.327-3.223,0.497-4.826c0.058-0.805,0.194-1.604,0.186-2.41l0.016-2.408c0.134-3.211-0.214-6.381-0.431-9.52
				c-0.203-1.56-0.452-3.105-0.673-4.642c-0.125-0.767-0.203-1.538-0.364-2.293s-0.322-1.507-0.482-2.255
				c-1.177-6.01-2.973-11.674-4.673-17.03c-0.94-2.649-1.833-5.237-2.754-7.72c-0.957-2.469-1.882-4.854-2.769-7.146
				c-0.925-2.276-1.812-4.458-2.655-6.532c-0.862-2.068-1.679-4.029-2.447-5.873c-1.554-3.681-2.909-6.89-4.024-9.531
				C23.279,288.325,22,285.307,22,285.307"/>
			<path clip-path="url(#SVGID_50_)" fill="#555251" d="M34.965,591.428c0,0,0.472,1.139,1.358,3.274
				c0.885,2.135,2.205,5.257,3.753,9.286c0.389,1.007,0.82,2.059,1.231,3.179c0.399,1.123,0.816,2.3,1.251,3.526
				c0.442,1.224,0.897,2.5,1.279,3.853c0.396,1.349,0.854,2.734,1.236,4.188c0.345,1.467,0.701,2.979,1.066,4.537
				c0.262,1.58,0.529,3.205,0.805,4.873c0.189,1.679,0.336,3.406,0.508,5.174c0.083,1.771,0.168,3.582,0.255,5.433
				c0.188,7.404,0.106,15.416,0.157,23.889c0.055,8.474,0.161,17.407,0.452,26.646c0.239,9.238,0.676,18.781,1.14,28.474
				c0.537,9.692,1.083,19.538,1.63,29.384l0.377,7.385c0.093,2.463,0.187,4.924,0.279,7.379c0.19,4.91,0.386,9.803,0.454,14.658
				c0.05,2.429,0.1,4.847,0.148,7.254c0.031,2.405,0.007,4.802,0.013,7.182c0.049,4.762-0.118,9.465-0.236,14.091
				c-0.355,9.251-1.188,18.174-2.305,26.579c-1.111,8.405-2.151,16.342-2.816,23.704c-0.281,3.685-0.551,7.216-0.807,10.575
				c-0.188,3.363-0.366,6.555-0.534,9.554c-0.212,6.003-0.423,11.238-0.499,15.551c-0.126,8.628-0.197,13.559-0.197,13.559
				s0.01-4.932,0.028-13.562c0.023-4.313,0.169-9.553,0.307-15.562c0.13-3.003,0.27-6.199,0.415-9.568
				c0.198-3.367,0.468-6.904,0.751-10.593c0.634-7.376,1.644-15.335,2.717-23.738c1.08-8.402,1.871-17.295,2.187-26.525
				c0.097-4.616,0.245-9.309,0.176-14.063c-0.016-2.377-0.002-4.769-0.043-7.171c-0.06-2.403-0.12-4.818-0.181-7.243
				c-0.087-4.85-0.305-9.735-0.516-14.639c-0.103-2.452-0.207-4.909-0.31-7.368l-0.405-7.383
				c-0.504-9.851-1.009-19.699-1.505-29.396c-0.423-9.701-0.819-19.25-1.019-28.496c-0.254-9.245-0.321-18.186-0.341-26.663
				c-0.014-8.476,0.102-16.491-0.055-23.876c-0.146-7.383-0.91-14.135-2.445-19.941c-0.362-1.453-0.803-2.84-1.18-4.189
				c-0.364-1.354-0.802-2.633-1.229-3.859c-0.42-1.23-0.821-2.409-1.206-3.537c-0.396-1.123-0.815-2.18-1.191-3.19
				c-1.497-4.045-2.779-7.184-3.638-9.33C35.423,592.572,34.965,591.428,34.965,591.428"/>
		</g>
		<g clip-path="url(#SVGID_46_)">
			<defs>
				<polyline id="SVGID_51_" points="395.54,0.264 395.54,1000.264 2.37,1000.527 2.37,0.527 				"/>
			</defs>
			<clipPath id="SVGID_52_">
				<use xlink:href="#SVGID_51_"  overflow="visible"/>
			</clipPath>
			<path clip-path="url(#SVGID_52_)" fill="#9BD2B2" d="M320.27,258.141c0.041,0.878-33.65-0.237-62.647,18.041
				c-15.268,9.625-23.646,27.345-36.818,59.81c7.518-18.528,14.181-23.116,16.313-22.932c4.407,0.381,10.973,12.298,14.188,12.317
				c0,0-2.778-8.824-0.965-12.348c3.312-6.436,14.245,5.141,14.774,4.932c1.008-0.396-15.729-37.83,17.778-10.818
				c9.064,7.306,5.838,2.783,5.878,2.738c0.545-0.617-10.938-12.879-8.875-15.17c2.439-2.709,20.899,8.912,22.144,7.01
				c0,0-16.017-12.782-14.177-17.26c1.338-3.261,12.374-2.129,26.688,0.846c-14.661-6.826-18.508-9.981-18.061-11.418
				c0.731-2.344,14.79-1.629,16.521-1.629c0,0-14.403-4.123-14.26-5.764c0.135-1.535,2.183-3.092,9.378-4.867
				C312.878,260.693,320.252,257.758,320.27,258.141"/>
			<path clip-path="url(#SVGID_52_)" fill="#7EC7A2" d="M373.466,212.503c5.447-4.739-2.496-13.979-9.715-14.144
				c-56.237-1.275-95.637-8.108-187.166,31.555c-91.459,39.632-32.448,659.535-22.802,754.922c0.125,1.239,1.943,1.189,2.014-0.055
				c0.203-3.666,0.366-6.908,0.498-9.657c2.247-46.988,0.709-69.614,1.975-131.006c0.144-6.981,0.242-4.709,0.514-21.089
				c1.931-116.156,0.947-142.842,6.051-194.374c2.629-26.545,6.988-44.567,12.272-80.166c2.181-14.69,3.155-17.248,4.313-25.049
				c0.959-6.459,19.289-110.399,19.595-112.134c0.003-0.019,0.004-0.026,0.006-0.045c0.14-1.16,5.813-47.867,25.451-87.891
				c13.946-28.42,21.981-43.321,38.194-49.975c8.853-3.633,18.636-11.143,40.037-13.658c18.484-2.174,46.394-10.975,50.816-14.309
				C363.297,239.562,354.39,229.098,373.466,212.503"/>
			<path clip-path="url(#SVGID_52_)" fill="#B8DDC3" d="M373.167,212.503c7.655-6.657-2.496-13.979-9.715-14.144
				c-56.237-1.275-95.636-8.108-187.166,31.555c-91.459,39.632-32.448,659.535-22.801,754.922c0.125,1.239,1.943,1.189,2.012-0.055
				c0.204-3.666,0.368-6.908,0.499-9.657c2.247-46.988,0.709-69.614,1.976-131.006c0.144-6.981,0.241-4.709,0.514-21.089
				c1.93-116.156,0.947-142.842,6.05-194.374c2.629-26.545,6.989-44.567,12.273-80.166c2.181-14.69,3.154-17.248,4.312-25.049
				c0.959-6.459,19.289-110.399,19.596-112.134c0.003-0.019,0.004-0.026,0.006-0.045c0.14-1.16,5.812-47.867,25.45-87.891
				c13.946-28.42,21.982-43.321,38.194-49.975c8.854-3.633,23.323-11.752,44.726-14.268c18.483-2.173,23.912-0.484,29.306-1.751
				C350.679,254.496,346.977,235.282,373.167,212.503"/>
			<path clip-path="url(#SVGID_52_)" fill="#7EC7A2" d="M368.734,199.92c-12.692-4.618-22.292-5.212-24.429-5.257
				c-56.993-1.189-75.427-4.742-167.72,35.251c-99.103,42.944-22.801,754.922-22.801,754.922s-5.65-58.851-4.661-140.718
				c0.085-7.037-2.384-16.053-2.301-21.089c1.93-116.156-5.602-124.332-0.498-175.865c2.629-26.545-2.87-40.426,2.414-76.023
				c2.2-14.83,6.853-24.229,9.328-37.267c8.565-45.09,14.963-47.894,10.427-69.995c-2.334-11.373-19.011-18.309-19.99-36.615
				c0-0.002-0.001-0.008-0.001-0.008c0.001,0-2.548-81.539,17.339-122.068c18.58-37.867,53.624-55.262,70.397-64.168
				c18.76-9.959,15.285-10.506,59.021-27.299C310.9,207.717,342.929,201.594,368.734,199.92"/>
			<path clip-path="url(#SVGID_52_)" fill="#B8DDC3" d="M190.6,227.401c0,0-58.444,41.339-65.571,34.212
				c-7.128-7.128-44.19-24.234-44.19-34.212s19.995-6.758,19.995-6.758s16.051-10.547,0-6.42
				c-16.05,4.128-21.094,11.006-0.458-25.221c20.636-36.228-14.904,11.693-16.968,13.757c-2.063,2.063,10.089-22.012,7.338-29.349
				c-2.752-7.337-11.465,34.851-15.133,31.183c-3.669-3.668,1.834-35.311-3.669-35.311s2.751,49.985-5.503,49.985
				c-8.255,0-24.305-15.593-27.516-12.382c-3.21,3.21,29.809,16.509,29.809,25.68c0,9.172,56.407,52.741,56.407,52.741
				s62.768-24.378,71.547-29.353C205.583,250.914,238.825,216.18,190.6,227.401"/>
			<g opacity="0.51" clip-path="url(#SVGID_52_)">
				<g>
					<defs>
						<rect id="SVGID_53_" x="38.86" y="168.985" width="36.752" height="63.283"/>
					</defs>
					<clipPath id="SVGID_54_">
						<use xlink:href="#SVGID_53_"  overflow="visible"/>
					</clipPath>
					<path clip-path="url(#SVGID_54_)" fill="#9BD2B2" d="M75.612,204.594c-3.669-3.669,1.994-35.608-3.509-35.608
						s2.751,49.984-5.503,49.984c-8.255,0-24.305-15.591-27.515-12.381s28.966,16.587,29.808,25.68
						c-0.178-1.856-0.249-3.866-0.15-6.004C69.179,216.77,72.73,209.297,75.612,204.594"/>
				</g>
			</g>
			<g opacity="0.51" clip-path="url(#SVGID_52_)">
				<g>
					<path fill="#9BD2B2" d="M84.314,221.332c2.141-0.491,4.652-0.918,7.478-1.12c3.45-0.247,6.51,0.146,9.042,0.432
						c5.169-3.625,7.375-5.672,7.132-6.618c-0.198-0.771-1.34-1.281-6.141-0.048c-2.615,1.05-5.78,1.745-7.273,2.185
						c-3.155,0.929-4.915,1.195-7.13,2.578C85.966,219.648,84.942,220.646,84.314,221.332"/>
				</g>
			</g>
			<g opacity="0.51" clip-path="url(#SVGID_52_)">
				<g>
					<defs>
						<rect id="SVGID_55_" x="80.788" y="225.232" width="123.51" height="42.961"/>
					</defs>
					<clipPath id="SVGID_56_">
						<use xlink:href="#SVGID_55_"  overflow="visible"/>
					</clipPath>
					<path clip-path="url(#SVGID_56_)" fill="#9BD2B2" d="M190.6,227.401c0,0-57.857,40.699-65.571,34.212
						c-6.123-5.148-23.106-13.959-33.854-22.148c-7.239-5.518-10.337-10.182-10.337-10.182s-0.842,3.277,4.343,9.445
						c5.185,6.169,16.395,13.348,21.434,17.389c14.668,8.987,22.736,9.682,21.918,12.076c0.856-3.736,7.652-3.242,11.443-6.145
						c4.322-3.31,12.791-6.076,25.681-14.65c9.938-6.611,17.237-10.727,23.188-13.802c6.131-3.169,10.51-6.814,15.453-8.364
						C204.297,225.232,197.069,225.651,190.6,227.401"/>
				</g>
			</g>
			<g opacity="0.51" clip-path="url(#SVGID_52_)">
				<g>
					<defs>
						<rect id="SVGID_57_" x="68.734" y="232.566" width="141.308" height="52.74"/>
					</defs>
					<clipPath id="SVGID_58_">
						<use xlink:href="#SVGID_57_"  overflow="visible"/>
					</clipPath>
					<path clip-path="url(#SVGID_58_)" fill="#9BD2B2" d="M118.07,271.464c-12.262-3.687-21.569-14.101-41.509-31.267
						c-6.72-5.785-7.827-7.631-7.827-7.631c0,9.172,56.407,52.74,56.407,52.74s12.759-5.143,28.334-11.154
						c13.354-5.155,33.007-10.59,43.212-18.197c12.463-9.29,13.354-12.463,13.354-12.463
						c-20.507,12.425-49.924,24.867-62.505,28.521C128.045,277.675,128.638,274.641,118.07,271.464"/>
				</g>
			</g>
			<path clip-path="url(#SVGID_52_)" fill="#B8DDC3" d="M160.311,500.527c0,0-46.511,214.913-55.444,238.389
				c-6.127,16.101-8.771,56.03-8.771,56.03c-8.282-3.897-3.409-40.926-3.409-40.926s-38.565,67.638-52.908,73.29
				c-3.271,1.289,35.385-50.479,35.385-65.572c0-8.08-41.717,47.865-36.954,36.223c3.705-9.054,40.142-46.957,40.142-54.504
				s-58.669,43.684-40.142,25.156c19.702-19.702,41.822-35.045,49.365-49.473c11.652-22.288,39.573-194.502,38.595-238.049
				C125.162,436.217,171.421,436.354,160.311,500.527"/>
			<g opacity="0.51" clip-path="url(#SVGID_52_)">
				<g>
					<path fill="#9BD2B2" d="M81.007,747.179c-3.195,2.301-42.798,50.783-42.798,50.783c3.705-9.055,40.142-46.957,40.142-54.505
						C78.351,743.457,84.441,739.721,81.007,747.179"/>
				</g>
			</g>
			<g opacity="0.51" clip-path="url(#SVGID_52_)">
				<g>
					<defs>
						<rect id="SVGID_59_" x="39.671" y="750.697" width="45.915" height="77.018"/>
					</defs>
					<clipPath id="SVGID_60_">
						<use xlink:href="#SVGID_59_"  overflow="visible"/>
					</clipPath>
					<path clip-path="url(#SVGID_60_)" fill="#9BD2B2" d="M85.586,750.734c0,0-13.627,41.599-45.808,76.888
						c-2.369,2.6,35.385-50.791,35.385-65.884C83.994,749.467,85.586,750.734,85.586,750.734"/>
				</g>
			</g>
			<g opacity="0.51" clip-path="url(#SVGID_52_)">
				<g>
					<defs>
						<rect id="SVGID_61_" x="91.262" y="731.34" width="15.809" height="63.606"/>
					</defs>
					<clipPath id="SVGID_62_">
						<use xlink:href="#SVGID_61_"  overflow="visible"/>
					</clipPath>
					<path clip-path="url(#SVGID_62_)" fill="#9BD2B2" d="M104.867,738.917c-6.127,16.099-8.771,56.029-8.771,56.029
						c-8.281-3.897-3.409-40.926-3.409-40.926S113.8,715.439,104.867,738.917"/>
				</g>
			</g>
			<g clip-path="url(#SVGID_52_)">
				<g>
					<path fill="#9BD2B2" d="M90.054,725.823l-51.845,42.79c22.779-23.699,33.795-28.362,40.885-38.04
						c2.493-3.403,6.61-6.216,8.48-11.434c8.661-24.156,20.052-77.439,26.087-128.821c4.749-40.442,11.787-87.574,11.787-89.791
						c0-5.73,0.721-19.436,2.071-33.02c0.649-6.525,6.12-16.326,14.125-17.722c3.227-0.562,7.051,0.315,11.521,3.592
						c-12.955,3.126-20.339,20.849-21.474,38.062C125.886,579.504,106.093,663.868,90.054,725.823"/>
				</g>
			</g>
			<path clip-path="url(#SVGID_52_)" fill="#FBFAF9" d="M335.587,250.04c-4.815,0-8.72-3.903-8.72-8.719s3.904-8.718,8.72-8.718
				c4.814,0,8.719,3.902,8.719,8.718S340.402,250.04,335.587,250.04"/>
			<g opacity="0.08" clip-path="url(#SVGID_52_)">
				<g>
					<defs>
						<rect id="SVGID_63_" x="326.869" y="232.604" width="15.842" height="13.746"/>
					</defs>
					<clipPath id="SVGID_64_">
						<use xlink:href="#SVGID_63_"  overflow="visible"/>
					</clipPath>
					<path clip-path="url(#SVGID_64_)" fill="#454342" d="M328.464,246.35c-2.775-3.934-1.838-9.374,2.097-12.15
						c3.934-2.776,9.374-1.838,12.149,2.096c-3.904-1.592-8.292-0.854-11.173,1.873C328.195,241.332,328.421,245.717,328.464,246.35
						"/>
				</g>
			</g>
			<path clip-path="url(#SVGID_52_)" fill="#464443" d="M336.758,245.429c-3.286,0-5.951-2.665-5.951-5.952
				c0-3.288,2.665-5.952,5.951-5.952c3.287,0,5.952,2.664,5.952,5.952C342.71,242.764,340.045,245.429,336.758,245.429"/>
			<path clip-path="url(#SVGID_52_)" fill="#FBFAF9" d="M340.582,241.322c0.735-1.471,0.405-4.688,0.405-4.688
				c1.245,1.246,1.376,3.542,0.642,5.012c-0.736,1.47-2.427,1.896-3.896,2.272C337.732,243.918,339.845,242.791,340.582,241.322"/>
			<path clip-path="url(#SVGID_52_)" fill="#F69056" d="M307.353,284.087c-34.768-7.923-40.158-14.451-24.486,1.22
				c10.523,10.524,19.172,16.415,19.172,16.415s-19.518-17.874-11.967-18.798C297.622,281.999,307.353,284.087,307.353,284.087"/>
			<path clip-path="url(#SVGID_52_)" fill="#F69056" d="M292.227,298.332c-22.266-15.059-33.696-27.26-20.231-6.977
				c4.839,7.291,13.53,13.886,13.53,13.886s-5.655-8.204-5.81-9.208C278.994,291.35,292.227,298.332,292.227,298.332"/>
			<path clip-path="url(#SVGID_52_)" fill="#F69056" d="M275.591,301.722c-13.127-9.525-23.217-16.05-19.989-7.568
				c3.111,8.179,7.299,15.543,7.299,15.543s-1.789-5.095-1.052-8.784C263.538,292.468,275.591,301.722,275.591,301.722"/>
			<path clip-path="url(#SVGID_52_)" fill="#F69056" d="M264.048,317.205c-8.812-9.525-17.849-15.484-16.812-7.697
				c1.154,8.674,2.5,9.48,2.5,9.48s-0.399-1.831,0.12-4.385C251.762,305.24,264.048,317.205,264.048,317.205"/>
			<path clip-path="url(#SVGID_52_)" fill="#F69056" d="M308.481,272.006c-28.653-3.734-23.479-0.548-23.479-0.548
				c10.768,5.813,19.705,8.973,19.705,8.973s-13.563-6.772-6.013-7.696C306.246,271.81,308.481,272.006,308.481,272.006"/>
			<path clip-path="url(#SVGID_52_)" fill="#F69056" d="M311.049,260.936c-14.49,0.09-14.905,5.994-14.905,5.994
				c3.913,2.727,9.097,2.858,9.097,2.858s-10.846-3.274-3.956-5.847C306.057,262.158,311.049,260.936,311.049,260.936"/>
			<path clip-path="url(#SVGID_52_)" fill="#F69056" d="M248.91,324.09c0,0-4.613-13.594-6.342-15.323
				c-3.305-3.304-10.371-0.206-17.168,17.722c3.531-8.226,8.35-13.81,12.196-13.201c0.826,0.131,1.624,0.639,1.624,0.639
				c0.896,0.686,1.423,1.111,1.85,1.521c1.428,1.369,0.276,0.179,2.843,3.041C246.041,320.863,247.896,322.828,248.91,324.09"/>
			<g opacity="0.51" clip-path="url(#SVGID_52_)">
				<g>
					<defs>
						<rect id="SVGID_65_" x="177.02" y="299.204" width="60.135" height="249.285"/>
					</defs>
					<clipPath id="SVGID_66_">
						<use xlink:href="#SVGID_65_"  overflow="visible"/>
					</clipPath>
					<path clip-path="url(#SVGID_66_)" fill="#9BD2B2" d="M237.155,302.475c-3.857-2.248-8.613-4.004-13.506-2.963
						c-16.945,3.606-23.086,38.118-36.359,151.926c-1.349,11.564-11.303,96.918-10.183,97.052
						c0.486,0.059,2.601-15.955,7.946-48.687c2.234-13.687,5.104-30.23,8.815-49.601c6.409-33.446,12.843-70.228,19.058-93.253
						C220.066,336.051,228.98,315.255,237.155,302.475"/>
				</g>
			</g>
			<path clip-path="url(#SVGID_52_)" fill="#555251" d="M374.878,203.975c0,0-0.85,0-2.338-0.002
				c-0.372-0.003-0.782-0.005-1.23-0.008c-0.448-0.011-0.934-0.029-1.446,0.021c-1.028,0.061-2.183,0.152-3.44,0.211
				c-1.258,0.092-2.618,0.3-4.057,0.459c-1.438,0.166-2.94,0.473-4.503,0.717c-1.564,0.236-3.154,0.631-4.789,0.936
				c-1.623,0.361-3.261,0.785-4.903,1.194c-1.619,0.485-3.258,0.916-4.841,1.438s-3.148,1.013-4.637,1.57
				c-1.5,0.524-2.932,1.075-4.289,1.607c-1.365,0.51-2.627,1.062-3.806,1.539c-4.688,1.979-7.701,3.548-7.701,3.548l-0.048-0.088
				c0,0,2.97-1.658,7.607-3.78c1.167-0.514,2.416-1.104,3.771-1.654c1.343-0.578,2.771-1.154,4.265-1.715
				c1.481-0.593,3.043-1.121,4.623-1.68c1.579-0.561,3.217-1.031,4.837-1.557c1.642-0.457,3.279-0.931,4.907-1.342
				c1.639-0.361,3.242-0.777,4.821-1.043c0.791-0.123,1.568-0.244,2.331-0.363c0.761-0.121,1.505-0.244,2.239-0.28
				c1.468-0.104,2.846-0.259,4.129-0.3c1.288-0.016,2.467,0.008,3.507,0.01c1.042-0.01,1.932,0.148,2.674,0.207
				c1.479,0.162,2.324,0.254,2.324,0.254L374.878,203.975z"/>
		</g>
	</g>
</g>
<g id="Layer_2">
</g>
</svg>
