<?xml version="1.0" encoding="utf-8"?>
<!-- Generator: Adobe Illustrator 15.1.0, SVG Export Plug-In . SVG Version: 6.00 Build 0)  -->
<!DOCTYPE svg PUBLIC "-//W3C//DTD SVG 1.1//EN" "http://www.w3.org/Graphics/SVG/1.1/DTD/svg11.dtd">
<svg version="1.1" id="Layer_1" xmlns="http://www.w3.org/2000/svg" xmlns:xlink="http://www.w3.org/1999/xlink" x="0px" y="0px"
	 width="185px" height="262.535px" viewBox="0 0 185 262.535" enable-background="new 0 0 185 262.535" xml:space="preserve">
<g>
	<path fill="#E19461" d="M91.755,130.95c0,0,18.326-9.72,18.326-17.124c0-7.405,8.932,23.603,8.932,36.564
		c0,12.956,0.939,8.327-4.698,13.418c-5.642,5.091-12.458,1.16-15.979-2.314C94.811,158.024,91.755,130.95,91.755,130.95"/>
	<path fill="#EBB798" d="M46.232,42.739c-8.954,23.366,1.914,49.584,4.459,54.904c2.549,5.324,19.112,31.043,26.758,34.807
		c7.644,3.766,11.784,6.274,20.702,3.766c8.921-2.509,15.238-13.805,19.244-21.959c4.007-8.155,6.813-26.448,6.813-41.504
		c0-15.057-3.895-23.526-5.354-27.816c-1.46-4.292-8.056-13.517-13.059-18.509c-6.369-6.353-7.374-8.664-18.65-8.954
		c-9.288-0.237-17.024,1.84-31.994,9.27C49.597,29.501,48.783,36.092,46.232,42.739"/>
	<path fill="#F0AB7C" d="M48.316,36.786C57.435,10.697,65.52,2.752,79.528,0.359c6.583-1.125,14.779-0.453,27.537,14.773
		c5.349,6.375,9.487,17.515,9.487,25.212c0,0-3.151-2.08-6.843-5.715c-3.689-3.635-10.116-9.362-22.752-4.017
		c-10.798,4.568-18.627-5.303-31.095,0.382L48.316,36.786z"/>
	<path fill="#EDEEEF" d="M73.475,26.971c-7.168-3.138-11.787-4.236-11.787-8.628c0-4.393,1.432-9.098,5.89-10.351
		c4.461-1.259,6.851-0.472,7.968,0.625c1.112,1.1,0.319,4.392,1.112,4.392c0.802,0,4.143,0.787,4.143-0.624
		c0-1.413-1.275-3.641,1.434-5.04c2.707-1.393,6.534-3.308,11.309,0c4.778,3.313,7.487,7.86,4.778,10.527
		c-2.708,2.668-8.123,7.217-14.176,9.099C78.093,28.853,73.475,26.971,73.475,26.971"/>
	<path fill="#4E4C4D" d="M65.004,19.577c-2.366-0.845-0.74-6.868,4.153-7.599C74.052,11.25,71.975,22.059,65.004,19.577"/>
	<path fill="#4E4C4D" d="M86.957,13.732c-0.55,3.079,4.809,5.561,6.083,5.261c2.039-0.487,5.826-3.537,1.779-7.046
		C89.327,7.18,86.957,13.732,86.957,13.732"/>
	<path fill="#E0BC24" d="M73.868,17.779c-0.994,5.883,3.996,11.401,3.996,11.401s1.153-5.31,1.789-5.934
		c0.636-0.627,1.751-0.627,2.636-0.627h2.878c0,0-1.224-7.627-2.786-8.661c-1.397-0.926-4.641-2.318-6.741-0.248
		C73.539,15.782,73.868,17.779,73.868,17.779"/>
	<path fill="#A28463" d="M85.165,22.62l-1.061-4.674c0,0-2.805-0.098-3.627,2.602l-0.825,2.698c0,0,1.335-1.006,3.423-0.625
		C84.408,22.864,85.165,22.62,85.165,22.62"/>
	<path fill="#403429" d="M81.268,15.548c0.459-0.79,1.101,0.423,1.101,0.423s0.33,0.949-0.409,1.146
		c-0.737,0.195-0.82-0.708-0.82-0.708S80.939,16.105,81.268,15.548"/>
	<path fill="#403429" d="M73.928,17.092c0.704,0.693,1.165-0.483,1.165-1.054c0-0.577-0.449-1.014-0.58-0.884
		C74.052,15.607,73.723,16.891,73.928,17.092"/>
	<path fill="#F4DB75" d="M70.13,17.776c-1.294,1.275-3.175,1.488-4.203,0.476c-1.023-1.012-0.809-2.863,0.485-4.137
		c1.292-1.273,3.172-1.486,4.201-0.477C71.641,14.651,71.422,16.501,70.13,17.776"/>
	<path fill="#F4DB75" d="M93.624,12.475c1.292,1.275,1.512,3.126,0.483,4.138c-1.029,1.01-2.908,0.794-4.201-0.476
		c-1.292-1.272-1.509-3.125-0.482-4.138C90.449,10.987,92.329,11.202,93.624,12.475"/>
	<path fill="#020202" d="M69.937,15.945c0,0.906-0.748,1.642-1.667,1.642c-0.92,0-1.665-0.736-1.665-1.642
		c0-0.903,0.745-1.641,1.665-1.641C69.189,14.305,69.937,15.042,69.937,15.945"/>
	<path fill="#020202" d="M93.43,14.306c0,0.903-0.748,1.641-1.668,1.641c-0.917,0-1.663-0.737-1.663-1.641
		c0-0.905,0.746-1.641,1.663-1.641C92.682,12.666,93.43,13.401,93.43,14.306"/>
	<path fill="#EDEEEF" d="M48.447,82.559c1.834,11.66,5.785,23.28,15.432,35.441c6.587,8.301,22.482,21.351,32.132,18.618
		c12.94-3.668,23.06-23.279,23.06-26.546c0-5.623-3.968-9.362-7.847-19.262c-4.049-10.324-1.916-39.062-7.33-40.366
		c-7.256-1.748-14.817-1.973-18.259-2.165c-4.858-0.271-2.153-13.086-10.714-13.807c-5.957-0.5-7.637,5.062-7.637,5.062
		c-2.327,7.795-3.378,10.105-10.2,10.105c-6.824,0-9.857,0.987-10.602,10.67C45.794,69.199,46.556,70.544,48.447,82.559"/>
	<polygon fill="#B3B1B2" points="0,20.91 0,262.535 35.186,262.339 35.186,20.91 	"/>
	<polygon fill="#9F9F9F" points="0,20.91 10.139,21.39 10.139,262.479 0,262.535 	"/>
	<path fill="#9F9F9F" d="M25.873,177.425c0,0-10.108,15.358,3.183,25.807l110.01-66.845L185,136.737v-14.169H28.417
		c0,0-5.729,6.457,0,16.044l80.783-1.875L25.873,177.425z"/>
	<path fill="#F1CF3E" d="M69.139,113.291c1.582,6.783,1.245,12.48,1.245,12.48s1.745,0.501,2.006-0.074
		c1.799-3.959-0.023-10.761-0.023-12.596C72.368,111.804,68.839,111.995,69.139,113.291"/>
	<path fill="#DEBA25" d="M67.848,121.781c-1.686,8.402,1.863,15.183,1.863,15.183s3.325,0.645,3.019-0.089
		c-2.02-4.816-1.296-12.79-1.296-15.021C71.433,120.275,68.162,120.203,67.848,121.781"/>
	<path fill="#F1CF3E" d="M70.534,121.848c-1.722,8.907,1.904,16.089,1.904,16.089s3.395,0.685,3.08-0.094
		c-2.062-5.104-1.322-13.551-1.322-15.918C74.196,120.254,70.858,120.174,70.534,121.848"/>
	<path fill="#F9D333" d="M73.042,121.588c-1.088,7.013,1.204,12.67,1.204,12.67s2.148,0.538,1.947-0.073
		c-1.304-4.021-0.835-10.67-0.835-12.534C75.357,120.334,73.249,120.273,73.042,121.588"/>
	<path fill="#F1CF3E" d="M99.704,113.291c1.582,6.783,1.245,12.48,1.245,12.48s1.747,0.501,2.004-0.074
		c1.798-3.959-0.021-10.761-0.021-12.596C102.933,111.804,99.403,111.995,99.704,113.291"/>
	<path fill="#DEBA25" d="M98.412,121.781c-1.688,8.402,1.861,15.183,1.861,15.183s3.327,0.645,3.021-0.089
		c-2.021-4.816-1.299-12.79-1.299-15.021C101.996,120.275,98.727,120.203,98.412,121.781"/>
	<path fill="#F1CF3E" d="M101.099,121.848c-1.721,8.907,1.9,16.089,1.9,16.089s3.396,0.685,3.082-0.094
		c-2.061-5.104-1.323-13.551-1.323-15.918C104.758,120.254,101.425,120.174,101.099,121.848"/>
	<path fill="#F9D333" d="M103.606,121.588c-1.088,7.013,1.205,12.67,1.205,12.67s2.146,0.538,1.949-0.073
		c-1.309-4.021-0.84-10.67-0.84-12.534C105.921,120.334,103.812,120.273,103.606,121.588"/>
	<path fill="none" stroke="#505050" stroke-width="0.25" stroke-miterlimit="10" d="M107.556,50.444c0,0-0.303,1.014,0.169,12.621
		c0.269,6.644,0.882,22.612,4.635,30.79c1.731,3.772,6.714,9.708,6.714,16.216"/>
	<path fill="none" stroke="#505050" stroke-width="0.25" stroke-miterlimit="10" d="M47.53,51.38c0,0-1.277,10.459-1.277,12.926
		c0,12.29,6.593,41.953,10.658,43.373"/>
</g>
</svg>
