<?xml version="1.0" encoding="utf-8"?>
<!-- Generator: Adobe Illustrator 15.1.0, SVG Export Plug-In . SVG Version: 6.00 Build 0)  -->
<!DOCTYPE svg PUBLIC "-//W3C//DTD SVG 1.1//EN" "http://www.w3.org/Graphics/SVG/1.1/DTD/svg11.dtd">
<svg version="1.1" xmlns="http://www.w3.org/2000/svg" xmlns:xlink="http://www.w3.org/1999/xlink" x="0px" y="0px"
	 width="1001.876px" height="740.793px" viewBox="0 0 1001.876 740.793" enable-background="new 0 0 1001.876 740.793"
	 xml:space="preserve">
<g id="Layer_2">
	<path fill="#996B4B" d="M616.111,143c55.416,19,112.054,113.233,140.054,137.233S835.76,344.336,874.527,364
		c36.771,18.651,80,40,96,72c12.776,25.552,10.976,66.728,3.296,90.173l-31.153,0.158c1.154-1.404,2.117-2.852,2.857-4.332
		c8-16-4.316-60.898-15-75c-12.5-16.499-25.357-29.542-45.055-33.01c-9.674-1.703-59.143-23.21-87.488-34.989
		c-26.637-11.069-108.819-67.767-129.819-43.767"/>
	<path fill="#464747" d="M93,918C93,918,314.283,488.156,458,462c351.133-63.909,541-43.752,541-43.752v113.887
		c-488.552,0-481.039,39.461-524.507,62.86C431.024,618.393,251,918,251,918"/>
	<path fill="#282828" d="M606,474c0,0,31.795,35.045,27.459,72.52c0,0-157.459,34.982-198.392,89.226
		c0,0-23.945-104.792-8.067-109.413"/>
	<path fill="#9A9B9B" d="M210,918c0,0,79.468-139.354,103.5-179S427,560,427,560l-170,12c0,0-76.064,103.749-107.236,152.503
		C118.593,773.258,35,918,35,918H210z"/>
	<line fill="#464747" x1="93" y1="918" x2="251" y2="918"/>
</g>
<g id="Layer_3">
	<path fill="#CACCCC" d="M977.097,532.164c-2.148,6.561-4.671,12.4-7.496,15.865c-10.972,13.455-37.496,33.473-65.601,33.473
		c-26.907,0-49.004-1.799-68.06-24.422c-19.748-23.447-25.603-59.635-25.939-75.492c-0.3-14.088,3.303-25.262,10.419-32.314
		c5.378-5.33,12.528-8.018,20.701-7.77c15.471,0.469,39.285,10.762,43.793,32.174c0.496,2.357,1.814,8.617-2.429,11.363
		c-4.847,3.135-11.416-1.646-19.022-7.186c-2.789-2.033-6.609-4.816-8.062-5.23c-0.591-0.168-1.212-0.354-1.857-0.545
		c-3.787-1.125-10.123-3.008-12.536-1.586c-0.236,0.139-0.789,0.465-1.104,1.877c-1.777,7.998-0.035,33.977,4.737,44.477
		c4.623,10.172,20.752,32.77,38.559,33.66c16.715,0.842,42.406-5.361,52.895-18.133"/>
</g>
<g id="Layer_1">
	<g>
		<defs>
			<polygon id="SVGID_1_" points="999,919.793 0,918 0,1.753 999,1.793 			"/>
		</defs>
		<clipPath id="SVGID_2_">
			<use xlink:href="#SVGID_1_"  overflow="visible"/>
		</clipPath>
		<g clip-path="url(#SVGID_2_)">
			<defs>
				<polygon id="SVGID_3_" points="1026,918 26,918 -141.024,1.013 1000,-82 				"/>
			</defs>
			<clipPath id="SVGID_4_">
				<use xlink:href="#SVGID_3_"  overflow="visible"/>
			</clipPath>
		</g>
		<g clip-path="url(#SVGID_2_)">
			<defs>
				<rect id="SVGID_5_" width="999" height="918"/>
			</defs>
			<clipPath id="SVGID_6_">
				<use xlink:href="#SVGID_5_"  overflow="visible"/>
			</clipPath>
		</g>
		<g clip-path="url(#SVGID_2_)">
			<defs>
				<rect id="SVGID_7_" width="999" height="918"/>
			</defs>
			<clipPath id="SVGID_8_">
				<use xlink:href="#SVGID_7_"  overflow="visible"/>
			</clipPath>
			<path clip-path="url(#SVGID_8_)" fill="#E07070" d="M650.352,462.363c0,0,6.693,0.555,8.951,8.744
				c2.258,8.193-13.934,18.838-13.934,18.838S650.348,470.224,626,476.5c0,0-17.922,3.779-16.688-0.334s13.45-14.002,15.519-13.883
				C628.967,462.521,650.352,462.363,650.352,462.363z"/>
			<path clip-path="url(#SVGID_8_)" fill="#F7937C" d="M644.988,491.908l-1.002-6.973c0,0-19.211,6.053-18.402-4.592
				c0.209-2.732-2.371-6.676,8.957-9.799C645.87,467.421,656.076,475.746,644.988,491.908"/>
			<path clip-path="url(#SVGID_8_)" fill="#D88282" d="M601.776,483.019c-6.11,10.424,0.905,21.521,0.905,21.521
				s-3.514-2.512,2.381-7.203c5.895-4.689,14.287-7.957,14.287-7.957s5.236-22.957-15.252-8.209"/>
			<path clip-path="url(#SVGID_8_)" fill="#E07070" d="M634.577,478.763c0,0-6.075-9.121-14.812-3.4
				c-8.738,5.723-5.078,18.127,1.576,16.629c3.207-0.723,4.975,5.637,4.975,5.637c2.346-4.891,0.919-5.939,4.332-8.436
				C634.062,486.697,636.206,484.673,634.577,478.763"/>
			<path clip-path="url(#SVGID_8_)" fill="#E07070" d="M259.602,580.818c0,0-6.305,2.313-6.305,10.81s18.438,14.457,18.438,14.457
				s-14.666-21.162,10.475-21.58L259.602,580.818z"/>
			<path clip-path="url(#SVGID_8_)" fill="#F7937C" d="M272.624,607.874l-0.889-6.986c0,0,20.131,0.729,16.521-9.316
				c-0.927-2.58,0.513-7.066-11.239-7.066C265.267,584.504,257.64,595.241,272.624,607.874"/>
			<path clip-path="url(#SVGID_8_)" fill="#D88282" d="M311.919,587.823c8.662,8.426,4.847,20.988,4.847,20.988
				s2.721-3.355-4.208-6.311s-15.89-3.875-15.89-3.875s-11.147-20.743,12.522-11.967"/>
			<path clip-path="url(#SVGID_8_)" fill="#E07070" d="M279.168,592.438c0,0,3.432-10.409,13.376-7.215
				c9.944,3.193,9.712,16.123,2.898,16.449c-3.284,0.156-3.298,6.756-3.298,6.756c-3.56-4.092-2.464-5.48-6.418-6.98
				S279.168,598.567,279.168,592.438"/>
			<path clip-path="url(#SVGID_8_)" fill="#845D42" d="M547.82,510.941c4.642-1.709,32.352-14.104,40.546-18.771
				c63.307-36.053,153.334-144.017,85.964-301.215C604.949,29.065,413.625,1.733,342.142,50.089
				c-71.483,48.357-95.644,61.057-107.226,71.484s-255.06,356.545,50.459,391.055C473.919,533.927,525.236,519.251,547.82,510.941"
				/>
			<path clip-path="url(#SVGID_8_)" fill="#996B4B" d="M506.857,207.111c63.355,80.634,103.172,146.157,92.674,208.389
				c-16.396,97.201-115.404,142.962-136.629,149.761c-45.727,14.648-300.751,73.843-349.501-104.857
				c-11.745-43.051,16.091-127.016,29.001-217.369C156.64,143.39,406.213,79.017,506.857,207.111"/>
			<path clip-path="url(#SVGID_8_)" fill="#EACAB0" d="M335.835,208.761c76.402-35.145,101.071-51.198,116.387-37.527
				c5.417,4.836-89.38,48.461-47.552,124.981c5.973,10.925,43.379,68.784,46.992,91.962c2.543,16.321-4.463,108.808-80.865,150.066
				c-61.099,32.992-119.346,27.652-131.554,25.359c-64.764-12.162-133.126-65.098-137.5-111.254
				c-1.898-20.042,0.425-98.599,8.923-114.222c0,0-30-7.333-63.333-29.333c-24.846-16.398-29.864-32.911-40.368-56.718
				c-5.553-12.583,12.377-60.702,84.195-51.533c22.064,2.816,38.557,31.052,55.05,27.67c37.192-7.626,65.18-30.5,91.645-30.5
				C237.855,197.713,237.855,200.828,335.835,208.761"/>
			<path clip-path="url(#SVGID_8_)" fill="#C98D61" d="M392.204,293.797c0,0,122.681,115.153-6.131,221.335
				c-128.812,106.183-248.348-6.703-268.938-70.941c-6.734-21.011-20.562-94.345,10.172-133.985
				C158.042,270.565,269.524,219.55,392.204,293.797"/>
			<path clip-path="url(#SVGID_8_)" fill="#B2835D" d="M457.689,169.986c0,0-1.442,16.192-0.867,27.164
				c0.277,5.321-1.219,19.356-3.684,28.106c-2.249,7.993-0.314,9.854-5.242,15.816c-7.932,9.594-12.259,11.823-17.416,16.453
				c-1.668,1.498-15.683,10.413-17.891,10.798c-8.33,1.453-34.602,21.768-40.527,10.064c-0.002-0.005-0.004-0.007-0.004-0.007
				c-0.044,0.012,1.225,4.731,1.29,4.975c3.99,14.898-0.944,22.299-0.796,35.092c0.155,13.201-5.523,25.238,1.729,40.973v0.001
				c46.238,36.16,2.871,70.7-27.616,56.115c0,0,1.126,3.075,2.949,9.457c6.16,21.558,24.681,73.114,17.98,85.151
				c-16.724,30.051-94.767,53.092-130.952,11.197c-16.693-19.33-11.657-56.701-31.084-69.441
				c-8.759-5.746-13.626,0.883-21.874-4.107c-17.127-10.361-9.194-38.912-18.755-72.195c-8.325-28.982-25.902-47.591-33.463-55.594
				c-43.708-46.272-99.36-26.423-112.568-64.767c-9.536-27.687,1.93-55.144,10.552-63.765
				c18.307-18.308,114.779,35.594,117.626,34.146C267.35,164.427,336.7,208.045,336.7,206.165c0-1.782,14.537-3.594,33.208-14.308
				C396,176.886,431.428,153.713,457.689,169.986"/>
			<path clip-path="url(#SVGID_8_)" fill="#724A2D" d="M443.025,167.548c18.439,1.46,15.102,2.809,15.479,5.926
				c5.023,41.542,4.399,99.308-44.328,114.531c-7.785,2.432-17.709,5.368-28.373,18.866c-4.017,5.084-5.99,5.59-7.441,9.166
				c-2.855,7.034-7.624,22.072-4.079,43.384c4.442,3.392,10.993,9.091,17.123,19.629c4.208,7.234,3.638,15.232,1.612,21.125
				c-8.801,25.61-45.878,16.703-45.878,16.703s31.393,56.283,20.704,91.677c-3.078,10.193-10.692,17.799-23.798,24.504
				c0,0-10.693-66.438-17.721-76.334C258.4,361.062,370.171,174.933,443.025,167.548"/>
			<path clip-path="url(#SVGID_8_)" fill="#F9AF8A" d="M435.957,180.6c0,0-54.782,29.395-62.799,88.185
				c-8.018,58.791,66.139-3.34,74.824-12.025c8.685-8.685,12.025-76.16,0-76.16"/>
			<path clip-path="url(#SVGID_8_)" fill="#724A2D" d="M276.343,542.841c0,0-30.6-3.496-39.7-21.502
				c-10-19.785-19.168-57.408-19.168-57.408c-20.843-3.789-48.812-4.605-53.686-20.527c-3.897-12.731-7.354-19.026-6.041-41.119
				c1.584-11.16,0.732-20.191-0.688-25.529c-5.467-20.537-26.953-22.954-29.553-23.975c-20.915-8.221-18.457-13.551-52.021-25.205
				c-57.528-19.975-77.841-79.562-72.086-90.377c5.811-10.921,19.348-51.142,38.685-51.142c9.274,0,79.083,50.556,107.121,82.061
				c47.431,53.296,66.863,58.643,90.775,120.281C263.894,450.037,276.343,542.841,276.343,542.841"/>
			<path clip-path="url(#SVGID_8_)" fill="#F4866C" d="M348.137,525.667c1.056,8.561-1.554,21.547-7.102,27.32
				c-9.634,10.027-24.575,5.896-24.575,5.896c-3.934,9.832-29.602,6.354-36.163-2.721c-6.954-9.617-7.948-17.727-10.38-22.307
				c-1.067-2.012,4.231-6.428,6.38-7.184c9.773-3.441,45.908-15.814,57.86-14.984C345.67,512.488,346.494,512.359,348.137,525.667"
				/>
			<path clip-path="url(#SVGID_8_)" fill="#F9AF8A" d="M127.309,310.206c-37.412-76.16-69.479-101.547-85.514-101.547
				s-34.739,33.404-25.387,50.774c9.353,17.369,12.025,33.403,45.429,50.773c33.404,17.37,66.808,17.37,73.488,17.37
				S127.309,310.206,127.309,310.206"/>
			<path clip-path="url(#SVGID_8_)" fill="#EDEDED" d="M374.221,364.666c0,0-33.113-4.358-29.08,45.592
				c0.649,8.057,43.201,7.996,45.025-7.993C392.535,381.51,390.166,378.135,374.221,364.666"/>
			<path clip-path="url(#SVGID_8_)" fill="#B1C9E0" d="M374.221,364.666c0,0-8.057-0.274-7.116,0.667
				c1.194,1.194,4.763,4.107,15.616,10.987c6.652,4.216,5.539,31.874,6.113,30.14C397.595,380.051,388.055,376.513,374.221,364.666"
				/>
			<path clip-path="url(#SVGID_8_)" fill="#FFFFFF" d="M185.477,398.85c23.253,0,36.376,33.709,36.376,33.709
				s8.267,24.161-9.921,24.161c-18.188,0-45.745-6.613-45.745-15.982C166.187,431.368,165.636,398.85,185.477,398.85"/>
		</g>
		<g clip-path="url(#SVGID_2_)">
			<defs>
				<path id="SVGID_9_" d="M374.221,364.665c15.945,13.47,18.314,16.845,15.945,37.599c-1.824,15.99-44.375,16.051-45.025,7.994
					c-3.434-42.53,20.061-45.688,27.118-45.688C373.49,364.569,374.221,364.665,374.221,364.665"/>
			</defs>
			<clipPath id="SVGID_10_">
				<use xlink:href="#SVGID_9_"  overflow="visible"/>
			</clipPath>
			<path clip-path="url(#SVGID_10_)" fill="#BF692E" d="M341.713,394.166c0,12.314,5.82,22.299,19.613,22.299
				s21.172-9.984,21.172-22.299c0-12.316-7.379-22.3-21.172-22.3S341.713,381.85,341.713,394.166"/>
		</g>
		<g clip-path="url(#SVGID_2_)">
			<defs>
				<polygon id="SVGID_11_" points="999,0 0,44 0,918 999,918 				"/>
			</defs>
			<clipPath id="SVGID_12_">
				<use xlink:href="#SVGID_11_"  overflow="visible"/>
			</clipPath>
			<path clip-path="url(#SVGID_12_)" fill="#262525" d="M347.99,394.836c0,8.695,6.045,15.744,13.502,15.744
				s13.502-7.049,13.502-15.744c0-8.696-6.045-15.745-13.502-15.745S347.99,386.14,347.99,394.836"/>
			<g opacity="0.51" clip-path="url(#SVGID_12_)">
				<g>
					<defs>
						<rect id="SVGID_13_" x="344.45" y="365.06" width="22.79" height="49.725"/>
					</defs>
					<clipPath id="SVGID_14_">
						<use xlink:href="#SVGID_13_"  overflow="visible"/>
					</clipPath>
					<path clip-path="url(#SVGID_14_)" d="M367.24,365.061c-4.787,7.909-7.429,14.844-8.971,19.84c0,0-1.935,6.273-5.438,29.885
						c-5.639-1.057-8.382-2.18-8.071-9.918c-1.293-11.494,1.235-27.088,11.833-34.997
						C358.574,368.393,362.106,366.068,367.24,365.061"/>
				</g>
			</g>
			<path clip-path="url(#SVGID_12_)" fill="#F2F1F0" d="M365.738,381.564c0,0,6.743,4.912,6.969,13.271l-2.732,0.396
				C369.975,395.232,367.779,382.232,365.738,381.564"/>
		</g>
		<g clip-path="url(#SVGID_2_)">
			<defs>
				<path id="SVGID_15_" d="M221.853,432.559c0,0,8.268,24.161-9.92,24.161c-18.188,0-45.746-6.615-45.746-15.982
					c0-9.37-0.551-41.888,19.29-41.888C208.73,398.85,221.853,432.559,221.853,432.559"/>
			</defs>
			<clipPath id="SVGID_16_">
				<use xlink:href="#SVGID_15_"  overflow="visible"/>
			</clipPath>
			<path clip-path="url(#SVGID_16_)" fill="#BF692E" d="M172.664,427.854c-2.349,12.978,5.938,25.343,18.509,27.618
				c12.57,2.275,24.666-6.4,27.015-19.376c2.349-12.977-5.937-25.342-18.508-27.619
				C187.108,406.203,175.014,414.877,172.664,427.854"/>
		</g>
		<g clip-path="url(#SVGID_2_)">
			<defs>
				<polygon id="SVGID_17_" points="1000,-82 0,-82 0,918 1026,918 				"/>
			</defs>
			<clipPath id="SVGID_18_">
				<use xlink:href="#SVGID_17_"  overflow="visible"/>
			</clipPath>
			<path clip-path="url(#SVGID_18_)" fill="#262525" d="M179.026,428.295c-2.25,9.11,2.996,18.243,11.718,20.397
				s17.617-3.484,19.868-12.595c2.25-9.111-2.996-18.243-11.718-20.397C190.172,413.546,181.277,419.186,179.026,428.295"/>
			<g opacity="0.35" clip-path="url(#SVGID_18_)">
				<g>
					<defs>
						<rect id="SVGID_19_" x="183.005" y="398.912" width="41.228" height="56.873"/>
					</defs>
					<clipPath id="SVGID_20_">
						<use xlink:href="#SVGID_19_"  overflow="visible"/>
					</clipPath>
					<path clip-path="url(#SVGID_20_)" d="M217.322,455.785c-4.387-7.324-4.551-32.284-13.335-41.227
						c-6.471-6.587-15.34-11.556-20.983-15.526c6.111-0.463,9.059,0.45,13.485,2.432c6.492,2.906,12.04,7.811,18.759,18.172
						C220.052,427.045,231.626,448.72,217.322,455.785"/>
				</g>
			</g>
			<path clip-path="url(#SVGID_18_)" fill="#B1C9E0" d="M178.442,400.527L178.442,400.527c0,0-3.879,4.035-7.055,19.186
				c-3.408,16.262-3.019,26.11-3.019,26.11s0.715,0.121,0-0.594c-0.716-0.715-2.335-1.539-2.191-7.285
				c0.143-5.722-0.319-24.248,7.279-33.083C176.878,400.887,178.442,400.527,178.442,400.527"/>
			<path clip-path="url(#SVGID_18_)" fill="#FFFFFF" d="M185.471,422.249c-0.567,1.027-2.621,6.107-2.337,9.615
				c0.227,2.82,0.701,4.921,1.337,5.907c-1.62,0.205-1.222,0.018-2.843,0.223C181.628,437.994,178.149,426.823,185.471,422.249"/>
			<path clip-path="url(#SVGID_18_)" fill="#E59D6E" d="M447.982,180.013c19.607,29-56.188,57.751-60.957,113.491
				c0,0-38.566,1.984-3.105-59.222c15.637-26.987,37.641-47.269,52.037-54.269H447.982z"/>
			<path clip-path="url(#SVGID_18_)" fill="#E59D6E" d="M136.19,328.441c-11.02-19.759-30.027-47.888-61.227-73.52
				c-17.898-14.703-37.464-25.623-52.147-32.782c4.411-5.532,6.421-7.682,8.475-9.335c5.156-4.145,10.505-4.145,10.505-4.145
				s15.791-4.23,47.315,37.088C110.151,273.322,137.932,319.171,136.19,328.441"/>
			<path clip-path="url(#SVGID_18_)" fill="#E07070" d="M395.099,578.365c0,0,6.305,2.311,6.305,10.806
				c0,8.498-18.438,14.457-18.438,14.457s14.666-21.159-10.476-21.579L395.099,578.365z"/>
			<path clip-path="url(#SVGID_18_)" fill="#F7937C" d="M382.076,605.418l0.888-6.988c0,0-20.13,0.73-16.521-9.316
				c0.928-2.58-0.512-7.065,11.24-7.065C389.433,582.048,397.06,592.786,382.076,605.418"/>
			<path clip-path="url(#SVGID_18_)" fill="#D88282" d="M342.78,585.366c-8.662,8.426-4.846,20.988-4.846,20.988
				s-2.721-3.354,4.208-6.309s15.89-3.875,15.89-3.875s11.147-20.741-12.522-11.969"/>
			<path clip-path="url(#SVGID_18_)" fill="#E07070" d="M375.532,589.981c0,0-3.432-10.407-13.376-7.214
				c-9.944,3.192-9.712,16.124-2.899,16.448c3.285,0.156,3.299,6.756,3.299,6.756c3.56-4.092,2.464-5.48,6.418-6.98
				C372.927,597.491,375.532,596.11,375.532,589.981"/>
			<path clip-path="url(#SVGID_18_)" fill="#C96F3D" d="M345.43,514.642c0,0-2.021-2.955-11.272-2.955
				c-9.251,0,4.365,42.379,6.878,41.303C344.998,551.291,351.558,531.718,345.43,514.642"/>
			<path clip-path="url(#SVGID_18_)" fill="#C96F3D" d="M295.312,563.992c0,0-4.326-35.334-11.015-37.32
				c-9.876-2.93-14.381,5.865-14.381,5.865S276.183,562.236,295.312,563.992"/>
		</g>
	</g>
</g>
</svg>
