<?xml version="1.0" encoding="UTF-8" standalone="no"?>
<!DOCTYPE svg PUBLIC "-//W3C//DTD SVG 1.1//EN" "http://www.w3.org/Graphics/SVG/1.1/DTD/svg11.dtd">
<svg width="100%" height="100%" viewBox="0 0 150 80" version="1.1" xmlns="http://www.w3.org/2000/svg" xmlns:xlink="http://www.w3.org/1999/xlink" xml:space="preserve" xmlns:serif="http://www.serif.com/" style="fill-rule:evenodd;clip-rule:evenodd;stroke-linejoin:round;stroke-miterlimit:2;">
    <g transform="matrix(1,0,0,1,-3,0)">
        <path d="M136.633,6.641C133.096,3.819 129.102,1.645 124.869,0.164L124.869,0L0,0L0,80.098L108.649,80.098L108.835,80.09L108.706,80.096C108.851,80.1 108.999,80.102 109.147,80.102C109.329,80.102 109.512,80.098 109.733,80.088C114.126,79.869 118.477,79.008 123.04,77.453C127.774,75.84 132.095,73.455 135.874,70.367C138.353,68.347 140.618,66.012 142.606,63.431C143.35,62.464 144.071,61.443 144.87,60.216C146.177,58.275 147.311,56.228 148.245,54.128L148.36,53.876C148.428,53.72 148.489,53.571 148.549,53.417C149.012,52.317 149.428,51.19 149.787,50.065C150.836,47.028 151.269,44.754 151.349,43.022C153.118,29.221 147.502,15.312 136.633,6.641Z" style="fill:white;fill-rule:nonzero;"/>
    </g>
    <g>
        <path d="M7.043,15.639L10.186,15.639L10.186,25.725C10.186,26.854 10.305,27.678 10.546,28.198C10.918,29.118 11.731,29.577 12.984,29.577C14.232,29.577 15.042,29.118 15.414,28.198C15.656,27.678 15.774,26.854 15.774,25.725L15.774,15.639L18.918,15.639L18.918,25.733C18.918,27.479 18.673,28.838 18.187,29.811C17.277,31.594 15.544,32.485 12.985,32.485C10.426,32.485 8.69,31.594 7.775,29.811C7.288,28.838 7.044,27.479 7.044,25.733L7.044,15.639L7.043,15.639Z" style="fill:rgb(68,144,186);fill-rule:nonzero;"/>
        <path d="M31.368,16.062C31.913,16.322 32.374,16.705 32.753,17.21C33.065,17.626 33.314,18.087 33.496,18.591C33.68,19.097 33.77,19.671 33.77,20.318C33.77,21.099 33.593,21.865 33.238,22.619C32.884,23.373 32.299,23.906 31.482,24.217C32.165,24.522 32.648,24.955 32.933,25.516C33.217,26.077 33.359,26.932 33.359,28.084L33.359,29.186C33.359,29.938 33.387,30.446 33.441,30.713C33.523,31.137 33.712,31.449 34.012,31.649L34.012,32.061L30.6,32.061C30.506,31.698 30.44,31.405 30.399,31.18C30.319,30.721 30.275,30.25 30.268,29.766L30.248,28.239C30.236,27.194 30.072,26.495 29.761,26.145C29.446,25.795 28.859,25.622 27.998,25.622L24.979,25.622L24.979,32.061L21.957,32.061L21.957,15.639L29.033,15.639C30.045,15.662 30.824,15.803 31.368,16.062ZM24.979,18.491L24.979,22.904L28.305,22.904C28.967,22.904 29.461,22.814 29.79,22.636C30.377,22.324 30.668,21.708 30.668,20.784C30.668,19.79 30.386,19.122 29.821,18.78C29.502,18.587 29.025,18.491 28.391,18.491L24.979,18.491Z" style="fill:rgb(68,144,186);fill-rule:nonzero;"/>
        <path d="M47.766,17.389C48.219,18.088 48.445,18.924 48.445,19.897C48.445,20.899 48.216,21.704 47.76,22.313C47.504,22.655 47.127,22.967 46.63,23.249C47.386,23.554 47.956,24.038 48.339,24.698C48.725,25.358 48.916,26.161 48.916,27.104C48.916,28.077 48.696,28.95 48.257,29.721C47.979,30.233 47.629,30.664 47.21,31.014C46.738,31.416 46.181,31.69 45.539,31.838C44.895,31.986 44.199,32.061 43.448,32.061L36.781,32.061L36.781,15.639L43.931,15.639C45.735,15.67 47.014,16.252 47.766,17.389ZM39.733,18.492L39.733,22.113L43.329,22.113C43.971,22.113 44.491,21.976 44.892,21.705C45.292,21.435 45.494,20.953 45.494,20.264C45.494,19.498 45.229,18.993 44.7,18.748C44.242,18.576 43.659,18.492 42.95,18.492L39.733,18.492ZM39.733,24.83L39.733,29.209L43.326,29.209C43.967,29.209 44.466,29.113 44.822,28.92C45.471,28.563 45.794,27.879 45.794,26.869C45.794,26.015 45.482,25.428 44.852,25.109C44.502,24.929 44.009,24.838 43.373,24.83L39.733,24.83Z" style="fill:rgb(68,144,186);fill-rule:nonzero;"/>
        <path d="M54.784,15.639L58.281,15.639L63.514,32.061L60.162,32.061L59.184,28.686L53.737,28.686L52.733,32.061L49.5,32.061L54.784,15.639ZM54.58,25.855L58.369,25.855L56.5,19.395L54.58,25.855Z" style="fill:rgb(68,144,186);fill-rule:nonzero;"/>
        <path d="M65.008,15.639L68.248,15.639L74.119,27.09L74.119,15.639L77,15.639L77,32.061L73.909,32.061L67.887,20.411L67.887,32.061L65.008,32.061L65.008,15.639Z" style="fill:rgb(68,144,186);fill-rule:nonzero;"/>
    </g>
    <g>
        <path d="M12.291,34.9C12.506,35.201 12.614,35.56 12.614,35.978C12.614,36.41 12.505,36.755 12.287,37.017C12.164,37.165 11.985,37.3 11.748,37.421C12.108,37.552 12.38,37.759 12.564,38.044C12.747,38.329 12.839,38.675 12.839,39.079C12.839,39.499 12.734,39.874 12.524,40.206C12.391,40.427 12.224,40.612 12.025,40.761C11.797,40.935 11.533,41.052 11.225,41.116C10.919,41.18 10.585,41.214 10.226,41.214L7.043,41.214L7.043,34.148L10.458,34.148C11.32,34.16 11.931,34.41 12.291,34.9ZM8.453,35.375L8.453,36.932L10.17,36.932C10.478,36.932 10.727,36.875 10.918,36.758C11.109,36.641 11.204,36.434 11.204,36.137C11.204,35.807 11.078,35.59 10.825,35.487C10.606,35.413 10.328,35.376 9.99,35.376L8.453,35.376L8.453,35.375ZM8.453,38.102L8.453,39.987L10.169,39.987C10.476,39.987 10.714,39.946 10.884,39.862C11.194,39.708 11.348,39.415 11.348,38.981C11.348,38.612 11.199,38.36 10.899,38.223C10.731,38.145 10.497,38.106 10.193,38.102L8.453,38.102Z" style="fill:rgb(7,69,107);fill-rule:nonzero;"/>
        <rect x="13.99" y="34.149" width="1.467" height="7.066" style="fill:rgb(7,69,107);fill-rule:nonzero;"/>
        <path d="M22.278,40.586C21.744,41.135 20.972,41.41 19.963,41.41C18.954,41.41 18.182,41.135 17.647,40.586C16.932,39.912 16.575,38.94 16.575,37.672C16.575,36.377 16.932,35.404 17.647,34.756C18.182,34.207 18.954,33.932 19.963,33.932C20.972,33.932 21.744,34.207 22.278,34.756C22.991,35.404 23.346,36.377 23.346,37.672C23.347,38.939 22.991,39.912 22.278,40.586ZM21.356,39.512C21.699,39.08 21.871,38.467 21.871,37.672C21.871,36.879 21.699,36.266 21.356,35.832C21.012,35.4 20.547,35.184 19.962,35.184C19.377,35.184 18.911,35.399 18.563,35.83C18.213,36.262 18.04,36.875 18.04,37.672C18.04,38.467 18.214,39.08 18.563,39.512C18.912,39.944 19.377,40.158 19.962,40.158C20.547,40.158 21.013,39.943 21.356,39.512Z" style="fill:rgb(7,69,107);fill-rule:nonzero;"/>
        <path d="M28.613,34.301C29.11,34.465 29.51,34.762 29.818,35.197C30.064,35.549 30.232,35.929 30.322,36.338C30.412,36.748 30.456,37.137 30.456,37.51C30.456,38.448 30.268,39.242 29.891,39.895C29.379,40.774 28.589,41.215 27.52,41.215L24.474,41.215L24.474,34.149L27.52,34.149C27.959,34.154 28.323,34.205 28.613,34.301ZM25.907,35.375L25.907,39.986L27.27,39.986C27.968,39.986 28.455,39.642 28.73,38.955C28.88,38.578 28.956,38.129 28.956,37.609C28.956,36.888 28.843,36.338 28.617,35.953C28.392,35.566 27.943,35.375 27.27,35.375L25.907,35.375Z" style="fill:rgb(7,69,107);fill-rule:nonzero;"/>
        <rect x="31.443" y="34.149" width="1.468" height="7.066" style="fill:rgb(7,69,107);fill-rule:nonzero;"/>
        <path d="M38.426,34.148L39.96,34.148L37.551,41.214L36.156,41.214L33.765,34.148L35.344,34.148L36.876,39.511L38.426,34.148Z" style="fill:rgb(7,69,107);fill-rule:nonzero;"/>
        <path d="M46.066,35.398L42.325,35.398L42.325,36.9L45.758,36.9L45.758,38.127L42.325,38.127L42.325,39.943L46.238,39.943L46.238,41.214L40.883,41.214L40.883,34.148L46.066,34.148L46.066,35.398Z" style="fill:rgb(7,69,107);fill-rule:nonzero;"/>
        <path d="M51.916,34.33C52.176,34.441 52.396,34.605 52.578,34.822C52.727,35.002 52.846,35.201 52.933,35.418C53.02,35.635 53.064,35.883 53.064,36.162C53.064,36.496 52.979,36.826 52.809,37.15C52.64,37.476 52.36,37.703 51.97,37.838C52.296,37.969 52.527,38.156 52.662,38.397C52.799,38.639 52.866,39.008 52.866,39.502L52.866,39.977C52.866,40.299 52.879,40.52 52.905,40.633C52.943,40.817 53.035,40.949 53.177,41.035L53.177,41.215L51.547,41.215C51.503,41.057 51.471,40.932 51.451,40.834C51.412,40.637 51.391,40.434 51.389,40.227L51.379,39.571C51.374,39.12 51.295,38.819 51.147,38.669C50.997,38.519 50.715,38.442 50.305,38.442L48.863,38.442L48.863,41.215L47.421,41.215L47.421,34.149L50.8,34.149C51.284,34.158 51.655,34.219 51.916,34.33ZM48.864,35.375L48.864,37.273L50.453,37.273C50.768,37.273 51.006,37.234 51.164,37.158C51.443,37.023 51.583,36.758 51.583,36.361C51.583,35.933 51.448,35.646 51.177,35.5C51.027,35.416 50.797,35.375 50.494,35.375L48.864,35.375Z" style="fill:rgb(7,69,107);fill-rule:nonzero;"/>
        <path d="M55.541,39.033C55.588,39.355 55.678,39.597 55.812,39.756C56.057,40.047 56.476,40.194 57.071,40.194C57.425,40.194 57.715,40.155 57.937,40.079C58.357,39.931 58.567,39.659 58.567,39.259C58.567,39.025 58.464,38.845 58.258,38.718C58.051,38.593 57.725,38.482 57.277,38.386L56.513,38.218C55.761,38.052 55.243,37.872 54.963,37.677C54.485,37.351 54.248,36.841 54.248,36.148C54.248,35.515 54.481,34.99 54.947,34.572C55.412,34.152 56.096,33.943 56.999,33.943C57.753,33.943 58.395,34.14 58.928,34.535C59.461,34.93 59.739,35.504 59.766,36.254L58.346,36.254C58.321,35.828 58.13,35.527 57.777,35.348C57.54,35.231 57.248,35.172 56.897,35.172C56.507,35.172 56.196,35.248 55.963,35.401C55.73,35.555 55.614,35.768 55.614,36.044C55.614,36.296 55.728,36.485 55.959,36.608C56.105,36.692 56.419,36.79 56.897,36.903L58.136,37.194C58.679,37.323 59.087,37.493 59.358,37.706C59.78,38.04 59.99,38.52 59.99,39.151C59.99,39.796 59.74,40.331 59.242,40.758C58.743,41.184 58.038,41.397 57.127,41.397C56.196,41.397 55.466,41.188 54.932,40.768C54.4,40.348 54.133,39.77 54.133,39.036L55.541,39.036L55.541,39.033Z" style="fill:rgb(7,69,107);fill-rule:nonzero;"/>
        <rect x="60.907" y="34.149" width="1.466" height="7.066" style="fill:rgb(7,69,107);fill-rule:nonzero;"/>
        <path d="M68.888,34.148L68.888,35.398L66.774,35.398L66.774,41.214L65.289,41.214L65.289,35.398L63.164,35.398L63.164,34.148L68.888,34.148Z" style="fill:rgb(7,69,107);fill-rule:nonzero;"/>
        <path d="M73.782,34.148L75.455,34.148L73.093,38.564L73.093,41.214L71.616,41.214L71.616,38.564L69.171,34.148L70.911,34.148L72.378,37.226L73.782,34.148Z" style="fill:rgb(7,69,107);fill-rule:nonzero;"/>
    </g>
    <g>
        <path d="M12.705,43.77L12.705,55.077L22.152,55.077L22.152,43.77L27.813,43.77L27.813,72.026L22.152,72.026L22.152,60.706L12.705,60.706L12.705,72.026L7.043,72.026L7.043,43.77L12.705,43.77Z" style="fill:rgb(246,144,86);fill-rule:nonzero;"/>
        <path d="M48.463,60.861L48.463,43.77L54.177,43.77L54.177,60.879C54.177,64.035 53.062,66.729 50.829,68.959C48.586,71.178 45.898,72.289 42.767,72.289C39.6,72.289 36.901,71.178 34.668,68.959C32.436,66.729 31.32,64.035 31.32,60.879L31.32,43.77L37.034,43.77L37.034,60.862C37.034,63.942 39.643,66.542 42.748,66.542C45.824,66.541 48.463,63.924 48.463,60.861Z" style="fill:rgb(246,144,86);fill-rule:nonzero;"/>
        <path d="M72.249,55.408C72.939,55.754 73.892,56.336 74.423,56.846C76.14,58.588 77,60.68 77,63.123C77,65.576 76.14,67.668 74.423,69.398C72.705,71.148 70.625,72.025 68.183,72.025L57.683,72.025L57.683,43.77L65.571,43.77C67.758,43.77 69.627,44.553 71.18,46.12C72.676,47.64 73.424,49.432 73.424,51.501C73.424,52.855 72.771,54.479 72.249,55.408ZM65.57,49.291L63.344,49.291L63.344,54.463C63.847,54.44 64.554,54.393 65.464,54.322C66.81,54.17 67.954,53.164 67.954,51.728C67.955,50.418 66.892,49.291 65.57,49.291ZM71.46,63.123C71.46,61.244 69.932,59.768 68.183,59.652C66.501,59.56 65.045,59.634 63.345,59.634L63.345,66.488L68.183,66.488C70.024,66.488 71.46,64.967 71.46,63.123Z" style="fill:rgb(246,144,86);fill-rule:nonzero;"/>
    </g>
    <g>
        <g>
            <g>
                <g>
                    <path d="M111.506,5.673C98.235,5.673 86.852,13.76 82.014,25.275L82.014,50.027C86.852,61.542 98.235,69.629 111.506,69.629C129.167,69.629 143.484,55.313 143.484,37.651C143.484,19.989 129.167,5.673 111.506,5.673Z" style="fill:white;fill-rule:nonzero;"/>
                </g>
                <path d="M92.241,41.237C91.658,36.606 91.733,33.953 93.643,29.53L82.561,24.06C80.721,27.95 81.173,31.786 80.973,35.863C81.759,37.513 81.883,38.766 82.525,41.533L92.241,41.237Z" style="fill:rgb(250,178,121);fill-rule:nonzero;"/>
                <path d="M94.572,27.714C94.51,27.809 94.497,27.828 94.567,27.712C94.63,27.598 94.624,27.619 94.572,27.714C94.751,27.432 95.321,26.514 95.321,26.514L85.401,19.213C84.678,20.238 84,21.312 83.387,22.436C83.19,22.796 83.01,23.156 82.828,23.521L93.862,28.96C93.861,28.961 94.411,27.996 94.572,27.714Z" style="fill:rgb(250,178,121);fill-rule:nonzero;"/>
                <path d="M94.567,27.712C94.497,27.828 94.51,27.809 94.572,27.714C94.624,27.619 94.63,27.598 94.567,27.712Z" style="fill:rgb(246,190,25);fill-rule:nonzero;"/>
                <path d="M96.543,24.885C96.471,24.966 96.453,24.983 96.537,24.878C96.625,24.777 96.616,24.797 96.543,24.885C96.758,24.648 97.49,23.83 97.49,23.83L89.027,14.939C87.852,16.097 86.756,17.365 85.752,18.724L95.628,25.988C95.631,25.987 96.333,25.143 96.543,24.885Z" style="fill:rgb(250,178,121);fill-rule:nonzero;"/>
                <path d="M96.54,24.882C96.456,24.985 96.474,24.968 96.544,24.885C96.616,24.797 96.625,24.777 96.54,24.882Z" style="fill:rgb(246,190,25);fill-rule:nonzero;"/>
                <path d="M98.971,22.446C98.893,22.503 98.875,22.514 98.979,22.433C99.084,22.345 99.062,22.367 98.971,22.446C99.216,22.256 100.096,21.565 100.096,21.565L93.344,11.378C91.979,12.317 90.682,13.362 89.463,14.519L97.891,23.363C97.891,23.363 98.709,22.669 98.971,22.446Z" style="fill:rgb(251,197,125);fill-rule:nonzero;"/>
                <path d="M98.979,22.434C98.875,22.515 98.893,22.503 98.971,22.447C99.062,22.367 99.084,22.345 98.979,22.434Z" style="fill:rgb(246,190,25);fill-rule:nonzero;"/>
                <path d="M101.802,20.447C101.702,20.499 101.674,20.509 101.795,20.442C101.914,20.378 101.893,20.392 101.802,20.447C102.094,20.293 103.045,19.781 103.045,19.781L98.195,8.628C96.688,9.314 95.233,10.12 93.843,11.039L100.564,21.175C100.564,21.175 101.522,20.615 101.802,20.447Z" style="fill:rgb(251,197,125);fill-rule:nonzero;"/>
                <path d="M101.795,20.442C101.674,20.509 101.702,20.499 101.802,20.447C101.893,20.392 101.914,20.378 101.795,20.442Z" style="fill:rgb(246,190,25);fill-rule:nonzero;"/>
                <path d="M104.913,18.978C104.786,19.022 104.809,19.016 104.917,18.981C105.018,18.94 105.038,18.935 104.913,18.978Z" style="fill:rgb(246,190,25);fill-rule:nonzero;"/>
                <path d="M104.917,18.98C104.81,19.015 104.786,19.021 104.913,18.977C105.038,18.935 105.018,18.94 104.917,18.98C105.233,18.88 106.255,18.541 106.255,18.541L103.435,6.772C101.833,7.19 100.265,7.73 98.747,8.387L103.573,19.481C103.573,19.481 104.614,19.097 104.917,18.98Z" style="fill:rgb(251,197,125);fill-rule:nonzero;"/>
                <path d="M108.235,18.071C108.102,18.094 108.129,18.092 108.232,18.078C108.342,18.057 108.37,18.048 108.235,18.071Z" style="fill:rgb(252,211,81);fill-rule:nonzero;"/>
                <path d="M108.232,18.078C108.127,18.092 108.102,18.095 108.235,18.071C108.37,18.048 108.342,18.057 108.232,18.078C108.553,18.033 109.634,17.875 109.634,17.875L108.897,5.843C107.251,5.98 105.619,6.239 104.019,6.623L106.832,18.336C106.833,18.336 107.909,18.141 108.232,18.078Z" style="fill:rgb(251,197,125);fill-rule:nonzero;"/>
                <path d="M111.661,17.759C111.526,17.752 111.546,17.757 111.654,17.763C111.766,17.76 111.793,17.759 111.661,17.759Z" style="fill:rgb(252,211,81);fill-rule:nonzero;"/>
                <path d="M111.654,17.763C111.546,17.757 111.526,17.752 111.661,17.759C111.793,17.759 111.766,17.76 111.654,17.763C111.971,17.777 113.069,17.808 113.069,17.808L114.423,5.866C112.777,5.715 111.132,5.699 109.499,5.803L110.232,17.777C110.232,17.775 111.32,17.769 111.654,17.763Z" style="fill:rgb(251,197,125);fill-rule:nonzero;"/>
                <path d="M115.083,18.041C114.95,18.019 114.972,18.023 115.081,18.048C115.19,18.067 115.215,18.067 115.083,18.041Z" style="fill:rgb(252,211,81);fill-rule:nonzero;"/>
                <path d="M115.081,18.048C114.972,18.024 114.95,18.019 115.083,18.041C115.215,18.067 115.19,18.067 115.081,18.048C115.397,18.117 116.46,18.337 116.46,18.337L119.845,6.847C118.249,6.413 116.636,6.108 115.023,5.928L113.675,17.815C113.674,17.814 114.756,17.996 115.081,18.048Z" style="fill:rgb(252,215,127);fill-rule:nonzero;"/>
                <path d="M118.399,18.931C118.297,18.891 118.274,18.878 118.401,18.926C118.52,18.973 118.499,18.966 118.399,18.931C118.702,19.057 119.702,19.457 119.702,19.457L125.013,8.739C123.512,8.037 121.974,7.46 120.425,7.008L117.056,18.45C117.057,18.449 118.091,18.826 118.399,18.931Z" style="fill:rgb(252,215,127);fill-rule:nonzero;"/>
                <path d="M118.401,18.926C118.274,18.878 118.296,18.89 118.399,18.931C118.499,18.966 118.52,18.973 118.401,18.926Z" style="fill:rgb(252,211,81);fill-rule:nonzero;"/>
                <path d="M121.497,20.365C121.416,20.314 121.404,20.303 121.514,20.366C121.631,20.44 121.602,20.424 121.497,20.365C121.75,20.529 122.703,21.118 122.703,21.118L129.778,11.478C128.823,10.818 127.831,10.193 126.784,9.625C126.378,9.406 125.969,9.199 125.552,8.993L120.273,19.667C120.272,19.668 121.198,20.195 121.497,20.365Z" style="fill:rgb(252,215,127);fill-rule:nonzero;"/>
                <path d="M121.513,20.366C121.404,20.303 121.416,20.311 121.496,20.365C121.602,20.424 121.631,20.44 121.513,20.366Z" style="fill:rgb(252,211,81);fill-rule:nonzero;"/>
                <path d="M124.321,22.335C124.221,22.247 124.236,22.263 124.317,22.334C124.404,22.407 124.425,22.422 124.321,22.335Z" style="fill:rgb(255,229,124);fill-rule:nonzero;"/>
                <path d="M124.317,22.334C124.236,22.263 124.221,22.247 124.321,22.335C124.425,22.422 124.404,22.407 124.317,22.334C124.549,22.55 125.362,23.283 125.362,23.283L134.007,15.001C132.861,13.863 131.604,12.8 130.267,11.836L123.224,21.429C123.225,21.427 124.059,22.125 124.317,22.334Z" style="fill:rgb(252,215,127);fill-rule:nonzero;"/>
                <path d="M126.747,24.762C126.663,24.657 126.679,24.679 126.747,24.77C126.815,24.847 126.831,24.864 126.747,24.762Z" style="fill:rgb(255,229,124);fill-rule:nonzero;"/>
                <path d="M126.747,24.77C126.679,24.679 126.663,24.657 126.747,24.762C126.831,24.864 126.815,24.847 126.747,24.77C126.95,25.032 127.614,25.878 127.614,25.878L137.575,19.199C136.637,17.868 135.59,16.605 134.436,15.421L125.827,23.678C125.827,23.678 126.54,24.524 126.747,24.77Z" style="fill:rgb(252,215,127);fill-rule:nonzero;"/>
                <path d="M128.702,27.571C128.659,27.482 128.649,27.464 128.71,27.578C128.778,27.692 128.762,27.672 128.702,27.571C128.849,27.851 129.367,28.828 129.367,28.828L140.366,23.964C139.659,22.486 138.845,21.057 137.915,19.697L127.991,26.349C127.993,26.344 128.532,27.282 128.702,27.571Z" style="fill:rgb(255,225,140);fill-rule:nonzero;"/>
                <path d="M128.709,27.578C128.648,27.46 128.656,27.482 128.701,27.571C128.762,27.672 128.778,27.692 128.709,27.578Z" style="fill:rgb(255,229,124);fill-rule:nonzero;"/>
                <path d="M130.149,30.681C130.119,30.591 130.117,30.578 130.163,30.698C130.206,30.828 130.194,30.8 130.149,30.681C130.237,30.969 130.588,32.04 130.588,32.04L142.305,29.146C141.863,27.558 141.301,26.007 140.623,24.504L129.662,29.357C129.663,29.357 130.029,30.359 130.149,30.681Z" style="fill:rgb(255,225,140);fill-rule:nonzero;"/>
                <path d="M130.163,30.697C130.117,30.578 130.12,30.593 130.149,30.68C130.194,30.8 130.206,30.828 130.163,30.697Z" style="fill:rgb(255,229,124);fill-rule:nonzero;"/>
                <path d="M131.042,34.021C131.022,33.892 131.022,33.91 131.036,34.016C131.057,34.128 131.062,34.157 131.042,34.021Z" style="fill:rgb(255,229,124);fill-rule:nonzero;"/>
                <path d="M131.036,34.017C131.022,33.911 131.022,33.893 131.042,34.022C131.062,34.157 131.057,34.128 131.036,34.017C131.075,34.336 131.225,35.422 131.225,35.422L143.335,34.604C143.172,32.955 142.873,31.326 142.462,29.73L130.785,32.619C130.786,32.618 130.975,33.693 131.036,34.017Z" style="fill:rgb(255,225,140);fill-rule:nonzero;"/>
                <path d="M131.334,37.454C131.338,37.323 131.332,37.343 131.328,37.459C131.33,37.565 131.333,37.591 131.334,37.454Z" style="fill:rgb(255,229,124);fill-rule:nonzero;"/>
                <path d="M131.329,37.459C131.333,37.343 131.339,37.323 131.335,37.454C131.333,37.591 131.33,37.565 131.329,37.459C131.313,37.78 131.279,38.867 131.279,38.867L143.391,40.175C143.52,38.514 143.512,36.853 143.383,35.206L131.328,36.023C131.327,36.024 131.326,37.128 131.329,37.459Z" style="fill:rgb(255,225,140);fill-rule:nonzero;"/>
                <path d="M131.024,40.886C131.049,40.763 131.044,40.782 131.022,40.881C131.002,40.995 130.999,41.021 131.024,40.886Z" style="fill:rgb(255,229,124);fill-rule:nonzero;"/>
                <path d="M131.022,40.881C131.043,40.781 131.049,40.763 131.024,40.886C130.999,41.021 131.002,40.995 131.022,40.881C130.954,41.183 130.723,42.273 130.723,42.273L142.483,45.689C142.907,44.068 143.192,42.426 143.346,40.778L131.265,39.474C131.265,39.476 131.079,40.547 131.022,40.881Z" style="fill:rgb(255,225,140);fill-rule:nonzero;"/>
                <path d="M130.123,44.226C130.166,44.122 130.179,44.097 130.13,44.225C130.084,44.345 130.09,44.324 130.123,44.226C129.994,44.533 129.595,45.534 129.595,45.534L140.611,50.974C141.312,49.435 141.879,47.862 142.324,46.273L130.613,42.876C130.612,42.875 130.227,43.921 130.123,44.226Z" style="fill:rgb(255,235,153);fill-rule:nonzero;"/>
                <path d="M130.129,44.225C130.178,44.097 130.165,44.121 130.122,44.226C130.09,44.324 130.084,44.345 130.129,44.225Z" style="fill:rgb(255,229,124);fill-rule:nonzero;"/>
                <path d="M128.67,47.353C128.738,47.24 128.728,47.261 128.672,47.344C128.612,47.444 128.6,47.47 128.67,47.353Z" style="fill:rgb(255,244,175);fill-rule:nonzero;"/>
                <path d="M128.672,47.344C128.728,47.261 128.738,47.24 128.67,47.353C128.6,47.47 128.612,47.444 128.672,47.344C128.502,47.607 127.914,48.551 127.914,48.551L137.852,55.864C138.474,54.955 139.056,54.012 139.591,53.023C139.862,52.527 140.118,52.029 140.357,51.523L129.377,46.104C129.377,46.104 128.834,47.05 128.672,47.344Z" style="fill:rgb(255,235,153);fill-rule:nonzero;"/>
                <path d="M126.681,50.189C126.763,50.101 126.785,50.076 126.694,50.178C126.612,50.281 126.624,50.266 126.681,50.189C126.455,50.445 125.744,51.234 125.744,51.234L134.273,60.194C135.435,59.015 136.515,57.735 137.501,56.352L127.602,49.078C127.605,49.08 126.878,49.952 126.681,50.189Z" style="fill:rgb(255,235,153);fill-rule:nonzero;"/>
                <path d="M126.694,50.179C126.785,50.076 126.763,50.102 126.681,50.19C126.624,50.266 126.612,50.281 126.694,50.179Z" style="fill:rgb(247,239,103);fill-rule:nonzero;"/>
                <path d="M124.26,52.629C124.362,52.545 124.346,52.557 124.262,52.619C124.176,52.697 124.157,52.716 124.26,52.629Z" style="fill:rgb(247,239,103);fill-rule:nonzero;"/>
                <path d="M124.262,52.619C124.346,52.557 124.362,52.545 124.26,52.629C124.157,52.716 124.176,52.697 124.262,52.619C124.014,52.811 123.143,53.499 123.143,53.499L129.997,63.838C131.356,62.874 132.646,61.804 133.852,60.628L125.346,51.695C125.347,51.695 124.516,52.402 124.262,52.619Z" style="fill:rgb(255,235,153);fill-rule:nonzero;"/>
                <path d="M121.813,18.76C111.334,13.058 98.221,16.93 92.52,27.406C86.817,37.885 90.687,51.005 101.165,56.702C111.642,62.404 124.759,58.534 130.462,48.056C136.162,37.579 132.29,24.459 121.813,18.76" style="fill:rgb(255,248,167);fill-rule:nonzero;"/>
            </g>
        </g>
        <g>
            <g id="g12173_10_" transform="matrix(1,0,0,1,533.45,348.832)">
                <path id="path12175_10_" d="M-425.826,-327.667L-425.826,-332.151L-424.305,-332.151L-424.305,-335.167L-423.881,-335.167L-423.881,-337.294L-420.791,-337.294L-420.791,-335.167L-420.367,-335.167L-420.367,-332.151L-418.846,-332.151L-418.846,-327.667L-417.674,-327.667L-417.674,-279.591L-429.098,-279.591L-429.098,-327.667L-425.826,-327.667Z" style="fill:rgb(155,210,178);fill-rule:nonzero;"/>
            </g>
            <g id="g12177_10_" transform="matrix(1,0,0,1,498.06,335.244)">
                <path id="path12179_10_" d="M-401.934,-309.752L-401.934,-310.4L-400.83,-310.4L-400.83,-310.982L-398.111,-310.982L-398.111,-310.4L-397.007,-310.4L-397.007,-309.752L-396.562,-309.752L-396.562,-270.9L-402.378,-270.9L-402.378,-309.752L-401.934,-309.752Z" style="fill:rgb(155,210,178);fill-rule:nonzero;"/>
            </g>
            <g id="g12181_10_" transform="matrix(1,0,0,1,498.036,227.489)">
                <path id="path12183_10_" d="M-401.917,-167.685L-409.964,-170.455L-409.964,-193.562L-401.917,-193.562L-401.917,-167.685Z" style="fill:rgb(155,210,178);fill-rule:nonzero;"/>
            </g>
            <g id="g12185_20_" transform="matrix(1,0,0,1,530.404,218.171)">
                <path id="path12187_20_" d="M-423.771,-155.4L-431.816,-158.171L-431.816,-181.276L-423.771,-181.276L-423.771,-155.4Z" style="fill:rgb(155,210,178);fill-rule:nonzero;"/>
            </g>
            <g id="g12185_19_" transform="matrix(1,0,0,1,530.404,218.171)">
                <path id="path12187_19_" d="M-442.935,-160.234L-450.98,-163.005L-450.98,-180.11L-442.935,-195.11L-442.935,-160.234Z" style="fill:rgb(155,210,178);fill-rule:nonzero;"/>
            </g>
            <g id="g12189_10_" transform="matrix(1,0,0,1,569.415,190.369)">
                <path id="path12191_10_" d="M-450.106,-123.15L-458.153,-122.65L-458.153,-155.224L-450.106,-155.224L-450.106,-123.15Z" style="fill:rgb(155,210,178);fill-rule:nonzero;"/>
            </g>
            <g id="g12193_10_" transform="matrix(1,0,0,1,451.532,363.43)">
                <path id="path12195_10_" d="M-370.521,-346.913L-369.517,-346.913L-369.326,-347.893L-362.398,-347.893L-362.209,-346.913L-361.203,-346.913L-361.203,-306.362L-370.521,-306.364L-370.521,-346.913Z" style="fill:rgb(155,210,178);fill-rule:nonzero;"/>
            </g>
        </g>
        <g id="g12199_13_" transform="matrix(1,0,0,1,451.532,194.938)">
            <path id="path12201_13_" d="M-370.76,-138.845L-370.76,-155.054L-368.471,-155.054L-368.471,-161.462L-362.477,-161.462L-362.477,-155.146L-361.682,-155.146L-361.682,-165.492L-356.924,-165.492L-356.924,-159.346L-351.127,-159.346L-348.764,-155.658L-348.506,-151.146C-348.506,-151.146 -348.5,-156.91 -340.793,-160.187L-340.793,-150.375L-338.963,-150.375L-338.963,-153.941L-338.266,-155L-337.2,-155L-336.759,-154.32L-336.739,-150.248L-334.913,-150.209L-334.913,-138.145L-335.184,-139.01L-370.76,-138.845Z" style="fill:rgb(78,157,125);fill-rule:nonzero;"/>
        </g>
        <path d="M105.243,46.609L105.243,48.193L108.862,46.609L108.862,48.193L112.479,46.609L112.479,60.057L100.922,60.057L100.922,48.498L105.243,46.609Z" style="fill:rgb(49,107,89);fill-rule:nonzero;"/>
        <g>
            <path d="M87.643,49.154L87.643,44.402L86.774,44.402L89.477,41.734L90.385,47.643L87.643,49.154Z" style="fill:rgb(184,221,195);fill-rule:nonzero;"/>
            <path d="M91.325,49.154L91.325,44.402L92.19,44.402L89.487,41.734L87.643,49.154L91.325,49.154Z" style="fill:rgb(184,221,195);fill-rule:nonzero;"/>
        </g>
        <g>
            <path d="M90.163,49.154L90.163,45.023L89.409,45.023L91.76,42.703L92.549,47.84L90.163,49.154Z" style="fill:rgb(126,199,162);fill-rule:nonzero;"/>
            <path d="M93.366,49.154L93.366,45.023L94.118,45.023L91.768,42.703L90.163,49.154L93.366,49.154Z" style="fill:rgb(126,199,162);fill-rule:nonzero;"/>
        </g>
        <g>
            <path d="M96.678,50.963C97.069,48.275 96.942,44.568 96.942,44.568L97.751,44.568C97.751,44.568 97.444,48.5 97.958,50.963L96.678,50.963Z" style="fill:rgb(184,221,195);fill-rule:nonzero;"/>
            <path d="M97.319,40.795C96.43,40.795 96.225,41.592 96.225,41.592C96.225,41.592 95.596,41.444 95.325,41.932C95.007,42.502 95.305,42.994 95.305,42.994C95.305,42.994 94.619,43.039 94.619,44.047C96.142,44.047 96.941,43.891 96.941,44.57L97.75,44.57C97.75,43.89 98.549,44.047 100.072,44.047C100.072,43.102 99.424,43.033 99.424,43.033C99.424,43.033 99.699,42.39 99.32,41.869C98.912,41.307 98.345,41.515 98.345,41.515C98.345,41.515 98.156,40.796 97.372,40.796L97.319,40.795Z" style="fill:rgb(184,221,195);fill-rule:nonzero;"/>
        </g>
        <g>
            <path d="M98.323,51.68C98.651,49.42 98.546,47.545 98.546,47.545L99.224,47.545C99.24,49.414 99.162,50.045 99.398,51.68L98.323,51.68Z" style="fill:rgb(126,199,162);fill-rule:nonzero;"/>
            <path d="M98.86,44.373C98.116,44.373 97.942,45.041 97.942,45.041C97.942,45.041 97.413,44.918 97.188,45.326C96.92,45.806 97.17,46.221 97.17,46.221C97.17,46.221 96.594,46.258 96.594,47.104C97.873,47.104 98.545,46.975 98.545,47.545L99.223,47.545C99.223,46.975 99.895,47.104 101.176,47.104C101.176,46.311 100.633,46.252 100.633,46.252C100.633,46.252 100.863,45.711 100.545,45.273C100.203,44.802 99.727,44.976 99.727,44.976C99.727,44.976 99.567,44.372 98.909,44.372" style="fill:rgb(126,199,162);fill-rule:nonzero;"/>
        </g>
        <g>
            <path d="M82.884,49.26C83.212,47.002 83.107,45.125 83.107,45.125L83.785,45.125C83.801,46.994 83.723,47.625 83.959,49.26L82.884,49.26Z" style="fill:rgb(126,199,162);fill-rule:nonzero;"/>
            <path d="M83.421,41.953C82.677,41.953 82.503,42.621 82.503,42.621C82.503,42.621 81.974,42.498 81.749,42.908C81.481,43.387 81.731,43.803 81.731,43.803C81.731,43.803 81.155,43.84 81.155,44.684C82.434,44.684 83.106,44.557 83.106,45.125L83.784,45.125C83.784,44.557 84.456,44.684 85.737,44.684C85.737,43.893 85.194,43.834 85.194,43.834C85.194,43.834 85.424,43.293 85.106,42.855C84.764,42.384 84.288,42.558 84.288,42.558C84.288,42.558 84.128,41.953 83.47,41.953" style="fill:rgb(126,199,162);fill-rule:nonzero;"/>
        </g>
        <g>
            <path d="M111.233,54.988C111.517,53.023 111.425,51.392 111.425,51.392L112.016,51.392C112.029,53.017 111.959,53.566 112.166,54.988L111.233,54.988Z" style="fill:rgb(126,199,162);fill-rule:nonzero;"/>
            <path d="M111.699,48.637C111.052,48.637 110.902,49.219 110.902,49.219C110.902,49.219 110.442,49.112 110.246,49.467C110.013,49.883 110.23,50.244 110.23,50.244C110.23,50.244 109.731,50.275 109.731,51.01C110.842,51.01 111.425,50.899 111.425,51.393L112.016,51.393C112.016,50.899 112.598,51.01 113.711,51.01C113.711,50.321 113.239,50.27 113.239,50.27C113.239,50.27 113.439,49.801 113.163,49.42C112.865,49.012 112.451,49.162 112.451,49.162C112.451,49.162 112.312,48.637 111.742,48.637" style="fill:rgb(126,199,162);fill-rule:nonzero;"/>
        </g>
        <g>
            <path d="M87.204,51.973C87.156,49.989 86.792,48.393 86.792,48.393L87.376,48.293C87.661,49.897 87.685,50.449 88.128,51.816L87.204,51.973Z" style="fill:rgb(36,85,74);fill-rule:nonzero;"/>
            <path d="M86.6,45.627C85.96,45.734 85.909,46.334 85.909,46.334C85.909,46.334 85.437,46.305 85.303,46.689C85.146,47.138 85.419,47.457 85.419,47.457C85.419,47.457 84.93,47.574 85.053,48.299C86.153,48.111 86.709,47.904 86.792,48.393L87.012,48.356L87.155,48.331L87.377,48.294C87.294,47.806 87.886,47.817 88.985,47.632C88.87,46.952 88.395,46.982 88.395,46.982C88.395,46.982 88.515,46.484 88.177,46.154C87.817,45.8 87.432,46.021 87.432,46.021C87.432,46.021 87.207,45.525 86.643,45.621" style="fill:rgb(35,84,73);fill-rule:nonzero;"/>
        </g>
        <g>
            <path d="M112.947,59.273C113.232,57.308 113.14,55.673 113.14,55.673L113.732,55.673C113.746,57.3 113.675,57.851 113.882,59.273L112.947,59.273Z" style="fill:rgb(36,85,74);fill-rule:nonzero;"/>
            <path d="M113.415,52.914C112.767,52.914 112.614,53.494 112.614,53.494C112.614,53.494 112.155,53.389 111.958,53.744C111.726,54.16 111.942,54.523 111.942,54.523C111.942,54.523 111.442,54.554 111.442,55.291C112.555,55.291 113.139,55.178 113.139,55.674L113.731,55.674C113.731,55.178 114.313,55.291 115.428,55.291C115.428,54.6 114.955,54.549 114.955,54.549C114.955,54.549 115.156,54.078 114.879,53.699C114.582,53.287 114.168,53.441 114.168,53.441C114.168,53.441 114.027,52.914 113.455,52.914" style="fill:rgb(35,84,73);fill-rule:nonzero;"/>
        </g>
        <g>
            <path d="M101.291,61.699C104.83,62.545 108.473,62.99 112.085,62.972C112.095,62.939 113.775,57.374 116.425,54.872C114.771,54.882 113.026,54.847 111.151,54.755C110.176,54.708 109.238,54.583 108.326,54.407C102.606,56.906 101.295,61.688 101.291,61.699Z" style="fill:rgb(78,157,125);fill-rule:nonzero;"/>
            <path d="M99.754,51.248C93.652,48.258 88.419,45.148 81.753,49.945C81.395,50.203 81.073,50.498 80.772,50.806C83.655,53.603 87.139,56.017 90.979,57.943C90.984,57.93 92.506,52.93 99.754,51.248Z" style="fill:rgb(49,107,89);fill-rule:nonzero;"/>
            <path d="M90.979,57.943C94.211,59.564 97.696,60.838 101.291,61.699C101.295,61.687 102.605,56.906 108.325,54.408C105.182,53.804 102.387,52.539 99.754,51.248C92.506,52.93 90.984,57.93 90.979,57.943Z" style="fill:rgb(63,131,107);fill-rule:nonzero;"/>
            <path d="M112.085,62.973C115.551,62.957 118.985,62.514 122.272,61.592C122.272,61.567 122.211,56.654 124.317,54.285C121.949,54.668 119.343,54.851 116.425,54.873C113.776,57.375 112.095,62.939 112.085,62.973Z" style="fill:rgb(94,189,147);fill-rule:nonzero;"/>
            <path d="M122.272,61.592C124.81,60.877 127.259,59.877 129.563,58.563C129.567,58.53 130.252,54.377 131.68,52.155C129.437,53.149 127.027,53.846 124.317,54.286C122.211,56.654 122.272,61.566 122.272,61.592Z" style="fill:rgb(126,199,162);fill-rule:nonzero;"/>
            <path d="M143.204,42.027C143.204,42.027 141.392,45.381 139.23,47.256C138.688,47.727 138.144,48.166 137.6,48.586C136.59,50.754 135.969,53.641 135.959,53.676C138.991,50.635 141.349,46.785 143.204,42.027Z" style="fill:rgb(184,221,195);fill-rule:nonzero;"/>
            <path d="M135.959,53.676C135.969,53.641 136.59,50.754 137.6,48.586C135.699,50.057 133.757,51.232 131.68,52.154C130.252,54.377 129.567,58.529 129.563,58.562C131.86,57.254 134.01,55.633 135.959,53.676Z" style="fill:rgb(155,210,178);fill-rule:nonzero;"/>
            <path d="M90.979,57.943C87.139,56.017 83.655,53.603 80.772,50.806C75.743,55.964 78.798,67.841 96.349,70.956C91.794,66.221 90.979,57.943 90.979,57.943Z" style="fill:rgb(13,96,130);fill-rule:nonzero;"/>
            <path d="M135.959,53.68L135.959,53.676C134.01,55.633 131.859,57.254 129.563,58.563L129.561,58.567C129.561,58.567 133.055,59.69 136.141,58.241C138.22,55.546 139.819,52.794 140.912,50.339C139.305,52.504 135.959,53.68 135.959,53.68Z" style="fill:rgb(145,187,212);fill-rule:nonzero;"/>
            <path d="M143.204,42.027C141.35,46.785 138.991,50.634 135.96,53.675L135.96,53.679C135.96,53.679 139.306,52.503 140.913,50.337C141.378,49.29 141.691,48.298 142.015,47.39C143.123,44.271 143.206,42.027 143.204,42.027Z" style="fill:rgb(182,213,227);fill-rule:nonzero;"/>
            <path d="M129.561,58.566L129.563,58.562C127.259,59.876 124.81,60.876 122.272,61.591L122.272,61.593C122.272,61.593 125.955,64.472 130.689,63.863C132.835,62.113 134.637,60.193 136.141,58.24C133.055,59.689 129.561,58.566 129.561,58.566Z" style="fill:rgb(109,164,199);fill-rule:nonzero;"/>
            <path d="M112.085,62.977L112.085,62.973C108.473,62.991 104.83,62.545 101.291,61.7C101.291,61.7 103.348,67.368 108.331,71.662C108.624,71.648 108.905,71.646 109.205,71.633C113.395,71.424 117.078,70.685 120.328,69.577C115.691,68.104 112.085,62.977 112.085,62.977Z" style="fill:rgb(60,127,164);fill-rule:nonzero;"/>
            <path d="M122.272,61.594L122.272,61.592C118.986,62.514 115.551,62.957 112.085,62.973L112.085,62.977C112.085,62.977 115.69,68.104 120.328,69.577C124.456,68.171 127.871,66.165 130.688,63.864C125.955,64.473 122.272,61.594 122.272,61.594Z" style="fill:rgb(68,144,186);fill-rule:nonzero;"/>
            <path d="M101.291,61.699C97.695,60.838 94.211,59.564 90.979,57.943C90.979,57.943 91.794,66.22 96.349,70.957C99.775,71.563 103.75,71.835 108.331,71.661C103.348,67.367 101.291,61.699 101.291,61.699Z" style="fill:rgb(50,111,144);fill-rule:nonzero;"/>
        </g>
        <path d="M113.166,25.155C113.598,24.462 114.205,23.887 114.924,23.446C115.641,23.007 116.494,22.727 117.363,22.698C118.238,22.667 119.092,22.891 119.861,23.223C120.248,23.393 120.605,23.612 120.933,23.869C121.263,24.125 121.552,24.398 121.849,24.709L121.419,24.881C121.587,24.098 121.812,23.395 122.044,22.647C122.276,21.915 122.569,21.131 123.116,20.514C123.663,19.899 124.395,19.461 125.157,19.203C125.928,18.961 126.735,18.889 127.509,19.043C127.544,19.051 127.568,19.084 127.56,19.121C127.558,19.142 127.54,19.16 127.521,19.168C126.806,19.465 126.142,19.736 125.542,20.082C125.243,20.258 124.95,20.434 124.685,20.641C124.415,20.844 124.167,21.065 123.915,21.291C123.423,21.742 122.88,22.225 122.501,22.852C122.13,23.473 121.933,24.219 121.937,24.918C121.937,25.053 121.832,25.164 121.697,25.166C121.646,25.164 121.599,25.152 121.56,25.129L121.507,25.094C121.21,24.906 120.853,24.746 120.509,24.623C120.161,24.498 119.816,24.389 119.47,24.291C118.782,24.092 118.085,24.045 117.408,24.059C116.726,24.077 116.045,24.184 115.353,24.389C114.665,24.598 113.98,24.91 113.251,25.248C113.218,25.264 113.177,25.25 113.161,25.217C113.153,25.194 113.155,25.173 113.166,25.155" style="fill:rgb(7,69,107);fill-rule:nonzero;"/>
        <path d="M123.84,29.622C124.272,29.368 124.748,29.216 125.242,29.143C125.738,29.077 126.271,29.079 126.754,29.286C126.994,29.38 127.219,29.52 127.422,29.667C127.629,29.819 127.818,29.978 128,30.151C128.18,30.323 128.342,30.512 128.496,30.715C128.568,30.817 128.646,30.922 128.705,31.037C128.771,31.15 128.826,31.26 128.877,31.406L128.529,31.232C128.66,31.154 128.769,31.105 128.894,31.056C129.015,31.003 129.14,30.966 129.265,30.931C129.517,30.865 129.779,30.822 130.038,30.8C130.563,30.763 131.099,30.827 131.591,31.007C132.087,31.189 132.534,31.464 132.917,31.8C133.3,32.138 133.628,32.527 133.868,32.962C133.876,32.98 133.872,32.997 133.854,33.009C133.842,33.015 133.829,33.015 133.815,33.009C133.413,32.72 133.024,32.447 132.616,32.226C132.212,31.996 131.79,31.824 131.364,31.695C130.94,31.578 130.501,31.498 130.057,31.488C129.836,31.482 129.612,31.498 129.393,31.527C129.278,31.545 129.168,31.566 129.059,31.589C128.954,31.609 128.836,31.644 128.745,31.665L128.663,31.69C128.552,31.719 128.434,31.657 128.405,31.545C128.401,31.527 128.399,31.508 128.399,31.494C128.397,31.408 128.376,31.287 128.346,31.182C128.321,31.075 128.287,30.965 128.239,30.86C128.151,30.651 128.018,30.462 127.852,30.301C127.688,30.139 127.489,30.018 127.274,29.938C127.061,29.858 126.835,29.821 126.614,29.797C126.173,29.752 125.735,29.699 125.276,29.693C124.819,29.683 124.35,29.703 123.852,29.685C123.834,29.683 123.819,29.667 123.819,29.65C123.823,29.638 123.829,29.628 123.84,29.622" style="fill:rgb(7,69,107);fill-rule:nonzero;"/>
    </g>
</svg>
