<?xml version="1.0" encoding="utf-8"?>
<!-- Generator: Adobe Illustrator 15.1.0, SVG Export Plug-In . SVG Version: 6.00 Build 0)  -->
<!DOCTYPE svg PUBLIC "-//W3C//DTD SVG 1.1//EN" "http://www.w3.org/Graphics/SVG/1.1/DTD/svg11.dtd">
<svg version="1.1" id="Layer_1" xmlns="http://www.w3.org/2000/svg" xmlns:xlink="http://www.w3.org/1999/xlink" x="0px" y="0px"
	 width="361.914px" height="66.04px" viewBox="0 0 361.914 66.04" enable-background="new 0 0 361.914 66.04" xml:space="preserve">
<g>
	<path fill="#4490BA" d="M70.126,5.519h6.733v21.609c0,2.416,0.255,4.181,0.771,5.294c0.797,1.972,2.539,2.957,5.226,2.957
		c2.673,0,4.408-0.984,5.205-2.957c0.519-1.113,0.771-2.878,0.771-5.294V5.519h6.733v21.625c0,3.739-0.522,6.651-1.566,8.735
		c-1.948,3.822-5.66,5.729-11.144,5.729c-5.48,0-9.203-1.906-11.164-5.729c-1.044-2.084-1.566-4.996-1.566-8.735V5.519z"/>
	<path fill="#4490BA" d="M122.243,6.425c1.169,0.558,2.156,1.379,2.967,2.459c0.67,0.891,1.201,1.879,1.594,2.959
		c0.394,1.084,0.588,2.316,0.588,3.701c0,1.672-0.379,3.314-1.142,4.928c-0.757,1.615-2.012,2.758-3.763,3.425
		c1.465,0.653,2.499,1.582,3.11,2.782c0.608,1.2,0.911,3.034,0.911,5.502v2.362c0,1.607,0.061,2.699,0.176,3.271
		c0.176,0.908,0.582,1.576,1.224,2.004v0.885h-7.312c-0.201-0.781-0.341-1.408-0.429-1.887c-0.172-0.984-0.266-1.996-0.28-3.031
		l-0.044-3.272c-0.025-2.241-0.377-3.738-1.044-4.486c-0.675-0.748-1.932-1.121-3.776-1.121h-6.468v13.797h-6.474V5.519h15.16
		C119.409,5.568,121.076,5.869,122.243,6.425z M108.555,11.631v9.451h7.127c1.417,0,2.478-0.192,3.185-0.574
		c1.255-0.669,1.88-1.987,1.88-3.964c0-2.13-0.606-3.562-1.815-4.294c-0.684-0.414-1.704-0.619-3.063-0.619H108.555z"/>
	<path fill="#4490BA" d="M157.374,9.267c0.973,1.496,1.455,3.287,1.455,5.37c0,2.147-0.489,3.874-1.468,5.179
		c-0.548,0.733-1.353,1.401-2.419,2.004c1.62,0.654,2.842,1.689,3.661,3.105c0.826,1.416,1.236,3.134,1.236,5.156
		c0,2.084-0.471,3.952-1.412,5.608c-0.598,1.098-1.347,2.021-2.241,2.77c-1.012,0.859-2.206,1.447-3.582,1.766
		c-1.378,0.318-2.869,0.479-4.479,0.479h-14.282V5.519h15.317C153.024,5.582,155.764,6.832,157.374,9.267z M140.166,11.631v7.756
		h7.704c1.374,0,2.49-0.29,3.35-0.872c0.857-0.579,1.288-1.611,1.288-3.09c0-1.641-0.566-2.723-1.702-3.246
		c-0.979-0.368-2.229-0.548-3.747-0.548H140.166z M140.166,25.211v9.378h7.695c1.374,0,2.444-0.203,3.208-0.619
		c1.391-0.764,2.083-2.229,2.083-4.392c0-1.827-0.671-3.087-2.021-3.77c-0.748-0.384-1.807-0.581-3.168-0.598H140.166z"/>
	<path fill="#4490BA" d="M172.411,5.519h7.493l11.214,35.184h-7.181l-2.095-7.233h-11.671l-2.149,7.233h-6.928L172.411,5.519z
		 M171.975,27.407h8.117l-4.002-13.845L171.975,27.407z"/>
	<path fill="#4490BA" d="M194.316,5.519h6.942l12.58,24.532V5.519h6.171v35.184h-6.62l-12.904-24.965v24.965h-6.169V5.519z"/>
</g>
<g>
	<path fill="#07456B" d="M81.623,46.902c0.473,0.658,0.709,1.447,0.709,2.363c0,0.947-0.238,1.705-0.718,2.277
		c-0.268,0.324-0.66,0.617-1.179,0.885c0.788,0.287,1.384,0.74,1.788,1.363c0.398,0.625,0.604,1.383,0.604,2.27
		c0,0.918-0.231,1.74-0.691,2.467c-0.291,0.484-0.657,0.893-1.094,1.219c-0.498,0.379-1.079,0.639-1.753,0.777
		c-0.669,0.141-1.401,0.211-2.188,0.211h-6.976v-15.48h7.482C79.496,45.281,80.835,45.83,81.623,46.902z M73.217,47.941v3.414h3.76
		c0.673,0,1.219-0.127,1.64-0.383c0.418-0.256,0.627-0.711,0.627-1.361c0-0.721-0.275-1.197-0.83-1.426
		c-0.479-0.162-1.09-0.244-1.83-0.244H73.217z M73.217,53.918v4.129h3.758c0.671,0,1.194-0.092,1.566-0.275
		c0.677-0.336,1.016-0.979,1.016-1.932c0-0.807-0.326-1.357-0.982-1.658c-0.368-0.17-0.883-0.258-1.548-0.264H73.217z"/>
	<path fill="#07456B" d="M88.562,60.734h-3.214v-15.48h3.214V60.734z"/>
	<path fill="#07456B" d="M103.505,59.357c-1.169,1.205-2.861,1.807-5.073,1.807c-2.213,0-3.902-0.602-5.073-1.807
		c-1.566-1.475-2.351-3.605-2.351-6.385c0-2.836,0.784-4.965,2.351-6.385c1.171-1.203,2.86-1.805,5.073-1.805
		c2.212,0,3.904,0.602,5.073,1.805c1.562,1.42,2.342,3.549,2.342,6.385C105.847,55.752,105.066,57.883,103.505,59.357z
		 M101.484,57.006c0.753-0.945,1.13-2.289,1.13-4.033c0-1.736-0.377-3.078-1.13-4.027s-1.771-1.422-3.053-1.422
		c-1.28,0-2.301,0.473-3.065,1.416c-0.766,0.945-1.146,2.289-1.146,4.033s0.381,3.088,1.146,4.033
		c0.765,0.945,1.785,1.418,3.065,1.418C99.714,58.424,100.731,57.951,101.484,57.006z"/>
	<path fill="#07456B" d="M117.386,45.59c1.087,0.357,1.966,1.01,2.639,1.965c0.539,0.77,0.907,1.602,1.104,2.498
		c0.196,0.896,0.292,1.75,0.292,2.564c0,2.057-0.411,3.801-1.237,5.229c-1.121,1.926-2.853,2.889-5.194,2.889h-6.675v-15.48h6.675
		C115.951,45.266,116.75,45.379,117.386,45.59z M111.455,47.941v10.105h2.988c1.528,0,2.595-0.754,3.197-2.26
		c0.33-0.826,0.495-1.809,0.495-2.951c0-1.576-0.248-2.785-0.742-3.627c-0.493-0.846-1.477-1.268-2.95-1.268H111.455z"/>
	<path fill="#07456B" d="M126.8,60.734h-3.214v-15.48h3.214V60.734z"/>
	<path fill="#07456B" d="M138.882,45.254h3.363l-5.278,15.48h-3.058l-5.236-15.48h3.459l3.358,11.752L138.882,45.254z"/>
	<path fill="#07456B" d="M155.62,47.996h-8.193v3.287h7.52v2.688h-7.52v3.98h8.571v2.783h-11.733v-15.48h11.355V47.996z"/>
	<path fill="#07456B" d="M168.438,45.652c0.568,0.246,1.054,0.605,1.451,1.08c0.326,0.395,0.586,0.828,0.777,1.305
		c0.19,0.477,0.287,1.018,0.287,1.629c0,0.734-0.187,1.457-0.559,2.166c-0.37,0.713-0.982,1.213-1.836,1.508
		c0.713,0.287,1.219,0.695,1.516,1.225c0.3,0.529,0.448,1.336,0.448,2.42v1.039c0,0.709,0.027,1.189,0.085,1.439
		c0.084,0.4,0.285,0.693,0.597,0.883v0.389h-3.572c-0.096-0.344-0.165-0.619-0.209-0.83c-0.085-0.434-0.13-0.877-0.136-1.334
		l-0.021-1.438c-0.013-0.988-0.185-1.646-0.511-1.977c-0.33-0.33-0.945-0.494-1.844-0.494h-3.16v6.072h-3.16v-15.48h7.403
		C167.054,45.275,167.867,45.408,168.438,45.652z M161.753,47.941v4.16h3.481c0.69,0,1.211-0.084,1.556-0.252
		c0.613-0.295,0.918-0.875,0.918-1.744c0-0.938-0.294-1.568-0.889-1.889c-0.33-0.184-0.832-0.275-1.497-0.275H161.753z"/>
	<path fill="#07456B" d="M176.38,55.955c0.104,0.709,0.3,1.236,0.595,1.588c0.535,0.637,1.453,0.955,2.756,0.955
		c0.778,0,1.411-0.084,1.898-0.252c0.921-0.324,1.38-0.922,1.38-1.797c0-0.512-0.226-0.906-0.675-1.186
		c-0.454-0.273-1.169-0.516-2.151-0.727l-1.674-0.367c-1.647-0.365-2.781-0.758-3.396-1.186c-1.046-0.715-1.564-1.832-1.564-3.352
		c0-1.385,0.511-2.537,1.531-3.455c1.019-0.918,2.518-1.377,4.495-1.377c1.652,0,3.06,0.434,4.225,1.299
		c1.167,0.865,1.777,2.119,1.836,3.766h-3.109c-0.057-0.932-0.473-1.594-1.248-1.986c-0.52-0.258-1.159-0.387-1.929-0.387
		c-0.853,0-1.534,0.166-2.045,0.504c-0.511,0.334-0.764,0.803-0.764,1.406c0,0.553,0.251,0.967,0.755,1.238
		c0.322,0.184,1.009,0.396,2.056,0.643l2.717,0.639c1.189,0.281,2.083,0.656,2.677,1.123c0.924,0.729,1.384,1.781,1.384,3.164
		c0,1.414-0.548,2.586-1.639,3.523c-1.094,0.934-2.64,1.4-4.635,1.4c-2.038,0-3.641-0.459-4.81-1.381
		c-1.166-0.92-1.75-2.186-1.75-3.797H176.38z"/>
	<path fill="#07456B" d="M191.349,60.734h-3.212v-15.48h3.212V60.734z"/>
	<path fill="#07456B" d="M205.623,45.254v2.742h-4.632v12.738h-3.256V47.996h-4.655v-2.742H205.623z"/>
	<path fill="#07456B" d="M216.346,45.254h3.664l-5.176,9.676v5.805H211.6V54.93l-5.358-9.676h3.814l3.212,6.744L216.346,45.254z"/>
</g>
<g>
	<path fill="#F69056" d="M237.557,5.394v21.868h18.273V5.394h10.951v54.653H255.83V38.145h-18.273v21.902h-10.951V5.394H237.557z"/>
	<path fill="#F69056" d="M306.72,38.449V5.394h11.052v33.09c0,6.102-2.158,11.312-6.476,15.629
		c-4.339,4.295-9.538,6.441-15.596,6.441c-6.125,0-11.346-2.146-15.663-6.441c-4.317-4.316-6.476-9.527-6.476-15.629V5.394h11.053
		v33.055c0,5.959,5.047,10.986,11.053,10.986C301.615,49.436,306.72,44.373,306.72,38.449z"/>
	<path fill="#F69056" d="M352.727,27.906c1.335,0.668,3.175,1.794,4.204,2.78c3.322,3.369,4.983,7.414,4.983,12.138
		c0,4.746-1.661,8.791-4.983,12.137c-3.323,3.391-7.346,5.086-12.07,5.086h-20.308V5.394h11.459h3.797
		c4.228,0,7.844,1.515,10.85,4.543c2.893,2.938,4.34,6.408,4.34,10.408C354.998,22.966,353.737,26.108,352.727,27.906z
		 M339.809,16.074h-4.306v10.001c0.973-0.045,2.34-0.135,4.103-0.271c2.601-0.294,4.814-2.239,4.814-5.018
		C344.42,18.252,342.364,16.074,339.809,16.074z M351.2,42.824c0-3.633-2.958-6.488-6.34-6.713c-3.253-0.18-6.068-0.035-9.357-0.035
		v13.256h2.17h7.188C348.425,49.332,351.2,46.391,351.2,42.824z"/>
</g>
<g>
	<g>
		<g>
			<g>
				<path fill="#FFFFFF" d="M32.917,0C19.645,0,8.263,8.087,3.425,19.602v24.752c4.838,11.515,16.22,19.602,29.492,19.602
					c17.66,0,31.977-14.316,31.977-31.978C64.894,14.317,50.577,0,32.917,0z"/>
			</g>
			<path fill="#FAB279" d="M13.651,35.564c-0.584-4.631-0.508-7.284,1.402-11.707L3.972,18.387
				c-1.841,3.89-1.389,7.726-1.588,11.803c0.785,1.65,0.91,2.903,1.551,5.67L13.651,35.564z"/>
			<path fill="#FAB279" d="M15.981,22.041c-0.061,0.095-0.074,0.114-0.004-0.002C16.04,21.925,16.034,21.946,15.981,22.041
				c0.18-0.282,0.75-1.2,0.75-1.2l-9.92-7.301c-0.724,1.025-1.402,2.099-2.014,3.223c-0.197,0.36-0.377,0.72-0.559,1.085
				l11.033,5.439C15.271,23.288,15.821,22.323,15.981,22.041z"/>
			<path fill="#F6BE19" d="M15.978,22.039c-0.07,0.116-0.057,0.097,0.004,0.002C16.034,21.946,16.04,21.925,15.978,22.039z"/>
			<path fill="#FAB279" d="M17.954,19.212c-0.073,0.081-0.09,0.098-0.006-0.007C18.036,19.104,18.026,19.124,17.954,19.212
				c0.215-0.237,0.947-1.055,0.947-1.055l-8.463-8.891c-1.176,1.158-2.272,2.426-3.276,3.785l9.876,7.264
				C17.041,20.314,17.742,19.47,17.954,19.212z"/>
			<path fill="#F6BE19" d="M17.95,19.209c-0.084,0.103-0.067,0.086,0.004,0.003C18.026,19.124,18.036,19.104,17.95,19.209z"/>
			<path fill="#FBC57D" d="M20.381,16.773c-0.077,0.057-0.095,0.068,0.008-0.013C20.494,16.672,20.472,16.694,20.381,16.773
				c0.245-0.19,1.126-0.881,1.126-0.881L14.755,5.706c-1.366,0.939-2.662,1.984-3.881,3.141l8.427,8.844
				C19.301,17.69,20.12,16.996,20.381,16.773z"/>
			<path fill="#F6BE19" d="M20.389,16.761c-0.103,0.081-0.085,0.069-0.008,0.013C20.472,16.694,20.494,16.672,20.389,16.761z"/>
			<path fill="#FBC57D" d="M23.212,14.774c-0.1,0.052-0.127,0.062-0.006-0.005C23.323,14.705,23.304,14.719,23.212,14.774
				c0.292-0.154,1.243-0.666,1.243-0.666L19.604,2.955c-1.506,0.686-2.961,1.492-4.352,2.411l6.721,10.136
				C21.974,15.502,22.933,14.942,23.212,14.774z"/>
			<path fill="#F6BE19" d="M23.206,14.77c-0.121,0.067-0.094,0.057,0.006,0.005C23.304,14.719,23.323,14.705,23.206,14.77z"/>
			<path fill="#F6BE19" d="M26.323,13.305c-0.128,0.044-0.104,0.038,0.004,0.003C26.428,13.268,26.447,13.262,26.323,13.305z"/>
			<path fill="#FBC57D" d="M26.327,13.308c-0.107,0.035-0.132,0.041-0.004-0.003C26.447,13.262,26.428,13.268,26.327,13.308
				c0.315-0.1,1.338-0.439,1.338-0.439L24.845,1.1c-1.603,0.418-3.17,0.958-4.688,1.615l4.826,11.094
				C24.983,13.809,26.024,13.424,26.327,13.308z"/>
			<path fill="#FCD351" d="M29.646,12.398c-0.134,0.023-0.107,0.021-0.004,0.007C29.753,12.384,29.779,12.375,29.646,12.398z"/>
			<path fill="#FBC57D" d="M29.642,12.405c-0.105,0.014-0.13,0.017,0.004-0.007S29.753,12.384,29.642,12.405
				c0.322-0.045,1.402-0.203,1.402-0.203L30.308,0.17c-1.646,0.137-3.279,0.396-4.879,0.78l2.814,11.713
				C28.242,12.663,29.319,12.468,29.642,12.405z"/>
			<path fill="#FCD351" d="M33.071,12.086c-0.135-0.007-0.115-0.002-0.008,0.004C33.176,12.087,33.203,12.086,33.071,12.086z"/>
			<path fill="#FBC57D" d="M33.063,12.09c-0.107-0.006-0.127-0.011,0.008-0.004C33.203,12.086,33.176,12.087,33.063,12.09
				c0.317,0.014,1.416,0.045,1.416,0.045l1.354-11.942c-1.646-0.151-3.291-0.167-4.925-0.063l0.733,11.974
				C31.642,12.103,32.729,12.096,33.063,12.09z"/>
			<path fill="#FCD351" d="M36.493,12.368c-0.133-0.022-0.111-0.018-0.003,0.007C36.601,12.395,36.626,12.395,36.493,12.368z"/>
			<path fill="#FCD77F" d="M36.49,12.375c-0.108-0.024-0.13-0.029,0.003-0.007C36.626,12.395,36.601,12.395,36.49,12.375
				c0.316,0.069,1.38,0.289,1.38,0.289l3.385-11.49c-1.596-0.434-3.209-0.739-4.823-0.919l-1.347,11.887
				C35.085,12.142,36.167,12.323,36.49,12.375z"/>
			<path fill="#FCD77F" d="M39.81,13.258c-0.102-0.04-0.125-0.053,0.002-0.005C39.931,13.3,39.909,13.293,39.81,13.258
				c0.303,0.126,1.303,0.526,1.303,0.526l5.311-10.718c-1.502-0.702-3.04-1.279-4.588-1.731l-3.369,11.442
				C38.468,12.776,39.501,13.153,39.81,13.258z"/>
			<path fill="#FCD351" d="M39.812,13.253c-0.127-0.048-0.105-0.036-0.002,0.005C39.909,13.293,39.931,13.3,39.812,13.253z"/>
			<path fill="#FCD77F" d="M42.906,14.692c-0.081-0.051-0.093-0.062,0.017,0.001C43.041,14.768,43.012,14.751,42.906,14.692
				c0.253,0.164,1.206,0.753,1.206,0.753l7.076-9.64c-0.955-0.66-1.948-1.285-2.995-1.853c-0.405-0.219-0.815-0.426-1.232-0.632
				l-5.278,10.674C41.683,13.995,42.608,14.522,42.906,14.692z"/>
			<path fill="#FCD351" d="M42.923,14.693c-0.109-0.063-0.096-0.055-0.017-0.001C43.012,14.751,43.041,14.768,42.923,14.693z"/>
			<path fill="#FFE57C" d="M45.73,16.662c-0.099-0.088-0.085-0.072-0.004-0.001C45.813,16.734,45.835,16.749,45.73,16.662z"/>
			<path fill="#FCD77F" d="M45.727,16.661c-0.081-0.071-0.095-0.087,0.004,0.001C45.835,16.749,45.813,16.734,45.727,16.661
				c0.233,0.216,1.046,0.949,1.046,0.949l8.644-8.282c-1.146-1.138-2.403-2.201-3.739-3.165l-7.043,9.593
				C44.635,15.754,45.469,16.452,45.727,16.661z"/>
			<path fill="#FFE57C" d="M48.157,19.089c-0.085-0.105-0.068-0.083-0.001,0.008C48.226,19.174,48.24,19.191,48.157,19.089z"/>
			<path fill="#FCD77F" d="M48.156,19.097c-0.067-0.091-0.084-0.113,0.001-0.008C48.24,19.191,48.226,19.174,48.156,19.097
				c0.203,0.262,0.867,1.108,0.867,1.108l9.962-6.679c-0.938-1.331-1.986-2.594-3.14-3.778l-8.608,8.257
				C47.237,18.005,47.95,18.852,48.156,19.097z"/>
			<path fill="#FFE18C" d="M50.112,21.898c-0.044-0.089-0.054-0.107,0.007,0.007C50.188,22.02,50.173,21.999,50.112,21.898
				c0.146,0.28,0.664,1.257,0.664,1.257l10.999-4.864c-0.706-1.478-1.521-2.907-2.451-4.267l-9.923,6.652
				C49.403,20.671,49.942,21.609,50.112,21.898z"/>
			<path fill="#FFE57C" d="M50.119,21.905c-0.06-0.118-0.053-0.096-0.007-0.007C50.173,21.999,50.188,22.02,50.119,21.905z"/>
			<path fill="#FFE18C" d="M51.559,25.008c-0.03-0.09-0.032-0.103,0.014,0.017C51.616,25.155,51.604,25.127,51.559,25.008
				c0.089,0.288,0.439,1.359,0.439,1.359l11.718-2.894c-0.443-1.588-1.004-3.139-1.683-4.642l-10.961,4.853
				C51.072,23.685,51.438,24.687,51.559,25.008z"/>
			<path fill="#FFE57C" d="M51.572,25.024c-0.046-0.119-0.042-0.104-0.014-0.017C51.604,25.127,51.616,25.155,51.572,25.024z"/>
			<path fill="#FFE57C" d="M52.452,28.349c-0.02-0.129-0.02-0.111-0.006-0.005C52.468,28.455,52.472,28.484,52.452,28.349z"/>
			<path fill="#FFE18C" d="M52.446,28.344c-0.014-0.106-0.014-0.124,0.006,0.005C52.472,28.484,52.468,28.455,52.446,28.344
				c0.039,0.319,0.189,1.405,0.189,1.405l12.109-0.818c-0.163-1.649-0.461-3.278-0.873-4.874l-11.676,2.889
				C52.196,26.945,52.386,28.021,52.446,28.344z"/>
			<path fill="#FFE57C" d="M52.745,31.781c0.003-0.131-0.003-0.111-0.006,0.005C52.739,31.893,52.742,31.918,52.745,31.781z"/>
			<path fill="#FFE18C" d="M52.739,31.786c0.003-0.116,0.009-0.136,0.006-0.005C52.742,31.918,52.739,31.893,52.739,31.786
				c-0.016,0.321-0.051,1.408-0.051,1.408l12.113,1.308c0.129-1.661,0.121-3.322-0.009-4.969l-12.055,0.817
				C52.736,30.352,52.735,31.455,52.739,31.786z"/>
			<path fill="#FFE57C" d="M52.435,35.213c0.024-0.123,0.019-0.104-0.002-0.005C52.412,35.322,52.409,35.349,52.435,35.213z"/>
			<path fill="#FFE18C" d="M52.433,35.208c0.021-0.1,0.026-0.118,0.002,0.005C52.409,35.349,52.412,35.322,52.433,35.208
				c-0.068,0.302-0.299,1.392-0.299,1.392l11.76,3.416c0.424-1.621,0.708-3.263,0.863-4.911l-12.082-1.304
				C52.675,33.803,52.488,34.874,52.433,35.208z"/>
			<path fill="#FFEB99" d="M51.532,38.553c0.043-0.104,0.057-0.129,0.007-0.001C51.494,38.672,51.5,38.651,51.532,38.553
				c-0.129,0.307-0.527,1.308-0.527,1.308l11.016,5.44c0.701-1.539,1.268-3.112,1.713-4.701l-11.712-3.397
				C52.021,37.202,51.638,38.248,51.532,38.553z"/>
			<path fill="#FFE57C" d="M51.539,38.552c0.05-0.128,0.036-0.104-0.007,0.001C51.5,38.651,51.494,38.672,51.539,38.552z"/>
			<path fill="#FFF4AF" d="M50.081,41.68c0.067-0.113,0.057-0.092,0.001-0.009C50.022,41.771,50.011,41.797,50.081,41.68z"/>
			<path fill="#FFEB99" d="M50.082,41.671c0.056-0.083,0.066-0.104-0.001,0.009C50.011,41.797,50.022,41.771,50.082,41.671
				c-0.17,0.263-0.757,1.207-0.757,1.207l9.938,7.313c0.622-0.909,1.204-1.852,1.739-2.841c0.271-0.496,0.527-0.994,0.767-1.5
				l-10.981-5.419C50.787,40.432,50.245,41.377,50.082,41.671z"/>
			<path fill="#FFEB99" d="M48.091,44.517c0.082-0.088,0.104-0.113,0.014-0.011C48.022,44.608,48.034,44.593,48.091,44.517
				c-0.225,0.256-0.937,1.045-0.937,1.045l8.529,8.96c1.162-1.179,2.243-2.459,3.228-3.842l-9.899-7.274
				C49.015,43.407,48.288,44.279,48.091,44.517z"/>
			<path fill="#F7EF67" d="M48.104,44.506c0.09-0.103,0.068-0.077-0.014,0.011C48.034,44.593,48.022,44.608,48.104,44.506z"/>
			<path fill="#F7EF67" d="M45.671,46.956c0.101-0.084,0.086-0.072,0.001-0.01C45.586,47.024,45.566,47.043,45.671,46.956z"/>
			<path fill="#FFEB99" d="M45.672,46.946c0.085-0.062,0.1-0.074-0.001,0.01C45.566,47.043,45.586,47.024,45.672,46.946
				c-0.247,0.192-1.118,0.88-1.118,0.88l6.854,10.339c1.359-0.964,2.65-2.034,3.855-3.21l-8.506-8.933
				C46.757,46.022,45.927,46.729,45.672,46.946z"/>
			<path fill="#FFF8A7" d="M43.223,13.087c-10.479-5.702-23.592-1.83-29.292,8.646c-5.704,10.479-1.834,23.599,8.645,29.296
				c10.476,5.702,23.594,1.832,29.296-8.646C57.571,31.906,53.699,18.786,43.223,13.087"/>
		</g>
	</g>
	<g>
		<g id="g12173_8_" transform="translate(533.4499,348.8325)">
			<path id="path12175_8_" fill="#9BD2B2" d="M-504.416-333.339v-4.484h1.521v-3.016h0.424v-2.127
				h3.09v2.127h0.424v3.016h1.521v4.484h1.172v48.076h-11.424v-48.076H-504.416z"/>
		</g>
		<g id="g12177_8_" transform="translate(498.0599,335.244)">
			<path id="path12179_8_" fill="#9BD2B2" d="M-480.524-315.425v-0.648h1.104v-0.582h2.719v0.582
				h1.104v0.648h0.445v38.852h-5.816v-38.852H-480.524z"/>
		</g>
		<g id="g12181_8_" transform="translate(498.0363,227.4892)">
			<path id="path12183_8_" fill="#9BD2B2" d="M-480.506-173.357l-8.047-2.77v-23.107h8.047
				V-173.357z"/>
		</g>
		<g id="g12185_18_" transform="translate(530.4039,218.171)">
			<path id="path12187_18_" fill="#9BD2B2" d="M-502.36-161.072l-8.045-2.771v-23.105h8.045
				V-161.072z"/>
		</g>
		<g id="g12185_17_" transform="translate(530.4039,218.171)">
			<path id="path12187_17_" fill="#9BD2B2" d="M-521.524-165.906l-8.045-2.771v-17.105l8.045-15
				V-165.906z"/>
		</g>
		<g id="g12189_8_" transform="translate(569.415,190.3692)">
			<path id="path12191_8_" fill="#9BD2B2" d="M-528.695-128.823l-8.047,0.5v-32.574h8.047
				V-128.823z"/>
		</g>
		<g id="g12193_8_" transform="translate(451.5316,363.4303)">
			<path id="path12195_8_" fill="#9BD2B2" d="M-449.111-352.586h1.004l0.191-0.98h6.928
				l0.189,0.98h1.006v40.551l-9.318-0.002V-352.586z"/>
		</g>
	</g>
	<g id="g12199_10_" transform="translate(451.5316,194.9384)">
		<path id="path12201_10_" fill="#4E9D7D" d="M-449.349-144.518v-16.209h2.289v-6.408h5.994v6.316
			h0.795v-10.346h4.758v6.146l0,0l0,0h5.797l2.363,3.688l0.258,4.512c0,0,0.006-5.764,7.713-9.041v9.812h1.83v-3.566l0.697-1.059
			h1.066l0.441,0.68l0.02,4.072l1.826,0.039v3.789v8.275l-0.271-0.865L-449.349-144.518z"/>
	</g>
	<polygon fill="#316B59" points="26.653,40.937 26.653,42.521 30.272,40.937 30.272,42.521 33.89,40.937 33.89,54.384
		22.333,54.384 22.333,42.825 	"/>
	<g>
		<polygon fill="#B8DDC3" points="9.054,43.481 9.054,38.729 8.185,38.729 10.888,36.062 11.796,41.97 		"/>
		<polygon fill="#B8DDC3" points="12.735,43.481 12.735,38.729 13.601,38.729 10.897,36.062 9.054,43.481 		"/>
	</g>
	<g>
		<polygon fill="#7EC7A2" points="11.573,43.481 11.573,39.351 10.819,39.351 13.171,37.03 13.96,42.167 		"/>
		<polygon fill="#7EC7A2" points="14.776,43.481 14.776,39.351 15.528,39.351 13.179,37.03 11.573,43.481 		"/>
	</g>
	<g>
		<path fill="#B8DDC3" d="M18.089,45.29c0.391-2.688,0.264-6.395,0.264-6.395h0.809c0,0-0.307,3.932,0.207,6.395H18.089z"/>
		<path fill="#B8DDC3" d="M18.729,35.122c-0.889,0-1.094,0.797-1.094,0.797s-0.629-0.148-0.9,0.34
			c-0.318,0.57-0.02,1.062-0.02,1.062s-0.686,0.045-0.686,1.053c1.523,0,2.322-0.156,2.322,0.523h0.303h0.201h0.305
			c0-0.68,0.799-0.523,2.322-0.523c0-0.945-0.648-1.014-0.648-1.014s0.275-0.643-0.104-1.164c-0.408-0.562-0.975-0.354-0.975-0.354
			s-0.189-0.719-0.973-0.719L18.729,35.122z"/>
	</g>
	<g>
		<path fill="#7EC7A2" d="M19.733,46.007c0.328-2.26,0.223-4.135,0.223-4.135h0.678c0.016,1.869-0.062,2.5,0.174,4.135H19.733z"/>
		<path fill="#7EC7A2" d="M20.27,38.7c-0.744,0-0.918,0.668-0.918,0.668s-0.529-0.123-0.754,0.285
			c-0.268,0.48-0.018,0.895-0.018,0.895s-0.576,0.037-0.576,0.883c1.279,0,1.951-0.129,1.951,0.441h0.256h0.168h0.254
			c0-0.57,0.672-0.441,1.953-0.441c0-0.793-0.543-0.852-0.543-0.852s0.23-0.541-0.088-0.979c-0.342-0.471-0.818-0.297-0.818-0.297
			s-0.16-0.604-0.818-0.604"/>
	</g>
	<g>
		<path fill="#7EC7A2" d="M4.294,43.587c0.328-2.258,0.223-4.135,0.223-4.135h0.678c0.016,1.869-0.062,2.5,0.174,4.135H4.294z"/>
		<path fill="#7EC7A2" d="M4.831,36.28c-0.744,0-0.918,0.668-0.918,0.668s-0.529-0.123-0.754,0.287
			c-0.268,0.479-0.018,0.895-0.018,0.895s-0.576,0.037-0.576,0.881c1.279,0,1.951-0.127,1.951,0.441h0.256H4.94h0.254
			c0-0.568,0.672-0.441,1.953-0.441c0-0.791-0.543-0.85-0.543-0.85s0.23-0.541-0.088-0.979c-0.342-0.471-0.818-0.297-0.818-0.297
			S5.538,36.28,4.88,36.28"/>
	</g>
	<g>
		<path fill="#7EC7A2" d="M32.643,49.315c0.283-1.965,0.191-3.596,0.191-3.596h0.592c0.012,1.625-0.057,2.174,0.15,3.596H32.643z"/>
		<path fill="#7EC7A2" d="M33.108,42.964c-0.646,0-0.797,0.582-0.797,0.582s-0.459-0.107-0.656,0.248
			c-0.232,0.416-0.016,0.777-0.016,0.777s-0.498,0.031-0.498,0.766c1.111,0,1.693-0.111,1.693,0.383h0.223h0.146h0.223
			c0-0.494,0.582-0.383,1.695-0.383c0-0.689-0.473-0.74-0.473-0.74s0.201-0.469-0.076-0.85c-0.297-0.408-0.711-0.258-0.711-0.258
			s-0.139-0.525-0.709-0.525"/>
	</g>
	<g>
		<path fill="#24554A" d="M8.614,46.3c-0.049-1.984-0.412-3.58-0.412-3.58l0.584-0.1c0.285,1.604,0.309,2.156,0.752,3.523
			L8.614,46.3z"/>
		<path fill="#235449" d="M8.011,39.954c-0.641,0.107-0.691,0.707-0.691,0.707s-0.473-0.029-0.607,0.355
			c-0.156,0.449,0.117,0.768,0.117,0.768s-0.49,0.117-0.367,0.842c1.1-0.188,1.656-0.395,1.74,0.094l0.219-0.037l0.143-0.025
			l0.223-0.037c-0.084-0.488,0.508-0.477,1.607-0.662c-0.115-0.68-0.59-0.65-0.59-0.65s0.121-0.498-0.217-0.828
			c-0.361-0.354-0.746-0.133-0.746-0.133s-0.225-0.496-0.789-0.4"/>
	</g>
	<g>
		<path fill="#24554A" d="M34.356,53.601c0.285-1.965,0.193-3.6,0.193-3.6h0.592c0.014,1.627-0.057,2.178,0.15,3.6H34.356z"/>
		<path fill="#235449" d="M34.825,47.241c-0.648,0-0.801,0.58-0.801,0.58s-0.459-0.105-0.656,0.25
			c-0.232,0.416-0.016,0.779-0.016,0.779s-0.5,0.031-0.5,0.768c1.113,0,1.697-0.113,1.697,0.383h0.223h0.146h0.223
			c0-0.496,0.582-0.383,1.697-0.383c0-0.691-0.473-0.742-0.473-0.742s0.201-0.471-0.076-0.85c-0.297-0.412-0.711-0.258-0.711-0.258
			s-0.141-0.527-0.713-0.527"/>
	</g>
	<g>
		<path fill="#4E9D7D" d="M22.702,56.026c3.539,0.846,7.182,1.291,10.793,1.273c0.01-0.033,1.691-5.598,4.34-8.1
			c-1.654,0.01-3.398-0.025-5.273-0.117c-0.975-0.047-1.914-0.172-2.826-0.348C24.017,51.233,22.706,56.015,22.702,56.026z"/>
		<path fill="#316B59" d="M21.165,45.575c-6.102-2.99-11.336-6.1-18.002-1.303c-0.357,0.258-0.68,0.553-0.98,0.861
			c2.883,2.797,6.367,5.211,10.207,7.137C12.393,52.257,13.917,47.257,21.165,45.575z"/>
		<path fill="#3F836B" d="M12.39,52.271c3.232,1.621,6.717,2.895,10.312,3.756c0.004-0.012,1.314-4.793,7.033-7.291
			c-3.143-0.604-5.938-1.869-8.57-3.16C13.917,47.257,12.393,52.257,12.39,52.271z"/>
		<path fill="#5EBD93" d="M33.495,57.3c3.467-0.016,6.9-0.459,10.188-1.381c0-0.025-0.061-4.938,2.045-7.307
			c-2.369,0.383-4.975,0.566-7.893,0.588C35.186,51.702,33.505,57.267,33.495,57.3z"/>
		<path fill="#7EC7A2" d="M43.683,55.919c2.537-0.715,4.986-1.715,7.291-3.029c0.004-0.033,0.689-4.186,2.117-6.408
			c-2.244,0.994-4.654,1.691-7.363,2.131C43.622,50.981,43.683,55.894,43.683,55.919z"/>
		<path fill="#B8DDC3" d="M64.614,36.354c0,0-1.812,3.354-3.975,5.229c-0.541,0.471-1.086,0.91-1.629,1.33
			c-1.01,2.168-1.631,5.055-1.641,5.09C60.401,44.962,62.759,41.112,64.614,36.354z"/>
		<path fill="#9BD2B2" d="M57.37,48.003c0.01-0.035,0.631-2.922,1.641-5.09c-1.902,1.471-3.844,2.646-5.92,3.568
			c-1.428,2.223-2.113,6.375-2.117,6.408C53.27,51.581,55.421,49.96,57.37,48.003z"/>
		<path fill="#0D6082" d="M12.39,52.271c-3.84-1.926-7.324-4.34-10.207-7.137c-5.029,5.158-1.975,17.035,15.576,20.15
			C13.204,60.548,12.39,52.271,12.39,52.271L12.39,52.271z"/>
		<path fill="#91BBD4" d="M57.37,48.007v-0.004c-1.949,1.957-4.1,3.578-6.396,4.887l-0.002,0.004c0,0,3.494,1.123,6.58-0.326
			c2.078-2.695,3.678-5.447,4.771-7.902C60.716,46.831,57.37,48.007,57.37,48.007z"/>
		<path fill="#B6D5E3" d="M64.614,36.354c-1.855,4.758-4.213,8.607-7.244,11.648v0.004c0,0,3.346-1.176,4.953-3.342
			c0.465-1.047,0.777-2.039,1.102-2.947C64.532,38.599,64.616,36.354,64.614,36.354z"/>
		<path fill="#6DA4C7" d="M50.972,52.894l0.002-0.004c-2.305,1.314-4.754,2.314-7.291,3.029v0.002c0,0,3.682,2.879,8.416,2.27
			c2.146-1.75,3.949-3.67,5.453-5.623C54.466,54.017,50.972,52.894,50.972,52.894z"/>
		<path fill="#3C7FA4" d="M33.495,57.304V57.3c-3.611,0.018-7.254-0.428-10.793-1.273l0,0c0,0,2.057,5.668,7.039,9.962
			c0.293-0.014,0.574-0.016,0.875-0.029c4.189-0.209,7.873-0.948,11.123-2.056C37.101,62.431,33.495,57.304,33.495,57.304z"/>
		<path fill="#4490BA" d="M43.683,55.921v-0.002c-3.287,0.922-6.721,1.365-10.188,1.381v0.004c0,0,3.605,5.127,8.244,6.6
			c4.127-1.406,7.543-3.412,10.359-5.713C47.364,58.8,43.683,55.921,43.683,55.921z"/>
		<path fill="#326F90" d="M22.702,56.026L22.702,56.026c-3.596-0.861-7.08-2.135-10.312-3.756l0,0c0,0,0.814,8.277,5.369,13.014
			c3.426,0.606,7.402,0.878,11.982,0.704C24.759,61.694,22.702,56.026,22.702,56.026z"/>
	</g>
	<path fill="#07456B" d="M34.577,19.482c0.432-0.693,1.039-1.268,1.758-1.709c0.717-0.439,1.57-0.719,2.439-0.748
		c0.875-0.031,1.729,0.193,2.498,0.525c0.387,0.17,0.744,0.389,1.072,0.646c0.33,0.256,0.619,0.529,0.916,0.84l-0.43,0.172
		c0.168-0.783,0.393-1.486,0.625-2.234c0.232-0.732,0.525-1.516,1.072-2.133c0.547-0.615,1.279-1.053,2.041-1.311
		c0.771-0.242,1.578-0.314,2.352-0.16c0.035,0.008,0.059,0.041,0.051,0.078c-0.002,0.021-0.02,0.039-0.039,0.047
		c-0.715,0.297-1.379,0.568-1.979,0.914c-0.299,0.176-0.592,0.352-0.857,0.559c-0.27,0.203-0.518,0.424-0.77,0.65
		c-0.492,0.451-1.035,0.934-1.414,1.561c-0.371,0.621-0.568,1.367-0.564,2.066c0,0.135-0.105,0.246-0.24,0.248
		c-0.051-0.002-0.098-0.014-0.137-0.037l-0.053-0.035c-0.297-0.188-0.654-0.348-0.998-0.471c-0.348-0.125-0.693-0.234-1.039-0.332
		c-0.688-0.199-1.385-0.246-2.062-0.232c-0.682,0.018-1.363,0.125-2.055,0.33c-0.688,0.209-1.373,0.521-2.102,0.859
		c-0.033,0.016-0.074,0.002-0.09-0.031C34.563,19.521,34.565,19.5,34.577,19.482"/>
	<path fill="#07456B" d="M45.251,23.949c0.432-0.254,0.908-0.406,1.402-0.479c0.496-0.066,1.029-0.064,1.512,0.143
		c0.24,0.094,0.465,0.234,0.668,0.381c0.207,0.152,0.396,0.311,0.578,0.484c0.18,0.172,0.342,0.361,0.496,0.564
		c0.072,0.102,0.15,0.207,0.209,0.322c0.066,0.113,0.121,0.223,0.172,0.369L49.94,25.56c0.131-0.078,0.24-0.127,0.365-0.176
		c0.121-0.053,0.246-0.09,0.371-0.125c0.252-0.066,0.514-0.109,0.773-0.131c0.525-0.037,1.061,0.027,1.553,0.207
		c0.496,0.182,0.943,0.457,1.326,0.793c0.383,0.338,0.711,0.727,0.951,1.162c0.008,0.018,0.004,0.035-0.014,0.047
		c-0.012,0.006-0.025,0.006-0.039,0c-0.402-0.289-0.791-0.562-1.199-0.783c-0.404-0.23-0.826-0.402-1.252-0.531
		c-0.424-0.117-0.863-0.197-1.307-0.207c-0.221-0.006-0.445,0.01-0.664,0.039c-0.115,0.018-0.225,0.039-0.334,0.062
		c-0.105,0.02-0.223,0.055-0.314,0.076l-0.082,0.025c-0.111,0.029-0.229-0.033-0.258-0.145c-0.004-0.018-0.006-0.037-0.006-0.051
		c-0.002-0.086-0.023-0.207-0.053-0.312c-0.025-0.107-0.059-0.217-0.107-0.322c-0.088-0.209-0.221-0.398-0.387-0.559
		c-0.164-0.162-0.363-0.283-0.578-0.363c-0.213-0.08-0.439-0.117-0.66-0.141c-0.441-0.045-0.879-0.098-1.338-0.104
		c-0.457-0.01-0.926,0.01-1.424-0.008c-0.018-0.002-0.033-0.018-0.033-0.035C45.233,23.964,45.239,23.955,45.251,23.949"/>
</g>
</svg>
