<?xml version="1.0" encoding="utf-8"?>
<!-- Generator: Adobe Illustrator 15.1.0, SVG Export Plug-In . SVG Version: 6.00 Build 0)  -->
<!DOCTYPE svg PUBLIC "-//W3C//DTD SVG 1.1//EN" "http://www.w3.org/Graphics/SVG/1.1/DTD/svg11.dtd">
<svg version="1.1" id="Layer_1" xmlns="http://www.w3.org/2000/svg" xmlns:xlink="http://www.w3.org/1999/xlink" x="0px" y="0px"
	 width="150px" height="80px" viewBox="0 0 150 80" enable-background="new 0 0 150 80"
	 xml:space="preserve">
<g>
	<path fill="#FFFFFF" d="M136.633,6.641c-3.537-2.822-7.531-4.996-11.764-6.477V0h-0.459H98.994H0v80.098h108.649l0.186-0.008
		l-0.129,0.006c0.145,0.004,0.293,0.006,0.441,0.006c0.182,0,0.365-0.004,0.586-0.014c4.393-0.219,8.744-1.08,13.307-2.635
		c4.734-1.613,9.055-3.998,12.834-7.086c2.479-2.02,4.744-4.355,6.732-6.936c0.744-0.967,1.465-1.988,2.264-3.215
		c1.307-1.941,2.441-3.988,3.375-6.088l0.115-0.252c0.068-0.156,0.129-0.305,0.189-0.459c0.463-1.1,0.879-2.227,1.238-3.352
		c1.049-3.037,1.482-5.311,1.562-7.043C153.118,29.221,147.502,15.312,136.633,6.641z"/>
</g>
<g>
	<path fill="#4490BA" d="M7.043,15.639h3.143v10.086c0,1.129,0.119,1.953,0.36,2.473c0.372,0.92,1.185,1.379,2.438,1.379
		c1.248,0,2.058-0.459,2.43-1.379c0.242-0.52,0.36-1.344,0.36-2.473V15.639h3.144v10.094c0,1.746-0.245,3.105-0.731,4.078
		c-0.91,1.783-2.643,2.674-5.202,2.674c-2.559,0-4.295-0.891-5.21-2.674c-0.487-0.973-0.731-2.332-0.731-4.078V15.639z"/>
	<path fill="#4490BA" d="M31.368,16.062c0.545,0.26,1.006,0.643,1.385,1.148c0.312,0.416,0.561,0.877,0.743,1.381
		c0.184,0.506,0.274,1.08,0.274,1.727c0,0.781-0.177,1.547-0.532,2.301c-0.354,0.754-0.939,1.287-1.756,1.598
		c0.683,0.305,1.166,0.738,1.451,1.299c0.284,0.561,0.426,1.416,0.426,2.568v1.102c0,0.752,0.028,1.26,0.082,1.527
		c0.082,0.424,0.271,0.736,0.571,0.936v0.412H30.6c-0.094-0.363-0.16-0.656-0.201-0.881c-0.08-0.459-0.124-0.93-0.131-1.414
		l-0.02-1.527c-0.012-1.045-0.176-1.744-0.487-2.094c-0.315-0.35-0.902-0.523-1.763-0.523h-3.019v6.439h-3.022V15.639h7.076
		C30.045,15.662,30.824,15.803,31.368,16.062z M24.979,18.492v4.412h3.326c0.662,0,1.156-0.09,1.485-0.268
		c0.587-0.312,0.878-0.928,0.878-1.852c0-0.994-0.282-1.662-0.847-2.004c-0.319-0.193-0.796-0.289-1.43-0.289H24.979z"/>
	<path fill="#4490BA" d="M47.766,17.389c0.453,0.699,0.679,1.535,0.679,2.508c0,1.002-0.229,1.807-0.685,2.416
		c-0.256,0.342-0.633,0.654-1.13,0.936c0.756,0.305,1.326,0.789,1.709,1.449c0.386,0.66,0.577,1.463,0.577,2.406
		c0,0.973-0.22,1.846-0.659,2.617c-0.278,0.512-0.628,0.943-1.047,1.293c-0.472,0.402-1.029,0.676-1.671,0.824
		c-0.644,0.148-1.34,0.223-2.091,0.223h-6.667V15.639h7.15C45.735,15.67,47.014,16.252,47.766,17.389z M39.733,18.492v3.621h3.596
		c0.642,0,1.162-0.137,1.563-0.408c0.4-0.27,0.602-0.752,0.602-1.441c0-0.766-0.265-1.271-0.794-1.516
		c-0.458-0.172-1.041-0.256-1.75-0.256H39.733z M39.733,24.83v4.379h3.593c0.641,0,1.14-0.096,1.496-0.289
		c0.649-0.357,0.972-1.041,0.972-2.051c0-0.854-0.312-1.441-0.942-1.76c-0.35-0.18-0.843-0.271-1.479-0.279H39.733z"/>
	<path fill="#4490BA" d="M54.784,15.639h3.497l5.233,16.422h-3.352l-0.978-3.375h-5.447l-1.004,3.375h-3.233L54.784,15.639z
		 M54.58,25.855h3.789L56.5,19.395L54.58,25.855z"/>
	<path fill="#4490BA" d="M65.008,15.639h3.24l5.871,11.451V15.639H77v16.422h-3.091l-6.022-11.65v11.65h-2.879V15.639z"/>
</g>
<g>
	<path fill="#07456B" d="M12.291,34.9c0.215,0.301,0.323,0.66,0.323,1.078c0,0.432-0.109,0.777-0.327,1.039
		c-0.123,0.148-0.302,0.283-0.539,0.404c0.36,0.131,0.632,0.338,0.816,0.623c0.183,0.285,0.275,0.631,0.275,1.035
		c0,0.42-0.105,0.795-0.315,1.127c-0.133,0.221-0.3,0.406-0.499,0.555c-0.228,0.174-0.492,0.291-0.8,0.355
		c-0.306,0.064-0.64,0.098-0.999,0.098H7.043v-7.066h3.415C11.32,34.16,11.931,34.41,12.291,34.9z M8.453,35.375v1.557h1.717
		c0.308,0,0.557-0.057,0.748-0.174s0.286-0.324,0.286-0.621c0-0.33-0.126-0.547-0.379-0.65c-0.219-0.074-0.497-0.111-0.835-0.111
		H8.453z M8.453,38.102v1.885h1.716c0.307,0,0.545-0.041,0.715-0.125c0.31-0.154,0.464-0.447,0.464-0.881
		c0-0.369-0.149-0.621-0.449-0.758c-0.168-0.078-0.402-0.117-0.706-0.121H8.453z"/>
	<path fill="#07456B" d="M15.457,41.215H13.99v-7.066h1.467V41.215z"/>
	<path fill="#07456B" d="M22.278,40.586c-0.534,0.549-1.306,0.824-2.315,0.824s-1.781-0.275-2.316-0.824
		c-0.715-0.674-1.072-1.646-1.072-2.914c0-1.295,0.357-2.268,1.072-2.916c0.535-0.549,1.307-0.824,2.316-0.824
		s1.781,0.275,2.315,0.824c0.713,0.648,1.068,1.621,1.068,2.916C23.347,38.939,22.991,39.912,22.278,40.586z M21.356,39.512
		c0.343-0.432,0.515-1.045,0.515-1.84c0-0.793-0.172-1.406-0.515-1.84c-0.344-0.432-0.809-0.648-1.394-0.648
		s-1.051,0.215-1.399,0.646c-0.35,0.432-0.523,1.045-0.523,1.842c0,0.795,0.174,1.408,0.523,1.84
		c0.349,0.432,0.814,0.646,1.399,0.646S21.013,39.943,21.356,39.512z"/>
	<path fill="#07456B" d="M28.613,34.301c0.497,0.164,0.897,0.461,1.205,0.896c0.246,0.352,0.414,0.732,0.504,1.141
		c0.09,0.41,0.134,0.799,0.134,1.172c0,0.938-0.188,1.732-0.565,2.385c-0.512,0.879-1.302,1.32-2.371,1.32h-3.046v-7.066h3.046
		C27.959,34.154,28.323,34.205,28.613,34.301z M25.907,35.375v4.611h1.363c0.698,0,1.185-0.344,1.46-1.031
		c0.15-0.377,0.226-0.826,0.226-1.346c0-0.721-0.113-1.271-0.339-1.656c-0.225-0.387-0.674-0.578-1.347-0.578H25.907z"/>
	<path fill="#07456B" d="M32.911,41.215h-1.468v-7.066h1.468V41.215z"/>
	<path fill="#07456B" d="M38.426,34.148h1.534l-2.409,7.066h-1.395l-2.391-7.066h1.579l1.532,5.363L38.426,34.148z"/>
	<path fill="#07456B" d="M46.065,35.398h-3.74V36.9h3.433v1.227h-3.433v1.816h3.913v1.271h-5.355v-7.066h5.183V35.398z"/>
	<path fill="#07456B" d="M51.916,34.33c0.26,0.111,0.48,0.275,0.662,0.492c0.149,0.18,0.268,0.379,0.355,0.596
		c0.087,0.217,0.131,0.465,0.131,0.744c0,0.334-0.085,0.664-0.255,0.988c-0.169,0.326-0.449,0.553-0.839,0.688
		c0.326,0.131,0.557,0.318,0.692,0.559c0.137,0.242,0.204,0.611,0.204,1.105v0.475c0,0.322,0.013,0.543,0.039,0.656
		c0.038,0.184,0.13,0.316,0.272,0.402v0.18h-1.63c-0.044-0.158-0.076-0.283-0.096-0.381c-0.039-0.197-0.06-0.4-0.062-0.607
		l-0.01-0.656c-0.005-0.451-0.084-0.752-0.232-0.902c-0.15-0.15-0.432-0.227-0.842-0.227h-1.442v2.773h-1.442v-7.066h3.379
		C51.284,34.158,51.655,34.219,51.916,34.33z M48.864,35.375v1.898h1.589c0.315,0,0.553-0.039,0.711-0.115
		c0.279-0.135,0.419-0.4,0.419-0.797c0-0.428-0.135-0.715-0.406-0.861c-0.15-0.084-0.38-0.125-0.683-0.125H48.864z"/>
	<path fill="#07456B" d="M55.541,39.033c0.047,0.322,0.137,0.564,0.271,0.723c0.245,0.291,0.664,0.438,1.259,0.438
		c0.354,0,0.644-0.039,0.866-0.115c0.42-0.148,0.63-0.42,0.63-0.82c0-0.234-0.103-0.414-0.309-0.541
		c-0.207-0.125-0.533-0.236-0.981-0.332l-0.764-0.168c-0.752-0.166-1.27-0.346-1.55-0.541c-0.478-0.326-0.715-0.836-0.715-1.529
		c0-0.633,0.233-1.158,0.699-1.576c0.465-0.42,1.149-0.629,2.052-0.629c0.754,0,1.396,0.197,1.929,0.592s0.811,0.969,0.838,1.719
		h-1.42c-0.025-0.426-0.216-0.727-0.569-0.906c-0.237-0.117-0.529-0.176-0.88-0.176c-0.39,0-0.701,0.076-0.934,0.229
		c-0.233,0.154-0.349,0.367-0.349,0.643c0,0.252,0.114,0.441,0.345,0.564c0.146,0.084,0.46,0.182,0.938,0.295l1.239,0.291
		c0.543,0.129,0.951,0.299,1.222,0.512c0.422,0.334,0.632,0.814,0.632,1.445c0,0.645-0.25,1.18-0.748,1.607
		c-0.499,0.426-1.204,0.639-2.115,0.639c-0.931,0-1.661-0.209-2.195-0.629c-0.532-0.42-0.799-0.998-0.799-1.732H55.541z"/>
	<path fill="#07456B" d="M62.373,41.215h-1.466v-7.066h1.466V41.215z"/>
	<path fill="#07456B" d="M68.888,34.148v1.25h-2.114v5.816h-1.485v-5.816h-2.125v-1.25H68.888z"/>
	<path fill="#07456B" d="M73.782,34.148h1.673l-2.362,4.416v2.65h-1.477v-2.65l-2.445-4.416h1.74l1.467,3.078L73.782,34.148z"/>
</g>
<g>
	<path fill="#F69056" d="M12.705,43.77v11.307h9.447V43.77h5.661v28.256h-5.661v-11.32h-9.447v11.32H7.043V43.77H12.705z"/>
	<path fill="#F69056" d="M48.463,60.861V43.77h5.714v17.109c0,3.156-1.115,5.85-3.348,8.08c-2.243,2.219-4.931,3.33-8.062,3.33
		c-3.167,0-5.866-1.111-8.099-3.33c-2.232-2.23-3.348-4.924-3.348-8.08V43.77h5.714v17.092c0,3.08,2.609,5.68,5.714,5.68
		C45.824,66.541,48.463,63.924,48.463,60.861z"/>
	<path fill="#F69056" d="M72.249,55.408c0.69,0.346,1.643,0.928,2.174,1.438C76.14,58.588,77,60.68,77,63.123
		c0,2.453-0.86,4.545-2.577,6.275c-1.718,1.75-3.798,2.627-6.24,2.627h-10.5V43.77h5.925h1.963c2.187,0,4.056,0.783,5.609,2.35
		c1.496,1.52,2.244,3.312,2.244,5.381C73.424,52.855,72.771,54.479,72.249,55.408z M65.57,49.291h-2.226v5.172
		c0.503-0.023,1.21-0.07,2.12-0.141c1.346-0.152,2.49-1.158,2.49-2.594C67.955,50.418,66.892,49.291,65.57,49.291z M71.46,63.123
		c0-1.879-1.528-3.355-3.277-3.471c-1.682-0.092-3.138-0.018-4.838-0.018v6.854h1.122h3.716
		C70.024,66.488,71.46,64.967,71.46,63.123z"/>
</g>
<g>
	<g>
		<g>
			<g>
				<path fill="#FFFFFF" d="M111.506,5.673c-13.271,0-24.654,8.087-29.492,19.602v24.752c4.838,11.515,16.221,19.602,29.492,19.602
					c17.661,0,31.978-14.316,31.978-31.978S129.167,5.673,111.506,5.673z"/>
			</g>
			<path fill="#FAB279" d="M92.241,41.237c-0.583-4.631-0.508-7.284,1.402-11.707L82.561,24.06c-1.84,3.89-1.388,7.726-1.588,11.803
				c0.786,1.65,0.91,2.903,1.552,5.67L92.241,41.237z"/>
			<path fill="#FAB279" d="M94.572,27.714c-0.062,0.095-0.075,0.114-0.005-0.002C94.63,27.598,94.624,27.619,94.572,27.714
				c0.179-0.282,0.749-1.2,0.749-1.2l-9.92-7.301c-0.723,1.025-1.401,2.099-2.014,3.223c-0.197,0.36-0.377,0.72-0.559,1.085
				l11.034,5.439C93.861,28.961,94.411,27.996,94.572,27.714z"/>
			<path fill="#F6BE19" d="M94.567,27.712c-0.07,0.116-0.057,0.097,0.005,0.002C94.624,27.619,94.63,27.598,94.567,27.712z"/>
			<path fill="#FAB279" d="M96.543,24.885c-0.072,0.081-0.09,0.098-0.006-0.007C96.625,24.777,96.616,24.797,96.543,24.885
				c0.215-0.237,0.947-1.055,0.947-1.055l-8.463-8.891c-1.175,1.158-2.271,2.426-3.275,3.785l9.876,7.264
				C95.631,25.987,96.333,25.143,96.543,24.885z"/>
			<path fill="#F6BE19" d="M96.54,24.882c-0.084,0.103-0.066,0.086,0.004,0.003C96.616,24.797,96.625,24.777,96.54,24.882z"/>
			<path fill="#FBC57D" d="M98.971,22.446c-0.078,0.057-0.096,0.068,0.008-0.013C99.084,22.345,99.062,22.367,98.971,22.446
				c0.245-0.19,1.125-0.881,1.125-0.881l-6.752-10.187c-1.365,0.939-2.662,1.984-3.881,3.141l8.428,8.844
				C97.891,23.363,98.709,22.669,98.971,22.446z"/>
			<path fill="#F6BE19" d="M98.979,22.434c-0.104,0.081-0.086,0.069-0.008,0.013C99.062,22.367,99.084,22.345,98.979,22.434z"/>
			<path fill="#FBC57D" d="M101.802,20.447c-0.1,0.052-0.128,0.062-0.007-0.005C101.914,20.378,101.893,20.392,101.802,20.447
				c0.292-0.154,1.243-0.666,1.243-0.666L98.195,8.628c-1.507,0.686-2.962,1.492-4.352,2.411l6.721,10.136
				C100.564,21.175,101.522,20.615,101.802,20.447z"/>
			<path fill="#F6BE19" d="M101.795,20.442c-0.121,0.067-0.093,0.057,0.007,0.005C101.893,20.392,101.914,20.378,101.795,20.442z"/>
			<path fill="#F6BE19" d="M104.913,18.978c-0.127,0.044-0.104,0.038,0.004,0.003C105.018,18.94,105.038,18.935,104.913,18.978z"/>
			<path fill="#FBC57D" d="M104.917,18.98c-0.107,0.035-0.131,0.041-0.004-0.003C105.038,18.935,105.018,18.94,104.917,18.98
				c0.316-0.1,1.338-0.439,1.338-0.439l-2.82-11.769c-1.602,0.418-3.17,0.958-4.688,1.615l4.826,11.094
				C103.573,19.481,104.614,19.097,104.917,18.98z"/>
			<path fill="#FCD351" d="M108.235,18.071c-0.133,0.023-0.106,0.021-0.003,0.007C108.342,18.057,108.37,18.048,108.235,18.071z"/>
			<path fill="#FBC57D" d="M108.232,18.078c-0.105,0.014-0.13,0.017,0.003-0.007C108.37,18.048,108.342,18.057,108.232,18.078
				c0.321-0.045,1.402-0.203,1.402-0.203l-0.737-12.032c-1.646,0.137-3.278,0.396-4.878,0.78l2.813,11.713
				C106.833,18.336,107.909,18.141,108.232,18.078z"/>
			<path fill="#FCD351" d="M111.661,17.759c-0.135-0.007-0.115-0.002-0.007,0.004C111.766,17.76,111.793,17.759,111.661,17.759z"/>
			<path fill="#FBC57D" d="M111.654,17.763c-0.108-0.006-0.128-0.011,0.007-0.004C111.793,17.759,111.766,17.76,111.654,17.763
				c0.317,0.014,1.415,0.045,1.415,0.045l1.354-11.942c-1.646-0.151-3.291-0.167-4.924-0.063l0.733,11.974
				C110.232,17.775,111.32,17.769,111.654,17.763z"/>
			<path fill="#FCD351" d="M115.083,18.041c-0.133-0.022-0.111-0.018-0.002,0.007C115.19,18.067,115.215,18.067,115.083,18.041z"/>
			<path fill="#FCD77F" d="M115.081,18.048c-0.109-0.024-0.131-0.029,0.002-0.007C115.215,18.067,115.19,18.067,115.081,18.048
				c0.316,0.069,1.379,0.289,1.379,0.289l3.385-11.49c-1.596-0.434-3.209-0.739-4.822-0.919l-1.348,11.887
				C113.674,17.814,114.756,17.996,115.081,18.048z"/>
			<path fill="#FCD77F" d="M118.399,18.931c-0.102-0.04-0.125-0.053,0.002-0.005C118.52,18.973,118.499,18.966,118.399,18.931
				c0.303,0.126,1.303,0.526,1.303,0.526l5.311-10.718c-1.501-0.702-3.039-1.279-4.588-1.731l-3.369,11.442
				C117.057,18.449,118.091,18.826,118.399,18.931z"/>
			<path fill="#FCD351" d="M118.401,18.926c-0.127-0.048-0.105-0.036-0.002,0.005C118.499,18.966,118.52,18.973,118.401,18.926z"/>
			<path fill="#FCD77F" d="M121.497,20.365c-0.081-0.051-0.093-0.062,0.017,0.001C121.631,20.44,121.602,20.424,121.497,20.365
				c0.253,0.164,1.206,0.753,1.206,0.753l7.075-9.64c-0.955-0.66-1.947-1.285-2.994-1.853c-0.406-0.219-0.815-0.426-1.232-0.632
				l-5.279,10.674C120.272,19.668,121.198,20.195,121.497,20.365z"/>
			<path fill="#FCD351" d="M121.513,20.366c-0.109-0.063-0.097-0.055-0.017-0.001C121.602,20.424,121.631,20.44,121.513,20.366z"/>
			<path fill="#FFE57C" d="M124.321,22.335c-0.1-0.088-0.085-0.072-0.004-0.001C124.404,22.407,124.425,22.422,124.321,22.335z"/>
			<path fill="#FCD77F" d="M124.317,22.334c-0.081-0.071-0.096-0.087,0.004,0.001C124.425,22.422,124.404,22.407,124.317,22.334
				c0.232,0.216,1.045,0.949,1.045,0.949l8.645-8.282c-1.146-1.138-2.403-2.201-3.74-3.165l-7.043,9.593
				C123.225,21.427,124.059,22.125,124.317,22.334z"/>
			<path fill="#FFE57C" d="M126.747,24.762c-0.084-0.105-0.068-0.083,0,0.008C126.815,24.847,126.831,24.864,126.747,24.762z"/>
			<path fill="#FCD77F" d="M126.747,24.77c-0.068-0.091-0.084-0.113,0-0.008C126.831,24.864,126.815,24.847,126.747,24.77
				c0.203,0.262,0.867,1.108,0.867,1.108l9.961-6.679c-0.938-1.331-1.985-2.594-3.139-3.778l-8.609,8.257
				C125.827,23.678,126.54,24.524,126.747,24.77z"/>
			<path fill="#FFE18C" d="M128.702,27.571c-0.043-0.089-0.053-0.107,0.008,0.007C128.778,27.692,128.762,27.672,128.702,27.571
				c0.147,0.28,0.665,1.257,0.665,1.257l10.999-4.864c-0.707-1.478-1.521-2.907-2.451-4.267l-9.924,6.652
				C127.993,26.344,128.532,27.282,128.702,27.571z"/>
			<path fill="#FFE57C" d="M128.709,27.578c-0.061-0.118-0.053-0.096-0.008-0.007C128.762,27.672,128.778,27.692,128.709,27.578z"/>
			<path fill="#FFE18C" d="M130.149,30.681c-0.03-0.09-0.032-0.103,0.014,0.017C130.206,30.828,130.194,30.8,130.149,30.681
				c0.088,0.288,0.439,1.359,0.439,1.359l11.717-2.894c-0.442-1.588-1.004-3.139-1.682-4.642l-10.961,4.853
				C129.663,29.357,130.029,30.359,130.149,30.681z"/>
			<path fill="#FFE57C" d="M130.163,30.697c-0.046-0.119-0.043-0.104-0.014-0.017C130.194,30.8,130.206,30.828,130.163,30.697z"/>
			<path fill="#FFE57C" d="M131.042,34.021c-0.02-0.129-0.02-0.111-0.006-0.005C131.057,34.128,131.062,34.157,131.042,34.021z"/>
			<path fill="#FFE18C" d="M131.036,34.017c-0.014-0.106-0.014-0.124,0.006,0.005C131.062,34.157,131.057,34.128,131.036,34.017
				c0.039,0.319,0.189,1.405,0.189,1.405l12.11-0.818c-0.163-1.649-0.462-3.278-0.873-4.874l-11.677,2.889
				C130.786,32.618,130.975,33.693,131.036,34.017z"/>
			<path fill="#FFE57C" d="M131.334,37.454c0.004-0.131-0.002-0.111-0.006,0.005C131.33,37.565,131.333,37.591,131.334,37.454z"/>
			<path fill="#FFE18C" d="M131.329,37.459c0.004-0.116,0.01-0.136,0.006-0.005C131.333,37.591,131.33,37.565,131.329,37.459
				c-0.016,0.321-0.05,1.408-0.05,1.408l12.112,1.308c0.129-1.661,0.121-3.322-0.008-4.969l-12.055,0.817
				C131.327,36.024,131.326,37.128,131.329,37.459z"/>
			<path fill="#FFE57C" d="M131.024,40.886c0.025-0.123,0.02-0.104-0.002-0.005C131.002,40.995,130.999,41.021,131.024,40.886z"/>
			<path fill="#FFE18C" d="M131.022,40.881c0.021-0.1,0.027-0.118,0.002,0.005C130.999,41.021,131.002,40.995,131.022,40.881
				c-0.068,0.302-0.299,1.392-0.299,1.392l11.76,3.416c0.424-1.621,0.709-3.263,0.863-4.911l-12.081-1.304
				C131.265,39.476,131.079,40.547,131.022,40.881z"/>
			<path fill="#FFEB99" d="M130.123,44.226c0.043-0.104,0.056-0.129,0.007-0.001C130.084,44.345,130.09,44.324,130.123,44.226
				c-0.129,0.307-0.528,1.308-0.528,1.308l11.016,5.44c0.701-1.539,1.268-3.112,1.713-4.701l-11.711-3.397
				C130.612,42.875,130.227,43.921,130.123,44.226z"/>
			<path fill="#FFE57C" d="M130.129,44.225c0.049-0.128,0.036-0.104-0.007,0.001C130.09,44.324,130.084,44.345,130.129,44.225z"/>
			<path fill="#FFF4AF" d="M128.67,47.353c0.068-0.113,0.058-0.092,0.002-0.009C128.612,47.444,128.6,47.47,128.67,47.353z"/>
			<path fill="#FFEB99" d="M128.672,47.344c0.056-0.083,0.066-0.104-0.002,0.009C128.6,47.47,128.612,47.444,128.672,47.344
				c-0.17,0.263-0.758,1.207-0.758,1.207l9.938,7.313c0.622-0.909,1.204-1.852,1.739-2.841c0.271-0.496,0.527-0.994,0.766-1.5
				l-10.98-5.419C129.377,46.104,128.834,47.05,128.672,47.344z"/>
			<path fill="#FFEB99" d="M126.681,50.189c0.082-0.088,0.104-0.113,0.013-0.011C126.612,50.281,126.624,50.266,126.681,50.189
				c-0.226,0.256-0.937,1.045-0.937,1.045l8.529,8.96c1.162-1.179,2.242-2.459,3.228-3.842l-9.899-7.274
				C127.605,49.08,126.878,49.952,126.681,50.189z"/>
			<path fill="#F7EF67" d="M126.694,50.179c0.091-0.103,0.069-0.077-0.013,0.011C126.624,50.266,126.612,50.281,126.694,50.179z"/>
			<path fill="#F7EF67" d="M124.26,52.629c0.102-0.084,0.086-0.072,0.002-0.01C124.176,52.697,124.157,52.716,124.26,52.629z"/>
			<path fill="#FFEB99" d="M124.262,52.619c0.084-0.062,0.1-0.074-0.002,0.01C124.157,52.716,124.176,52.697,124.262,52.619
				c-0.248,0.192-1.119,0.88-1.119,0.88l6.854,10.339c1.359-0.964,2.649-2.034,3.855-3.21l-8.506-8.933
				C125.347,51.695,124.516,52.402,124.262,52.619z"/>
			<path fill="#FFF8A7" d="M121.813,18.76c-10.479-5.702-23.592-1.83-29.293,8.646c-5.703,10.479-1.833,23.599,8.645,29.296
				c10.477,5.702,23.594,1.832,29.297-8.646C136.162,37.579,132.29,24.459,121.813,18.76"/>
		</g>
	</g>
	<g>
		<g id="g12173_10_" transform="translate(533.4499,348.8325)">
			<path id="path12175_10_" fill="#9BD2B2" d="M-425.826-327.667v-4.484h1.521v-3.016h0.424
				v-2.127h3.09v2.127h0.424v3.016h1.521v4.484h1.172v48.076h-11.424v-48.076H-425.826z"/>
		</g>
		<g id="g12177_10_" transform="translate(498.0599,335.244)">
			<path id="path12179_10_" fill="#9BD2B2" d="M-401.934-309.752v-0.648h1.104v-0.582h2.719v0.582
				h1.104v0.648h0.445v38.852h-5.816v-38.852H-401.934z"/>
		</g>
		<g id="g12181_10_" transform="translate(498.0363,227.4892)">
			<path id="path12183_10_" fill="#9BD2B2" d="M-401.917-167.685l-8.047-2.77v-23.107h8.047
				V-167.685z"/>
		</g>
		<g id="g12185_20_" transform="translate(530.4039,218.171)">
			<path id="path12187_20_" fill="#9BD2B2" d="M-423.771-155.4l-8.045-2.771v-23.105h8.045V-155.4
				z"/>
		</g>
		<g id="g12185_19_" transform="translate(530.4039,218.171)">
			<path id="path12187_19_" fill="#9BD2B2" d="M-442.935-160.234l-8.045-2.771v-17.105l8.045-15
				V-160.234z"/>
		</g>
		<g id="g12189_10_" transform="translate(569.415,190.3692)">
			<path id="path12191_10_" fill="#9BD2B2" d="M-450.106-123.15l-8.047,0.5v-32.574h8.047V-123.15
				z"/>
		</g>
		<g id="g12193_10_" transform="translate(451.5316,363.4303)">
			<path id="path12195_10_" fill="#9BD2B2" d="M-370.521-346.913h1.004l0.191-0.98h6.928
				l0.189,0.98h1.006v40.551l-9.318-0.002V-346.913z"/>
		</g>
	</g>
	<g id="g12199_13_" transform="translate(451.5316,194.9384)">
		<path id="path12201_13_" fill="#4E9D7D" d="M-370.76-138.845v-16.209h2.289v-6.408h5.994v6.316
			h0.795v-10.346h4.758v6.146l0,0l0,0h5.797l2.363,3.688l0.258,4.512c0,0,0.006-5.764,7.713-9.041v9.812h1.83v-3.566l0.697-1.059
			h1.066l0.441,0.68l0.02,4.072l1.826,0.039v3.789v8.275l-0.271-0.865L-370.76-138.845z"/>
	</g>
	<polygon fill="#316B59" points="105.243,46.609 105.243,48.193 108.862,46.609 108.862,48.193 112.479,46.609 112.479,60.057
		100.922,60.057 100.922,48.498 	"/>
	<g>
		<polygon fill="#B8DDC3" points="87.643,49.154 87.643,44.402 86.774,44.402 89.477,41.734 90.385,47.643 		"/>
		<polygon fill="#B8DDC3" points="91.325,49.154 91.325,44.402 92.19,44.402 89.487,41.734 87.643,49.154 		"/>
	</g>
	<g>
		<polygon fill="#7EC7A2" points="90.163,49.154 90.163,45.023 89.409,45.023 91.76,42.703 92.549,47.84 		"/>
		<polygon fill="#7EC7A2" points="93.366,49.154 93.366,45.023 94.118,45.023 91.768,42.703 90.163,49.154 		"/>
	</g>
	<g>
		<path fill="#B8DDC3" d="M96.678,50.963c0.391-2.688,0.264-6.395,0.264-6.395h0.809c0,0-0.307,3.932,0.207,6.395H96.678z"/>
		<path fill="#B8DDC3" d="M97.319,40.795c-0.889,0-1.094,0.797-1.094,0.797s-0.629-0.148-0.9,0.34
			c-0.318,0.57-0.02,1.062-0.02,1.062s-0.686,0.045-0.686,1.053c1.523,0,2.322-0.156,2.322,0.523h0.303h0.201h0.305
			c0-0.68,0.799-0.523,2.322-0.523c0-0.945-0.648-1.014-0.648-1.014s0.275-0.643-0.104-1.164c-0.408-0.562-0.975-0.354-0.975-0.354
			s-0.189-0.719-0.973-0.719L97.319,40.795z"/>
	</g>
	<g>
		<path fill="#7EC7A2" d="M98.323,51.68c0.328-2.26,0.223-4.135,0.223-4.135h0.678c0.016,1.869-0.062,2.5,0.174,4.135H98.323z"/>
		<path fill="#7EC7A2" d="M98.86,44.373c-0.744,0-0.918,0.668-0.918,0.668s-0.529-0.123-0.754,0.285
			c-0.268,0.48-0.018,0.895-0.018,0.895s-0.576,0.037-0.576,0.883c1.279,0,1.951-0.129,1.951,0.441h0.256h0.168h0.254
			c0-0.57,0.672-0.441,1.953-0.441c0-0.793-0.543-0.852-0.543-0.852s0.23-0.541-0.088-0.979c-0.342-0.471-0.818-0.297-0.818-0.297
			s-0.16-0.604-0.818-0.604"/>
	</g>
	<g>
		<path fill="#7EC7A2" d="M82.884,49.26c0.328-2.258,0.223-4.135,0.223-4.135h0.678c0.016,1.869-0.062,2.5,0.174,4.135H82.884z"/>
		<path fill="#7EC7A2" d="M83.421,41.953c-0.744,0-0.918,0.668-0.918,0.668s-0.529-0.123-0.754,0.287
			c-0.268,0.479-0.018,0.895-0.018,0.895s-0.576,0.037-0.576,0.881c1.279,0,1.951-0.127,1.951,0.441h0.256h0.168h0.254
			c0-0.568,0.672-0.441,1.953-0.441c0-0.791-0.543-0.85-0.543-0.85s0.23-0.541-0.088-0.979c-0.342-0.471-0.818-0.297-0.818-0.297
			s-0.16-0.605-0.818-0.605"/>
	</g>
	<g>
		<path fill="#7EC7A2" d="M111.233,54.988c0.284-1.965,0.192-3.596,0.192-3.596h0.591c0.013,1.625-0.057,2.174,0.15,3.596H111.233z"
			/>
		<path fill="#7EC7A2" d="M111.699,48.637c-0.647,0-0.797,0.582-0.797,0.582s-0.46-0.107-0.656,0.248
			c-0.233,0.416-0.016,0.777-0.016,0.777s-0.499,0.031-0.499,0.766c1.111,0,1.694-0.111,1.694,0.383h0.222h0.146h0.223
			c0-0.494,0.582-0.383,1.695-0.383c0-0.689-0.472-0.74-0.472-0.74s0.2-0.469-0.076-0.85c-0.298-0.408-0.712-0.258-0.712-0.258
			s-0.139-0.525-0.709-0.525"/>
	</g>
	<g>
		<path fill="#24554A" d="M87.204,51.973c-0.048-1.984-0.412-3.58-0.412-3.58l0.584-0.1c0.285,1.604,0.309,2.156,0.752,3.523
			L87.204,51.973z"/>
		<path fill="#235449" d="M86.6,45.627c-0.64,0.107-0.691,0.707-0.691,0.707s-0.472-0.029-0.606,0.355
			c-0.157,0.449,0.116,0.768,0.116,0.768s-0.489,0.117-0.366,0.842c1.1-0.188,1.656-0.395,1.739,0.094l0.22-0.037l0.143-0.025
			l0.222-0.037c-0.083-0.488,0.509-0.477,1.608-0.662c-0.115-0.68-0.59-0.65-0.59-0.65s0.12-0.498-0.218-0.828
			c-0.36-0.354-0.745-0.133-0.745-0.133s-0.225-0.496-0.789-0.4"/>
	</g>
	<g>
		<path fill="#24554A" d="M112.947,59.273c0.285-1.965,0.193-3.6,0.193-3.6h0.592c0.014,1.627-0.057,2.178,0.15,3.6H112.947z"/>
		<path fill="#235449" d="M113.415,52.914c-0.648,0-0.801,0.58-0.801,0.58s-0.459-0.105-0.656,0.25
			c-0.232,0.416-0.016,0.779-0.016,0.779s-0.5,0.031-0.5,0.768c1.113,0,1.697-0.113,1.697,0.383h0.223h0.146h0.223
			c0-0.496,0.582-0.383,1.697-0.383c0-0.691-0.473-0.742-0.473-0.742s0.201-0.471-0.076-0.85c-0.297-0.412-0.711-0.258-0.711-0.258
			s-0.141-0.527-0.713-0.527"/>
	</g>
	<g>
		<path fill="#4E9D7D" d="M101.291,61.699c3.539,0.846,7.182,1.291,10.794,1.273c0.01-0.033,1.69-5.598,4.34-8.1
			c-1.654,0.01-3.399-0.025-5.274-0.117c-0.975-0.047-1.913-0.172-2.825-0.348C102.606,56.906,101.295,61.688,101.291,61.699z"/>
		<path fill="#316B59" d="M99.754,51.248c-6.102-2.99-11.335-6.1-18.001-1.303c-0.358,0.258-0.68,0.553-0.981,0.861
			c2.883,2.797,6.367,5.211,10.207,7.137C90.984,57.93,92.506,52.93,99.754,51.248z"/>
		<path fill="#3F836B" d="M90.979,57.943c3.232,1.621,6.717,2.895,10.312,3.756c0.004-0.012,1.314-4.793,7.034-7.291
			c-3.143-0.604-5.938-1.869-8.571-3.16C92.506,52.93,90.984,57.93,90.979,57.943z"/>
		<path fill="#5EBD93" d="M112.085,62.973c3.466-0.016,6.9-0.459,10.187-1.381c0-0.025-0.061-4.938,2.045-7.307
			c-2.368,0.383-4.974,0.566-7.892,0.588C113.776,57.375,112.095,62.939,112.085,62.973z"/>
		<path fill="#7EC7A2" d="M122.272,61.592c2.538-0.715,4.987-1.715,7.291-3.029c0.004-0.033,0.689-4.186,2.117-6.408
			c-2.243,0.994-4.653,1.691-7.363,2.131C122.211,56.654,122.272,61.566,122.272,61.592z"/>
		<path fill="#B8DDC3" d="M143.204,42.027c0,0-1.812,3.354-3.974,5.229c-0.542,0.471-1.086,0.91-1.63,1.33
			c-1.01,2.168-1.631,5.055-1.641,5.09C138.991,50.635,141.349,46.785,143.204,42.027z"/>
		<path fill="#9BD2B2" d="M135.959,53.676c0.01-0.035,0.631-2.922,1.641-5.09c-1.901,1.471-3.843,2.646-5.92,3.568
			c-1.428,2.223-2.113,6.375-2.117,6.408C131.86,57.254,134.01,55.633,135.959,53.676z"/>
		<path fill="#0D6082" d="M90.979,57.943c-3.84-1.926-7.324-4.34-10.207-7.137c-5.029,5.158-1.974,17.035,15.577,20.15
			C91.794,66.221,90.979,57.943,90.979,57.943L90.979,57.943z"/>
		<path fill="#91BBD4" d="M135.959,53.68v-0.004c-1.949,1.957-4.1,3.578-6.396,4.887l-0.002,0.004c0,0,3.494,1.123,6.58-0.326
			c2.079-2.695,3.678-5.447,4.771-7.902C139.305,52.504,135.959,53.68,135.959,53.68z"/>
		<path fill="#B6D5E3" d="M143.204,42.027c-1.854,4.758-4.213,8.607-7.244,11.648v0.004c0,0,3.346-1.176,4.953-3.342
			c0.465-1.047,0.778-2.039,1.102-2.947C143.123,44.271,143.206,42.027,143.204,42.027z"/>
		<path fill="#6DA4C7" d="M129.561,58.566l0.002-0.004c-2.304,1.314-4.753,2.314-7.291,3.029v0.002c0,0,3.683,2.879,8.417,2.27
			c2.146-1.75,3.948-3.67,5.452-5.623C133.055,59.689,129.561,58.566,129.561,58.566z"/>
		<path fill="#3C7FA4" d="M112.085,62.977v-0.004c-3.612,0.018-7.255-0.428-10.794-1.273l0,0c0,0,2.057,5.668,7.04,9.962
			c0.293-0.014,0.574-0.016,0.874-0.029c4.19-0.209,7.873-0.948,11.123-2.056C115.691,68.104,112.085,62.977,112.085,62.977z"/>
		<path fill="#4490BA" d="M122.272,61.594v-0.002c-3.286,0.922-6.721,1.365-10.187,1.381v0.004c0,0,3.605,5.127,8.243,6.6
			c4.128-1.406,7.543-3.412,10.36-5.713C125.955,64.473,122.272,61.594,122.272,61.594z"/>
		<path fill="#326F90" d="M101.291,61.699L101.291,61.699c-3.596-0.861-7.08-2.135-10.312-3.756l0,0c0,0,0.815,8.277,5.37,13.014
			c3.426,0.606,7.401,0.878,11.982,0.704C103.348,67.367,101.291,61.699,101.291,61.699z"/>
	</g>
	<path fill="#07456B" d="M113.166,25.155c0.432-0.693,1.039-1.268,1.758-1.709c0.717-0.439,1.57-0.719,2.439-0.748
		c0.875-0.031,1.729,0.193,2.498,0.525c0.387,0.17,0.744,0.389,1.072,0.646c0.33,0.256,0.619,0.529,0.916,0.84l-0.43,0.172
		c0.168-0.783,0.393-1.486,0.625-2.234c0.232-0.732,0.525-1.516,1.072-2.133c0.547-0.615,1.279-1.053,2.041-1.311
		c0.771-0.242,1.578-0.314,2.352-0.16c0.035,0.008,0.059,0.041,0.051,0.078c-0.002,0.021-0.02,0.039-0.039,0.047
		c-0.715,0.297-1.379,0.568-1.979,0.914c-0.299,0.176-0.592,0.352-0.857,0.559c-0.27,0.203-0.518,0.424-0.77,0.65
		c-0.492,0.451-1.035,0.934-1.414,1.561c-0.371,0.621-0.568,1.367-0.564,2.066c0,0.135-0.105,0.246-0.24,0.248
		c-0.051-0.002-0.098-0.014-0.137-0.037l-0.053-0.035c-0.297-0.188-0.654-0.348-0.998-0.471c-0.348-0.125-0.693-0.234-1.039-0.332
		c-0.688-0.199-1.385-0.246-2.062-0.232c-0.682,0.018-1.363,0.125-2.055,0.33c-0.688,0.209-1.373,0.521-2.102,0.859
		c-0.033,0.016-0.074,0.002-0.09-0.031C113.153,25.194,113.155,25.173,113.166,25.155"/>
	<path fill="#07456B" d="M123.84,29.622c0.432-0.254,0.908-0.406,1.402-0.479c0.496-0.066,1.029-0.064,1.512,0.143
		c0.24,0.094,0.465,0.234,0.668,0.381c0.207,0.152,0.396,0.311,0.578,0.484c0.18,0.172,0.342,0.361,0.496,0.564
		c0.072,0.102,0.15,0.207,0.209,0.322c0.066,0.113,0.121,0.223,0.172,0.369l-0.348-0.174c0.131-0.078,0.24-0.127,0.365-0.176
		c0.121-0.053,0.246-0.09,0.371-0.125c0.252-0.066,0.514-0.109,0.773-0.131c0.525-0.037,1.061,0.027,1.553,0.207
		c0.496,0.182,0.943,0.457,1.326,0.793c0.383,0.338,0.711,0.727,0.951,1.162c0.008,0.018,0.004,0.035-0.014,0.047
		c-0.012,0.006-0.025,0.006-0.039,0c-0.402-0.289-0.791-0.562-1.199-0.783c-0.404-0.23-0.826-0.402-1.252-0.531
		c-0.424-0.117-0.863-0.197-1.307-0.207c-0.221-0.006-0.445,0.01-0.664,0.039c-0.115,0.018-0.225,0.039-0.334,0.062
		c-0.105,0.02-0.223,0.055-0.314,0.076l-0.082,0.025c-0.111,0.029-0.229-0.033-0.258-0.145c-0.004-0.018-0.006-0.037-0.006-0.051
		c-0.002-0.086-0.023-0.207-0.053-0.312c-0.025-0.107-0.059-0.217-0.107-0.322c-0.088-0.209-0.221-0.398-0.387-0.559
		c-0.164-0.162-0.363-0.283-0.578-0.363c-0.213-0.08-0.439-0.117-0.66-0.141c-0.441-0.045-0.879-0.098-1.338-0.104
		c-0.457-0.01-0.926,0.01-1.424-0.008c-0.018-0.002-0.033-0.018-0.033-0.035C123.823,29.638,123.829,29.628,123.84,29.622"/>
</g>
</svg>
