<?xml version="1.0" encoding="utf-8" standalone="no"?>
<!DOCTYPE svg PUBLIC "-//W3C//DTD SVG 1.1//EN"
  "http://www.w3.org/Graphics/SVG/1.1/DTD/svg11.dtd">
<svg xmlns:xlink="http://www.w3.org/1999/xlink" width="558.922841pt" height="243.674688pt" viewBox="0 0 558.922841 243.674688" xmlns="http://www.w3.org/2000/svg" version="1.1">
 <metadata>
  <rdf:RDF xmlns:dc="http://purl.org/dc/elements/1.1/" xmlns:cc="http://creativecommons.org/ns#" xmlns:rdf="http://www.w3.org/1999/02/22-rdf-syntax-ns#">
   <cc:Work>
    <dc:type rdf:resource="http://purl.org/dc/dcmitype/StillImage"/>
    <dc:date>2023-04-12T21:56:41.285624</dc:date>
    <dc:format>image/svg+xml</dc:format>
    <dc:creator>
     <cc:Agent>
      <dc:title>Matplotlib v3.5.2, https://matplotlib.org/</dc:title>
     </cc:Agent>
    </dc:creator>
   </cc:Work>
  </rdf:RDF>
 </metadata>
 <defs>
  <style type="text/css">*{stroke-linejoin: round; stroke-linecap: butt}</style>
 </defs>
 <g id="figure_1">
  <g id="patch_1">
   <path d="M 0 243.674688 
L 558.922841 243.674688 
L 558.922841 0 
L 0 0 
z
" style="fill: #ffffff"/>
  </g>
  <g id="axes_1">
   <g id="patch_2">
    <path d="M 40.603125 99.348438 
L 191.377661 99.348438 
L 191.377661 14.798438 
L 40.603125 14.798438 
z
" style="fill: #ffffff"/>
   </g>
   <g id="matplotlib.axis_1">
    <g id="xtick_1">
     <g id="line2d_1">
      <defs>
       <path id="m2f52b91680" d="M 0 0 
L 0 3.5 
" style="stroke: #000000; stroke-width: 0.8"/>
      </defs>
      <g>
       <use xlink:href="#m2f52b91680" x="64.070787" y="99.348438" style="stroke: #000000; stroke-width: 0.8"/>
      </g>
     </g>
    </g>
    <g id="xtick_2">
     <g id="line2d_2">
      <g>
       <use xlink:href="#m2f52b91680" x="105.606472" y="99.348438" style="stroke: #000000; stroke-width: 0.8"/>
      </g>
     </g>
    </g>
    <g id="xtick_3">
     <g id="line2d_3">
      <g>
       <use xlink:href="#m2f52b91680" x="147.142156" y="99.348438" style="stroke: #000000; stroke-width: 0.8"/>
      </g>
     </g>
    </g>
    <g id="xtick_4">
     <g id="line2d_4">
      <g>
       <use xlink:href="#m2f52b91680" x="188.677841" y="99.348438" style="stroke: #000000; stroke-width: 0.8"/>
      </g>
     </g>
    </g>
   </g>
   <g id="matplotlib.axis_2">
    <g id="ytick_1">
     <g id="line2d_5">
      <defs>
       <path id="mc88f91af76" d="M 0 0 
L -3.5 0 
" style="stroke: #000000; stroke-width: 0.8"/>
      </defs>
      <g>
       <use xlink:href="#mc88f91af76" x="40.603125" y="95.505256" style="stroke: #000000; stroke-width: 0.8"/>
      </g>
     </g>
     <g id="text_1">
      <!-- 0 -->
      <g transform="translate(27.240625 99.304474)scale(0.1 -0.1)">
       <defs>
        <path id="DejaVuSans-30" d="M 2034 4250 
Q 1547 4250 1301 3770 
Q 1056 3291 1056 2328 
Q 1056 1369 1301 889 
Q 1547 409 2034 409 
Q 2525 409 2770 889 
Q 3016 1369 3016 2328 
Q 3016 3291 2770 3770 
Q 2525 4250 2034 4250 
z
M 2034 4750 
Q 2819 4750 3233 4129 
Q 3647 3509 3647 2328 
Q 3647 1150 3233 529 
Q 2819 -91 2034 -91 
Q 1250 -91 836 529 
Q 422 1150 422 2328 
Q 422 3509 836 4129 
Q 1250 4750 2034 4750 
z
" transform="scale(0.015625)"/>
       </defs>
       <use xlink:href="#DejaVuSans-30"/>
      </g>
     </g>
    </g>
    <g id="ytick_2">
     <g id="line2d_6">
      <g>
       <use xlink:href="#mc88f91af76" x="40.603125" y="53.957344" style="stroke: #000000; stroke-width: 0.8"/>
      </g>
     </g>
     <g id="text_2">
      <!-- 20 -->
      <g transform="translate(20.878125 57.756563)scale(0.1 -0.1)">
       <defs>
        <path id="DejaVuSans-32" d="M 1228 531 
L 3431 531 
L 3431 0 
L 469 0 
L 469 531 
Q 828 903 1448 1529 
Q 2069 2156 2228 2338 
Q 2531 2678 2651 2914 
Q 2772 3150 2772 3378 
Q 2772 3750 2511 3984 
Q 2250 4219 1831 4219 
Q 1534 4219 1204 4116 
Q 875 4013 500 3803 
L 500 4441 
Q 881 4594 1212 4672 
Q 1544 4750 1819 4750 
Q 2544 4750 2975 4387 
Q 3406 4025 3406 3419 
Q 3406 3131 3298 2873 
Q 3191 2616 2906 2266 
Q 2828 2175 2409 1742 
Q 1991 1309 1228 531 
z
" transform="scale(0.015625)"/>
       </defs>
       <use xlink:href="#DejaVuSans-32"/>
       <use xlink:href="#DejaVuSans-30" x="63.623047"/>
      </g>
     </g>
    </g>
    <g id="text_3">
     <!-- # Documents -->
     <g transform="translate(14.798438 91.360156)rotate(-90)scale(0.1 -0.1)">
      <defs>
       <path id="DejaVuSans-23" d="M 3272 2816 
L 2363 2816 
L 2100 1772 
L 3016 1772 
L 3272 2816 
z
M 2803 4594 
L 2478 3297 
L 3391 3297 
L 3719 4594 
L 4219 4594 
L 3897 3297 
L 4872 3297 
L 4872 2816 
L 3775 2816 
L 3519 1772 
L 4513 1772 
L 4513 1294 
L 3397 1294 
L 3072 0 
L 2572 0 
L 2894 1294 
L 1978 1294 
L 1656 0 
L 1153 0 
L 1478 1294 
L 494 1294 
L 494 1772 
L 1594 1772 
L 1856 2816 
L 850 2816 
L 850 3297 
L 1978 3297 
L 2297 4594 
L 2803 4594 
z
" transform="scale(0.015625)"/>
       <path id="DejaVuSans-20" transform="scale(0.015625)"/>
       <path id="DejaVuSans-44" d="M 1259 4147 
L 1259 519 
L 2022 519 
Q 2988 519 3436 956 
Q 3884 1394 3884 2338 
Q 3884 3275 3436 3711 
Q 2988 4147 2022 4147 
L 1259 4147 
z
M 628 4666 
L 1925 4666 
Q 3281 4666 3915 4102 
Q 4550 3538 4550 2338 
Q 4550 1131 3912 565 
Q 3275 0 1925 0 
L 628 0 
L 628 4666 
z
" transform="scale(0.015625)"/>
       <path id="DejaVuSans-6f" d="M 1959 3097 
Q 1497 3097 1228 2736 
Q 959 2375 959 1747 
Q 959 1119 1226 758 
Q 1494 397 1959 397 
Q 2419 397 2687 759 
Q 2956 1122 2956 1747 
Q 2956 2369 2687 2733 
Q 2419 3097 1959 3097 
z
M 1959 3584 
Q 2709 3584 3137 3096 
Q 3566 2609 3566 1747 
Q 3566 888 3137 398 
Q 2709 -91 1959 -91 
Q 1206 -91 779 398 
Q 353 888 353 1747 
Q 353 2609 779 3096 
Q 1206 3584 1959 3584 
z
" transform="scale(0.015625)"/>
       <path id="DejaVuSans-63" d="M 3122 3366 
L 3122 2828 
Q 2878 2963 2633 3030 
Q 2388 3097 2138 3097 
Q 1578 3097 1268 2742 
Q 959 2388 959 1747 
Q 959 1106 1268 751 
Q 1578 397 2138 397 
Q 2388 397 2633 464 
Q 2878 531 3122 666 
L 3122 134 
Q 2881 22 2623 -34 
Q 2366 -91 2075 -91 
Q 1284 -91 818 406 
Q 353 903 353 1747 
Q 353 2603 823 3093 
Q 1294 3584 2113 3584 
Q 2378 3584 2631 3529 
Q 2884 3475 3122 3366 
z
" transform="scale(0.015625)"/>
       <path id="DejaVuSans-75" d="M 544 1381 
L 544 3500 
L 1119 3500 
L 1119 1403 
Q 1119 906 1312 657 
Q 1506 409 1894 409 
Q 2359 409 2629 706 
Q 2900 1003 2900 1516 
L 2900 3500 
L 3475 3500 
L 3475 0 
L 2900 0 
L 2900 538 
Q 2691 219 2414 64 
Q 2138 -91 1772 -91 
Q 1169 -91 856 284 
Q 544 659 544 1381 
z
M 1991 3584 
L 1991 3584 
z
" transform="scale(0.015625)"/>
       <path id="DejaVuSans-6d" d="M 3328 2828 
Q 3544 3216 3844 3400 
Q 4144 3584 4550 3584 
Q 5097 3584 5394 3201 
Q 5691 2819 5691 2113 
L 5691 0 
L 5113 0 
L 5113 2094 
Q 5113 2597 4934 2840 
Q 4756 3084 4391 3084 
Q 3944 3084 3684 2787 
Q 3425 2491 3425 1978 
L 3425 0 
L 2847 0 
L 2847 2094 
Q 2847 2600 2669 2842 
Q 2491 3084 2119 3084 
Q 1678 3084 1418 2786 
Q 1159 2488 1159 1978 
L 1159 0 
L 581 0 
L 581 3500 
L 1159 3500 
L 1159 2956 
Q 1356 3278 1631 3431 
Q 1906 3584 2284 3584 
Q 2666 3584 2933 3390 
Q 3200 3197 3328 2828 
z
" transform="scale(0.015625)"/>
       <path id="DejaVuSans-65" d="M 3597 1894 
L 3597 1613 
L 953 1613 
Q 991 1019 1311 708 
Q 1631 397 2203 397 
Q 2534 397 2845 478 
Q 3156 559 3463 722 
L 3463 178 
Q 3153 47 2828 -22 
Q 2503 -91 2169 -91 
Q 1331 -91 842 396 
Q 353 884 353 1716 
Q 353 2575 817 3079 
Q 1281 3584 2069 3584 
Q 2775 3584 3186 3129 
Q 3597 2675 3597 1894 
z
M 3022 2063 
Q 3016 2534 2758 2815 
Q 2500 3097 2075 3097 
Q 1594 3097 1305 2825 
Q 1016 2553 972 2059 
L 3022 2063 
z
" transform="scale(0.015625)"/>
       <path id="DejaVuSans-6e" d="M 3513 2113 
L 3513 0 
L 2938 0 
L 2938 2094 
Q 2938 2591 2744 2837 
Q 2550 3084 2163 3084 
Q 1697 3084 1428 2787 
Q 1159 2491 1159 1978 
L 1159 0 
L 581 0 
L 581 3500 
L 1159 3500 
L 1159 2956 
Q 1366 3272 1645 3428 
Q 1925 3584 2291 3584 
Q 2894 3584 3203 3211 
Q 3513 2838 3513 2113 
z
" transform="scale(0.015625)"/>
       <path id="DejaVuSans-74" d="M 1172 4494 
L 1172 3500 
L 2356 3500 
L 2356 3053 
L 1172 3053 
L 1172 1153 
Q 1172 725 1289 603 
Q 1406 481 1766 481 
L 2356 481 
L 2356 0 
L 1766 0 
Q 1100 0 847 248 
Q 594 497 594 1153 
L 594 3053 
L 172 3053 
L 172 3500 
L 594 3500 
L 594 4494 
L 1172 4494 
z
" transform="scale(0.015625)"/>
       <path id="DejaVuSans-73" d="M 2834 3397 
L 2834 2853 
Q 2591 2978 2328 3040 
Q 2066 3103 1784 3103 
Q 1356 3103 1142 2972 
Q 928 2841 928 2578 
Q 928 2378 1081 2264 
Q 1234 2150 1697 2047 
L 1894 2003 
Q 2506 1872 2764 1633 
Q 3022 1394 3022 966 
Q 3022 478 2636 193 
Q 2250 -91 1575 -91 
Q 1294 -91 989 -36 
Q 684 19 347 128 
L 347 722 
Q 666 556 975 473 
Q 1284 391 1588 391 
Q 1994 391 2212 530 
Q 2431 669 2431 922 
Q 2431 1156 2273 1281 
Q 2116 1406 1581 1522 
L 1381 1569 
Q 847 1681 609 1914 
Q 372 2147 372 2553 
Q 372 3047 722 3315 
Q 1072 3584 1716 3584 
Q 2034 3584 2315 3537 
Q 2597 3491 2834 3397 
z
" transform="scale(0.015625)"/>
      </defs>
      <use xlink:href="#DejaVuSans-23"/>
      <use xlink:href="#DejaVuSans-20" x="83.789062"/>
      <use xlink:href="#DejaVuSans-44" x="115.576172"/>
      <use xlink:href="#DejaVuSans-6f" x="192.578125"/>
      <use xlink:href="#DejaVuSans-63" x="253.759766"/>
      <use xlink:href="#DejaVuSans-75" x="308.740234"/>
      <use xlink:href="#DejaVuSans-6d" x="372.119141"/>
      <use xlink:href="#DejaVuSans-65" x="469.53125"/>
      <use xlink:href="#DejaVuSans-6e" x="531.054688"/>
      <use xlink:href="#DejaVuSans-74" x="594.433594"/>
      <use xlink:href="#DejaVuSans-73" x="633.642578"/>
     </g>
    </g>
   </g>
   <g id="line2d_7">
    <path d="M 47.456513 95.505256 
L 72.377924 95.505256 
L 88.992198 95.505256 
L 93.145766 95.505256 
L 97.299335 95.505256 
L 101.452903 95.505256 
L 105.606472 95.505256 
L 109.76004 95.505256 
L 113.913609 93.42786 
L 118.067177 91.350465 
L 122.220746 95.505256 
L 126.374314 95.505256 
L 130.527882 95.505256 
L 134.681451 95.505256 
L 138.835019 80.963487 
L 142.988588 91.350465 
L 147.142156 91.350465 
L 151.295725 87.195673 
L 155.449293 95.505256 
L 159.602862 91.350465 
L 163.75643 91.350465 
L 167.909999 85.118278 
L 172.063567 91.350465 
L 176.217136 93.42786 
L 180.370704 93.42786 
L 184.524273 93.42786 
" clip-path="url(#p0fb00e105e)" style="fill: none; stroke: #b2b2b2; stroke-linecap: square"/>
   </g>
   <g id="line2d_8">
    <path d="M 47.456513 95.505256 
L 72.377924 95.505256 
L 88.992198 95.505256 
L 93.145766 95.505256 
L 97.299335 95.505256 
L 101.452903 95.505256 
L 105.606472 95.505256 
L 109.76004 95.505256 
L 113.913609 95.505256 
L 118.067177 95.505256 
L 122.220746 95.505256 
L 126.374314 95.505256 
L 130.527882 91.350465 
L 134.681451 95.505256 
L 138.835019 80.963487 
L 142.988588 89.273069 
L 147.142156 76.808695 
L 151.295725 80.963487 
L 155.449293 70.576509 
L 159.602862 78.886091 
L 163.75643 76.808695 
L 167.909999 78.886091 
L 172.063567 85.118278 
L 176.217136 93.42786 
L 180.370704 87.195673 
L 184.524273 91.350465 
" clip-path="url(#p0fb00e105e)" style="fill: none; stroke: #b2b2b2; stroke-linecap: square"/>
   </g>
   <g id="line2d_9">
    <path d="M 47.456513 95.505256 
L 72.377924 93.42786 
L 88.992198 95.505256 
L 93.145766 91.350465 
L 97.299335 89.273069 
L 101.452903 95.505256 
L 105.606472 91.350465 
L 109.76004 91.350465 
L 113.913609 83.040882 
L 118.067177 89.273069 
L 122.220746 76.808695 
L 126.374314 76.808695 
L 130.527882 76.808695 
L 134.681451 72.653904 
L 138.835019 29.028597 
L 142.988588 70.576509 
L 147.142156 49.802553 
L 151.295725 62.266926 
L 155.449293 45.647762 
L 159.602862 39.415575 
L 163.75643 26.951202 
L 167.909999 18.641619 
L 172.063567 39.415575 
L 176.217136 56.03474 
L 180.370704 87.195673 
L 184.524273 93.42786 
" clip-path="url(#p0fb00e105e)" style="fill: none; stroke: #b2b2b2; stroke-linecap: square"/>
   </g>
   <g id="line2d_10">
    <path d="M 47.456513 93.42786 
L 72.377924 91.350465 
L 88.992198 93.42786 
L 93.145766 95.505256 
L 97.299335 91.350465 
L 101.452903 89.273069 
L 105.606472 95.505256 
L 109.76004 93.42786 
L 113.913609 91.350465 
L 118.067177 91.350465 
L 122.220746 89.273069 
L 126.374314 89.273069 
L 130.527882 89.273069 
L 134.681451 72.653904 
L 138.835019 80.963487 
L 142.988588 85.118278 
L 147.142156 70.576509 
L 151.295725 51.879949 
L 155.449293 47.725157 
L 159.602862 78.886091 
L 163.75643 58.112135 
L 167.909999 45.647762 
L 172.063567 51.879949 
L 176.217136 74.7313 
L 180.370704 70.576509 
L 184.524273 80.963487 
" clip-path="url(#p0fb00e105e)" style="fill: none; stroke: #b2b2b2; stroke-linecap: square"/>
   </g>
   <g id="line2d_11">
    <path d="M 47.456513 95.505256 
L 72.377924 95.505256 
L 88.992198 95.505256 
L 93.145766 95.505256 
L 97.299335 95.505256 
L 101.452903 95.505256 
L 105.606472 95.505256 
L 109.76004 95.505256 
L 113.913609 95.505256 
L 118.067177 93.42786 
L 122.220746 95.505256 
L 126.374314 95.505256 
L 130.527882 95.505256 
L 134.681451 95.505256 
L 138.835019 85.118278 
L 142.988588 91.350465 
L 147.142156 95.505256 
L 151.295725 87.195673 
L 155.449293 83.040882 
L 159.602862 83.040882 
L 163.75643 85.118278 
L 167.909999 85.118278 
L 172.063567 58.112135 
L 176.217136 72.653904 
L 180.370704 91.350465 
L 184.524273 93.42786 
" clip-path="url(#p0fb00e105e)" style="fill: none; stroke: #b2b2b2; stroke-linecap: square"/>
   </g>
   <g id="line2d_12">
    <path d="M 47.456513 95.505256 
L 72.377924 95.505256 
L 88.992198 95.505256 
L 93.145766 95.505256 
L 97.299335 95.505256 
L 101.452903 95.505256 
L 105.606472 95.505256 
L 109.76004 95.505256 
L 113.913609 95.505256 
L 118.067177 95.505256 
L 122.220746 93.42786 
L 126.374314 95.505256 
L 130.527882 93.42786 
L 134.681451 95.505256 
L 138.835019 89.273069 
L 142.988588 95.505256 
L 147.142156 95.505256 
L 151.295725 91.350465 
L 155.449293 91.350465 
L 159.602862 89.273069 
L 163.75643 87.195673 
L 167.909999 91.350465 
L 172.063567 93.42786 
L 176.217136 95.505256 
L 180.370704 95.505256 
L 184.524273 95.505256 
" clip-path="url(#p0fb00e105e)" style="fill: none; stroke: #b2b2b2; stroke-linecap: square"/>
   </g>
   <g id="patch_3">
    <path d="M 40.603125 99.348438 
L 40.603125 14.798438 
" style="fill: none; stroke: #000000; stroke-width: 0.8; stroke-linejoin: miter; stroke-linecap: square"/>
   </g>
   <g id="patch_4">
    <path d="M 40.603125 99.348438 
L 191.377661 99.348438 
" style="fill: none; stroke: #000000; stroke-width: 0.8; stroke-linejoin: miter; stroke-linecap: square"/>
   </g>
   <g id="text_4">
    <!-- Africa -->
    <g transform="translate(55.680579 14.798438)scale(0.1 -0.1)">
     <defs>
      <path id="DejaVuSans-Bold-41" d="M 3419 850 
L 1538 850 
L 1241 0 
L 31 0 
L 1759 4666 
L 3194 4666 
L 4922 0 
L 3713 0 
L 3419 850 
z
M 1838 1716 
L 3116 1716 
L 2478 3572 
L 1838 1716 
z
" transform="scale(0.015625)"/>
      <path id="DejaVuSans-Bold-66" d="M 2841 4863 
L 2841 4128 
L 2222 4128 
Q 1984 4128 1890 4042 
Q 1797 3956 1797 3744 
L 1797 3500 
L 2753 3500 
L 2753 2700 
L 1797 2700 
L 1797 0 
L 678 0 
L 678 2700 
L 122 2700 
L 122 3500 
L 678 3500 
L 678 3744 
Q 678 4316 997 4589 
Q 1316 4863 1984 4863 
L 2841 4863 
z
" transform="scale(0.015625)"/>
      <path id="DejaVuSans-Bold-72" d="M 3138 2547 
Q 2991 2616 2845 2648 
Q 2700 2681 2553 2681 
Q 2122 2681 1889 2404 
Q 1656 2128 1656 1613 
L 1656 0 
L 538 0 
L 538 3500 
L 1656 3500 
L 1656 2925 
Q 1872 3269 2151 3426 
Q 2431 3584 2822 3584 
Q 2878 3584 2943 3579 
Q 3009 3575 3134 3559 
L 3138 2547 
z
" transform="scale(0.015625)"/>
      <path id="DejaVuSans-Bold-69" d="M 538 3500 
L 1656 3500 
L 1656 0 
L 538 0 
L 538 3500 
z
M 538 4863 
L 1656 4863 
L 1656 3950 
L 538 3950 
L 538 4863 
z
" transform="scale(0.015625)"/>
      <path id="DejaVuSans-Bold-63" d="M 3366 3391 
L 3366 2478 
Q 3138 2634 2908 2709 
Q 2678 2784 2431 2784 
Q 1963 2784 1702 2511 
Q 1441 2238 1441 1747 
Q 1441 1256 1702 982 
Q 1963 709 2431 709 
Q 2694 709 2930 787 
Q 3166 866 3366 1019 
L 3366 103 
Q 3103 6 2833 -42 
Q 2563 -91 2291 -91 
Q 1344 -91 809 395 
Q 275 881 275 1747 
Q 275 2613 809 3098 
Q 1344 3584 2291 3584 
Q 2566 3584 2833 3536 
Q 3100 3488 3366 3391 
z
" transform="scale(0.015625)"/>
      <path id="DejaVuSans-Bold-61" d="M 2106 1575 
Q 1756 1575 1579 1456 
Q 1403 1338 1403 1106 
Q 1403 894 1545 773 
Q 1688 653 1941 653 
Q 2256 653 2472 879 
Q 2688 1106 2688 1447 
L 2688 1575 
L 2106 1575 
z
M 3816 1997 
L 3816 0 
L 2688 0 
L 2688 519 
Q 2463 200 2181 54 
Q 1900 -91 1497 -91 
Q 953 -91 614 226 
Q 275 544 275 1050 
Q 275 1666 698 1953 
Q 1122 2241 2028 2241 
L 2688 2241 
L 2688 2328 
Q 2688 2594 2478 2717 
Q 2269 2841 1825 2841 
Q 1466 2841 1156 2769 
Q 847 2697 581 2553 
L 581 3406 
Q 941 3494 1303 3539 
Q 1666 3584 2028 3584 
Q 2975 3584 3395 3211 
Q 3816 2838 3816 1997 
z
" transform="scale(0.015625)"/>
     </defs>
     <use xlink:href="#DejaVuSans-Bold-41"/>
     <use xlink:href="#DejaVuSans-Bold-66" x="77.392578"/>
     <use xlink:href="#DejaVuSans-Bold-72" x="120.898438"/>
     <use xlink:href="#DejaVuSans-Bold-69" x="170.214844"/>
     <use xlink:href="#DejaVuSans-Bold-63" x="204.492188"/>
     <use xlink:href="#DejaVuSans-Bold-61" x="263.769531"/>
    </g>
   </g>
   <g id="line2d_13">
    <path d="M 47.456513 95.505256 
L 72.377924 95.505256 
L 88.992198 95.505256 
L 93.145766 95.505256 
L 97.299335 95.505256 
L 101.452903 95.505256 
L 105.606472 95.505256 
L 109.76004 95.505256 
L 113.913609 93.42786 
L 118.067177 91.350465 
L 122.220746 95.505256 
L 126.374314 95.505256 
L 130.527882 95.505256 
L 134.681451 95.505256 
L 138.835019 80.963487 
L 142.988588 91.350465 
L 147.142156 91.350465 
L 151.295725 87.195673 
L 155.449293 95.505256 
L 159.602862 91.350465 
L 163.75643 91.350465 
L 167.909999 85.118278 
L 172.063567 91.350465 
L 176.217136 93.42786 
L 180.370704 93.42786 
L 184.524273 93.42786 
" clip-path="url(#p0fb00e105e)" style="fill: none; stroke: #5b9867; stroke-width: 4; stroke-linecap: square"/>
   </g>
  </g>
  <g id="axes_2">
   <g id="patch_5">
    <path d="M 215.763125 99.348438 
L 366.537661 99.348438 
L 366.537661 14.798438 
L 215.763125 14.798438 
z
" style="fill: #ffffff"/>
   </g>
   <g id="matplotlib.axis_3">
    <g id="xtick_5">
     <g id="line2d_14">
      <g>
       <use xlink:href="#m2f52b91680" x="239.230787" y="99.348438" style="stroke: #000000; stroke-width: 0.8"/>
      </g>
     </g>
    </g>
    <g id="xtick_6">
     <g id="line2d_15">
      <g>
       <use xlink:href="#m2f52b91680" x="280.766472" y="99.348438" style="stroke: #000000; stroke-width: 0.8"/>
      </g>
     </g>
    </g>
    <g id="xtick_7">
     <g id="line2d_16">
      <g>
       <use xlink:href="#m2f52b91680" x="322.302156" y="99.348438" style="stroke: #000000; stroke-width: 0.8"/>
      </g>
     </g>
    </g>
    <g id="xtick_8">
     <g id="line2d_17">
      <g>
       <use xlink:href="#m2f52b91680" x="363.837841" y="99.348438" style="stroke: #000000; stroke-width: 0.8"/>
      </g>
     </g>
    </g>
   </g>
   <g id="matplotlib.axis_4">
    <g id="ytick_3">
     <g id="line2d_18">
      <g>
       <use xlink:href="#mc88f91af76" x="215.763125" y="95.505256" style="stroke: #000000; stroke-width: 0.8"/>
      </g>
     </g>
    </g>
    <g id="ytick_4">
     <g id="line2d_19">
      <g>
       <use xlink:href="#mc88f91af76" x="215.763125" y="53.957344" style="stroke: #000000; stroke-width: 0.8"/>
      </g>
     </g>
    </g>
   </g>
   <g id="line2d_20">
    <path d="M 222.616513 95.505256 
L 247.537924 95.505256 
L 264.152198 95.505256 
L 268.305766 95.505256 
L 272.459335 95.505256 
L 276.612903 95.505256 
L 280.766472 95.505256 
L 284.92004 95.505256 
L 289.073609 93.42786 
L 293.227177 91.350465 
L 297.380746 95.505256 
L 301.534314 95.505256 
L 305.687882 95.505256 
L 309.841451 95.505256 
L 313.995019 80.963487 
L 318.148588 91.350465 
L 322.302156 91.350465 
L 326.455725 87.195673 
L 330.609293 95.505256 
L 334.762862 91.350465 
L 338.91643 91.350465 
L 343.069999 85.118278 
L 347.223567 91.350465 
L 351.377136 93.42786 
L 355.530704 93.42786 
L 359.684273 93.42786 
" clip-path="url(#pbfffc7602e)" style="fill: none; stroke: #b2b2b2; stroke-linecap: square"/>
   </g>
   <g id="line2d_21">
    <path d="M 222.616513 95.505256 
L 247.537924 95.505256 
L 264.152198 95.505256 
L 268.305766 95.505256 
L 272.459335 95.505256 
L 276.612903 95.505256 
L 280.766472 95.505256 
L 284.92004 95.505256 
L 289.073609 95.505256 
L 293.227177 95.505256 
L 297.380746 95.505256 
L 301.534314 95.505256 
L 305.687882 91.350465 
L 309.841451 95.505256 
L 313.995019 80.963487 
L 318.148588 89.273069 
L 322.302156 76.808695 
L 326.455725 80.963487 
L 330.609293 70.576509 
L 334.762862 78.886091 
L 338.91643 76.808695 
L 343.069999 78.886091 
L 347.223567 85.118278 
L 351.377136 93.42786 
L 355.530704 87.195673 
L 359.684273 91.350465 
" clip-path="url(#pbfffc7602e)" style="fill: none; stroke: #b2b2b2; stroke-linecap: square"/>
   </g>
   <g id="line2d_22">
    <path d="M 222.616513 95.505256 
L 247.537924 93.42786 
L 264.152198 95.505256 
L 268.305766 91.350465 
L 272.459335 89.273069 
L 276.612903 95.505256 
L 280.766472 91.350465 
L 284.92004 91.350465 
L 289.073609 83.040882 
L 293.227177 89.273069 
L 297.380746 76.808695 
L 301.534314 76.808695 
L 305.687882 76.808695 
L 309.841451 72.653904 
L 313.995019 29.028597 
L 318.148588 70.576509 
L 322.302156 49.802553 
L 326.455725 62.266926 
L 330.609293 45.647762 
L 334.762862 39.415575 
L 338.91643 26.951202 
L 343.069999 18.641619 
L 347.223567 39.415575 
L 351.377136 56.03474 
L 355.530704 87.195673 
L 359.684273 93.42786 
" clip-path="url(#pbfffc7602e)" style="fill: none; stroke: #b2b2b2; stroke-linecap: square"/>
   </g>
   <g id="line2d_23">
    <path d="M 222.616513 93.42786 
L 247.537924 91.350465 
L 264.152198 93.42786 
L 268.305766 95.505256 
L 272.459335 91.350465 
L 276.612903 89.273069 
L 280.766472 95.505256 
L 284.92004 93.42786 
L 289.073609 91.350465 
L 293.227177 91.350465 
L 297.380746 89.273069 
L 301.534314 89.273069 
L 305.687882 89.273069 
L 309.841451 72.653904 
L 313.995019 80.963487 
L 318.148588 85.118278 
L 322.302156 70.576509 
L 326.455725 51.879949 
L 330.609293 47.725157 
L 334.762862 78.886091 
L 338.91643 58.112135 
L 343.069999 45.647762 
L 347.223567 51.879949 
L 351.377136 74.7313 
L 355.530704 70.576509 
L 359.684273 80.963487 
" clip-path="url(#pbfffc7602e)" style="fill: none; stroke: #b2b2b2; stroke-linecap: square"/>
   </g>
   <g id="line2d_24">
    <path d="M 222.616513 95.505256 
L 247.537924 95.505256 
L 264.152198 95.505256 
L 268.305766 95.505256 
L 272.459335 95.505256 
L 276.612903 95.505256 
L 280.766472 95.505256 
L 284.92004 95.505256 
L 289.073609 95.505256 
L 293.227177 93.42786 
L 297.380746 95.505256 
L 301.534314 95.505256 
L 305.687882 95.505256 
L 309.841451 95.505256 
L 313.995019 85.118278 
L 318.148588 91.350465 
L 322.302156 95.505256 
L 326.455725 87.195673 
L 330.609293 83.040882 
L 334.762862 83.040882 
L 338.91643 85.118278 
L 343.069999 85.118278 
L 347.223567 58.112135 
L 351.377136 72.653904 
L 355.530704 91.350465 
L 359.684273 93.42786 
" clip-path="url(#pbfffc7602e)" style="fill: none; stroke: #b2b2b2; stroke-linecap: square"/>
   </g>
   <g id="line2d_25">
    <path d="M 222.616513 95.505256 
L 247.537924 95.505256 
L 264.152198 95.505256 
L 268.305766 95.505256 
L 272.459335 95.505256 
L 276.612903 95.505256 
L 280.766472 95.505256 
L 284.92004 95.505256 
L 289.073609 95.505256 
L 293.227177 95.505256 
L 297.380746 93.42786 
L 301.534314 95.505256 
L 305.687882 93.42786 
L 309.841451 95.505256 
L 313.995019 89.273069 
L 318.148588 95.505256 
L 322.302156 95.505256 
L 326.455725 91.350465 
L 330.609293 91.350465 
L 334.762862 89.273069 
L 338.91643 87.195673 
L 343.069999 91.350465 
L 347.223567 93.42786 
L 351.377136 95.505256 
L 355.530704 95.505256 
L 359.684273 95.505256 
" clip-path="url(#pbfffc7602e)" style="fill: none; stroke: #b2b2b2; stroke-linecap: square"/>
   </g>
   <g id="patch_6">
    <path d="M 215.763125 99.348438 
L 215.763125 14.798438 
" style="fill: none; stroke: #000000; stroke-width: 0.8; stroke-linejoin: miter; stroke-linecap: square"/>
   </g>
   <g id="patch_7">
    <path d="M 215.763125 99.348438 
L 366.537661 99.348438 
" style="fill: none; stroke: #000000; stroke-width: 0.8; stroke-linejoin: miter; stroke-linecap: square"/>
   </g>
   <g id="text_5">
    <!-- Asia -->
    <g transform="translate(230.840579 14.798438)scale(0.1 -0.1)">
     <defs>
      <path id="DejaVuSans-Bold-73" d="M 3272 3391 
L 3272 2541 
Q 2913 2691 2578 2766 
Q 2244 2841 1947 2841 
Q 1628 2841 1473 2761 
Q 1319 2681 1319 2516 
Q 1319 2381 1436 2309 
Q 1553 2238 1856 2203 
L 2053 2175 
Q 2913 2066 3209 1816 
Q 3506 1566 3506 1031 
Q 3506 472 3093 190 
Q 2681 -91 1863 -91 
Q 1516 -91 1145 -36 
Q 775 19 384 128 
L 384 978 
Q 719 816 1070 734 
Q 1422 653 1784 653 
Q 2113 653 2278 743 
Q 2444 834 2444 1013 
Q 2444 1163 2330 1236 
Q 2216 1309 1875 1350 
L 1678 1375 
Q 931 1469 631 1722 
Q 331 1975 331 2491 
Q 331 3047 712 3315 
Q 1094 3584 1881 3584 
Q 2191 3584 2531 3537 
Q 2872 3491 3272 3391 
z
" transform="scale(0.015625)"/>
     </defs>
     <use xlink:href="#DejaVuSans-Bold-41"/>
     <use xlink:href="#DejaVuSans-Bold-73" x="77.392578"/>
     <use xlink:href="#DejaVuSans-Bold-69" x="136.914062"/>
     <use xlink:href="#DejaVuSans-Bold-61" x="171.191406"/>
    </g>
   </g>
   <g id="line2d_26">
    <path d="M 222.616513 95.505256 
L 247.537924 95.505256 
L 264.152198 95.505256 
L 268.305766 95.505256 
L 272.459335 95.505256 
L 276.612903 95.505256 
L 280.766472 95.505256 
L 284.92004 95.505256 
L 289.073609 95.505256 
L 293.227177 95.505256 
L 297.380746 95.505256 
L 301.534314 95.505256 
L 305.687882 91.350465 
L 309.841451 95.505256 
L 313.995019 80.963487 
L 318.148588 89.273069 
L 322.302156 76.808695 
L 326.455725 80.963487 
L 330.609293 70.576509 
L 334.762862 78.886091 
L 338.91643 76.808695 
L 343.069999 78.886091 
L 347.223567 85.118278 
L 351.377136 93.42786 
L 355.530704 87.195673 
L 359.684273 91.350465 
" clip-path="url(#pbfffc7602e)" style="fill: none; stroke: #5b9867; stroke-width: 4; stroke-linecap: square"/>
   </g>
  </g>
  <g id="axes_3">
   <g id="patch_8">
    <path d="M 390.923125 99.348438 
L 541.697661 99.348438 
L 541.697661 14.798438 
L 390.923125 14.798438 
z
" style="fill: #ffffff"/>
   </g>
   <g id="matplotlib.axis_5">
    <g id="xtick_9">
     <g id="line2d_27">
      <g>
       <use xlink:href="#m2f52b91680" x="414.390787" y="99.348438" style="stroke: #000000; stroke-width: 0.8"/>
      </g>
     </g>
    </g>
    <g id="xtick_10">
     <g id="line2d_28">
      <g>
       <use xlink:href="#m2f52b91680" x="455.926472" y="99.348438" style="stroke: #000000; stroke-width: 0.8"/>
      </g>
     </g>
    </g>
    <g id="xtick_11">
     <g id="line2d_29">
      <g>
       <use xlink:href="#m2f52b91680" x="497.462156" y="99.348438" style="stroke: #000000; stroke-width: 0.8"/>
      </g>
     </g>
    </g>
    <g id="xtick_12">
     <g id="line2d_30">
      <g>
       <use xlink:href="#m2f52b91680" x="538.997841" y="99.348438" style="stroke: #000000; stroke-width: 0.8"/>
      </g>
     </g>
    </g>
   </g>
   <g id="matplotlib.axis_6">
    <g id="ytick_5">
     <g id="line2d_31">
      <g>
       <use xlink:href="#mc88f91af76" x="390.923125" y="95.505256" style="stroke: #000000; stroke-width: 0.8"/>
      </g>
     </g>
    </g>
    <g id="ytick_6">
     <g id="line2d_32">
      <g>
       <use xlink:href="#mc88f91af76" x="390.923125" y="53.957344" style="stroke: #000000; stroke-width: 0.8"/>
      </g>
     </g>
    </g>
   </g>
   <g id="line2d_33">
    <path d="M 397.776513 95.505256 
L 422.697924 95.505256 
L 439.312198 95.505256 
L 443.465766 95.505256 
L 447.619335 95.505256 
L 451.772903 95.505256 
L 455.926472 95.505256 
L 460.08004 95.505256 
L 464.233609 93.42786 
L 468.387177 91.350465 
L 472.540746 95.505256 
L 476.694314 95.505256 
L 480.847882 95.505256 
L 485.001451 95.505256 
L 489.155019 80.963487 
L 493.308588 91.350465 
L 497.462156 91.350465 
L 501.615725 87.195673 
L 505.769293 95.505256 
L 509.922862 91.350465 
L 514.07643 91.350465 
L 518.229999 85.118278 
L 522.383567 91.350465 
L 526.537136 93.42786 
L 530.690704 93.42786 
L 534.844273 93.42786 
" clip-path="url(#p4e09d90b9d)" style="fill: none; stroke: #b2b2b2; stroke-linecap: square"/>
   </g>
   <g id="line2d_34">
    <path d="M 397.776513 95.505256 
L 422.697924 95.505256 
L 439.312198 95.505256 
L 443.465766 95.505256 
L 447.619335 95.505256 
L 451.772903 95.505256 
L 455.926472 95.505256 
L 460.08004 95.505256 
L 464.233609 95.505256 
L 468.387177 95.505256 
L 472.540746 95.505256 
L 476.694314 95.505256 
L 480.847882 91.350465 
L 485.001451 95.505256 
L 489.155019 80.963487 
L 493.308588 89.273069 
L 497.462156 76.808695 
L 501.615725 80.963487 
L 505.769293 70.576509 
L 509.922862 78.886091 
L 514.07643 76.808695 
L 518.229999 78.886091 
L 522.383567 85.118278 
L 526.537136 93.42786 
L 530.690704 87.195673 
L 534.844273 91.350465 
" clip-path="url(#p4e09d90b9d)" style="fill: none; stroke: #b2b2b2; stroke-linecap: square"/>
   </g>
   <g id="line2d_35">
    <path d="M 397.776513 95.505256 
L 422.697924 93.42786 
L 439.312198 95.505256 
L 443.465766 91.350465 
L 447.619335 89.273069 
L 451.772903 95.505256 
L 455.926472 91.350465 
L 460.08004 91.350465 
L 464.233609 83.040882 
L 468.387177 89.273069 
L 472.540746 76.808695 
L 476.694314 76.808695 
L 480.847882 76.808695 
L 485.001451 72.653904 
L 489.155019 29.028597 
L 493.308588 70.576509 
L 497.462156 49.802553 
L 501.615725 62.266926 
L 505.769293 45.647762 
L 509.922862 39.415575 
L 514.07643 26.951202 
L 518.229999 18.641619 
L 522.383567 39.415575 
L 526.537136 56.03474 
L 530.690704 87.195673 
L 534.844273 93.42786 
" clip-path="url(#p4e09d90b9d)" style="fill: none; stroke: #b2b2b2; stroke-linecap: square"/>
   </g>
   <g id="line2d_36">
    <path d="M 397.776513 93.42786 
L 422.697924 91.350465 
L 439.312198 93.42786 
L 443.465766 95.505256 
L 447.619335 91.350465 
L 451.772903 89.273069 
L 455.926472 95.505256 
L 460.08004 93.42786 
L 464.233609 91.350465 
L 468.387177 91.350465 
L 472.540746 89.273069 
L 476.694314 89.273069 
L 480.847882 89.273069 
L 485.001451 72.653904 
L 489.155019 80.963487 
L 493.308588 85.118278 
L 497.462156 70.576509 
L 501.615725 51.879949 
L 505.769293 47.725157 
L 509.922862 78.886091 
L 514.07643 58.112135 
L 518.229999 45.647762 
L 522.383567 51.879949 
L 526.537136 74.7313 
L 530.690704 70.576509 
L 534.844273 80.963487 
" clip-path="url(#p4e09d90b9d)" style="fill: none; stroke: #b2b2b2; stroke-linecap: square"/>
   </g>
   <g id="line2d_37">
    <path d="M 397.776513 95.505256 
L 422.697924 95.505256 
L 439.312198 95.505256 
L 443.465766 95.505256 
L 447.619335 95.505256 
L 451.772903 95.505256 
L 455.926472 95.505256 
L 460.08004 95.505256 
L 464.233609 95.505256 
L 468.387177 93.42786 
L 472.540746 95.505256 
L 476.694314 95.505256 
L 480.847882 95.505256 
L 485.001451 95.505256 
L 489.155019 85.118278 
L 493.308588 91.350465 
L 497.462156 95.505256 
L 501.615725 87.195673 
L 505.769293 83.040882 
L 509.922862 83.040882 
L 514.07643 85.118278 
L 518.229999 85.118278 
L 522.383567 58.112135 
L 526.537136 72.653904 
L 530.690704 91.350465 
L 534.844273 93.42786 
" clip-path="url(#p4e09d90b9d)" style="fill: none; stroke: #b2b2b2; stroke-linecap: square"/>
   </g>
   <g id="line2d_38">
    <path d="M 397.776513 95.505256 
L 422.697924 95.505256 
L 439.312198 95.505256 
L 443.465766 95.505256 
L 447.619335 95.505256 
L 451.772903 95.505256 
L 455.926472 95.505256 
L 460.08004 95.505256 
L 464.233609 95.505256 
L 468.387177 95.505256 
L 472.540746 93.42786 
L 476.694314 95.505256 
L 480.847882 93.42786 
L 485.001451 95.505256 
L 489.155019 89.273069 
L 493.308588 95.505256 
L 497.462156 95.505256 
L 501.615725 91.350465 
L 505.769293 91.350465 
L 509.922862 89.273069 
L 514.07643 87.195673 
L 518.229999 91.350465 
L 522.383567 93.42786 
L 526.537136 95.505256 
L 530.690704 95.505256 
L 534.844273 95.505256 
" clip-path="url(#p4e09d90b9d)" style="fill: none; stroke: #b2b2b2; stroke-linecap: square"/>
   </g>
   <g id="patch_9">
    <path d="M 390.923125 99.348438 
L 390.923125 14.798438 
" style="fill: none; stroke: #000000; stroke-width: 0.8; stroke-linejoin: miter; stroke-linecap: square"/>
   </g>
   <g id="patch_10">
    <path d="M 390.923125 99.348438 
L 541.697661 99.348438 
" style="fill: none; stroke: #000000; stroke-width: 0.8; stroke-linejoin: miter; stroke-linecap: square"/>
   </g>
   <g id="text_6">
    <!-- Europe -->
    <g transform="translate(406.000579 14.798438)scale(0.1 -0.1)">
     <defs>
      <path id="DejaVuSans-Bold-45" d="M 588 4666 
L 3834 4666 
L 3834 3756 
L 1791 3756 
L 1791 2888 
L 3713 2888 
L 3713 1978 
L 1791 1978 
L 1791 909 
L 3903 909 
L 3903 0 
L 588 0 
L 588 4666 
z
" transform="scale(0.015625)"/>
      <path id="DejaVuSans-Bold-75" d="M 500 1363 
L 500 3500 
L 1625 3500 
L 1625 3150 
Q 1625 2866 1622 2436 
Q 1619 2006 1619 1863 
Q 1619 1441 1641 1255 
Q 1663 1069 1716 984 
Q 1784 875 1895 815 
Q 2006 756 2150 756 
Q 2500 756 2700 1025 
Q 2900 1294 2900 1772 
L 2900 3500 
L 4019 3500 
L 4019 0 
L 2900 0 
L 2900 506 
Q 2647 200 2364 54 
Q 2081 -91 1741 -91 
Q 1134 -91 817 281 
Q 500 653 500 1363 
z
" transform="scale(0.015625)"/>
      <path id="DejaVuSans-Bold-6f" d="M 2203 2784 
Q 1831 2784 1636 2517 
Q 1441 2250 1441 1747 
Q 1441 1244 1636 976 
Q 1831 709 2203 709 
Q 2569 709 2762 976 
Q 2956 1244 2956 1747 
Q 2956 2250 2762 2517 
Q 2569 2784 2203 2784 
z
M 2203 3584 
Q 3106 3584 3614 3096 
Q 4122 2609 4122 1747 
Q 4122 884 3614 396 
Q 3106 -91 2203 -91 
Q 1297 -91 786 396 
Q 275 884 275 1747 
Q 275 2609 786 3096 
Q 1297 3584 2203 3584 
z
" transform="scale(0.015625)"/>
      <path id="DejaVuSans-Bold-70" d="M 1656 506 
L 1656 -1331 
L 538 -1331 
L 538 3500 
L 1656 3500 
L 1656 2988 
Q 1888 3294 2169 3439 
Q 2450 3584 2816 3584 
Q 3463 3584 3878 3070 
Q 4294 2556 4294 1747 
Q 4294 938 3878 423 
Q 3463 -91 2816 -91 
Q 2450 -91 2169 54 
Q 1888 200 1656 506 
z
M 2400 2772 
Q 2041 2772 1848 2508 
Q 1656 2244 1656 1747 
Q 1656 1250 1848 986 
Q 2041 722 2400 722 
Q 2759 722 2948 984 
Q 3138 1247 3138 1747 
Q 3138 2247 2948 2509 
Q 2759 2772 2400 2772 
z
" transform="scale(0.015625)"/>
      <path id="DejaVuSans-Bold-65" d="M 4031 1759 
L 4031 1441 
L 1416 1441 
Q 1456 1047 1700 850 
Q 1944 653 2381 653 
Q 2734 653 3104 758 
Q 3475 863 3866 1075 
L 3866 213 
Q 3469 63 3072 -14 
Q 2675 -91 2278 -91 
Q 1328 -91 801 392 
Q 275 875 275 1747 
Q 275 2603 792 3093 
Q 1309 3584 2216 3584 
Q 3041 3584 3536 3087 
Q 4031 2591 4031 1759 
z
M 2881 2131 
Q 2881 2450 2695 2645 
Q 2509 2841 2209 2841 
Q 1884 2841 1681 2658 
Q 1478 2475 1428 2131 
L 2881 2131 
z
" transform="scale(0.015625)"/>
     </defs>
     <use xlink:href="#DejaVuSans-Bold-45"/>
     <use xlink:href="#DejaVuSans-Bold-75" x="68.310547"/>
     <use xlink:href="#DejaVuSans-Bold-72" x="139.501953"/>
     <use xlink:href="#DejaVuSans-Bold-6f" x="188.818359"/>
     <use xlink:href="#DejaVuSans-Bold-70" x="257.519531"/>
     <use xlink:href="#DejaVuSans-Bold-65" x="329.101562"/>
    </g>
   </g>
   <g id="line2d_39">
    <path d="M 397.776513 95.505256 
L 422.697924 93.42786 
L 439.312198 95.505256 
L 443.465766 91.350465 
L 447.619335 89.273069 
L 451.772903 95.505256 
L 455.926472 91.350465 
L 460.08004 91.350465 
L 464.233609 83.040882 
L 468.387177 89.273069 
L 472.540746 76.808695 
L 476.694314 76.808695 
L 480.847882 76.808695 
L 485.001451 72.653904 
L 489.155019 29.028597 
L 493.308588 70.576509 
L 497.462156 49.802553 
L 501.615725 62.266926 
L 505.769293 45.647762 
L 509.922862 39.415575 
L 514.07643 26.951202 
L 518.229999 18.641619 
L 522.383567 39.415575 
L 526.537136 56.03474 
L 530.690704 87.195673 
L 534.844273 93.42786 
" clip-path="url(#p4e09d90b9d)" style="fill: none; stroke: #5b9867; stroke-width: 4; stroke-linecap: square"/>
   </g>
  </g>
  <g id="axes_4">
   <g id="patch_11">
    <path d="M 40.603125 206.118438 
L 191.377661 206.118438 
L 191.377661 121.568438 
L 40.603125 121.568438 
z
" style="fill: #ffffff"/>
   </g>
   <g id="matplotlib.axis_7">
    <g id="xtick_13">
     <g id="line2d_40">
      <g>
       <use xlink:href="#m2f52b91680" x="64.070787" y="206.118438" style="stroke: #000000; stroke-width: 0.8"/>
      </g>
     </g>
     <g id="text_7">
      <!-- 1990 -->
      <g transform="translate(51.345787 220.716875)scale(0.1 -0.1)">
       <defs>
        <path id="DejaVuSans-31" d="M 794 531 
L 1825 531 
L 1825 4091 
L 703 3866 
L 703 4441 
L 1819 4666 
L 2450 4666 
L 2450 531 
L 3481 531 
L 3481 0 
L 794 0 
L 794 531 
z
" transform="scale(0.015625)"/>
        <path id="DejaVuSans-39" d="M 703 97 
L 703 672 
Q 941 559 1184 500 
Q 1428 441 1663 441 
Q 2288 441 2617 861 
Q 2947 1281 2994 2138 
Q 2813 1869 2534 1725 
Q 2256 1581 1919 1581 
Q 1219 1581 811 2004 
Q 403 2428 403 3163 
Q 403 3881 828 4315 
Q 1253 4750 1959 4750 
Q 2769 4750 3195 4129 
Q 3622 3509 3622 2328 
Q 3622 1225 3098 567 
Q 2575 -91 1691 -91 
Q 1453 -91 1209 -44 
Q 966 3 703 97 
z
M 1959 2075 
Q 2384 2075 2632 2365 
Q 2881 2656 2881 3163 
Q 2881 3666 2632 3958 
Q 2384 4250 1959 4250 
Q 1534 4250 1286 3958 
Q 1038 3666 1038 3163 
Q 1038 2656 1286 2365 
Q 1534 2075 1959 2075 
z
" transform="scale(0.015625)"/>
       </defs>
       <use xlink:href="#DejaVuSans-31"/>
       <use xlink:href="#DejaVuSans-39" x="63.623047"/>
       <use xlink:href="#DejaVuSans-39" x="127.246094"/>
       <use xlink:href="#DejaVuSans-30" x="190.869141"/>
      </g>
     </g>
    </g>
    <g id="xtick_14">
     <g id="line2d_41">
      <g>
       <use xlink:href="#m2f52b91680" x="105.606472" y="206.118438" style="stroke: #000000; stroke-width: 0.8"/>
      </g>
     </g>
     <g id="text_8">
      <!-- 2000 -->
      <g transform="translate(92.881472 220.716875)scale(0.1 -0.1)">
       <use xlink:href="#DejaVuSans-32"/>
       <use xlink:href="#DejaVuSans-30" x="63.623047"/>
       <use xlink:href="#DejaVuSans-30" x="127.246094"/>
       <use xlink:href="#DejaVuSans-30" x="190.869141"/>
      </g>
     </g>
    </g>
    <g id="xtick_15">
     <g id="line2d_42">
      <g>
       <use xlink:href="#m2f52b91680" x="147.142156" y="206.118438" style="stroke: #000000; stroke-width: 0.8"/>
      </g>
     </g>
     <g id="text_9">
      <!-- 2010 -->
      <g transform="translate(134.417156 220.716875)scale(0.1 -0.1)">
       <use xlink:href="#DejaVuSans-32"/>
       <use xlink:href="#DejaVuSans-30" x="63.623047"/>
       <use xlink:href="#DejaVuSans-31" x="127.246094"/>
       <use xlink:href="#DejaVuSans-30" x="190.869141"/>
      </g>
     </g>
    </g>
    <g id="xtick_16">
     <g id="line2d_43">
      <g>
       <use xlink:href="#m2f52b91680" x="188.677841" y="206.118438" style="stroke: #000000; stroke-width: 0.8"/>
      </g>
     </g>
     <g id="text_10">
      <!-- 2020 -->
      <g transform="translate(175.952841 220.716875)scale(0.1 -0.1)">
       <use xlink:href="#DejaVuSans-32"/>
       <use xlink:href="#DejaVuSans-30" x="63.623047"/>
       <use xlink:href="#DejaVuSans-32" x="127.246094"/>
       <use xlink:href="#DejaVuSans-30" x="190.869141"/>
      </g>
     </g>
    </g>
    <g id="text_11">
     <!-- Year -->
     <g transform="translate(105.402893 234.395)scale(0.1 -0.1)">
      <defs>
       <path id="DejaVuSans-59" d="M -13 4666 
L 666 4666 
L 1959 2747 
L 3244 4666 
L 3922 4666 
L 2272 2222 
L 2272 0 
L 1638 0 
L 1638 2222 
L -13 4666 
z
" transform="scale(0.015625)"/>
       <path id="DejaVuSans-61" d="M 2194 1759 
Q 1497 1759 1228 1600 
Q 959 1441 959 1056 
Q 959 750 1161 570 
Q 1363 391 1709 391 
Q 2188 391 2477 730 
Q 2766 1069 2766 1631 
L 2766 1759 
L 2194 1759 
z
M 3341 1997 
L 3341 0 
L 2766 0 
L 2766 531 
Q 2569 213 2275 61 
Q 1981 -91 1556 -91 
Q 1019 -91 701 211 
Q 384 513 384 1019 
Q 384 1609 779 1909 
Q 1175 2209 1959 2209 
L 2766 2209 
L 2766 2266 
Q 2766 2663 2505 2880 
Q 2244 3097 1772 3097 
Q 1472 3097 1187 3025 
Q 903 2953 641 2809 
L 641 3341 
Q 956 3463 1253 3523 
Q 1550 3584 1831 3584 
Q 2591 3584 2966 3190 
Q 3341 2797 3341 1997 
z
" transform="scale(0.015625)"/>
       <path id="DejaVuSans-72" d="M 2631 2963 
Q 2534 3019 2420 3045 
Q 2306 3072 2169 3072 
Q 1681 3072 1420 2755 
Q 1159 2438 1159 1844 
L 1159 0 
L 581 0 
L 581 3500 
L 1159 3500 
L 1159 2956 
Q 1341 3275 1631 3429 
Q 1922 3584 2338 3584 
Q 2397 3584 2469 3576 
Q 2541 3569 2628 3553 
L 2631 2963 
z
" transform="scale(0.015625)"/>
      </defs>
      <use xlink:href="#DejaVuSans-59"/>
      <use xlink:href="#DejaVuSans-65" x="47.833984"/>
      <use xlink:href="#DejaVuSans-61" x="109.357422"/>
      <use xlink:href="#DejaVuSans-72" x="170.636719"/>
     </g>
    </g>
   </g>
   <g id="matplotlib.axis_8">
    <g id="ytick_7">
     <g id="line2d_44">
      <g>
       <use xlink:href="#mc88f91af76" x="40.603125" y="202.275256" style="stroke: #000000; stroke-width: 0.8"/>
      </g>
     </g>
     <g id="text_12">
      <!-- 0 -->
      <g transform="translate(27.240625 206.074474)scale(0.1 -0.1)">
       <use xlink:href="#DejaVuSans-30"/>
      </g>
     </g>
    </g>
    <g id="ytick_8">
     <g id="line2d_45">
      <g>
       <use xlink:href="#mc88f91af76" x="40.603125" y="160.727344" style="stroke: #000000; stroke-width: 0.8"/>
      </g>
     </g>
     <g id="text_13">
      <!-- 20 -->
      <g transform="translate(20.878125 164.526563)scale(0.1 -0.1)">
       <use xlink:href="#DejaVuSans-32"/>
       <use xlink:href="#DejaVuSans-30" x="63.623047"/>
      </g>
     </g>
    </g>
    <g id="text_14">
     <!-- # Documents -->
     <g transform="translate(14.798438 198.130156)rotate(-90)scale(0.1 -0.1)">
      <use xlink:href="#DejaVuSans-23"/>
      <use xlink:href="#DejaVuSans-20" x="83.789062"/>
      <use xlink:href="#DejaVuSans-44" x="115.576172"/>
      <use xlink:href="#DejaVuSans-6f" x="192.578125"/>
      <use xlink:href="#DejaVuSans-63" x="253.759766"/>
      <use xlink:href="#DejaVuSans-75" x="308.740234"/>
      <use xlink:href="#DejaVuSans-6d" x="372.119141"/>
      <use xlink:href="#DejaVuSans-65" x="469.53125"/>
      <use xlink:href="#DejaVuSans-6e" x="531.054688"/>
      <use xlink:href="#DejaVuSans-74" x="594.433594"/>
      <use xlink:href="#DejaVuSans-73" x="633.642578"/>
     </g>
    </g>
   </g>
   <g id="line2d_46">
    <path d="M 47.456513 202.275256 
L 72.377924 202.275256 
L 88.992198 202.275256 
L 93.145766 202.275256 
L 97.299335 202.275256 
L 101.452903 202.275256 
L 105.606472 202.275256 
L 109.76004 202.275256 
L 113.913609 200.19786 
L 118.067177 198.120465 
L 122.220746 202.275256 
L 126.374314 202.275256 
L 130.527882 202.275256 
L 134.681451 202.275256 
L 138.835019 187.733487 
L 142.988588 198.120465 
L 147.142156 198.120465 
L 151.295725 193.965673 
L 155.449293 202.275256 
L 159.602862 198.120465 
L 163.75643 198.120465 
L 167.909999 191.888278 
L 172.063567 198.120465 
L 176.217136 200.19786 
L 180.370704 200.19786 
L 184.524273 200.19786 
" clip-path="url(#pc493bd8ef9)" style="fill: none; stroke: #b2b2b2; stroke-linecap: square"/>
   </g>
   <g id="line2d_47">
    <path d="M 47.456513 202.275256 
L 72.377924 202.275256 
L 88.992198 202.275256 
L 93.145766 202.275256 
L 97.299335 202.275256 
L 101.452903 202.275256 
L 105.606472 202.275256 
L 109.76004 202.275256 
L 113.913609 202.275256 
L 118.067177 202.275256 
L 122.220746 202.275256 
L 126.374314 202.275256 
L 130.527882 198.120465 
L 134.681451 202.275256 
L 138.835019 187.733487 
L 142.988588 196.043069 
L 147.142156 183.578695 
L 151.295725 187.733487 
L 155.449293 177.346509 
L 159.602862 185.656091 
L 163.75643 183.578695 
L 167.909999 185.656091 
L 172.063567 191.888278 
L 176.217136 200.19786 
L 180.370704 193.965673 
L 184.524273 198.120465 
" clip-path="url(#pc493bd8ef9)" style="fill: none; stroke: #b2b2b2; stroke-linecap: square"/>
   </g>
   <g id="line2d_48">
    <path d="M 47.456513 202.275256 
L 72.377924 200.19786 
L 88.992198 202.275256 
L 93.145766 198.120465 
L 97.299335 196.043069 
L 101.452903 202.275256 
L 105.606472 198.120465 
L 109.76004 198.120465 
L 113.913609 189.810882 
L 118.067177 196.043069 
L 122.220746 183.578695 
L 126.374314 183.578695 
L 130.527882 183.578695 
L 134.681451 179.423904 
L 138.835019 135.798597 
L 142.988588 177.346509 
L 147.142156 156.572553 
L 151.295725 169.036926 
L 155.449293 152.417762 
L 159.602862 146.185575 
L 163.75643 133.721202 
L 167.909999 125.411619 
L 172.063567 146.185575 
L 176.217136 162.80474 
L 180.370704 193.965673 
L 184.524273 200.19786 
" clip-path="url(#pc493bd8ef9)" style="fill: none; stroke: #b2b2b2; stroke-linecap: square"/>
   </g>
   <g id="line2d_49">
    <path d="M 47.456513 200.19786 
L 72.377924 198.120465 
L 88.992198 200.19786 
L 93.145766 202.275256 
L 97.299335 198.120465 
L 101.452903 196.043069 
L 105.606472 202.275256 
L 109.76004 200.19786 
L 113.913609 198.120465 
L 118.067177 198.120465 
L 122.220746 196.043069 
L 126.374314 196.043069 
L 130.527882 196.043069 
L 134.681451 179.423904 
L 138.835019 187.733487 
L 142.988588 191.888278 
L 147.142156 177.346509 
L 151.295725 158.649949 
L 155.449293 154.495157 
L 159.602862 185.656091 
L 163.75643 164.882135 
L 167.909999 152.417762 
L 172.063567 158.649949 
L 176.217136 181.5013 
L 180.370704 177.346509 
L 184.524273 187.733487 
" clip-path="url(#pc493bd8ef9)" style="fill: none; stroke: #b2b2b2; stroke-linecap: square"/>
   </g>
   <g id="line2d_50">
    <path d="M 47.456513 202.275256 
L 72.377924 202.275256 
L 88.992198 202.275256 
L 93.145766 202.275256 
L 97.299335 202.275256 
L 101.452903 202.275256 
L 105.606472 202.275256 
L 109.76004 202.275256 
L 113.913609 202.275256 
L 118.067177 200.19786 
L 122.220746 202.275256 
L 126.374314 202.275256 
L 130.527882 202.275256 
L 134.681451 202.275256 
L 138.835019 191.888278 
L 142.988588 198.120465 
L 147.142156 202.275256 
L 151.295725 193.965673 
L 155.449293 189.810882 
L 159.602862 189.810882 
L 163.75643 191.888278 
L 167.909999 191.888278 
L 172.063567 164.882135 
L 176.217136 179.423904 
L 180.370704 198.120465 
L 184.524273 200.19786 
" clip-path="url(#pc493bd8ef9)" style="fill: none; stroke: #b2b2b2; stroke-linecap: square"/>
   </g>
   <g id="line2d_51">
    <path d="M 47.456513 202.275256 
L 72.377924 202.275256 
L 88.992198 202.275256 
L 93.145766 202.275256 
L 97.299335 202.275256 
L 101.452903 202.275256 
L 105.606472 202.275256 
L 109.76004 202.275256 
L 113.913609 202.275256 
L 118.067177 202.275256 
L 122.220746 200.19786 
L 126.374314 202.275256 
L 130.527882 200.19786 
L 134.681451 202.275256 
L 138.835019 196.043069 
L 142.988588 202.275256 
L 147.142156 202.275256 
L 151.295725 198.120465 
L 155.449293 198.120465 
L 159.602862 196.043069 
L 163.75643 193.965673 
L 167.909999 198.120465 
L 172.063567 200.19786 
L 176.217136 202.275256 
L 180.370704 202.275256 
L 184.524273 202.275256 
" clip-path="url(#pc493bd8ef9)" style="fill: none; stroke: #b2b2b2; stroke-linecap: square"/>
   </g>
   <g id="patch_12">
    <path d="M 40.603125 206.118438 
L 40.603125 121.568438 
" style="fill: none; stroke: #000000; stroke-width: 0.8; stroke-linejoin: miter; stroke-linecap: square"/>
   </g>
   <g id="patch_13">
    <path d="M 40.603125 206.118438 
L 191.377661 206.118438 
" style="fill: none; stroke: #000000; stroke-width: 0.8; stroke-linejoin: miter; stroke-linecap: square"/>
   </g>
   <g id="text_15">
    <!-- North America -->
    <g transform="translate(55.680579 121.568438)scale(0.1 -0.1)">
     <defs>
      <path id="DejaVuSans-Bold-4e" d="M 588 4666 
L 1931 4666 
L 3628 1466 
L 3628 4666 
L 4769 4666 
L 4769 0 
L 3425 0 
L 1728 3200 
L 1728 0 
L 588 0 
L 588 4666 
z
" transform="scale(0.015625)"/>
      <path id="DejaVuSans-Bold-74" d="M 1759 4494 
L 1759 3500 
L 2913 3500 
L 2913 2700 
L 1759 2700 
L 1759 1216 
Q 1759 972 1856 886 
Q 1953 800 2241 800 
L 2816 800 
L 2816 0 
L 1856 0 
Q 1194 0 917 276 
Q 641 553 641 1216 
L 641 2700 
L 84 2700 
L 84 3500 
L 641 3500 
L 641 4494 
L 1759 4494 
z
" transform="scale(0.015625)"/>
      <path id="DejaVuSans-Bold-68" d="M 4056 2131 
L 4056 0 
L 2931 0 
L 2931 347 
L 2931 1625 
Q 2931 2084 2911 2256 
Q 2891 2428 2841 2509 
Q 2775 2619 2662 2680 
Q 2550 2741 2406 2741 
Q 2056 2741 1856 2470 
Q 1656 2200 1656 1722 
L 1656 0 
L 538 0 
L 538 4863 
L 1656 4863 
L 1656 2988 
Q 1909 3294 2193 3439 
Q 2478 3584 2822 3584 
Q 3428 3584 3742 3212 
Q 4056 2841 4056 2131 
z
" transform="scale(0.015625)"/>
      <path id="DejaVuSans-Bold-20" transform="scale(0.015625)"/>
      <path id="DejaVuSans-Bold-6d" d="M 3781 2919 
Q 3994 3244 4286 3414 
Q 4578 3584 4928 3584 
Q 5531 3584 5847 3212 
Q 6163 2841 6163 2131 
L 6163 0 
L 5038 0 
L 5038 1825 
Q 5041 1866 5042 1909 
Q 5044 1953 5044 2034 
Q 5044 2406 4934 2573 
Q 4825 2741 4581 2741 
Q 4263 2741 4089 2478 
Q 3916 2216 3909 1719 
L 3909 0 
L 2784 0 
L 2784 1825 
Q 2784 2406 2684 2573 
Q 2584 2741 2328 2741 
Q 2006 2741 1831 2477 
Q 1656 2213 1656 1722 
L 1656 0 
L 531 0 
L 531 3500 
L 1656 3500 
L 1656 2988 
Q 1863 3284 2130 3434 
Q 2397 3584 2719 3584 
Q 3081 3584 3359 3409 
Q 3638 3234 3781 2919 
z
" transform="scale(0.015625)"/>
     </defs>
     <use xlink:href="#DejaVuSans-Bold-4e"/>
     <use xlink:href="#DejaVuSans-Bold-6f" x="83.691406"/>
     <use xlink:href="#DejaVuSans-Bold-72" x="152.392578"/>
     <use xlink:href="#DejaVuSans-Bold-74" x="201.708984"/>
     <use xlink:href="#DejaVuSans-Bold-68" x="249.511719"/>
     <use xlink:href="#DejaVuSans-Bold-20" x="320.703125"/>
     <use xlink:href="#DejaVuSans-Bold-41" x="355.517578"/>
     <use xlink:href="#DejaVuSans-Bold-6d" x="432.910156"/>
     <use xlink:href="#DejaVuSans-Bold-65" x="537.109375"/>
     <use xlink:href="#DejaVuSans-Bold-72" x="604.931641"/>
     <use xlink:href="#DejaVuSans-Bold-69" x="654.248047"/>
     <use xlink:href="#DejaVuSans-Bold-63" x="688.525391"/>
     <use xlink:href="#DejaVuSans-Bold-61" x="747.802734"/>
    </g>
   </g>
   <g id="line2d_52">
    <path d="M 47.456513 200.19786 
L 72.377924 198.120465 
L 88.992198 200.19786 
L 93.145766 202.275256 
L 97.299335 198.120465 
L 101.452903 196.043069 
L 105.606472 202.275256 
L 109.76004 200.19786 
L 113.913609 198.120465 
L 118.067177 198.120465 
L 122.220746 196.043069 
L 126.374314 196.043069 
L 130.527882 196.043069 
L 134.681451 179.423904 
L 138.835019 187.733487 
L 142.988588 191.888278 
L 147.142156 177.346509 
L 151.295725 158.649949 
L 155.449293 154.495157 
L 159.602862 185.656091 
L 163.75643 164.882135 
L 167.909999 152.417762 
L 172.063567 158.649949 
L 176.217136 181.5013 
L 180.370704 177.346509 
L 184.524273 187.733487 
" clip-path="url(#pc493bd8ef9)" style="fill: none; stroke: #5b9867; stroke-width: 4; stroke-linecap: square"/>
   </g>
  </g>
  <g id="axes_5">
   <g id="patch_14">
    <path d="M 215.763125 206.118438 
L 366.537661 206.118438 
L 366.537661 121.568438 
L 215.763125 121.568438 
z
" style="fill: #ffffff"/>
   </g>
   <g id="matplotlib.axis_9">
    <g id="xtick_17">
     <g id="line2d_53">
      <g>
       <use xlink:href="#m2f52b91680" x="239.230787" y="206.118438" style="stroke: #000000; stroke-width: 0.8"/>
      </g>
     </g>
     <g id="text_16">
      <!-- 1990 -->
      <g transform="translate(226.505787 220.716875)scale(0.1 -0.1)">
       <use xlink:href="#DejaVuSans-31"/>
       <use xlink:href="#DejaVuSans-39" x="63.623047"/>
       <use xlink:href="#DejaVuSans-39" x="127.246094"/>
       <use xlink:href="#DejaVuSans-30" x="190.869141"/>
      </g>
     </g>
    </g>
    <g id="xtick_18">
     <g id="line2d_54">
      <g>
       <use xlink:href="#m2f52b91680" x="280.766472" y="206.118438" style="stroke: #000000; stroke-width: 0.8"/>
      </g>
     </g>
     <g id="text_17">
      <!-- 2000 -->
      <g transform="translate(268.041472 220.716875)scale(0.1 -0.1)">
       <use xlink:href="#DejaVuSans-32"/>
       <use xlink:href="#DejaVuSans-30" x="63.623047"/>
       <use xlink:href="#DejaVuSans-30" x="127.246094"/>
       <use xlink:href="#DejaVuSans-30" x="190.869141"/>
      </g>
     </g>
    </g>
    <g id="xtick_19">
     <g id="line2d_55">
      <g>
       <use xlink:href="#m2f52b91680" x="322.302156" y="206.118438" style="stroke: #000000; stroke-width: 0.8"/>
      </g>
     </g>
     <g id="text_18">
      <!-- 2010 -->
      <g transform="translate(309.577156 220.716875)scale(0.1 -0.1)">
       <use xlink:href="#DejaVuSans-32"/>
       <use xlink:href="#DejaVuSans-30" x="63.623047"/>
       <use xlink:href="#DejaVuSans-31" x="127.246094"/>
       <use xlink:href="#DejaVuSans-30" x="190.869141"/>
      </g>
     </g>
    </g>
    <g id="xtick_20">
     <g id="line2d_56">
      <g>
       <use xlink:href="#m2f52b91680" x="363.837841" y="206.118438" style="stroke: #000000; stroke-width: 0.8"/>
      </g>
     </g>
     <g id="text_19">
      <!-- 2020 -->
      <g transform="translate(351.112841 220.716875)scale(0.1 -0.1)">
       <use xlink:href="#DejaVuSans-32"/>
       <use xlink:href="#DejaVuSans-30" x="63.623047"/>
       <use xlink:href="#DejaVuSans-32" x="127.246094"/>
       <use xlink:href="#DejaVuSans-30" x="190.869141"/>
      </g>
     </g>
    </g>
    <g id="text_20">
     <!-- Year -->
     <g transform="translate(280.562893 234.395)scale(0.1 -0.1)">
      <use xlink:href="#DejaVuSans-59"/>
      <use xlink:href="#DejaVuSans-65" x="47.833984"/>
      <use xlink:href="#DejaVuSans-61" x="109.357422"/>
      <use xlink:href="#DejaVuSans-72" x="170.636719"/>
     </g>
    </g>
   </g>
   <g id="matplotlib.axis_10">
    <g id="ytick_9">
     <g id="line2d_57">
      <g>
       <use xlink:href="#mc88f91af76" x="215.763125" y="202.275256" style="stroke: #000000; stroke-width: 0.8"/>
      </g>
     </g>
    </g>
    <g id="ytick_10">
     <g id="line2d_58">
      <g>
       <use xlink:href="#mc88f91af76" x="215.763125" y="160.727344" style="stroke: #000000; stroke-width: 0.8"/>
      </g>
     </g>
    </g>
   </g>
   <g id="line2d_59">
    <path d="M 222.616513 202.275256 
L 247.537924 202.275256 
L 264.152198 202.275256 
L 268.305766 202.275256 
L 272.459335 202.275256 
L 276.612903 202.275256 
L 280.766472 202.275256 
L 284.92004 202.275256 
L 289.073609 200.19786 
L 293.227177 198.120465 
L 297.380746 202.275256 
L 301.534314 202.275256 
L 305.687882 202.275256 
L 309.841451 202.275256 
L 313.995019 187.733487 
L 318.148588 198.120465 
L 322.302156 198.120465 
L 326.455725 193.965673 
L 330.609293 202.275256 
L 334.762862 198.120465 
L 338.91643 198.120465 
L 343.069999 191.888278 
L 347.223567 198.120465 
L 351.377136 200.19786 
L 355.530704 200.19786 
L 359.684273 200.19786 
" clip-path="url(#p3edb4b348c)" style="fill: none; stroke: #b2b2b2; stroke-linecap: square"/>
   </g>
   <g id="line2d_60">
    <path d="M 222.616513 202.275256 
L 247.537924 202.275256 
L 264.152198 202.275256 
L 268.305766 202.275256 
L 272.459335 202.275256 
L 276.612903 202.275256 
L 280.766472 202.275256 
L 284.92004 202.275256 
L 289.073609 202.275256 
L 293.227177 202.275256 
L 297.380746 202.275256 
L 301.534314 202.275256 
L 305.687882 198.120465 
L 309.841451 202.275256 
L 313.995019 187.733487 
L 318.148588 196.043069 
L 322.302156 183.578695 
L 326.455725 187.733487 
L 330.609293 177.346509 
L 334.762862 185.656091 
L 338.91643 183.578695 
L 343.069999 185.656091 
L 347.223567 191.888278 
L 351.377136 200.19786 
L 355.530704 193.965673 
L 359.684273 198.120465 
" clip-path="url(#p3edb4b348c)" style="fill: none; stroke: #b2b2b2; stroke-linecap: square"/>
   </g>
   <g id="line2d_61">
    <path d="M 222.616513 202.275256 
L 247.537924 200.19786 
L 264.152198 202.275256 
L 268.305766 198.120465 
L 272.459335 196.043069 
L 276.612903 202.275256 
L 280.766472 198.120465 
L 284.92004 198.120465 
L 289.073609 189.810882 
L 293.227177 196.043069 
L 297.380746 183.578695 
L 301.534314 183.578695 
L 305.687882 183.578695 
L 309.841451 179.423904 
L 313.995019 135.798597 
L 318.148588 177.346509 
L 322.302156 156.572553 
L 326.455725 169.036926 
L 330.609293 152.417762 
L 334.762862 146.185575 
L 338.91643 133.721202 
L 343.069999 125.411619 
L 347.223567 146.185575 
L 351.377136 162.80474 
L 355.530704 193.965673 
L 359.684273 200.19786 
" clip-path="url(#p3edb4b348c)" style="fill: none; stroke: #b2b2b2; stroke-linecap: square"/>
   </g>
   <g id="line2d_62">
    <path d="M 222.616513 200.19786 
L 247.537924 198.120465 
L 264.152198 200.19786 
L 268.305766 202.275256 
L 272.459335 198.120465 
L 276.612903 196.043069 
L 280.766472 202.275256 
L 284.92004 200.19786 
L 289.073609 198.120465 
L 293.227177 198.120465 
L 297.380746 196.043069 
L 301.534314 196.043069 
L 305.687882 196.043069 
L 309.841451 179.423904 
L 313.995019 187.733487 
L 318.148588 191.888278 
L 322.302156 177.346509 
L 326.455725 158.649949 
L 330.609293 154.495157 
L 334.762862 185.656091 
L 338.91643 164.882135 
L 343.069999 152.417762 
L 347.223567 158.649949 
L 351.377136 181.5013 
L 355.530704 177.346509 
L 359.684273 187.733487 
" clip-path="url(#p3edb4b348c)" style="fill: none; stroke: #b2b2b2; stroke-linecap: square"/>
   </g>
   <g id="line2d_63">
    <path d="M 222.616513 202.275256 
L 247.537924 202.275256 
L 264.152198 202.275256 
L 268.305766 202.275256 
L 272.459335 202.275256 
L 276.612903 202.275256 
L 280.766472 202.275256 
L 284.92004 202.275256 
L 289.073609 202.275256 
L 293.227177 200.19786 
L 297.380746 202.275256 
L 301.534314 202.275256 
L 305.687882 202.275256 
L 309.841451 202.275256 
L 313.995019 191.888278 
L 318.148588 198.120465 
L 322.302156 202.275256 
L 326.455725 193.965673 
L 330.609293 189.810882 
L 334.762862 189.810882 
L 338.91643 191.888278 
L 343.069999 191.888278 
L 347.223567 164.882135 
L 351.377136 179.423904 
L 355.530704 198.120465 
L 359.684273 200.19786 
" clip-path="url(#p3edb4b348c)" style="fill: none; stroke: #b2b2b2; stroke-linecap: square"/>
   </g>
   <g id="line2d_64">
    <path d="M 222.616513 202.275256 
L 247.537924 202.275256 
L 264.152198 202.275256 
L 268.305766 202.275256 
L 272.459335 202.275256 
L 276.612903 202.275256 
L 280.766472 202.275256 
L 284.92004 202.275256 
L 289.073609 202.275256 
L 293.227177 202.275256 
L 297.380746 200.19786 
L 301.534314 202.275256 
L 305.687882 200.19786 
L 309.841451 202.275256 
L 313.995019 196.043069 
L 318.148588 202.275256 
L 322.302156 202.275256 
L 326.455725 198.120465 
L 330.609293 198.120465 
L 334.762862 196.043069 
L 338.91643 193.965673 
L 343.069999 198.120465 
L 347.223567 200.19786 
L 351.377136 202.275256 
L 355.530704 202.275256 
L 359.684273 202.275256 
" clip-path="url(#p3edb4b348c)" style="fill: none; stroke: #b2b2b2; stroke-linecap: square"/>
   </g>
   <g id="patch_15">
    <path d="M 215.763125 206.118438 
L 215.763125 121.568438 
" style="fill: none; stroke: #000000; stroke-width: 0.8; stroke-linejoin: miter; stroke-linecap: square"/>
   </g>
   <g id="patch_16">
    <path d="M 215.763125 206.118438 
L 366.537661 206.118438 
" style="fill: none; stroke: #000000; stroke-width: 0.8; stroke-linejoin: miter; stroke-linecap: square"/>
   </g>
   <g id="text_21">
    <!-- Oceania -->
    <g transform="translate(230.840579 121.568438)scale(0.1 -0.1)">
     <defs>
      <path id="DejaVuSans-Bold-4f" d="M 2719 3878 
Q 2169 3878 1866 3472 
Q 1563 3066 1563 2328 
Q 1563 1594 1866 1187 
Q 2169 781 2719 781 
Q 3272 781 3575 1187 
Q 3878 1594 3878 2328 
Q 3878 3066 3575 3472 
Q 3272 3878 2719 3878 
z
M 2719 4750 
Q 3844 4750 4481 4106 
Q 5119 3463 5119 2328 
Q 5119 1197 4481 553 
Q 3844 -91 2719 -91 
Q 1597 -91 958 553 
Q 319 1197 319 2328 
Q 319 3463 958 4106 
Q 1597 4750 2719 4750 
z
" transform="scale(0.015625)"/>
      <path id="DejaVuSans-Bold-6e" d="M 4056 2131 
L 4056 0 
L 2931 0 
L 2931 347 
L 2931 1631 
Q 2931 2084 2911 2256 
Q 2891 2428 2841 2509 
Q 2775 2619 2662 2680 
Q 2550 2741 2406 2741 
Q 2056 2741 1856 2470 
Q 1656 2200 1656 1722 
L 1656 0 
L 538 0 
L 538 3500 
L 1656 3500 
L 1656 2988 
Q 1909 3294 2193 3439 
Q 2478 3584 2822 3584 
Q 3428 3584 3742 3212 
Q 4056 2841 4056 2131 
z
" transform="scale(0.015625)"/>
     </defs>
     <use xlink:href="#DejaVuSans-Bold-4f"/>
     <use xlink:href="#DejaVuSans-Bold-63" x="85.009766"/>
     <use xlink:href="#DejaVuSans-Bold-65" x="144.287109"/>
     <use xlink:href="#DejaVuSans-Bold-61" x="212.109375"/>
     <use xlink:href="#DejaVuSans-Bold-6e" x="279.589844"/>
     <use xlink:href="#DejaVuSans-Bold-69" x="350.78125"/>
     <use xlink:href="#DejaVuSans-Bold-61" x="385.058594"/>
    </g>
   </g>
   <g id="line2d_65">
    <path d="M 222.616513 202.275256 
L 247.537924 202.275256 
L 264.152198 202.275256 
L 268.305766 202.275256 
L 272.459335 202.275256 
L 276.612903 202.275256 
L 280.766472 202.275256 
L 284.92004 202.275256 
L 289.073609 202.275256 
L 293.227177 200.19786 
L 297.380746 202.275256 
L 301.534314 202.275256 
L 305.687882 202.275256 
L 309.841451 202.275256 
L 313.995019 191.888278 
L 318.148588 198.120465 
L 322.302156 202.275256 
L 326.455725 193.965673 
L 330.609293 189.810882 
L 334.762862 189.810882 
L 338.91643 191.888278 
L 343.069999 191.888278 
L 347.223567 164.882135 
L 351.377136 179.423904 
L 355.530704 198.120465 
L 359.684273 200.19786 
" clip-path="url(#p3edb4b348c)" style="fill: none; stroke: #5b9867; stroke-width: 4; stroke-linecap: square"/>
   </g>
  </g>
  <g id="axes_6">
   <g id="patch_17">
    <path d="M 390.923125 206.118438 
L 541.697661 206.118438 
L 541.697661 121.568438 
L 390.923125 121.568438 
z
" style="fill: #ffffff"/>
   </g>
   <g id="matplotlib.axis_11">
    <g id="xtick_21">
     <g id="line2d_66">
      <g>
       <use xlink:href="#m2f52b91680" x="414.390787" y="206.118438" style="stroke: #000000; stroke-width: 0.8"/>
      </g>
     </g>
     <g id="text_22">
      <!-- 1990 -->
      <g transform="translate(401.665787 220.716875)scale(0.1 -0.1)">
       <use xlink:href="#DejaVuSans-31"/>
       <use xlink:href="#DejaVuSans-39" x="63.623047"/>
       <use xlink:href="#DejaVuSans-39" x="127.246094"/>
       <use xlink:href="#DejaVuSans-30" x="190.869141"/>
      </g>
     </g>
    </g>
    <g id="xtick_22">
     <g id="line2d_67">
      <g>
       <use xlink:href="#m2f52b91680" x="455.926472" y="206.118438" style="stroke: #000000; stroke-width: 0.8"/>
      </g>
     </g>
     <g id="text_23">
      <!-- 2000 -->
      <g transform="translate(443.201472 220.716875)scale(0.1 -0.1)">
       <use xlink:href="#DejaVuSans-32"/>
       <use xlink:href="#DejaVuSans-30" x="63.623047"/>
       <use xlink:href="#DejaVuSans-30" x="127.246094"/>
       <use xlink:href="#DejaVuSans-30" x="190.869141"/>
      </g>
     </g>
    </g>
    <g id="xtick_23">
     <g id="line2d_68">
      <g>
       <use xlink:href="#m2f52b91680" x="497.462156" y="206.118438" style="stroke: #000000; stroke-width: 0.8"/>
      </g>
     </g>
     <g id="text_24">
      <!-- 2010 -->
      <g transform="translate(484.737156 220.716875)scale(0.1 -0.1)">
       <use xlink:href="#DejaVuSans-32"/>
       <use xlink:href="#DejaVuSans-30" x="63.623047"/>
       <use xlink:href="#DejaVuSans-31" x="127.246094"/>
       <use xlink:href="#DejaVuSans-30" x="190.869141"/>
      </g>
     </g>
    </g>
    <g id="xtick_24">
     <g id="line2d_69">
      <g>
       <use xlink:href="#m2f52b91680" x="538.997841" y="206.118438" style="stroke: #000000; stroke-width: 0.8"/>
      </g>
     </g>
     <g id="text_25">
      <!-- 2020 -->
      <g transform="translate(526.272841 220.716875)scale(0.1 -0.1)">
       <use xlink:href="#DejaVuSans-32"/>
       <use xlink:href="#DejaVuSans-30" x="63.623047"/>
       <use xlink:href="#DejaVuSans-32" x="127.246094"/>
       <use xlink:href="#DejaVuSans-30" x="190.869141"/>
      </g>
     </g>
    </g>
    <g id="text_26">
     <!-- Year -->
     <g transform="translate(455.722893 234.395)scale(0.1 -0.1)">
      <use xlink:href="#DejaVuSans-59"/>
      <use xlink:href="#DejaVuSans-65" x="47.833984"/>
      <use xlink:href="#DejaVuSans-61" x="109.357422"/>
      <use xlink:href="#DejaVuSans-72" x="170.636719"/>
     </g>
    </g>
   </g>
   <g id="matplotlib.axis_12">
    <g id="ytick_11">
     <g id="line2d_70">
      <g>
       <use xlink:href="#mc88f91af76" x="390.923125" y="202.275256" style="stroke: #000000; stroke-width: 0.8"/>
      </g>
     </g>
    </g>
    <g id="ytick_12">
     <g id="line2d_71">
      <g>
       <use xlink:href="#mc88f91af76" x="390.923125" y="160.727344" style="stroke: #000000; stroke-width: 0.8"/>
      </g>
     </g>
    </g>
   </g>
   <g id="line2d_72">
    <path d="M 397.776513 202.275256 
L 422.697924 202.275256 
L 439.312198 202.275256 
L 443.465766 202.275256 
L 447.619335 202.275256 
L 451.772903 202.275256 
L 455.926472 202.275256 
L 460.08004 202.275256 
L 464.233609 200.19786 
L 468.387177 198.120465 
L 472.540746 202.275256 
L 476.694314 202.275256 
L 480.847882 202.275256 
L 485.001451 202.275256 
L 489.155019 187.733487 
L 493.308588 198.120465 
L 497.462156 198.120465 
L 501.615725 193.965673 
L 505.769293 202.275256 
L 509.922862 198.120465 
L 514.07643 198.120465 
L 518.229999 191.888278 
L 522.383567 198.120465 
L 526.537136 200.19786 
L 530.690704 200.19786 
L 534.844273 200.19786 
" clip-path="url(#p352226c229)" style="fill: none; stroke: #b2b2b2; stroke-linecap: square"/>
   </g>
   <g id="line2d_73">
    <path d="M 397.776513 202.275256 
L 422.697924 202.275256 
L 439.312198 202.275256 
L 443.465766 202.275256 
L 447.619335 202.275256 
L 451.772903 202.275256 
L 455.926472 202.275256 
L 460.08004 202.275256 
L 464.233609 202.275256 
L 468.387177 202.275256 
L 472.540746 202.275256 
L 476.694314 202.275256 
L 480.847882 198.120465 
L 485.001451 202.275256 
L 489.155019 187.733487 
L 493.308588 196.043069 
L 497.462156 183.578695 
L 501.615725 187.733487 
L 505.769293 177.346509 
L 509.922862 185.656091 
L 514.07643 183.578695 
L 518.229999 185.656091 
L 522.383567 191.888278 
L 526.537136 200.19786 
L 530.690704 193.965673 
L 534.844273 198.120465 
" clip-path="url(#p352226c229)" style="fill: none; stroke: #b2b2b2; stroke-linecap: square"/>
   </g>
   <g id="line2d_74">
    <path d="M 397.776513 202.275256 
L 422.697924 200.19786 
L 439.312198 202.275256 
L 443.465766 198.120465 
L 447.619335 196.043069 
L 451.772903 202.275256 
L 455.926472 198.120465 
L 460.08004 198.120465 
L 464.233609 189.810882 
L 468.387177 196.043069 
L 472.540746 183.578695 
L 476.694314 183.578695 
L 480.847882 183.578695 
L 485.001451 179.423904 
L 489.155019 135.798597 
L 493.308588 177.346509 
L 497.462156 156.572553 
L 501.615725 169.036926 
L 505.769293 152.417762 
L 509.922862 146.185575 
L 514.07643 133.721202 
L 518.229999 125.411619 
L 522.383567 146.185575 
L 526.537136 162.80474 
L 530.690704 193.965673 
L 534.844273 200.19786 
" clip-path="url(#p352226c229)" style="fill: none; stroke: #b2b2b2; stroke-linecap: square"/>
   </g>
   <g id="line2d_75">
    <path d="M 397.776513 200.19786 
L 422.697924 198.120465 
L 439.312198 200.19786 
L 443.465766 202.275256 
L 447.619335 198.120465 
L 451.772903 196.043069 
L 455.926472 202.275256 
L 460.08004 200.19786 
L 464.233609 198.120465 
L 468.387177 198.120465 
L 472.540746 196.043069 
L 476.694314 196.043069 
L 480.847882 196.043069 
L 485.001451 179.423904 
L 489.155019 187.733487 
L 493.308588 191.888278 
L 497.462156 177.346509 
L 501.615725 158.649949 
L 505.769293 154.495157 
L 509.922862 185.656091 
L 514.07643 164.882135 
L 518.229999 152.417762 
L 522.383567 158.649949 
L 526.537136 181.5013 
L 530.690704 177.346509 
L 534.844273 187.733487 
" clip-path="url(#p352226c229)" style="fill: none; stroke: #b2b2b2; stroke-linecap: square"/>
   </g>
   <g id="line2d_76">
    <path d="M 397.776513 202.275256 
L 422.697924 202.275256 
L 439.312198 202.275256 
L 443.465766 202.275256 
L 447.619335 202.275256 
L 451.772903 202.275256 
L 455.926472 202.275256 
L 460.08004 202.275256 
L 464.233609 202.275256 
L 468.387177 200.19786 
L 472.540746 202.275256 
L 476.694314 202.275256 
L 480.847882 202.275256 
L 485.001451 202.275256 
L 489.155019 191.888278 
L 493.308588 198.120465 
L 497.462156 202.275256 
L 501.615725 193.965673 
L 505.769293 189.810882 
L 509.922862 189.810882 
L 514.07643 191.888278 
L 518.229999 191.888278 
L 522.383567 164.882135 
L 526.537136 179.423904 
L 530.690704 198.120465 
L 534.844273 200.19786 
" clip-path="url(#p352226c229)" style="fill: none; stroke: #b2b2b2; stroke-linecap: square"/>
   </g>
   <g id="line2d_77">
    <path d="M 397.776513 202.275256 
L 422.697924 202.275256 
L 439.312198 202.275256 
L 443.465766 202.275256 
L 447.619335 202.275256 
L 451.772903 202.275256 
L 455.926472 202.275256 
L 460.08004 202.275256 
L 464.233609 202.275256 
L 468.387177 202.275256 
L 472.540746 200.19786 
L 476.694314 202.275256 
L 480.847882 200.19786 
L 485.001451 202.275256 
L 489.155019 196.043069 
L 493.308588 202.275256 
L 497.462156 202.275256 
L 501.615725 198.120465 
L 505.769293 198.120465 
L 509.922862 196.043069 
L 514.07643 193.965673 
L 518.229999 198.120465 
L 522.383567 200.19786 
L 526.537136 202.275256 
L 530.690704 202.275256 
L 534.844273 202.275256 
" clip-path="url(#p352226c229)" style="fill: none; stroke: #b2b2b2; stroke-linecap: square"/>
   </g>
   <g id="patch_18">
    <path d="M 390.923125 206.118438 
L 390.923125 121.568438 
" style="fill: none; stroke: #000000; stroke-width: 0.8; stroke-linejoin: miter; stroke-linecap: square"/>
   </g>
   <g id="patch_19">
    <path d="M 390.923125 206.118438 
L 541.697661 206.118438 
" style="fill: none; stroke: #000000; stroke-width: 0.8; stroke-linejoin: miter; stroke-linecap: square"/>
   </g>
   <g id="text_27">
    <!-- South America -->
    <g transform="translate(406.000579 121.568438)scale(0.1 -0.1)">
     <defs>
      <path id="DejaVuSans-Bold-53" d="M 3834 4519 
L 3834 3531 
Q 3450 3703 3084 3790 
Q 2719 3878 2394 3878 
Q 1963 3878 1756 3759 
Q 1550 3641 1550 3391 
Q 1550 3203 1689 3098 
Q 1828 2994 2194 2919 
L 2706 2816 
Q 3484 2659 3812 2340 
Q 4141 2022 4141 1434 
Q 4141 663 3683 286 
Q 3225 -91 2284 -91 
Q 1841 -91 1394 -6 
Q 947 78 500 244 
L 500 1259 
Q 947 1022 1364 901 
Q 1781 781 2169 781 
Q 2563 781 2772 912 
Q 2981 1044 2981 1288 
Q 2981 1506 2839 1625 
Q 2697 1744 2272 1838 
L 1806 1941 
Q 1106 2091 782 2419 
Q 459 2747 459 3303 
Q 459 4000 909 4375 
Q 1359 4750 2203 4750 
Q 2588 4750 2994 4692 
Q 3400 4634 3834 4519 
z
" transform="scale(0.015625)"/>
     </defs>
     <use xlink:href="#DejaVuSans-Bold-53"/>
     <use xlink:href="#DejaVuSans-Bold-6f" x="72.021484"/>
     <use xlink:href="#DejaVuSans-Bold-75" x="140.722656"/>
     <use xlink:href="#DejaVuSans-Bold-74" x="211.914062"/>
     <use xlink:href="#DejaVuSans-Bold-68" x="259.716797"/>
     <use xlink:href="#DejaVuSans-Bold-20" x="330.908203"/>
     <use xlink:href="#DejaVuSans-Bold-41" x="365.722656"/>
     <use xlink:href="#DejaVuSans-Bold-6d" x="443.115234"/>
     <use xlink:href="#DejaVuSans-Bold-65" x="547.314453"/>
     <use xlink:href="#DejaVuSans-Bold-72" x="615.136719"/>
     <use xlink:href="#DejaVuSans-Bold-69" x="664.453125"/>
     <use xlink:href="#DejaVuSans-Bold-63" x="698.730469"/>
     <use xlink:href="#DejaVuSans-Bold-61" x="758.007812"/>
    </g>
   </g>
   <g id="line2d_78">
    <path d="M 397.776513 202.275256 
L 422.697924 202.275256 
L 439.312198 202.275256 
L 443.465766 202.275256 
L 447.619335 202.275256 
L 451.772903 202.275256 
L 455.926472 202.275256 
L 460.08004 202.275256 
L 464.233609 202.275256 
L 468.387177 202.275256 
L 472.540746 200.19786 
L 476.694314 202.275256 
L 480.847882 200.19786 
L 485.001451 202.275256 
L 489.155019 196.043069 
L 493.308588 202.275256 
L 497.462156 202.275256 
L 501.615725 198.120465 
L 505.769293 198.120465 
L 509.922862 196.043069 
L 514.07643 193.965673 
L 518.229999 198.120465 
L 522.383567 200.19786 
L 526.537136 202.275256 
L 530.690704 202.275256 
L 534.844273 202.275256 
" clip-path="url(#p352226c229)" style="fill: none; stroke: #5b9867; stroke-width: 4; stroke-linecap: square"/>
   </g>
  </g>
 </g>
 <defs>
  <clipPath id="p0fb00e105e">
   <rect x="40.603125" y="14.798438" width="150.774536" height="84.55"/>
  </clipPath>
  <clipPath id="pbfffc7602e">
   <rect x="215.763125" y="14.798438" width="150.774536" height="84.55"/>
  </clipPath>
  <clipPath id="p4e09d90b9d">
   <rect x="390.923125" y="14.798438" width="150.774536" height="84.55"/>
  </clipPath>
  <clipPath id="pc493bd8ef9">
   <rect x="40.603125" y="121.568438" width="150.774536" height="84.55"/>
  </clipPath>
  <clipPath id="p3edb4b348c">
   <rect x="215.763125" y="121.568438" width="150.774536" height="84.55"/>
  </clipPath>
  <clipPath id="p352226c229">
   <rect x="390.923125" y="121.568438" width="150.774536" height="84.55"/>
  </clipPath>
 </defs>
</svg>
