<?xml version="1.0" encoding="utf-8"?>
<!-- Generator: Adobe Illustrator 15.1.0, SVG Export Plug-In . SVG Version: 6.00 Build 0)  -->
<!DOCTYPE svg PUBLIC "-//W3C//DTD SVG 1.1//EN" "http://www.w3.org/Graphics/SVG/1.1/DTD/svg11.dtd">
<svg version="1.1" id="Layer_1" xmlns="http://www.w3.org/2000/svg" xmlns:xlink="http://www.w3.org/1999/xlink" x="0px" y="0px"
	 width="38.203px" height="32.697px" viewBox="0 0 38.203 32.697" enable-background="new 0 0 38.203 32.697" xml:space="preserve">
<g enable-background="new    ">
	<path fill="#326F90" d="M10.29,14.215h1.661v7.648h2.928v1.793H10.29V14.215z"/>
	<path fill="#326F90" d="M17.64,21.233l-0.524,2.423H15.4l2.24-9.441h2.186l2.293,9.441h-1.803l-0.567-2.423H17.64z M19.508,19.635
		l-0.459-2.003c-0.131-0.56-0.262-1.261-0.372-1.82h-0.021c-0.109,0.56-0.219,1.274-0.339,1.82l-0.437,2.003H19.508z"/>
	<path fill="#326F90" d="M23.088,14.341c0.438-0.098,1.312-0.195,2.152-0.195c1.017,0,1.639,0.126,2.185,0.531
		c0.515,0.351,0.875,0.995,0.875,1.863c0,0.826-0.383,1.598-1.213,2.003v0.027c0.841,0.28,1.463,1.106,1.463,2.312
		c0,0.868-0.305,1.541-0.764,2.018c-0.535,0.547-1.433,0.854-2.896,0.854c-0.82,0-1.432-0.069-1.804-0.141L23.088,14.341
		L23.088,14.341z M24.738,17.955h0.547c0.885,0,1.344-0.462,1.344-1.163c0-0.714-0.426-1.092-1.18-1.092
		c-0.372,0-0.58,0.028-0.711,0.056V17.955z M24.738,22.143c0.164,0.026,0.361,0.026,0.645,0.026c0.754,0,1.42-0.377,1.42-1.372
		c0-0.938-0.666-1.316-1.496-1.316h-0.568V22.143L24.738,22.143z"/>
</g>
<g opacity="0.4">
	<path fill="#326F90" d="M20.089,7.705c-0.358-0.028-0.727-0.042-1.097-0.039c-3.166,0.021-5.855,1.164-8.069,3.405
		c-2.214,2.238-3.322,4.941-3.302,8.107c0.02,3.167,1.163,5.854,3.426,8.091l-5.359,5.428c-1.745-1.749-3.118-3.778-4.14-6.094
		C0.525,24.289,0.017,21.831,0,19.204c-0.032-5.252,1.815-9.767,5.52-13.517C9.225,1.936,13.715,0.036,18.969,0
		c0.59-0.004,1.172,0.019,1.743,0.06c4.515,0.346,8.447,2.17,11.797,5.458c3.591,3.523,5.675,7.758,5.693,12.688
		c0.014,3.721-0.537,5.83-1.529,8.157c-0.993,2.326-2.344,4.373-4.045,6.142l-5.426-5.355c2.237-2.287,3.346-4.992,3.325-8.11
		c-0.021-3.165-1.161-5.854-3.426-8.067c-1.998-1.949-4.336-3.047-7.016-3.265"/>
</g>
</svg>
