<?xml version="1.0" encoding="utf-8"?>
<!-- Generator: Adobe Illustrator 15.1.0, SVG Export Plug-In . SVG Version: 6.00 Build 0)  -->
<!DOCTYPE svg PUBLIC "-//W3C//DTD SVG 1.1//EN" "http://www.w3.org/Graphics/SVG/1.1/DTD/svg11.dtd">
<svg version="1.1" id="Layer_1" xmlns="http://www.w3.org/2000/svg" xmlns:xlink="http://www.w3.org/1999/xlink" x="0px" y="0px"
	 width="1000px" height="823.293px" viewBox="0 -82.793 1000 823.293" enable-background="new 0 -82.793 1000 823.293"
	 xml:space="preserve">
<g id="Layer_2">
	<path fill="#996B4B" d="M616.111,142.207c55.416,19,112.054,113.233,140.054,137.233s79.595,64.103,118.362,83.767
		c36.771,18.651,80,40,96,72c12.775,25.552,10.976,66.728,3.296,90.173l-31.153,0.158c1.154-1.404,2.117-2.853,2.857-4.332
		c8-16-4.316-60.898-15-75c-12.5-16.499-25.357-29.542-45.056-33.01c-9.674-1.703-59.143-23.21-87.487-34.989
		c-26.638-11.069-108.819-67.767-129.819-43.767"/>
	<path fill="#464747" d="M357,739.559c39.249-58.197,100.72-136.329,117.493-145.357c43.468-23.399,35.955-62.86,524.507-62.86
		V417.454c0,0-189.867-20.157-541,43.752c-73.306,13.342-192.155,165.568-266.163,278.353"/>
	<path fill="#282828" d="M606,473.206c0,0,31.795,35.045,27.459,72.52c0,0-157.459,34.982-198.392,89.227
		c0,0-23.945-104.792-8.067-109.413"/>
	<path fill="#9A9B9B" d="M257,571.206c0,0-84.483,116.774-120,169.294c56.22-0.553,109,0,181,0
		c35.061-55.793,109-181.294,109-181.294L257,571.206z"/>
	<line fill="none" x1="93" y1="738.662" x2="251" y2="738.662"/>
</g>
<g id="Layer_3">
	<path fill="#CACCCC" d="M977.097,531.37c-2.147,6.561-4.671,12.399-7.496,15.865c-10.972,13.455-37.495,33.473-65.601,33.473
		c-26.907,0-49.004-1.799-68.06-24.422c-19.748-23.447-25.604-59.635-25.939-75.492c-0.3-14.088,3.303-25.262,10.419-32.313
		c5.378-5.33,12.528-8.019,20.701-7.771c15.471,0.469,39.285,10.762,43.793,32.174c0.496,2.357,1.813,8.617-2.429,11.363
		c-4.848,3.135-11.416-1.646-19.022-7.187c-2.789-2.032-6.609-4.815-8.062-5.229c-0.592-0.168-1.212-0.354-1.857-0.545
		c-3.787-1.125-10.123-3.008-12.536-1.586c-0.236,0.139-0.789,0.465-1.104,1.877c-1.777,7.998-0.035,33.977,4.736,44.477
		c4.623,10.172,20.752,32.771,38.56,33.66c16.715,0.842,42.405-5.361,52.895-18.133"/>
</g>
<g>
	<g>
		<g>
			<defs>
				<polygon id="SVGID_1_" points="999,740.455 0,738.662 0,0.959 999,1 				"/>
			</defs>
			<clipPath id="SVGID_2_">
				<use xlink:href="#SVGID_1_"  overflow="visible"/>
			</clipPath>
		</g>
		<g>
			<defs>
				<polygon id="SVGID_3_" points="999,740.455 0,738.662 0,0.959 999,1 				"/>
			</defs>
			<clipPath id="SVGID_4_">
				<use xlink:href="#SVGID_3_"  overflow="visible"/>
			</clipPath>
		</g>
		<g>
			<defs>
				<polygon id="SVGID_5_" points="999,740.455 0,738.662 0,0.959 999,1 				"/>
			</defs>
			<clipPath id="SVGID_6_">
				<use xlink:href="#SVGID_5_"  overflow="visible"/>
			</clipPath>
			<g clip-path="url(#SVGID_6_)">
				<g>
					<defs>
						<rect id="SVGID_7_" y="-0.793" width="999" height="739.455"/>
					</defs>
					<defs>
						<rect id="SVGID_8_" y="-0.793" width="999" height="739.455"/>
					</defs>
					<defs>
						<rect id="SVGID_9_" y="-0.793" width="999" height="739.455"/>
					</defs>
					<defs>
						<rect id="SVGID_10_" y="-0.793" width="999" height="739.455"/>
					</defs>
					<defs>
						<rect id="SVGID_11_" y="-0.793" width="999" height="739.455"/>
					</defs>
					<defs>
						<rect id="SVGID_12_" y="-0.793" width="999" height="739.455"/>
					</defs>
					<defs>
						<rect id="SVGID_13_" y="-0.793" width="999" height="739.455"/>
					</defs>
					<defs>
						<rect id="SVGID_14_" y="-0.793" width="999" height="739.455"/>
					</defs>
					<defs>
						<rect id="SVGID_15_" y="-0.793" width="999" height="739.455"/>
					</defs>
					<defs>
						<rect id="SVGID_16_" y="-0.793" width="999" height="739.455"/>
					</defs>
					<defs>
						<rect id="SVGID_17_" y="-0.793" width="999" height="739.455"/>
					</defs>
					<defs>
						<rect id="SVGID_18_" y="-0.793" width="999" height="739.455"/>
					</defs>
					<defs>
						<rect id="SVGID_19_" y="-0.793" width="999" height="739.455"/>
					</defs>
					<defs>
						<rect id="SVGID_20_" y="-0.793" width="999" height="739.455"/>
					</defs>
					<defs>
						<rect id="SVGID_21_" y="-0.793" width="999" height="739.455"/>
					</defs>
					<defs>
						<rect id="SVGID_22_" y="-0.793" width="999" height="739.455"/>
					</defs>
					<defs>
						<rect id="SVGID_23_" y="-0.793" width="999" height="739.455"/>
					</defs>
					<defs>
						<rect id="SVGID_24_" y="-0.793" width="999" height="739.455"/>
					</defs>
					<defs>
						<rect id="SVGID_25_" y="-0.793" width="999" height="739.455"/>
					</defs>
					<defs>
						<rect id="SVGID_26_" y="-0.793" width="999" height="739.455"/>
					</defs>
					<defs>
						<rect id="SVGID_27_" y="-0.793" width="999" height="739.455"/>
					</defs>
					<clipPath id="SVGID_28_">
						<use xlink:href="#SVGID_7_"  overflow="visible"/>
					</clipPath>
					<clipPath id="SVGID_29_" clip-path="url(#SVGID_28_)">
						<use xlink:href="#SVGID_8_"  overflow="visible"/>
					</clipPath>
					<clipPath id="SVGID_30_" clip-path="url(#SVGID_29_)">
						<use xlink:href="#SVGID_9_"  overflow="visible"/>
					</clipPath>
					<clipPath id="SVGID_31_" clip-path="url(#SVGID_30_)">
						<use xlink:href="#SVGID_10_"  overflow="visible"/>
					</clipPath>
					<clipPath id="SVGID_32_" clip-path="url(#SVGID_31_)">
						<use xlink:href="#SVGID_11_"  overflow="visible"/>
					</clipPath>
					<clipPath id="SVGID_33_" clip-path="url(#SVGID_32_)">
						<use xlink:href="#SVGID_12_"  overflow="visible"/>
					</clipPath>
					<clipPath id="SVGID_34_" clip-path="url(#SVGID_33_)">
						<use xlink:href="#SVGID_13_"  overflow="visible"/>
					</clipPath>
					<clipPath id="SVGID_35_" clip-path="url(#SVGID_34_)">
						<use xlink:href="#SVGID_14_"  overflow="visible"/>
					</clipPath>
					<clipPath id="SVGID_36_" clip-path="url(#SVGID_35_)">
						<use xlink:href="#SVGID_15_"  overflow="visible"/>
					</clipPath>
					<clipPath id="SVGID_37_" clip-path="url(#SVGID_36_)">
						<use xlink:href="#SVGID_16_"  overflow="visible"/>
					</clipPath>
					<clipPath id="SVGID_38_" clip-path="url(#SVGID_37_)">
						<use xlink:href="#SVGID_17_"  overflow="visible"/>
					</clipPath>
					<clipPath id="SVGID_39_" clip-path="url(#SVGID_38_)">
						<use xlink:href="#SVGID_18_"  overflow="visible"/>
					</clipPath>
					<clipPath id="SVGID_40_" clip-path="url(#SVGID_39_)">
						<use xlink:href="#SVGID_19_"  overflow="visible"/>
					</clipPath>
					<clipPath id="SVGID_41_" clip-path="url(#SVGID_40_)">
						<use xlink:href="#SVGID_20_"  overflow="visible"/>
					</clipPath>
					<clipPath id="SVGID_42_" clip-path="url(#SVGID_41_)">
						<use xlink:href="#SVGID_21_"  overflow="visible"/>
					</clipPath>
					<clipPath id="SVGID_43_" clip-path="url(#SVGID_42_)">
						<use xlink:href="#SVGID_22_"  overflow="visible"/>
					</clipPath>
					<clipPath id="SVGID_44_" clip-path="url(#SVGID_43_)">
						<use xlink:href="#SVGID_23_"  overflow="visible"/>
					</clipPath>
					<clipPath id="SVGID_45_" clip-path="url(#SVGID_44_)">
						<use xlink:href="#SVGID_24_"  overflow="visible"/>
					</clipPath>
					<clipPath id="SVGID_46_" clip-path="url(#SVGID_45_)">
						<use xlink:href="#SVGID_25_"  overflow="visible"/>
					</clipPath>
					<clipPath id="SVGID_47_" clip-path="url(#SVGID_46_)">
						<use xlink:href="#SVGID_26_"  overflow="visible"/>
					</clipPath>
					<clipPath id="SVGID_48_" clip-path="url(#SVGID_47_)">
						<use xlink:href="#SVGID_27_"  overflow="visible"/>
					</clipPath>
					<path clip-path="url(#SVGID_48_)" fill="#E07070" d="M650.352,461.569c0,0,6.693,0.555,8.951,8.743
						c2.258,8.193-13.934,18.839-13.934,18.839s4.979-19.722-19.369-13.445c0,0-17.922,3.779-16.688-0.334
						c1.234-4.113,13.45-14.002,15.52-13.883C628.967,461.728,650.352,461.569,650.352,461.569z"/>
					<path clip-path="url(#SVGID_48_)" fill="#F7937C" d="M644.988,491.114l-1.002-6.974c0,0-19.211,6.054-18.402-4.592
						c0.209-2.731-2.371-6.676,8.957-9.799C645.87,466.628,656.076,474.952,644.988,491.114"/>
					<path clip-path="url(#SVGID_48_)" fill="#D88282" d="M601.776,482.226c-6.11,10.425,0.904,21.521,0.904,21.521
						s-3.514-2.512,2.382-7.203c5.895-4.688,14.286-7.957,14.286-7.957s5.236-22.957-15.252-8.209"/>
					<path clip-path="url(#SVGID_48_)" fill="#E07070" d="M634.577,477.97c0,0-6.075-9.121-14.812-3.399
						c-8.737,5.723-5.077,18.127,1.576,16.629c3.207-0.724,4.976,5.637,4.976,5.637c2.346-4.891,0.919-5.938,4.332-8.436
						C634.062,485.903,636.206,483.88,634.577,477.97"/>
					<path clip-path="url(#SVGID_48_)" fill="#E07070" d="M259.602,580.024c0,0-6.305,2.312-6.305,10.81
						s18.438,14.457,18.438,14.457s-14.666-21.162,10.475-21.58L259.602,580.024z"/>
					<path clip-path="url(#SVGID_48_)" fill="#F7937C" d="M272.624,607.08l-0.889-6.986c0,0,20.131,0.729,16.521-9.315
						c-0.927-2.58,0.513-7.066-11.239-7.066C265.267,583.711,257.64,594.447,272.624,607.08"/>
					<path clip-path="url(#SVGID_48_)" fill="#D88282" d="M311.919,587.029c8.662,8.426,4.847,20.987,4.847,20.987
						s2.722-3.354-4.208-6.311c-6.929-2.956-15.89-3.875-15.89-3.875s-11.147-20.743,12.522-11.967"/>
					<path clip-path="url(#SVGID_48_)" fill="#E07070" d="M279.168,591.645c0,0,3.432-10.408,13.376-7.215
						s9.712,16.123,2.898,16.449c-3.284,0.156-3.298,6.756-3.298,6.756c-3.56-4.092-2.464-5.479-6.418-6.979
						S279.168,597.773,279.168,591.645"/>
					<path clip-path="url(#SVGID_48_)" fill="#845D42" d="M547.82,510.147c4.642-1.71,32.352-14.104,40.546-18.771
						c63.307-36.053,153.334-144.017,85.964-301.215C604.949,28.271,413.625,0.94,342.142,49.296
						c-71.482,48.357-95.644,61.057-107.226,71.484c-11.582,10.427-255.06,356.545,50.459,391.055
						C473.919,533.134,525.236,518.458,547.82,510.147"/>
					<path clip-path="url(#SVGID_48_)" fill="#996B4B" d="M506.857,206.317c63.354,80.634,103.172,146.157,92.674,208.389
						c-16.396,97.201-115.404,142.962-136.629,149.761c-45.728,14.648-300.751,73.843-349.501-104.856
						c-11.745-43.052,16.091-127.017,29.001-217.369C156.64,142.596,406.213,78.223,506.857,206.317"/>
					<path clip-path="url(#SVGID_48_)" fill="#EACAB0" d="M335.835,207.968c76.402-35.145,101.071-51.198,116.387-37.527
						c5.417,4.836-89.38,48.461-47.552,124.981c5.973,10.925,43.379,68.784,46.992,91.962
						c2.543,16.321-4.463,108.809-80.865,150.066c-61.099,32.992-119.346,27.651-131.554,25.358
						c-64.764-12.161-133.126-65.098-137.5-111.254c-1.898-20.042-2.103-94.077,6.396-109.7c0,0-6.518-9.78-63.277-31.469
						C5.072,295.183,17.47,275.09,6.966,251.283C1.413,238.7,19.343,190.581,91.161,199.75c22.064,2.816,38.557,31.052,55.05,27.67
						c37.192-7.626,65.18-30.5,91.645-30.5C237.855,196.92,237.855,200.035,335.835,207.968"/>
					<path clip-path="url(#SVGID_48_)" fill="#C98D61" d="M392.204,293.004c0,0,122.681,115.153-6.131,221.335
						c-128.812,106.183-248.348-6.703-268.938-70.94c-6.734-21.012-20.562-94.346,10.172-133.985
						C158.042,269.771,269.524,218.757,392.204,293.004"/>
					<path clip-path="url(#SVGID_48_)" fill="#B2835D" d="M457.689,169.193c0,0-1.442,16.192-0.867,27.164
						c0.276,5.321-1.22,19.356-3.685,28.106c-2.249,7.993-0.313,9.854-5.241,15.816c-7.933,9.594-12.26,11.823-17.416,16.453
						c-1.669,1.498-15.684,10.413-17.892,10.798c-8.33,1.453-34.602,21.768-40.527,10.064c-0.002-0.005-0.004-0.007-0.004-0.007
						c-0.044,0.012,1.226,4.731,1.29,4.975c3.99,14.898-0.943,22.299-0.796,35.092c0.155,13.201-5.522,25.238,1.729,40.973v0.001
						c46.237,36.16,2.871,70.7-27.616,56.115c0,0,1.126,3.075,2.949,9.457c6.16,21.558,24.681,73.114,17.979,85.15
						c-16.724,30.052-94.767,53.093-130.952,11.197c-16.693-19.33-11.657-56.701-31.084-69.44
						c-8.759-5.746-13.626,0.883-21.874-4.107c-17.127-10.361-9.194-38.912-18.755-72.195
						c-8.325-28.982-25.902-47.591-33.463-55.594c-43.708-46.272-99.36-26.423-112.568-64.767
						c-9.536-27.687,1.93-55.144,10.552-63.765c18.307-18.308,114.779,35.594,117.626,34.146
						C267.35,163.634,336.7,207.252,336.7,205.372c0-1.782,14.537-3.594,33.208-14.308C396,176.093,431.428,152.92,457.689,169.193"
						/>
					<path clip-path="url(#SVGID_48_)" fill="#724A2D" d="M443.025,166.755c18.438,1.46,15.102,2.809,15.479,5.926
						c5.023,41.542,4.399,99.308-44.328,114.531c-7.785,2.432-17.709,5.368-28.373,18.866c-4.017,5.084-5.989,5.59-7.44,9.166
						c-2.855,7.034-7.624,22.072-4.079,43.384c4.441,3.392,10.993,9.091,17.123,19.629c4.208,7.234,3.638,15.232,1.611,21.125
						c-8.801,25.61-45.878,16.703-45.878,16.703s31.394,56.283,20.704,91.677c-3.078,10.193-10.691,17.799-23.798,24.504
						c0,0-10.693-66.438-17.721-76.334C258.4,360.269,370.171,174.14,443.025,166.755"/>
					<path clip-path="url(#SVGID_48_)" fill="#F9AF8A" d="M435.957,179.807c0,0-54.782,29.395-62.799,88.185
						c-8.019,58.791,66.139-3.34,74.824-12.025c8.685-8.685,12.024-76.16,0-76.16"/>
					<path clip-path="url(#SVGID_48_)" fill="#724A2D" d="M276.343,542.048c0,0-30.6-3.496-39.7-21.502
						c-10-19.785-19.168-57.408-19.168-57.408c-20.843-3.789-48.812-4.604-53.686-20.526c-3.897-12.731-7.354-19.026-6.041-41.119
						c1.584-11.16,0.732-20.191-0.688-25.529c-5.467-20.537-26.953-22.954-29.553-23.975c-20.915-8.221-18.457-13.551-52.021-25.205
						C17.957,306.807-2.355,247.22,3.399,236.405c5.811-10.921,19.348-51.142,38.685-51.142c9.274,0,79.083,50.556,107.121,82.061
						c47.431,53.296,66.863,58.643,90.775,120.281C263.894,449.243,276.343,542.048,276.343,542.048"/>
					<path clip-path="url(#SVGID_48_)" fill="#F4866C" d="M348.137,524.874c1.057,8.561-1.554,21.547-7.102,27.32
						c-9.634,10.026-24.575,5.896-24.575,5.896c-3.934,9.832-29.602,6.354-36.163-2.721c-6.954-9.617-7.948-17.728-10.38-22.307
						c-1.067-2.013,4.231-6.429,6.38-7.185c9.773-3.44,45.908-15.813,57.86-14.984C345.67,511.694,346.494,511.565,348.137,524.874"
						/>
					<path clip-path="url(#SVGID_48_)" fill="#F9AF8A" d="M127.309,309.413c-37.412-76.16-69.479-101.547-85.514-101.547
						S7.056,241.27,16.408,258.64c9.353,17.369,12.025,33.403,45.429,50.773c33.404,17.37,66.808,17.37,73.488,17.37
						C142.005,326.783,127.309,309.413,127.309,309.413"/>
					<path clip-path="url(#SVGID_48_)" fill="#EDEDED" d="M374.221,363.872c0,0-33.112-4.358-29.08,45.592
						c0.649,8.058,43.201,7.996,45.025-7.993C392.535,380.716,390.166,377.341,374.221,363.872"/>
					<path clip-path="url(#SVGID_48_)" fill="#B1C9E0" d="M374.221,363.872c0,0-8.057-0.274-7.115,0.667
						c1.193,1.194,4.763,4.107,15.615,10.987c6.652,4.216,5.539,31.875,6.113,30.14
						C397.595,379.257,388.055,375.719,374.221,363.872"/>
					<path clip-path="url(#SVGID_48_)" fill="#FFFFFF" d="M185.477,398.056c23.253,0,36.376,33.709,36.376,33.709
						s8.267,24.161-9.921,24.161s-45.745-6.612-45.745-15.981C166.187,430.574,165.636,398.056,185.477,398.056"/>
				</g>
				<g>
					<defs>
						<polygon id="SVGID_49_" points="999,740.455 0,738.662 0,0.959 999,1 						"/>
					</defs>
					<clipPath id="SVGID_50_">
						<use xlink:href="#SVGID_49_"  overflow="visible"/>
					</clipPath>
					<g clip-path="url(#SVGID_50_)">
						<g>
							<defs>
								<path id="SVGID_51_" d="M374.221,363.872c15.945,13.47,18.314,16.845,15.945,37.599
									c-1.824,15.99-44.375,16.052-45.025,7.994c-3.434-42.53,20.062-45.688,27.118-45.688
									C373.49,363.776,374.221,363.872,374.221,363.872"/>
							</defs>
							<clipPath id="SVGID_52_">
								<use xlink:href="#SVGID_51_"  overflow="visible"/>
							</clipPath>
							<path clip-path="url(#SVGID_52_)" fill="#BF692E" d="M341.713,393.373c0,12.313,5.82,22.299,19.613,22.299
								s21.172-9.984,21.172-22.299c0-12.316-7.379-22.3-21.172-22.3S341.713,381.056,341.713,393.373"/>
						</g>
						<g>
							<defs>
								<polygon id="SVGID_53_" points="999,740.455 0,738.662 0,0.959 999,1 								"/>
							</defs>
							<clipPath id="SVGID_54_">
								<use xlink:href="#SVGID_53_"  overflow="visible"/>
							</clipPath>
							<g clip-path="url(#SVGID_54_)">
								<g>
									<defs>
										<polygon id="SVGID_55_" points="999,-0.793 0,43.207 0,738.662 999,738.662 										"/>
									</defs>
									<defs>
										<polygon id="SVGID_56_" points="999,-0.793 0,43.207 0,738.662 999,738.662 										"/>
									</defs>
									<clipPath id="SVGID_57_">
										<use xlink:href="#SVGID_55_"  overflow="visible"/>
									</clipPath>
									<clipPath id="SVGID_58_" clip-path="url(#SVGID_57_)">
										<use xlink:href="#SVGID_56_"  overflow="visible"/>
									</clipPath>
									<path clip-path="url(#SVGID_58_)" fill="#262525" d="M347.99,394.042c0,8.695,6.045,15.744,13.502,15.744
										s13.502-7.049,13.502-15.744c0-8.696-6.045-15.745-13.502-15.745S347.99,385.346,347.99,394.042"/>
									<g clip-path="url(#SVGID_58_)">
										<g opacity="0.51">
											<g>
												<defs>
													<rect id="SVGID_59_" x="344.45" y="364.267" width="22.79" height="49.725"/>
												</defs>
												<clipPath id="SVGID_60_">
													<use xlink:href="#SVGID_59_"  overflow="visible"/>
												</clipPath>
												<path clip-path="url(#SVGID_60_)" d="M367.24,364.267c-4.787,7.909-7.43,14.844-8.972,19.84
													c0,0-1.935,6.273-5.438,29.885c-5.639-1.058-8.382-2.18-8.071-9.918c-1.293-11.494,1.235-27.088,11.833-34.997
													C358.574,367.599,362.106,365.274,367.24,364.267"/>
											</g>
										</g>
										<g>
											<defs>
												<polygon id="SVGID_61_" points="999,-0.793 0,43.207 0,738.662 999,738.662 												"/>
											</defs>
											<clipPath id="SVGID_62_">
												<use xlink:href="#SVGID_61_"  overflow="visible"/>
											</clipPath>
											<path clip-path="url(#SVGID_62_)" fill="#F2F1F0" d="M365.738,380.771c0,0,6.743,4.912,6.969,13.271l-2.732,0.396
												C369.975,394.439,367.779,381.439,365.738,380.771"/>
										</g>
										<g>
											<defs>
												<polygon id="SVGID_63_" points="999,740.455 0,738.662 0,0.959 999,1 												"/>
											</defs>
											<clipPath id="SVGID_64_">
												<use xlink:href="#SVGID_63_"  overflow="visible"/>
											</clipPath>
											<g clip-path="url(#SVGID_64_)">
												<g>
													<defs>
														<path id="SVGID_65_" d="M221.853,431.766c0,0,8.268,24.161-9.92,24.161s-45.746-6.614-45.746-15.981
															c0-9.37-0.551-41.889,19.29-41.889C208.73,398.056,221.853,431.766,221.853,431.766"/>
													</defs>
													<clipPath id="SVGID_66_">
														<use xlink:href="#SVGID_65_"  overflow="visible"/>
													</clipPath>
													<path clip-path="url(#SVGID_66_)" fill="#BF692E" d="M172.664,427.061c-2.349,12.979,5.938,25.344,18.509,27.618
														c12.57,2.275,24.666-6.399,27.015-19.376s-5.937-25.342-18.508-27.619C187.108,405.41,175.014,414.083,172.664,427.061
														"/>
												</g>
												<g>
													<defs>
														<polygon id="SVGID_67_" points="999,740.455 0,738.662 0,0.959 999,1 														"/>
													</defs>
													<clipPath id="SVGID_68_">
														<use xlink:href="#SVGID_67_"  overflow="visible"/>
													</clipPath>
													<g clip-path="url(#SVGID_68_)">
														<g id="Layer_1_1_">
															<defs>
																<polygon id="SVGID_69_" points="999,1 0,0.959 0,738.662 999,740.455 																"/>
															</defs>
															<defs>
																<polygon id="SVGID_70_" points="999,1 0,0.959 0,738.662 999,740.455 																"/>
															</defs>
															<clipPath id="SVGID_71_">
																<use xlink:href="#SVGID_69_"  overflow="visible"/>
															</clipPath>
															<clipPath id="SVGID_72_" clip-path="url(#SVGID_71_)">
																<use xlink:href="#SVGID_70_"  overflow="visible"/>
															</clipPath>
															<path clip-path="url(#SVGID_72_)" fill="#262525" d="M179.026,427.502c-2.25,9.11,2.996,18.243,11.718,20.397
																c8.722,2.153,17.617-3.484,19.868-12.596c2.25-9.11-2.996-18.243-11.718-20.396
																C190.172,412.752,181.277,418.393,179.026,427.502"/>
															<g clip-path="url(#SVGID_72_)">
																<g opacity="0.35">
																	<g>
																		<defs>
																			<rect id="SVGID_73_" x="183.005" y="398.119" width="41.228" height="56.873"/>
																		</defs>
																		<clipPath id="SVGID_74_">
																			<use xlink:href="#SVGID_73_"  overflow="visible"/>
																		</clipPath>
																		<path clip-path="url(#SVGID_74_)" d="M217.322,454.991c-4.387-7.324-4.551-32.284-13.335-41.228
																			c-6.471-6.587-15.34-11.556-20.983-15.525c6.111-0.463,9.059,0.45,13.485,2.432
																			c6.492,2.906,12.04,7.812,18.759,18.172C220.052,426.252,231.626,447.927,217.322,454.991"/>
																	</g>
																</g>
																<g>
																	<defs>
																		<polygon id="SVGID_75_" points="1000,-82.793 0,-82.793 0,738.662 999,740.455 																		"/>
																	</defs>
																	<defs>
																		<polygon id="SVGID_76_" points="1000,-82.793 0,-82.793 0,738.662 999,740.455 																		"/>
																	</defs>
																	<defs>
																		<polygon id="SVGID_77_" points="999,1 0,0.959 0,738.662 999,740.455 																		"/>
																	</defs>
																	<defs>
																		<polygon id="SVGID_78_" points="999,1 0,0.959 0,738.662 998,738.662 																		"/>
																	</defs>
																	<defs>
																		<polygon id="SVGID_79_" points="999,1 0,0.959 0,738.662 999,738.455 																		"/>
																	</defs>
																	<defs>
																		<polygon id="SVGID_80_" points="999,1 0,0.959 0,738.662 999,739.455 																		"/>
																	</defs>
																	<defs>
																		<polygon id="SVGID_81_" points="999,1 0,0.959 0,738.662 999,740.455 																		"/>
																	</defs>
																	<defs>
																		<polygon id="SVGID_82_" points="999,1 0,0.959 0,738.662 999,740.455 																		"/>
																	</defs>
																	<defs>
																		<polygon id="SVGID_83_" points="999,1 0,0.959 0,738.662 999,740.455 																		"/>
																	</defs>
																	<defs>
																		<polygon id="SVGID_84_" points="999,1 0,0.959 0,738.662 999,740.455 																		"/>
																	</defs>
																	<clipPath id="SVGID_85_">
																		<use xlink:href="#SVGID_75_"  overflow="visible"/>
																	</clipPath>
																	<clipPath id="SVGID_86_" clip-path="url(#SVGID_85_)">
																		<use xlink:href="#SVGID_76_"  overflow="visible"/>
																	</clipPath>
																	<clipPath id="SVGID_87_" clip-path="url(#SVGID_86_)">
																		<use xlink:href="#SVGID_77_"  overflow="visible"/>
																	</clipPath>
																	<clipPath id="SVGID_88_" clip-path="url(#SVGID_87_)">
																		<use xlink:href="#SVGID_78_"  overflow="visible"/>
																	</clipPath>
																	<clipPath id="SVGID_89_" clip-path="url(#SVGID_88_)">
																		<use xlink:href="#SVGID_79_"  overflow="visible"/>
																	</clipPath>
																	<clipPath id="SVGID_90_" clip-path="url(#SVGID_89_)">
																		<use xlink:href="#SVGID_80_"  overflow="visible"/>
																	</clipPath>
																	<clipPath id="SVGID_91_" clip-path="url(#SVGID_90_)">
																		<use xlink:href="#SVGID_81_"  overflow="visible"/>
																	</clipPath>
																	<clipPath id="SVGID_92_" clip-path="url(#SVGID_91_)">
																		<use xlink:href="#SVGID_82_"  overflow="visible"/>
																	</clipPath>
																	<clipPath id="SVGID_93_" clip-path="url(#SVGID_92_)">
																		<use xlink:href="#SVGID_83_"  overflow="visible"/>
																	</clipPath>
																	<clipPath id="SVGID_94_" clip-path="url(#SVGID_93_)">
																		<use xlink:href="#SVGID_84_"  overflow="visible"/>
																	</clipPath>
																	<path clip-path="url(#SVGID_94_)" fill="#B1C9E0" d="M178.442,399.734L178.442,399.734
																		c0,0-3.879,4.034-7.055,19.186c-3.408,16.262-3.019,26.11-3.019,26.11s0.715,0.121,0-0.595
																		c-0.716-0.715-2.335-1.538-2.191-7.284c0.143-5.723-0.319-24.248,7.279-33.083
																		C176.878,400.093,178.442,399.734,178.442,399.734"/>
																	<path clip-path="url(#SVGID_94_)" fill="#FFFFFF" d="M185.471,421.455c-0.567,1.027-2.621,6.106-2.337,9.615
																		c0.227,2.819,0.701,4.921,1.337,5.906c-1.62,0.205-1.222,0.019-2.843,0.224
																		C181.628,437.2,178.149,426.029,185.471,421.455"/>
																	<path clip-path="url(#SVGID_94_)" fill="#E59D6E" d="M447.982,179.22c19.606,29-56.188,57.751-60.957,113.491
																		c0,0-38.566,1.984-3.105-59.222c15.637-26.987,37.641-47.269,52.037-54.269H447.982z"/>
																	<path clip-path="url(#SVGID_94_)" fill="#E59D6E" d="M136.19,327.647c-11.02-19.759-30.027-47.888-61.227-73.52
																		c-17.898-14.703-37.464-25.623-52.147-32.782c4.411-5.532,6.421-7.682,8.475-9.335
																		c5.156-4.145,10.505-4.145,10.505-4.145s15.791-4.23,47.315,37.088
																		C110.151,272.529,137.932,318.378,136.19,327.647"/>
																	<path clip-path="url(#SVGID_94_)" fill="#E07070" d="M395.099,577.571c0,0,6.306,2.311,6.306,10.806
																		c0,8.498-18.438,14.457-18.438,14.457s14.666-21.159-10.476-21.579L395.099,577.571z"/>
																	<path clip-path="url(#SVGID_94_)" fill="#F7937C" d="M382.076,604.625l0.888-6.988c0,0-20.13,0.73-16.521-9.315
																		c0.928-2.58-0.513-7.065,11.239-7.065C389.433,581.255,397.06,591.992,382.076,604.625"/>
																	<path clip-path="url(#SVGID_94_)" fill="#D88282" d="M342.78,584.572c-8.662,8.426-4.847,20.987-4.847,20.987
																		s-2.721-3.354,4.208-6.309c6.93-2.955,15.891-3.875,15.891-3.875s11.146-20.741-12.522-11.969"/>
																	<path clip-path="url(#SVGID_94_)" fill="#E07070" d="M375.532,589.188c0,0-3.433-10.406-13.376-7.214
																		c-9.944,3.192-9.712,16.124-2.899,16.448c3.285,0.156,3.299,6.756,3.299,6.756
																		c3.561-4.092,2.464-5.479,6.418-6.979C372.927,596.697,375.532,595.316,375.532,589.188"/>
																	<path clip-path="url(#SVGID_94_)" fill="#C96F3D" d="M345.43,513.849c0,0-2.021-2.955-11.271-2.955
																		s4.365,42.38,6.878,41.304C344.998,550.497,351.558,530.925,345.43,513.849"/>
																	<path clip-path="url(#SVGID_94_)" fill="#C96F3D" d="M295.312,563.198c0,0-4.326-35.334-11.015-37.32
																		c-9.876-2.93-14.381,5.865-14.381,5.865S276.183,561.442,295.312,563.198"/>
																</g>
															</g>
														</g>
													</g>
												</g>
											</g>
										</g>
									</g>
								</g>
							</g>
						</g>
					</g>
				</g>
			</g>
		</g>
	</g>
</g>
<line fill="none" x1="62" y1="740.5" x2="476" y2="740.5"/>
</svg>
